<svg width="20" height="20" viewBox="0 0 20 20" fill="none" xmlns="http://www.w3.org/2000/svg">
<g clip-path="url(#clip0_9395_4830)">
<path d="M6.29541 0.0476074L6.3073 0.0571903C6.30481 0.0948893 6.09941 0.284059 6.06513 0.318379C5.65802 0.725863 5.31366 1.13173 4.96844 1.59176C4.37151 2.38723 3.99948 3.32474 3.79736 4.29298C3.72011 4.66311 3.66495 5.03064 3.65456 5.40901C3.62848 6.15229 3.70996 6.89545 3.89649 7.61542C3.93673 7.76553 3.98893 7.91347 4.03594 8.06163C4.42093 9.27468 5.02431 10.3246 5.82067 11.3158C5.97192 11.5041 6.13719 11.6804 6.29397 11.8639C6.63823 12.2681 6.97863 12.6755 7.31514 13.0861C8.11856 14.0789 8.83568 15.1258 9.34523 16.3011C9.62997 16.9581 9.8467 17.609 9.94738 18.3196C9.74403 18.3051 9.5394 18.3185 9.33563 18.3035C8.47241 18.2443 7.61843 18.0895 6.78933 17.8421C6.73997 17.8185 6.67915 17.8042 6.62711 17.7864C6.51724 17.7487 6.40769 17.7102 6.29845 17.6708C5.98219 17.5562 5.67163 17.4265 5.36787 17.2821C3.49629 16.3892 1.96894 14.9075 1.01969 13.0639C0.888323 12.8133 0.785318 12.5626 0.68282 12.2994C0.369042 11.4937 0.142545 10.6532 0.0617682 9.79002C0.0426473 9.58571 0.0454387 9.37967 0.0398398 9.17474C0.0369155 9.06771 0.0236738 8.96003 0.0255768 8.85307C0.0274037 8.75042 0.0377837 8.64799 0.040301 8.54532C0.0458885 8.31743 0.0395376 8.0871 0.0561258 7.85969C0.101805 7.23349 0.247438 6.60181 0.434526 6.00328C1.14414 3.78299 2.66688 1.91303 4.69739 0.768376C5.03775 0.579976 5.38877 0.411496 5.74866 0.263787C5.92344 0.192211 6.11818 0.142355 6.28441 0.0536581C6.28811 0.0516889 6.29175 0.0496243 6.29541 0.0476074Z" fill="white"/>
<path d="M14.6728 2.9353L14.6845 2.94735C14.6856 3.02216 14.6541 3.10957 14.6398 3.18363C14.579 3.49592 14.5219 3.79593 14.4131 4.09648C14.1195 4.92729 13.5968 5.65814 12.9056 6.20469C12.6078 6.44465 12.281 6.63563 11.9747 6.86236C11.3461 7.33679 10.8771 7.99153 10.63 8.73933C10.2376 9.89205 10.3199 11.471 10.6095 12.6408C10.752 13.2164 10.9665 13.7942 11.2046 14.3363C11.4584 14.9143 11.7815 15.4574 12.0608 16.0228C12.5834 17.0811 12.847 18.0651 12.8012 19.25C12.7933 19.4545 12.7794 19.7834 12.716 19.9704C12.7081 19.4585 12.5839 18.9824 12.3938 18.5099C12.3347 18.363 12.2782 18.2125 12.2088 18.0701C11.7462 17.1203 11.0351 16.3178 10.4242 15.4644C10.1198 15.0392 9.85578 14.587 9.60037 14.1313C9.05606 13.0716 8.66563 11.9452 8.56522 10.7519C8.52331 10.2541 8.54297 9.75671 8.47392 9.26038C8.36168 8.45668 7.98739 7.71246 7.4091 7.14315C7.33511 7.06988 7.26201 6.99336 7.18103 6.92784C7.08457 6.8498 6.97435 6.78567 6.87009 6.71855C6.73487 6.63152 6.6044 6.54287 6.47647 6.44541C5.3402 5.57977 4.61117 4.50935 4.41797 3.07982C4.47739 3.16968 4.52033 3.27354 4.57061 3.36916C4.64483 3.50998 4.72557 3.64729 4.81253 3.78062C5.32989 4.58018 6.09033 5.26158 6.95959 5.65645C8.09758 6.17484 9.36523 6.33879 10.5977 6.12694C10.9285 6.07168 11.246 6.00078 11.5606 5.88226C11.7395 5.81483 11.9211 5.74627 12.0943 5.6652C13.0816 5.21386 13.8951 4.45352 14.4121 3.49901C14.5123 3.31565 14.5866 3.12491 14.6728 2.9353Z" fill="white"/>
<path d="M9.36235 2.32286C10.1932 2.23806 10.9351 2.84389 11.0181 3.67497C11.1012 4.50606 10.4937 5.24665 9.66244 5.32783C8.83375 5.40876 8.09595 4.80358 8.0132 3.97507C7.93046 3.14655 8.53402 2.40742 9.36235 2.32286Z" fill="white"/>
<path d="M11.4661 13.3978C11.4251 13.2036 11.4156 13.0021 11.3946 12.805C11.3767 12.637 11.3526 12.4678 11.3421 12.2992C11.2952 11.5438 11.3489 10.7526 11.5406 10.0189C11.7922 9.03953 12.278 8.13588 12.9563 7.38581C13.0454 7.28644 13.1331 7.18155 13.2295 7.08913C13.6346 6.70076 14.0703 6.39375 14.553 6.11106C15.1334 5.77121 15.7846 5.51275 16.43 5.32811C17.3381 5.06836 19.0807 4.82439 20 5.06449V5.13483C19.9589 5.20662 19.9576 5.43524 19.9483 5.52787C19.9155 5.82179 19.869 6.11402 19.8088 6.40358C19.7258 6.81425 19.6028 7.21522 19.4657 7.61055C19.3946 7.8158 19.3268 8.02301 19.2447 8.22421C18.921 8.99806 18.5047 9.7298 18.0048 10.4034C17.9034 10.5398 17.7885 10.6673 17.6761 10.7947C17.3832 11.1267 17.0843 11.4271 16.7439 11.7109C16.5269 11.8919 16.3073 12.0696 16.0744 12.2301C14.8989 13.0396 13.5115 13.5133 12.1063 13.7192C12.1227 13.6527 12.1395 13.5862 12.1566 13.5198C12.2522 13.1506 12.392 12.7976 12.5279 12.4422C12.5744 12.3206 12.6161 12.197 12.666 12.0767C13.2759 10.6047 14.1815 9.31412 15.4103 8.29559C15.7129 8.04475 16.0229 7.807 16.357 7.59892C16.5862 7.45622 16.8176 7.31248 17.0547 7.18358C17.3277 7.03524 17.6108 6.90082 17.8897 6.76384C18.113 6.65413 18.3482 6.57446 18.5633 6.44771C18.4124 6.47689 18.1536 6.58255 17.9933 6.63564C16.9276 6.98847 16.0645 7.38236 15.1319 8.0127C13.6099 9.04144 12.472 10.6109 11.8128 12.3122C11.6748 12.6686 11.5388 13.0215 11.4661 13.3978Z" fill="white"/>
</g>
<defs>
<clipPath id="clip0_9395_4830">
<rect width="20" height="20" fill="white"/>
</clipPath>
</defs>
</svg>
