<svg width="20" height="20" viewBox="0 0 20 20" fill="none" xmlns="http://www.w3.org/2000/svg">
<g clip-path="url(#clip0_9965_992)">
<path d="M6.29541 0.0478516L6.3073 0.0574345C6.30481 0.0951334 6.09941 0.284303 6.06513 0.318624C5.65802 0.726107 5.31366 1.13197 4.96844 1.592C4.37151 2.38748 3.99948 3.32499 3.79736 4.29322C3.72011 4.66336 3.66495 5.03089 3.65456 5.40926C3.62848 6.15254 3.70996 6.89569 3.89649 7.61566C3.93673 7.76578 3.98893 7.91372 4.03594 8.06187C4.42093 9.27492 5.02431 10.3248 5.82067 11.316C5.97192 11.5043 6.13719 11.6807 6.29397 11.8642C6.63823 12.2684 6.97863 12.6757 7.31514 13.0864C8.11856 14.0791 8.83568 15.126 9.34523 16.3014C9.62997 16.9583 9.8467 17.6092 9.94738 18.3199C9.74403 18.3053 9.5394 18.3188 9.33563 18.3037C8.47241 18.2446 7.61843 18.0898 6.78933 17.8423C6.73997 17.8188 6.67915 17.8044 6.62711 17.7866C6.51724 17.749 6.40769 17.7105 6.29845 17.671C5.98219 17.5565 5.67163 17.4268 5.36787 17.2824C3.49629 16.3895 1.96894 14.9077 1.01969 13.0642C0.888323 12.8135 0.785318 12.5628 0.68282 12.2996C0.369042 11.494 0.142545 10.6534 0.0617682 9.79026C0.0426473 9.58595 0.0454387 9.37992 0.0398398 9.17499C0.0369155 9.06796 0.0236738 8.96027 0.0255768 8.85332C0.0274037 8.75066 0.0377837 8.64823 0.040301 8.54556C0.0458885 8.31767 0.0395376 8.08734 0.0561258 7.85994C0.101805 7.23374 0.247438 6.60206 0.434526 6.00352C1.14414 3.78323 2.66688 1.91327 4.69739 0.76862C5.03775 0.58022 5.38877 0.41174 5.74866 0.264031C5.92344 0.192455 6.11818 0.142599 6.28441 0.0539022C6.28811 0.051933 6.29175 0.0498685 6.29541 0.0478516Z" fill="#FFD322"/>
<path d="M14.6728 2.93555L14.6845 2.9476C14.6856 3.0224 14.6541 3.10981 14.6398 3.18388C14.579 3.49616 14.5219 3.79617 14.4131 4.09673C14.1195 4.92754 13.5968 5.65839 12.9056 6.20493C12.6078 6.44489 12.281 6.63588 11.9747 6.86261C11.3461 7.33703 10.8771 7.99178 10.63 8.73957C10.2376 9.8923 10.3199 11.4712 10.6095 12.641C10.752 13.2166 10.9665 13.7944 11.2046 14.3365C11.4584 14.9146 11.7815 15.4576 12.0608 16.0231C12.5834 17.0814 12.847 18.0653 12.8012 19.2502C12.7933 19.4548 12.7794 19.7836 12.716 19.9706C12.7081 19.4587 12.5839 18.9826 12.3938 18.5102C12.3347 18.3633 12.2782 18.2127 12.2088 18.0703C11.7462 17.1205 11.0351 16.3181 10.4242 15.4647C10.1198 15.0395 9.85578 14.5872 9.60037 14.1316C9.05606 13.0719 8.66563 11.9454 8.56522 10.7522C8.52331 10.2543 8.54297 9.75695 8.47392 9.26062C8.36168 8.45692 7.98739 7.71271 7.4091 7.1434C7.33511 7.07013 7.26201 6.9936 7.18103 6.92809C7.08457 6.85005 6.97435 6.78592 6.87009 6.7188C6.73487 6.63177 6.6044 6.54311 6.47647 6.44565C5.3402 5.58001 4.61117 4.50959 4.41797 3.08007C4.47739 3.16992 4.52033 3.27379 4.57061 3.3694C4.64483 3.51022 4.72557 3.64753 4.81253 3.78086C5.32989 4.58042 6.09033 5.26183 6.95959 5.65669C8.09758 6.17509 9.36523 6.33903 10.5977 6.12719C10.9285 6.07192 11.246 6.00103 11.5606 5.8825C11.7395 5.81508 11.9211 5.74651 12.0943 5.66544C13.0816 5.2141 13.8951 4.45376 14.4121 3.49926C14.5123 3.3159 14.5866 3.12516 14.6728 2.93555Z" fill="#FFD322"/>
<path d="M9.3626 2.32237C10.1935 2.23757 10.9354 2.8434 11.0184 3.67448C11.1014 4.50557 10.494 5.24616 9.66268 5.32734C8.83399 5.40827 8.09619 4.8031 8.01345 3.97458C7.9307 3.14607 8.53427 2.40693 9.3626 2.32237Z" fill="#FFD322"/>
<path d="M11.4661 13.3973C11.4251 13.2031 11.4156 13.0016 11.3946 12.8045C11.3767 12.6365 11.3526 12.4673 11.3421 12.2987C11.2952 11.5433 11.3489 10.7522 11.5406 10.0185C11.7922 9.03905 12.278 8.13539 12.9563 7.38532C13.0454 7.28595 13.1331 7.18106 13.2295 7.08864C13.6346 6.70027 14.0703 6.39327 14.553 6.11057C15.1334 5.77073 15.7846 5.51226 16.43 5.32762C17.3381 5.06788 19.0807 4.8239 20 5.064V5.13434C19.9589 5.20613 19.9576 5.43475 19.9483 5.52738C19.9155 5.8213 19.869 6.11353 19.8088 6.40309C19.7258 6.81376 19.6028 7.21473 19.4657 7.61006C19.3946 7.81531 19.3268 8.02252 19.2447 8.22372C18.921 8.99757 18.5047 9.72931 18.0048 10.4029C17.9034 10.5394 17.7885 10.6668 17.6761 10.7942C17.3832 11.1262 17.0843 11.4266 16.7439 11.7105C16.5269 11.8914 16.3073 12.0691 16.0744 12.2296C14.8989 13.0391 13.5115 13.5128 12.1063 13.7188C12.1227 13.6522 12.1395 13.5857 12.1566 13.5193C12.2522 13.1501 12.392 12.7971 12.5279 12.4417C12.5744 12.3201 12.6161 12.1965 12.666 12.0762C13.2759 10.6042 14.1815 9.31363 15.4103 8.2951C15.7129 8.04426 16.0229 7.80651 16.357 7.59843C16.5862 7.45573 16.8176 7.312 17.0547 7.18309C17.3277 7.03475 17.6108 6.90034 17.8897 6.76335C18.113 6.65365 18.3482 6.57397 18.5633 6.44722C18.4124 6.4764 18.1536 6.58206 17.9933 6.63515C16.9276 6.98798 16.0645 7.38187 15.1319 8.01221C13.6099 9.04095 12.472 10.6105 11.8128 12.3117C11.6748 12.6681 11.5388 13.021 11.4661 13.3973Z" fill="#FFD322"/>
</g>
<defs>
<clipPath id="clip0_9965_992">
<rect width="20" height="20" fill="white"/>
</clipPath>
</defs>
</svg>
