<svg width="20" height="20" viewBox="0 0 20 20" fill="none" xmlns="http://www.w3.org/2000/svg">
<g clip-path="url(#clip0_9395_4079)">
<path d="M6.29565 0.0476074L6.30754 0.0571903C6.30505 0.0948893 6.09966 0.284059 6.06537 0.318379C5.65826 0.725863 5.31391 1.13173 4.96868 1.59176C4.37176 2.38723 3.99973 3.32474 3.79761 4.29298C3.72035 4.66311 3.6652 5.03064 3.65481 5.40901C3.62872 6.15229 3.71021 6.89545 3.89674 7.61542C3.93697 7.76553 3.98917 7.91347 4.03618 8.06163C4.42117 9.27468 5.02455 10.3246 5.82092 11.3158C5.97217 11.5041 6.13743 11.6804 6.29421 11.8639C6.63848 12.2681 6.97888 12.6755 7.31538 13.0861C8.1188 14.0789 8.83593 15.1258 9.34547 16.3011C9.63022 16.9581 9.84694 17.609 9.94763 18.3196C9.74428 18.3051 9.53964 18.3185 9.33587 18.3035C8.47266 18.2443 7.61867 18.0895 6.78957 17.8421C6.74022 17.8185 6.6794 17.8042 6.62735 17.7864C6.51748 17.7487 6.40793 17.7102 6.29869 17.6708C5.98243 17.5562 5.67188 17.4265 5.36812 17.2821C3.49653 16.3892 1.96918 14.9075 1.01993 13.0639C0.888568 12.8133 0.785562 12.5626 0.683065 12.2994C0.369286 11.4937 0.142789 10.6532 0.0620123 9.79002C0.0428914 9.58571 0.0456828 9.37967 0.040084 9.17474C0.0371597 9.06771 0.023918 8.96003 0.025821 8.85307C0.0276478 8.75042 0.0380278 8.64799 0.0405451 8.54532C0.0461326 8.31743 0.0397817 8.0871 0.0563699 7.85969C0.102049 7.23349 0.247682 6.60181 0.43477 6.00328C1.14438 3.78299 2.66712 1.91303 4.69764 0.768376C5.038 0.579976 5.38901 0.411496 5.74891 0.263787C5.92368 0.192211 6.11843 0.142355 6.28466 0.0536581C6.28835 0.0516889 6.29199 0.0496243 6.29565 0.0476074Z" fill="#4CAE47"/>
<path d="M14.6725 2.9353L14.6842 2.94735C14.6853 3.02216 14.6538 3.10957 14.6395 3.18363C14.5787 3.49592 14.5216 3.79593 14.4128 4.09648C14.1191 4.92729 13.5965 5.65814 12.9053 6.20469C12.6075 6.44465 12.2807 6.63563 11.9744 6.86236C11.3458 7.33679 10.8768 7.99153 10.6297 8.73933C10.2373 9.89205 10.3196 11.471 10.6092 12.6408C10.7517 13.2164 10.9662 13.7942 11.2043 14.3363C11.4581 14.9143 11.7812 15.4574 12.0605 16.0228C12.5831 17.0811 12.8467 18.0651 12.8009 19.25C12.793 19.4545 12.7791 19.7834 12.7157 19.9704C12.7078 19.4585 12.5836 18.9824 12.3935 18.5099C12.3344 18.363 12.2779 18.2125 12.2085 18.0701C11.7459 17.1203 11.0348 16.3178 10.4239 15.4644C10.1195 15.0392 9.85548 14.587 9.60007 14.1313C9.05576 13.0716 8.66533 11.9452 8.56491 10.7519C8.52301 10.2541 8.54266 9.75671 8.47361 9.26038C8.36137 8.45668 7.98709 7.71246 7.4088 7.14315C7.3348 7.06988 7.26171 6.99336 7.18072 6.92784C7.08426 6.8498 6.97404 6.78567 6.86978 6.71855C6.73457 6.63152 6.6041 6.54287 6.47617 6.44541C5.3399 5.57977 4.61087 4.50935 4.41766 3.07982C4.47709 3.16968 4.52003 3.27354 4.5703 3.36916C4.64453 3.50998 4.72526 3.64729 4.81222 3.78062C5.32959 4.58018 6.09003 5.26158 6.95928 5.65645C8.09727 6.17484 9.36493 6.33879 10.5974 6.12694C10.9282 6.07168 11.2457 6.00078 11.5603 5.88226C11.7392 5.81483 11.9208 5.74627 12.094 5.6652C13.0813 5.21386 13.8948 4.45352 14.4118 3.49901C14.512 3.31565 14.5863 3.12491 14.6725 2.9353Z" fill="#4CAE47"/>
<path d="M9.36247 2.32286C10.1934 2.23806 10.9353 2.84389 11.0183 3.67497C11.1013 4.50606 10.4939 5.24665 9.66256 5.32783C8.83387 5.40876 8.09607 4.80358 8.01332 3.97507C7.93058 3.14655 8.53414 2.40742 9.36247 2.32286Z" fill="#4CAE47"/>
<path d="M11.4661 13.3978C11.4251 13.2036 11.4156 13.0021 11.3946 12.805C11.3767 12.637 11.3526 12.4678 11.3421 12.2992C11.2952 11.5438 11.3489 10.7526 11.5406 10.0189C11.7922 9.03953 12.278 8.13588 12.9563 7.38581C13.0454 7.28644 13.1331 7.18155 13.2295 7.08913C13.6346 6.70076 14.0703 6.39375 14.553 6.11106C15.1334 5.77121 15.7846 5.51275 16.43 5.32811C17.3381 5.06836 19.0807 4.82439 20 5.06449V5.13483C19.9589 5.20662 19.9576 5.43524 19.9483 5.52787C19.9155 5.82179 19.869 6.11402 19.8088 6.40358C19.7258 6.81425 19.6028 7.21522 19.4657 7.61055C19.3946 7.8158 19.3268 8.02301 19.2447 8.22421C18.921 8.99806 18.5047 9.7298 18.0048 10.4034C17.9034 10.5398 17.7885 10.6673 17.6761 10.7947C17.3832 11.1267 17.0843 11.4271 16.7439 11.7109C16.5269 11.8919 16.3073 12.0696 16.0744 12.2301C14.8989 13.0396 13.5115 13.5133 12.1063 13.7192C12.1227 13.6527 12.1395 13.5862 12.1566 13.5198C12.2522 13.1506 12.392 12.7976 12.5279 12.4422C12.5744 12.3206 12.6161 12.197 12.666 12.0767C13.2759 10.6047 14.1815 9.31412 15.4103 8.29559C15.7129 8.04475 16.0229 7.807 16.357 7.59892C16.5862 7.45622 16.8176 7.31248 17.0547 7.18358C17.3277 7.03524 17.6108 6.90082 17.8897 6.76384C18.113 6.65413 18.3482 6.57446 18.5633 6.44771C18.4124 6.47689 18.1536 6.58255 17.9933 6.63564C16.9276 6.98847 16.0645 7.38236 15.1319 8.0127C13.6099 9.04144 12.472 10.6109 11.8128 12.3122C11.6748 12.6686 11.5388 13.0215 11.4661 13.3978Z" fill="#4CAE47"/>
</g>
<defs>
<clipPath id="clip0_9395_4079">
<rect width="20" height="20" fill="white"/>
</clipPath>
</defs>
</svg>
