<svg width="40" height="41" viewBox="0 0 40 41" fill="none" xmlns="http://www.w3.org/2000/svg">
<path d="M20.0342 22.3512C15.1963 22.3512 11.3121 18.467 11.3121 13.6285C11.3121 8.79059 15.1963 4.90638 20.0342 4.90638C24.8728 4.90638 28.7564 8.79059 28.7564 13.6285C28.7564 18.467 24.8728 22.3512 20.0342 22.3512ZM20.0342 3.20318C14.3103 3.20318 9.60889 7.90453 9.60889 13.6285C9.60889 19.3524 14.3103 24.0544 20.0342 24.0544C25.7582 24.0544 30.4603 19.3524 30.4603 13.6285C30.4603 7.90453 25.8265 3.20318 20.0342 3.20318Z" fill="#132C12"/>
<path d="M20.034 14.3781C19.6251 14.3781 19.2845 14.0375 19.2845 13.6286C19.2845 13.2197 19.6251 12.8791 20.034 12.8791C20.443 12.8791 20.7836 13.2197 20.7836 13.6286C20.7836 14.0375 20.443 14.3781 20.034 14.3781ZM24.1231 8.38184C23.7818 8.10946 23.237 8.17705 22.8964 8.51837L20.7153 11.3117C19.148 10.8353 17.5813 12.0613 17.5813 13.6286C17.5813 14.9918 18.6715 16.082 20.034 16.082C21.3973 16.082 22.4875 14.9918 22.4875 13.6286C22.4875 13.1514 22.3509 12.6749 22.0786 12.266L24.2589 9.60854C24.5313 9.19963 24.4637 8.65421 24.1231 8.38184Z" fill="#132C12"/>
<path d="M32.2998 33.2536H30.5966V32.3675H32.2998V33.2536ZM31.482 38.3638C31.0048 38.3638 30.5966 37.9549 30.5966 37.4784V34.8892H32.2998V37.4784C32.2998 37.9549 31.9592 38.3638 31.482 38.3638ZM8.10893 13.6284C8.10893 7.08663 13.4923 1.70334 20.034 1.70334C26.5758 1.70334 31.9592 7.08663 31.9592 13.6284C31.9592 20.1701 26.5758 25.5534 20.034 25.5534C13.4923 25.5534 8.10893 20.2384 8.10893 13.6284ZM10.1534 33.2536H8.45025V32.3675H10.1534V33.2536ZM9.33564 38.3638C8.85847 38.3638 8.45025 37.9549 8.45025 37.4784V34.8892H10.1534V37.4784C10.1534 37.9549 9.8128 38.3638 9.33564 38.3638ZM34.8891 30.6643C34.4802 30.6643 32.9817 30.6643 32.2998 30.6643V29.71C32.2998 27.4614 30.4601 25.5534 28.1432 25.5534H26.5758C30.8007 23.2365 33.5948 18.7393 33.5948 13.6284C33.5948 6.13298 27.4619 0.000133514 19.9658 0.000133514C12.4703 0.000133514 6.33747 6.13298 6.33747 13.6284C6.33747 18.7393 9.19978 23.2365 13.3564 25.5534H12.4703C10.2217 25.5534 8.31372 27.3938 8.31372 29.71V30.6643C8.10893 30.6643 6.40573 30.6643 5.72445 30.6643C5.24728 30.6643 4.83838 31.0726 4.83838 31.5497C4.83838 32.0269 5.24728 32.4358 5.72445 32.4358H6.60985V37.5467C6.60985 38.9775 7.76896 40.136 9.19978 40.136C10.6306 40.136 11.7891 38.9775 11.7891 37.5467V32.4358H12.6745C13.1516 32.4358 13.5605 32.0269 13.5605 31.5497C13.5605 31.0726 13.1516 30.6643 12.6745 30.6643C12.2662 30.6643 10.7671 30.6643 10.0852 30.6643V29.71C10.0852 28.3475 11.176 27.2566 12.5386 27.2566C13.4247 27.2566 27.2571 27.2566 28.1432 27.2566C29.5064 27.2566 30.5966 28.3475 30.5966 29.71V30.6643C30.3918 30.6643 28.6886 30.6643 28.0066 30.6643C27.5302 30.6643 27.1213 31.0726 27.1213 31.5497C27.1213 32.0269 27.5302 32.4358 28.0066 32.4358H28.8927V37.5467C28.8927 38.9775 30.0512 40.136 31.482 40.136C32.9135 40.136 34.0719 38.9775 34.0719 37.5467V32.4358H34.9573C35.4345 32.4358 35.8434 32.0269 35.8434 31.5497C35.7069 31.0726 35.3662 30.6643 34.8891 30.6643Z" fill="#132C12"/>
<path d="M2.11278 28.1427C1.90867 28.1427 1.70387 27.9386 1.70387 27.7338C1.70387 27.5297 1.90867 27.3249 2.11278 27.3249C2.31757 27.3249 2.52168 27.5297 2.52168 27.7338C2.52168 27.9386 2.31757 28.1427 2.11278 28.1427ZM2.11278 25.5534C0.954334 25.5534 0 26.5078 0 27.6655C0 28.8247 0.954334 29.7783 2.11278 29.7783C3.27123 29.7783 4.22489 28.8247 4.22489 27.6655C4.22489 26.5078 3.27123 25.5534 2.11278 25.5534Z" fill="#132C12"/>
<path d="M7.22387 1.70317C7.42798 1.70317 7.63277 1.90795 7.63277 2.11206C7.63277 2.31685 7.42798 2.52098 7.22387 2.52098C7.01908 2.52098 6.81498 2.31685 6.81498 2.11206C6.81498 1.90795 6.95149 1.70317 7.22387 1.70317ZM7.22387 4.29309C8.38231 4.29309 9.33597 3.33878 9.33597 2.18034C9.33597 1.0219 8.38231 0.0682468 7.22387 0.0682468C6.06542 0.0682468 5.11108 1.0219 5.11108 2.18034C5.11108 3.33878 5.99715 4.29309 7.22387 4.29309Z" fill="#132C12"/>
<path d="M37.4108 18.7393C36.9336 18.7393 36.5247 18.3304 36.5247 17.8532C36.5247 17.3761 36.9336 16.9671 37.4108 16.9671C37.8872 16.9671 38.2961 17.3761 38.2961 17.8532C38.2961 18.3304 37.8872 18.7393 37.4108 18.7393ZM37.4108 15.3322C35.9799 15.3322 34.8208 16.4907 34.8208 17.9215C34.8208 19.3523 35.9799 20.5107 37.4108 20.5107C38.8416 20.5107 40 19.3523 40 17.9215C40 16.4907 38.8416 15.3322 37.4108 15.3322Z" fill="#132C12"/>
</svg>
