<svg width="44" height="43" viewBox="0 0 44 43" fill="none" xmlns="http://www.w3.org/2000/svg">
<path d="M37.0659 37.8627C36.986 37.8627 6.77562 37.8627 6.13838 37.8627C3.90567 37.8627 2.15286 36.1091 2.15286 33.8772C2.15286 31.6453 3.90567 29.8917 6.13838 29.8917C7.49271 29.8917 35.8704 29.8917 37.0659 29.8917C39.2978 29.8917 41.0522 31.6453 41.0522 33.8772C41.0522 36.1091 39.2179 37.8627 37.0659 37.8627ZM34.037 40.8916H29.015V39.8559H34.037V40.8916ZM14.1094 40.8916H9.08738V39.8559H14.1094V40.8916ZM27.1017 12.9922H21.682L22.7177 10.9999H31.2469L34.8347 27.9784H28.0583V13.9489C28.0583 13.3915 27.5808 12.9922 27.1017 12.9922ZM28.0583 3.02882H29.0948V5.02118H28.0583V3.02882ZM37.0659 27.8994H36.8271L33.0005 9.72458C32.9214 9.24625 32.523 8.92765 32.0438 8.92765H31.0081C31.0081 7.49267 31.0081 3.34743 31.0081 1.91325C31.0081 1.35428 30.5298 0.876759 29.9716 0.876759H26.9428C26.3846 0.876759 25.907 1.35428 25.907 1.91325V5.89878C25.907 6.45695 26.3846 6.93448 26.9428 6.93448H28.9359V8.92765H21.9215C21.5223 8.92765 21.2028 9.1664 21.0439 9.48581L19.0516 13.4713C18.7322 14.1086 19.2105 14.9055 19.9276 14.9055H25.907V27.8994H5.9779C2.71027 27.8994 0 30.6088 0 33.8772C0 37.1456 2.71027 39.8559 5.9779 39.8559H7.0144V41.8483C7.0144 42.4064 7.49271 42.8848 8.05089 42.8848H15.0661C15.6234 42.8848 16.1018 42.4064 16.1018 41.8483V39.8559H27.1017V41.8483C27.1017 42.4064 27.5808 42.8848 28.1381 42.8848H35.1534C35.7107 42.8848 36.189 42.4064 36.189 41.8483V39.8559H37.2256C40.494 39.8559 43.2034 37.1456 43.2034 33.8772C43.2034 30.6088 40.3343 27.8994 37.0659 27.8994Z" fill="#132C12"/>
<path d="M17.1381 33.877H9.16711C8.60893 33.877 8.13062 34.3553 8.13062 34.9135C8.13062 35.4717 8.60893 35.9492 9.16711 35.9492H17.1381C17.6963 35.9492 18.1738 35.4717 18.1738 34.9135C18.0948 34.3553 17.6157 33.877 17.1381 33.877Z" fill="#132C12"/>
<path d="M23.116 33.877H21.1237C20.5655 33.877 20.0872 34.3553 20.0872 34.9135C20.0872 35.4717 20.5655 35.9492 21.1237 35.9492H23.116C23.6742 35.9492 24.1525 35.4717 24.1525 34.9135C24.0727 34.3553 23.5951 33.877 23.116 33.877Z" fill="#132C12"/>
<path d="M31.0869 33.877H27.1014C26.544 33.877 26.0657 34.3553 26.0657 34.9135C26.0657 35.4717 26.544 35.9492 27.1014 35.9492H31.0869C31.6451 35.9492 32.1234 35.4717 32.1234 34.9135C32.0436 34.3553 31.566 33.877 31.0869 33.877Z" fill="#132C12"/>
<path d="M4.14488 14.9854C4.70226 14.9854 5.18137 15.4637 5.18137 16.0219C5.18137 16.5793 4.70226 17.0584 4.14488 17.0584C3.5867 17.0584 3.10838 16.5793 3.10838 16.0219C3.10838 15.4637 3.5867 14.9854 4.14488 14.9854ZM4.14488 18.9717C5.81862 18.9717 7.17374 17.6158 7.17374 15.942C7.17374 14.2675 5.81862 12.9132 4.14488 12.9132C2.47113 12.9132 1.11523 14.2675 1.11523 15.942C1.11523 17.6158 2.47113 18.9717 4.14488 18.9717Z" fill="#132C12"/>
<path d="M40.4936 1.99239C41.2905 1.99239 42.0076 2.63043 42.0076 3.50723C42.0076 4.38402 41.3696 5.02125 40.4936 5.02125C39.616 5.02125 39.0578 4.30417 39.0578 3.50723C39.0578 2.70949 39.6958 1.99239 40.4936 1.99239ZM40.4936 7.0144C42.4069 7.0144 44 5.41974 44 3.50723C44 1.59393 42.4069 2.81334e-05 40.4936 2.81334e-05C38.5803 2.81334e-05 36.9856 1.59393 36.9856 3.50723C36.9856 5.41974 38.5803 7.0144 40.4936 7.0144Z" fill="#132C12"/>
</svg>
