<svg width="40" height="36" viewBox="0 0 40 36" fill="none" xmlns="http://www.w3.org/2000/svg">
<path d="M28.2772 33.7489L26.7847 24.8676H28.6324L31.6168 33.7489H28.2772ZM12.5752 33.7489H9.23636L12.1489 24.8676H13.9966L12.5752 33.7489ZM7.10466 20.3202V15.1344C7.10466 13.6418 8.31253 12.3628 9.87554 12.3628H30.9769C32.4695 12.3628 33.7478 13.5706 33.7478 15.1344V20.3202C33.7478 21.8121 32.54 23.0918 30.9769 23.0918C30.4801 23.0918 10.7282 23.0918 9.80435 23.0918C8.31251 23.0918 7.10466 21.8839 7.10466 20.3202ZM9.87554 8.02892H11.5802C11.7937 9.02396 12.7169 9.80475 13.7831 9.80475C14.8493 9.80475 15.7724 9.02396 15.9852 8.02892H24.9377C25.1512 9.02396 26.0751 9.80475 27.1399 9.80475C28.2061 9.80475 29.1299 9.02396 29.3428 8.02892H30.9769C32.4695 8.02892 33.7478 9.23747 33.7478 10.7998V11.6525C32.9663 11.0133 32.0424 10.6574 30.9769 10.6574H9.87554C8.81004 10.6574 7.88617 11.0133 7.10466 11.5813V10.7293C7.10466 9.23747 8.31253 8.02892 9.87554 8.02892ZM13.2855 4.90289C13.2855 4.69007 13.4991 4.47655 13.7126 4.47655C13.9247 4.47655 14.1382 4.69007 14.1382 4.90289C14.1382 5.04453 14.1382 7.74493 14.1382 7.60258C14.1382 7.8161 13.9247 8.02892 13.7126 8.02892C13.4991 8.02892 13.2855 7.8161 13.2855 7.60258V4.90289ZM26.6431 4.90289C26.6431 4.69007 26.8559 4.47655 27.0694 4.47655C27.2822 4.47655 27.4957 4.69007 27.4957 4.90289V7.60258C27.4957 7.8161 27.2822 8.02892 27.0694 8.02892C26.8559 8.02892 26.6431 7.8161 26.6431 7.60258V4.90289ZM30.5506 24.8676H30.9769C33.4638 24.8676 35.5243 22.8078 35.5243 20.3202C35.5243 19.3971 35.5243 11.7236 35.5243 10.7293C35.5243 8.24244 33.4638 6.18191 30.9769 6.18191H29.2723V4.83242C29.2723 3.62387 28.2772 2.62955 27.0694 2.62955C25.8615 2.62955 24.8672 3.62387 24.8672 4.83242V6.18191H15.9852V4.83242C15.9852 3.62387 14.9909 2.62955 13.7831 2.62955C12.5752 2.62955 11.5802 3.62387 11.5802 4.83242V6.18191H9.87554C7.38867 6.18191 5.32812 8.24244 5.32812 10.7293C5.32812 11.7236 5.32812 19.3971 5.32812 20.3202C5.32812 22.8078 7.38867 24.8676 9.87554 24.8676H10.3019L7.10466 34.3881C6.89184 34.9568 7.31748 35.5247 7.95735 35.5247H13.2855C13.7126 35.5247 14.0678 35.2406 14.1382 34.815L15.7724 24.8676H24.9377L26.5719 34.815C26.643 35.2406 26.9982 35.5247 27.4246 35.5247H32.7527C33.3926 35.5247 33.819 34.9568 33.6054 34.3881L30.5506 24.8676Z" fill="#132C12"/>
<path d="M19.5385 20.4626C19.5385 19.9651 19.1122 19.5388 18.6147 19.5388H10.6572C10.1604 19.5388 9.7334 19.9651 9.7334 20.4626C9.7334 20.9594 10.1604 21.3865 10.6572 21.3865H18.6859C19.1122 21.3153 19.5385 20.889 19.5385 20.4626Z" fill="#132C12"/>
<path d="M22.1677 21.3152H23.9436C24.4404 21.3152 24.8674 20.8888 24.8674 20.3913C24.8674 19.8945 24.4404 19.4675 23.9436 19.4675H22.1677C21.6702 19.4675 21.2432 19.8945 21.2432 20.3913C21.315 20.8888 21.6702 21.3152 22.1677 21.3152Z" fill="#132C12"/>
<path d="M2.20286 31.1194C1.98934 31.1194 1.77581 30.9068 1.77581 30.6938C1.77581 30.4804 1.98934 30.2668 2.20286 30.2668C2.41497 30.2668 2.6285 30.4804 2.6285 30.6938C2.6285 30.9068 2.41497 31.1194 2.20286 31.1194ZM2.20286 28.4198C0.994309 28.4198 0 29.414 0 30.6219C0 31.8298 0.994309 32.825 2.20286 32.825C3.41 32.825 4.40503 31.8298 4.40503 30.6219C4.40503 29.414 3.41 28.4198 2.20286 28.4198Z" fill="#132C12"/>
<path d="M34.1748 1.77663C34.3876 1.77663 34.6012 1.98945 34.6012 2.20297C34.6012 2.41579 34.3876 2.62931 34.1748 2.62931C33.962 2.62931 33.7485 2.41579 33.7485 2.20297C33.7485 1.98945 33.962 1.77663 34.1748 1.77663ZM34.1748 4.47632C35.3834 4.47632 36.3777 3.48199 36.3777 2.27415C36.3777 1.0663 35.3834 9.20296e-05 34.1748 9.20296e-05C32.967 9.20296e-05 31.9727 0.994418 31.9727 2.20297C31.9727 3.41082 32.967 4.47632 34.1748 4.47632Z" fill="#132C12"/>
<path d="M37.3003 27.5674C36.8028 27.5674 36.3771 27.141 36.3771 26.6442C36.3771 26.1467 36.8028 25.7196 37.3003 25.7196C37.7978 25.7196 38.2241 26.1467 38.2241 26.6442C38.2241 27.141 37.7978 27.5674 37.3003 27.5674ZM37.3003 24.015C35.8084 24.015 34.6006 25.2228 34.6006 26.7146C34.6006 28.2072 35.8084 29.4142 37.3003 29.4142C38.7921 29.4142 40 28.2072 40 26.7146C40 25.2228 38.7216 24.015 37.3003 24.015Z" fill="#132C12"/>
</svg>
