<svg width="40" height="48" viewBox="0 0 40 48" fill="none" xmlns="http://www.w3.org/2000/svg">
<path d="M22.5993 4.00702C22.5993 5.12897 21.7177 6.01052 20.5957 6.01052C19.4738 6.01052 18.5922 5.12897 18.5922 4.00702C18.5922 2.88506 19.4738 2.00352 20.5957 2.00352C21.7177 2.00352 22.5993 2.88506 22.5993 4.00702ZM21.5574 14.1047V10.9792L23.5609 14.5855C22.9198 14.3451 22.2787 14.1848 21.5574 14.1047ZM28.0488 23.5612V37.1048H17.0696C16.5086 37.1048 16.0277 37.5857 16.0277 38.1466C16.0277 38.7076 16.5086 39.1885 17.0696 39.1885H27.9687C27.2474 42.6345 24.2021 45.199 20.5957 45.199C16.4284 45.199 13.0625 41.8331 13.0625 37.6658C13.0625 22.8399 13.0625 23.6413 13.0625 23.1605H25.0836C25.6446 23.1605 26.1254 22.6796 26.1254 22.1186C26.1254 21.5577 25.6446 21.0768 25.0836 21.0768H13.4632C14.5051 18.1918 17.31 16.028 20.5156 16.028C24.6829 16.028 28.0488 19.3939 28.0488 23.5612ZM19.5539 10.8991V14.0245C18.8327 14.1047 18.1915 14.2649 17.5504 14.4252L19.5539 10.8991ZM39.1082 1.90735e-05H9.0555C8.49452 1.90735e-05 8.01367 0.480858 8.01367 1.04184C8.01367 1.60282 8.49452 2.08366 9.0555 2.08366H17.0696C15.8674 4.1673 16.749 6.89206 18.9929 7.77359L14.1845 16.5089C12.2611 18.2719 10.9789 20.7563 10.9789 23.6413V37.5857C10.9789 42.7948 15.2263 47.1223 20.5156 47.1223C25.4843 47.1223 29.6516 43.2756 29.9722 38.3069C30.0523 38.1466 29.9722 39.1083 29.9722 23.5612C29.9722 20.7563 28.7701 18.1918 26.7666 16.4287L21.9581 7.69345C24.2021 6.73178 25.0836 4.08716 23.8815 2.00352H37.9061V46.0805C37.9061 46.6415 38.387 47.1223 38.9479 47.1223C39.5089 47.1223 39.9898 46.6415 39.9898 46.0805V1.04184C40.0699 0.480858 39.6692 1.90735e-05 39.1082 1.90735e-05Z" fill="white"/>
<path d="M8.57469 12.0212C8.33427 12.0212 8.09385 11.7807 8.09385 11.5403C8.09385 11.2999 8.33427 11.0595 8.57469 11.0595C8.81511 11.0595 9.05553 11.2999 9.05553 11.5403C9.05553 11.7807 8.81511 12.0212 8.57469 12.0212ZM8.57469 9.05598C7.2123 9.05598 6.09033 10.1779 6.09033 11.5403C6.09033 12.9027 7.2123 14.0247 8.57469 14.0247C9.93708 14.0247 11.059 12.9027 11.059 11.5403C11.059 10.1779 9.93708 9.05598 8.57469 9.05598Z" fill="white"/>
<path d="M34.6206 30.0529C34.3802 30.0529 34.1397 29.8125 34.1397 29.5721C34.1397 29.3316 34.3802 29.0912 34.6206 29.0912C34.861 29.0912 35.1014 29.3316 35.1014 29.5721C35.1014 29.8125 34.861 30.0529 34.6206 30.0529ZM34.6206 27.0877C33.2582 27.0877 32.1362 28.2097 32.1362 29.5721C32.1362 30.9344 33.2582 32.0564 34.6206 32.0564C35.983 32.0564 37.1049 30.9344 37.1049 29.5721C37.1049 28.2097 35.983 27.0877 34.6206 27.0877Z" fill="white"/>
<path d="M3.04534 37.1051C2.48436 37.1051 2.00351 36.6242 2.00351 36.0633C2.00351 35.5023 2.48436 35.0214 3.04534 35.0214C3.60633 35.0214 4.08717 35.5023 4.08717 36.0633C4.00703 36.6242 3.60633 37.1051 3.04534 37.1051ZM3.04534 33.0981C1.36239 33.0981 0 34.4605 0 36.1434C0 37.8263 1.36239 39.1887 3.04534 39.1887C4.72829 39.1887 6.09068 37.8263 6.09068 36.1434C6.09068 34.4605 4.64815 33.0981 3.04534 33.0981Z" fill="white"/>
<path d="M16.0277 25.0038C16.6031 25.0038 17.0695 25.4702 17.0695 26.0456C17.0695 26.621 16.6031 27.0874 16.0277 27.0874C15.4523 27.0874 14.9858 26.621 14.9858 26.0456C14.9858 25.4702 15.4523 25.0038 16.0277 25.0038Z" fill="white"/>
<path d="M16.0277 28.0489C16.6031 28.0489 17.0695 28.5153 17.0695 29.0907C17.0695 29.6662 16.6031 30.1326 16.0277 30.1326C15.4523 30.1326 14.9858 29.6662 14.9858 29.0907C14.9858 28.5153 15.4523 28.0489 16.0277 28.0489Z" fill="white"/>
<path d="M16.0277 31.014C16.6031 31.014 17.0695 31.4804 17.0695 32.0558C17.0695 32.6312 16.6031 33.0977 16.0277 33.0977C15.4523 33.0977 14.9858 32.6312 14.9858 32.0558C14.9858 31.4804 15.4523 31.014 16.0277 31.014Z" fill="white"/>
<path d="M16.0277 34.0592C16.6031 34.0592 17.0695 34.5256 17.0695 35.101C17.0695 35.6764 16.6031 36.1428 16.0277 36.1428C15.4523 36.1428 14.9858 35.6764 14.9858 35.101C14.9858 34.5256 15.4523 34.0592 16.0277 34.0592Z" fill="white"/>
</svg>
