<svg width="44" height="43" viewBox="0 0 44 43" fill="none" xmlns="http://www.w3.org/2000/svg">
<path d="M5.60741 15.8144C6.15832 15.8144 6.62965 16.2865 6.62965 16.8366C6.62965 17.3875 6.15832 17.8596 5.60741 17.8596C5.05649 17.8596 4.5844 17.3875 4.5844 16.8366C4.5844 16.2865 5.05649 15.8144 5.60741 15.8144ZM2.61719 16.7578C2.61719 18.4106 3.95466 19.748 5.60741 19.748C7.25937 19.748 8.59687 18.4106 8.59687 16.7578C8.59687 15.1058 7.25937 13.7684 5.60741 13.7684C3.95466 13.7684 2.61719 15.1847 2.61719 16.7578Z" fill="#132C12"/>
<path d="M39.0432 5.97993C39.5941 5.97993 40.0662 6.45202 40.0662 7.00293C40.0662 7.55307 39.5941 8.02518 39.0432 8.02518C38.4923 8.02518 38.0209 7.55307 38.0209 7.00293C38.0209 6.37321 38.4923 5.97993 39.0432 5.97993ZM39.0432 9.91357C40.6951 9.91357 42.0326 8.57608 42.0326 6.92412C42.0326 5.27138 40.6951 3.93388 39.0432 3.93388C37.3912 3.93388 36.0537 5.27138 36.0537 6.92412C36.0537 8.57608 37.3912 9.91357 39.0432 9.91357Z" fill="#132C12"/>
<path d="M17.8798 2.04597C18.6664 2.04597 19.3749 2.67493 19.3749 3.54032C19.3749 4.40571 18.7452 5.03543 17.8798 5.03543C17.0144 5.03543 16.3847 4.40571 16.3847 3.54032C16.3847 2.67493 17.0932 2.04597 17.8798 2.04597ZM17.8798 6.92383C19.7682 6.92383 21.3421 5.34991 21.3421 3.46151C21.3421 1.57388 19.7682 -5.38826e-05 17.8798 -5.38826e-05C15.9914 -5.38826e-05 14.4175 1.57388 14.4175 3.46151C14.4175 5.34991 15.9914 6.92383 17.8798 6.92383Z" fill="#132C12"/>
<path d="M37.9423 32.1779C37.6278 34.0663 37.7058 34.9325 37.7847 35.4826C37.8627 35.7971 37.8627 35.7971 37.6278 36.1116C37.3125 36.6625 36.1327 37.6067 31.9626 38.0788C29.9173 38.3144 27.7144 38.3933 25.9837 38.3933C26.5346 37.7635 27.0059 36.9777 27.3212 35.8759C27.478 35.325 27.2424 34.7741 26.6914 34.6172C26.1405 34.4596 25.5904 34.696 25.4328 35.247C24.6462 37.6067 23.1511 38.2364 22.7578 38.3933C20.9482 38.5509 17.8011 41.8556 12.1367 39.8884C9.9338 39.1018 8.43866 39.9672 7.02314 39.5739C4.34738 38.8661 3.0895 37.2134 2.53859 35.9547C1.67242 34.0663 1.67242 31.7846 2.53859 29.8962C2.61662 29.7394 2.61662 29.5029 2.61662 29.3461C2.22411 26.3566 4.58382 23.7605 7.49446 23.7605C9.61931 23.7605 11.5069 25.0972 12.1367 27.1432C12.2155 27.3008 12.2943 27.4577 12.4511 27.6153C12.5307 27.6941 12.6088 27.7729 12.6876 27.7729C11.0356 28.5595 8.43867 30.4471 8.20301 33.9095C8.1242 34.4596 8.5963 34.9325 9.14722 34.9325C9.69813 34.9325 10.0914 34.5392 10.0914 33.9883C10.3271 30.2903 14.3396 29.1104 14.4972 29.0316C14.576 29.0316 14.7328 28.952 14.654 28.952C18.1163 27.1432 20.9482 26.9856 24.0164 28.4807C24.803 28.874 25.1971 29.2673 25.5904 29.6613C25.9837 30.1327 26.455 30.6048 27.3212 30.8404C27.7925 30.9988 28.2654 30.7624 28.501 30.2903C29.0512 29.1104 29.2876 25.9626 29.2876 19.1971C29.2876 19.0395 29.3664 18.5674 29.0511 17.702H33.0644C35.8174 22.8951 38.2567 26.4347 37.9423 32.1779ZM23.3087 19.748H21.3422V13.8471H23.3087V19.748ZM39.9875 13.8471H41.9548V19.748H39.9875V13.8471ZM35.4242 17.7808H38.0211V20.7702C38.0211 21.3211 38.4924 21.7933 39.0433 21.7933H42.977C43.5279 21.7933 44 21.3211 44 20.7702V12.9029C44 12.352 43.5279 11.8807 42.977 11.8807H39.0433C38.4924 11.8807 38.0211 12.352 38.0211 12.9029V15.8932C36.526 15.8932 26.5346 15.8932 25.1971 15.8932V12.9029C25.1971 12.352 24.725 11.8807 24.1733 11.8807H20.2396C19.6887 11.8807 19.2174 12.352 19.2174 12.9029V20.7702C19.2174 21.3211 19.6887 21.7933 20.2396 21.7933H24.1733C24.725 21.7933 25.1971 21.3211 25.1971 20.7702V17.7808H27.0059C27.478 18.8038 27.3212 19.1183 27.3992 19.2759C27.3992 24.2326 27.2424 26.9068 27.0847 28.2443C26.6914 27.7729 26.0617 27.222 25.0395 26.6711C21.6567 25.0191 18.2732 25.0972 14.654 26.8287C14.4972 26.5923 14.2607 26.3566 14.0251 26.199C13.002 23.524 10.4839 21.7144 7.57329 21.7144C3.56083 21.7144 0.335714 25.176 0.729001 29.1885C-0.294015 31.4702 -0.21522 34.3028 0.807796 36.6625C1.90885 39.023 3.9541 40.6749 6.62908 41.3835C8.51749 41.8556 9.93378 41.069 11.6646 41.698C13.1589 42.2489 14.576 42.4065 15.8347 42.4065C18.5877 42.4065 20.7125 41.3835 21.9712 40.7538C22.3645 40.5181 22.9146 40.2817 23.0723 40.2817C23.3875 40.2817 23.702 40.2817 24.0953 40.2817C31.0184 40.3605 37.6278 40.046 39.3578 37.1354C39.8299 36.2692 39.8299 35.8759 39.7511 35.247C39.673 34.7741 39.5942 34.1451 39.9087 32.4932V32.4144C40.224 26.4347 38.0211 22.6587 35.4242 17.7808Z" fill="#132C12"/>
</svg>
