<svg width="32" height="39" viewBox="0 0 32 39" fill="none" xmlns="http://www.w3.org/2000/svg">
<path d="M18.0796 3.23256C18.0796 4.13762 17.3743 4.84873 16.4768 4.84873C15.5792 4.84873 14.874 4.13762 14.874 3.23256C14.874 2.32751 15.5792 1.6164 16.4768 1.6164C17.3743 1.6164 18.0796 2.32751 18.0796 3.23256ZM17.2461 11.378V8.85682L18.8489 11.7659C18.336 11.572 17.8231 11.4427 17.2461 11.378ZM22.4392 19.0063V29.9316H13.6558C13.207 29.9316 12.8224 30.3195 12.8224 30.772C12.8224 31.2246 13.207 31.6124 13.6558 31.6124H22.3751C21.7981 34.3922 19.3618 36.4609 16.4768 36.4609C13.1429 36.4609 10.4502 33.7458 10.4502 30.3841C10.4502 18.4245 10.4502 19.071 10.4502 18.6831H20.0671C20.5159 18.6831 20.9005 18.2952 20.9005 17.8427C20.9005 17.3902 20.5159 17.0023 20.0671 17.0023H10.7708C11.6042 14.675 13.8482 12.9296 16.4127 12.9296C19.7465 12.9296 22.4392 15.6447 22.4392 19.0063ZM15.6433 8.79217V11.3134C15.0663 11.378 14.5534 11.5073 14.0405 11.6366L15.6433 8.79217ZM31.2867 0.000232697H7.24459C6.79581 0.000232697 6.41113 0.388111 6.41113 0.840637C6.41113 1.29316 6.79581 1.68105 7.24459 1.68105H13.6558C12.6941 3.36186 13.3994 5.55984 15.1945 6.27096L11.3478 13.3174C9.80909 14.7397 8.78329 16.7437 8.78329 19.071V30.3195C8.78329 34.5215 12.1812 38.0125 16.4127 38.0125C20.3876 38.0125 23.7215 34.9094 23.9779 30.9013C24.042 30.772 23.9779 31.5478 23.9779 19.0063C23.9779 16.7437 23.0162 14.675 21.4134 13.2528L17.5667 6.20631C19.3618 5.43055 20.0671 3.29721 19.1054 1.6164H30.325V37.172C30.325 37.6246 30.7097 38.0125 31.1585 38.0125C31.6073 38.0125 31.992 37.6246 31.992 37.172V0.840637C32.0561 0.388111 31.7355 0.000232697 31.2867 0.000232697Z" fill="#132C12"/>
<path d="M6.85955 9.69633C6.66722 9.69633 6.47488 9.50239 6.47488 9.30845C6.47488 9.11451 6.66722 8.92057 6.85955 8.92057C7.05189 8.92057 7.24423 9.11451 7.24423 9.30845C7.24423 9.50239 7.05189 9.69633 6.85955 9.69633ZM6.85955 7.30441C5.76964 7.30441 4.87207 8.20946 4.87207 9.30845C4.87207 10.4074 5.76964 11.3125 6.85955 11.3125C7.94946 11.3125 8.84704 10.4074 8.84704 9.30845C8.84704 8.20946 7.94946 7.30441 6.85955 7.30441Z" fill="#132C12"/>
<path d="M27.6965 24.2419C27.5041 24.2419 27.3118 24.0479 27.3118 23.854C27.3118 23.66 27.5041 23.4661 27.6965 23.4661C27.8888 23.4661 28.0811 23.66 28.0811 23.854C28.0811 24.0479 27.8888 24.2419 27.6965 24.2419ZM27.6965 21.8499C26.6066 21.8499 25.709 22.755 25.709 23.854C25.709 24.953 26.6066 25.858 27.6965 25.858C28.7864 25.858 29.684 24.953 29.684 23.854C29.684 22.755 28.7864 21.8499 27.6965 21.8499Z" fill="#132C12"/>
<path d="M2.43627 29.931C1.98748 29.931 1.60281 29.5431 1.60281 29.0906C1.60281 28.6381 1.98748 28.2502 2.43627 28.2502C2.88506 28.2502 3.26973 28.6381 3.26973 29.0906C3.20562 29.5431 2.88506 29.931 2.43627 29.931ZM2.43627 26.6987C1.08991 26.6987 0 27.7977 0 29.1552C0 30.5128 1.08991 31.6118 2.43627 31.6118C3.78263 31.6118 4.87254 30.5128 4.87254 29.1552C4.87254 27.7977 3.71852 26.6987 2.43627 26.6987Z" fill="#132C12"/>
<path d="M12.8227 20.1697C13.283 20.1697 13.6562 20.5459 13.6562 21.0101C13.6562 21.4742 13.283 21.8505 12.8227 21.8505C12.3624 21.8505 11.9893 21.4742 11.9893 21.0101C11.9893 20.5459 12.3624 20.1697 12.8227 20.1697Z" fill="#132C12"/>
<path d="M12.8227 22.6261C13.283 22.6261 13.6562 23.0023 13.6562 23.4665C13.6562 23.9306 13.283 24.3069 12.8227 24.3069C12.3624 24.3069 11.9893 23.9306 11.9893 23.4665C11.9893 23.0023 12.3624 22.6261 12.8227 22.6261Z" fill="#132C12"/>
<path d="M12.8227 25.0182C13.283 25.0182 13.6562 25.3944 13.6562 25.8586C13.6562 26.3227 13.283 26.699 12.8227 26.699C12.3624 26.699 11.9893 26.3227 11.9893 25.8586C11.9893 25.3944 12.3624 25.0182 12.8227 25.0182Z" fill="#132C12"/>
<path d="M12.8227 27.4746C13.283 27.4746 13.6562 27.8508 13.6562 28.315C13.6562 28.7792 13.283 29.1554 12.8227 29.1554C12.3624 29.1554 11.9893 28.7792 11.9893 28.315C11.9893 27.8508 12.3624 27.4746 12.8227 27.4746Z" fill="#132C12"/>
</svg>
