<svg width="40" height="42" viewBox="0 0 40 42" fill="none" xmlns="http://www.w3.org/2000/svg">
<path d="M24.9652 28.5717C23.0605 28.5717 21.5639 27.0757 21.5639 25.1703C21.5639 23.2655 23.0605 21.769 24.9652 21.769C26.87 21.769 28.3665 23.2655 28.3665 25.1703C28.3665 27.0757 26.87 28.5717 24.9652 28.5717ZM16.4617 28.5717C14.5571 28.5717 13.0603 27.0757 13.0603 25.1703C13.0603 23.2655 14.5571 21.769 16.4617 21.769C18.3665 21.769 19.863 23.2655 19.863 25.1703C19.863 27.0757 18.3665 28.5717 16.4617 28.5717ZM13.0603 16.6674C13.0603 14.7626 14.5571 13.2654 16.4617 13.2654C18.3665 13.2654 19.863 14.7626 19.863 16.6674C19.863 18.5715 18.3665 20.0687 16.4617 20.0687C14.6249 20.0687 13.0603 18.504 13.0603 16.6674ZM20.7475 22.3135C20.3393 21.769 19.863 21.2252 19.3187 20.8844C19.863 20.4762 20.4074 19.9999 20.7475 19.456C21.1557 19.9999 21.6321 20.5444 22.1759 20.8844C21.5639 21.2926 21.0876 21.769 20.7475 22.3135ZM24.9652 13.2654C26.87 13.2654 28.3665 14.7626 28.3665 16.6674C28.3665 18.5715 26.87 20.0687 24.9652 20.0687C23.0605 20.0687 21.5639 18.5715 21.5639 16.6674C21.5639 14.7626 23.1286 13.2654 24.9652 13.2654ZM27.822 20.8844C29.183 19.9999 30.135 18.4358 30.135 16.5985C30.135 13.8092 27.822 11.4969 25.0334 11.4969C23.2643 11.4969 21.6995 12.3808 20.7475 13.8092C19.863 12.4496 18.2984 11.4969 16.5294 11.4969C13.7407 11.4969 11.4276 13.8092 11.4276 16.5985C11.4276 18.3677 12.3121 19.9324 13.7407 20.8844C12.3801 21.769 11.4276 23.3337 11.4276 25.1703C11.4276 27.9597 13.7407 30.2725 16.5294 30.2725C18.2984 30.2725 19.863 29.388 20.7475 27.9597C21.6321 29.3205 23.1968 30.2725 25.0334 30.2725C27.822 30.2725 30.135 27.9597 30.135 25.1703C30.0675 23.3337 29.183 21.769 27.822 20.8844Z" fill="#132C12"/>
<path d="M36.5982 17.8912H35.1698V13.606H36.5982V17.8912ZM36.5982 24.6938V27.2788H35.1698V24.6938H36.5982ZM30.612 33.1974C30 33.1974 11.5642 33.1974 10.8162 33.1974C9.25146 33.1974 7.95888 31.9055 7.95888 30.3398V11.9732H11.0882C11.5642 11.9732 11.9725 11.5643 11.9725 11.0886C11.9725 10.6122 11.5642 10.2047 11.0882 10.2047H8.23114C8.63941 9.18384 9.65967 8.50372 10.8162 8.50372C11.6325 8.50372 30.0682 8.50372 30.612 8.50372C32.1767 8.50372 33.4695 9.79582 33.4695 11.3612C33.4695 13.5372 33.4695 27.6188 33.4695 29.7961H29.7956C29.3192 29.7961 28.911 30.2044 28.911 30.6801C28.911 31.1564 29.3192 31.5652 29.7956 31.5652H33.2651C32.7887 32.5172 31.7685 33.1974 30.612 33.1974ZM28.3672 40H13.061V38.299H26.3943C26.8706 38.299 27.2789 37.8915 27.2789 37.4153C27.2789 36.9395 26.8706 36.5305 26.3943 36.5305H13.061V34.8302H28.3672V40ZM13.061 1.76924H28.3672V3.46956H15.3061C14.8295 3.46956 14.4216 3.87777 14.4216 4.35413C14.4216 4.83049 14.8295 5.23803 15.3061 5.23803H28.3672V6.93901H13.061V1.76924ZM37.4146 11.9732H35.1698V11.4287C35.1698 8.91192 33.1294 6.87086 30.612 6.87086H30.0682V0.884674C30.0682 0.408318 29.66 0.000106812 29.2518 0.000106812H12.2448C11.7685 0.000106812 11.3602 0.408318 11.3602 0.884674V6.87086H10.8162C8.29888 6.87086 6.25836 8.91192 6.25836 11.4287V30.4081C6.25836 32.9254 8.29888 34.9665 10.8162 34.9665H11.3602V40.9528C11.3602 41.4291 11.7685 41.8374 12.2448 41.8374H29.2518C29.7274 41.8374 30.0682 41.4291 30.0682 40.9528V34.9665H30.612C33.1294 34.9665 35.1698 32.9254 35.1698 30.4081V28.9796H37.4146C37.891 28.9796 38.2992 28.5716 38.2992 28.0951V23.8099C38.2992 23.3336 37.891 22.9254 37.4146 22.9254H35.1698V19.5241H37.4146C37.891 19.5241 38.2992 19.1158 38.2992 18.6402V12.6533C38.2992 12.3132 37.891 11.9732 37.4146 11.9732Z" fill="#132C12"/>
<path d="M0.884035 9.72852C1.36026 9.72852 1.76854 9.31963 1.76854 8.84395C1.76854 4.89813 4.9656 1.76941 8.84347 1.76941C9.31943 1.76941 9.72743 1.36053 9.72743 0.884843C9.72743 0.408484 9.31943 0.000274658 8.84347 0.000274658C4.01363 0.000274658 0.0677467 3.94542 0.0677467 8.7758C-0.000265904 9.31963 0.407744 9.72852 0.884035 9.72852Z" fill="#132C12"/>
<path d="M9.65992 3.6735C9.65992 3.19782 9.25171 2.78892 8.77542 2.78892C5.44239 2.78892 2.72101 5.51079 2.72101 8.84395C2.72101 9.31963 3.12902 9.72852 3.60558 9.72852C4.0816 9.72852 4.48981 9.31963 4.48981 8.84395C4.48981 6.46283 6.46265 4.48992 8.8437 4.48992C9.31965 4.48992 9.65992 4.14986 9.65992 3.6735Z" fill="#132C12"/>
<path d="M2.58482 34.8974C2.1088 34.8974 1.70052 34.49 1.70052 34.0137C1.70052 33.5372 2.1088 33.1289 2.58482 33.1289C3.06131 33.1289 3.46932 33.5372 3.46932 34.0137C3.40138 34.5574 3.06131 34.8974 2.58482 34.8974ZM2.58482 31.4961C1.15628 31.4961 0 32.6527 0 34.0809C0 35.5108 1.15628 36.6665 2.58482 36.6665C4.0139 36.6665 5.17011 35.5108 5.17011 34.0809C5.17011 32.6527 3.94561 31.4961 2.58482 31.4961Z" fill="#132C12"/>
<path d="M37.4151 5.1705C36.9394 5.1705 36.5312 4.76162 36.5312 4.28594C36.5312 3.80958 36.9394 3.40137 37.4151 3.40137C37.8914 3.40137 38.2997 3.80958 38.2997 4.28594C38.2997 4.76162 37.8914 5.1705 37.4151 5.1705ZM37.4151 1.76919C35.9867 1.76919 34.8302 2.92568 34.8302 4.35408C34.8302 5.78248 35.9867 6.93896 37.4151 6.93896C38.8435 6.93896 40 5.78248 40 4.35408C40 2.92568 38.8435 1.76919 37.4151 1.76919Z" fill="#132C12"/>
</svg>
