<svg width="40" height="44" viewBox="0 0 40 44" fill="none" xmlns="http://www.w3.org/2000/svg">
<path d="M21.264 24.3118H19.2575C19.1078 24.609 17.7701 25.5013 17.2495 25.5013V27.2859C17.9183 27.2859 18.9596 26.7653 19.2575 26.3936V29.5159H17.5467V31.3005H22.8251V29.5159H21.264V24.3118Z" fill="white"/>
<path d="M20.0741 42.0074C12.9367 42.0074 7.06311 36.1344 7.06311 28.9968C7.06311 21.8591 12.9367 15.9854 20.0741 15.9854C27.2116 15.9854 33.0851 21.8591 33.0851 28.9968C33.0851 36.1344 27.2116 42.0074 20.0741 42.0074ZM16.3568 12.268H23.7914V14.5725C21.338 13.9781 18.8102 13.9781 16.3568 14.5725V12.268ZM13.0111 8.55059H26.9889V10.4089C25.3526 10.4089 14.7212 10.4089 13.0111 10.4089V8.55059ZM11.599 2.00731H17.1008L21.8587 6.69151H16.3568L11.599 2.00731ZM22.8992 2.00731H28.4011L24.0886 6.17088L21.338 3.49471L22.8992 2.00731ZM25.6497 15.1676V12.1935H27.8812C28.401 12.1935 28.8472 11.7474 28.8472 11.2267V7.50932C28.8472 6.98942 28.401 6.5433 27.8812 6.5433H26.2448L31.3013 1.63564C31.5985 1.33845 31.6723 0.966789 31.524 0.595119C31.3751 0.223454 31.0779 -1.52588e-05 30.6317 -1.52588e-05H22.453C22.2303 -1.52588e-05 22.0076 0.0744858 21.7842 0.297192L19.9259 2.08181L18.0669 0.297192C17.9179 0.148968 17.6952 -1.52588e-05 17.398 -1.52588e-05H9.21933C8.84767 -1.52588e-05 8.47601 0.223454 8.32705 0.595119C8.17883 0.966789 8.25333 1.33845 8.55051 1.63564L13.6055 6.5433H11.9706C11.45 6.5433 11.0039 6.98942 11.0039 7.50932V11.2267C11.0039 11.7474 11.45 12.1935 11.9706 12.1935H14.424V15.1676C9.07112 17.3976 5.20483 22.7514 5.20483 28.9968C5.20483 37.175 11.8962 43.8665 20.0741 43.8665C28.2528 43.8665 34.9442 37.175 34.9442 28.9968C34.9442 22.7514 31.0779 17.3976 25.6497 15.1676Z" fill="white"/>
<path d="M20.0739 37.3236C15.4643 37.3236 11.6725 33.6061 11.6725 28.9219C11.6725 24.2377 15.3899 20.5203 20.0739 20.5203C24.758 20.5203 28.4753 24.2377 28.4753 28.9219C28.4753 33.6061 24.6835 37.3236 20.0739 37.3236ZM20.0739 18.7357C14.4238 18.7357 9.81421 23.3454 9.81421 28.9964C9.81421 34.6467 14.4238 39.1819 20.0739 39.1819C25.7248 39.1819 30.3343 34.5722 30.3343 28.9219C30.3343 23.2717 25.7248 18.7357 20.0739 18.7357Z" fill="white"/>
<path d="M20.0741 33.6065C17.5463 33.6065 15.39 31.5247 15.39 28.9223C15.39 28.4017 14.9446 27.9555 14.424 27.9555C13.9034 27.9555 13.4573 28.4017 13.4573 28.9223C13.4573 32.4907 16.3568 35.4648 19.9996 35.4648C20.5202 35.4648 20.9664 35.0187 20.9664 34.4988C21.0401 34.0519 20.5947 33.6065 20.0741 33.6065Z" fill="white"/>
<path d="M2.30519 20.5948C2.08175 20.5948 1.85903 20.3721 1.85903 20.1486C1.85903 19.9259 2.08175 19.7025 2.30519 19.7025C2.52789 19.7025 2.75131 19.9259 2.75131 20.1486C2.82505 20.3721 2.6031 20.5948 2.30519 20.5948ZM2.30519 17.8434C1.04052 17.8434 0 18.8847 0 20.1486C0 21.4126 1.04052 22.4531 2.30519 22.4531C3.56912 22.4531 4.60962 21.4126 4.60962 20.1486C4.60962 18.8847 3.56912 17.8434 2.30519 17.8434Z" fill="white"/>
<path d="M36.728 39.1819C36.5053 39.1819 36.2819 38.9592 36.2819 38.7358C36.2819 38.5131 36.5053 38.2897 36.728 38.2897C36.9515 38.2897 37.1741 38.5131 37.1741 38.7358C37.1741 38.9592 36.9515 39.1819 36.728 39.1819ZM36.728 36.4313C35.4641 36.4313 34.4236 37.4726 34.4236 38.7358C34.4236 39.9998 35.4641 41.041 36.728 41.041C37.9927 41.041 39.0332 39.9998 39.0332 38.7358C39.0332 37.4726 37.9927 36.4313 36.728 36.4313Z" fill="white"/>
<path d="M36.2828 8.55047C37.324 8.55047 38.1418 9.3683 38.1418 10.4088C38.1418 11.4501 37.324 12.2679 36.2828 12.2679C35.2423 12.2679 34.4245 11.4501 34.4245 10.4088C34.4245 9.3683 35.2423 8.55047 36.2828 8.55047ZM36.2828 14.1262C38.3652 14.1262 40.0001 12.4906 40.0001 10.4088C40.0001 8.32704 38.3652 6.69139 36.2828 6.69139C34.201 6.69139 32.5654 8.32704 32.5654 10.4088C32.5654 12.4906 34.201 14.1262 36.2828 14.1262Z" fill="white"/>
</svg>
