<svg width="43" height="44" viewBox="0 0 43 44" fill="none" xmlns="http://www.w3.org/2000/svg">
<path d="M37.9408 27.1545C38.3249 27.1545 38.6363 27.4661 38.6363 27.85C38.6363 28.2339 38.3249 28.5454 37.9408 28.5454C37.5568 28.5454 37.2454 28.2339 37.2454 27.85C37.2454 27.4661 37.5568 27.1545 37.9408 27.1545Z" fill="#132C12"/>
<path d="M30.2133 20.6643C30.5973 20.6643 30.9087 20.9757 30.9087 21.3597C30.9087 21.7438 30.5973 22.0552 30.2133 22.0552C29.8292 22.0552 29.5178 21.7438 29.5178 21.3597C29.5178 20.9757 29.8292 20.6643 30.2133 20.6643Z" fill="#132C12"/>
<path d="M25.809 0.572959C26.193 0.572959 26.5044 0.884368 26.5044 1.26841C26.5044 1.65246 26.193 1.96387 25.809 1.96387C25.4249 1.96387 25.1135 1.65246 25.1135 1.26841C25.1135 0.884368 25.4249 0.572959 25.809 0.572959Z" fill="#132C12"/>
<path d="M16.6913 18.4226C17.0753 18.4226 17.3868 18.734 17.3868 19.118C17.3868 19.5021 17.0753 19.8135 16.6913 19.8135C16.3073 19.8135 15.9958 19.5021 15.9958 19.118C15.9958 18.734 16.3073 18.4226 16.6913 18.4226Z" fill="#132C12"/>
<path d="M11.8229 1.57735C12.2069 1.57735 12.5183 1.88876 12.5183 2.27281C12.5183 2.65763 12.2069 2.96826 11.8229 2.96826C11.4381 2.96826 11.1274 2.65763 11.1274 2.27281C11.1274 1.88876 11.4381 1.57735 11.8229 1.57735Z" fill="#132C12"/>
<path d="M2.16323 29.55C2.54804 29.55 2.85868 29.8616 2.85868 30.2455C2.85868 30.6294 2.54804 30.9409 2.16323 30.9409C1.77841 30.9409 1.46777 30.6294 1.46777 30.2455C1.46777 29.8616 1.77841 29.55 2.16323 29.55Z" fill="#132C12"/>
<path d="M1.69985 8.30001C2.08389 8.30001 2.3953 8.61142 2.3953 8.99546C2.3953 9.37951 2.08389 9.69092 1.69985 9.69092C1.3158 9.69092 1.00439 9.37951 1.00439 8.99546C1.00439 8.61142 1.3158 8.30001 1.69985 8.30001Z" fill="#132C12"/>
<path d="M9.19526 38.2047C8.42253 38.2047 7.72708 38.8229 7.72708 39.6729C7.72708 40.4456 8.34526 41.1411 9.19526 41.1411C10.0453 41.1411 10.6634 40.5229 10.6634 39.6729C10.6634 38.8229 9.96798 38.2047 9.19526 38.2047ZM9.19526 42.0684C7.88162 42.0684 6.7998 40.9865 6.7998 39.6729C6.7998 38.3593 7.88162 37.2775 9.19526 37.2775C10.5089 37.2775 11.5907 38.3593 11.5907 39.6729C11.5907 40.9865 10.5089 42.0684 9.19526 42.0684Z" fill="#132C12"/>
<path d="M30.9089 38.2047C30.1362 38.2047 29.4407 38.8229 29.4407 39.6729C29.4407 40.4456 30.0589 41.1411 30.9089 41.1411C31.6816 41.1411 32.3771 40.5229 32.3771 39.6729C32.3771 38.8229 31.6816 38.2047 30.9089 38.2047ZM30.9089 42.0684C29.5952 42.0684 28.5134 40.9865 28.5134 39.6729C28.5134 38.3593 29.5952 37.2775 30.9089 37.2775C32.2225 37.2775 33.3043 38.3593 33.3043 39.6729C33.3043 40.9865 32.2225 42.0684 30.9089 42.0684Z" fill="#132C12"/>
<path d="M5.33192 40.1362H1.00465C0.772833 40.1362 0.541016 39.9044 0.541016 39.6726C0.541016 34.3408 4.86828 30.0135 10.2001 30.0135C10.4319 30.0135 10.6637 30.2453 10.6637 30.4771C10.6637 30.709 10.4319 30.9408 10.2001 30.9408C5.56374 30.9408 1.77738 34.5726 1.54556 39.1317H5.40919C5.64101 39.1317 5.87283 39.3635 5.87283 39.5953C5.87283 39.8271 5.56374 40.1362 5.33192 40.1362Z" fill="#132C12"/>
<path d="M10.4317 31.0184H10.3544C10.1226 30.9411 9.96802 30.7093 9.96802 30.4002C11.1271 25.6093 15.3771 22.2866 20.3225 22.2866C25.268 22.2866 29.4407 25.6093 30.6771 30.4002C30.7544 30.632 30.5998 30.9411 30.2907 31.0184C30.0589 31.0957 29.7498 30.9411 29.6725 30.632C28.5907 26.3048 24.7271 23.2911 20.3225 23.2911C15.8407 23.2911 11.9771 26.3048 10.9726 30.632C10.818 30.8638 10.6635 31.0184 10.4317 31.0184Z" fill="#132C12"/>
<path d="M39.5635 40.1362H34.6953C34.4635 40.1362 34.2317 39.9044 34.2317 39.6726C34.2317 39.4408 34.4635 39.209 34.6953 39.209H39.0226C38.9453 37.5862 38.4044 36.0408 37.3999 34.6499C37.0908 34.2635 36.7817 33.8771 36.4726 33.5681C34.8499 31.9453 32.6862 31.0181 30.2908 31.0181C30.059 31.0181 29.8271 30.7862 29.8271 30.5544C29.8271 30.3226 30.059 30.0908 30.2908 30.0908C32.8408 30.0908 35.3135 31.0953 37.0908 32.9499C37.4771 33.3362 37.7862 33.7226 38.1726 34.1862C39.3317 35.809 39.9499 37.7408 39.9499 39.7499C40.1044 39.9044 39.8726 40.1362 39.5635 40.1362Z" fill="#132C12"/>
<path d="M27.0452 40.1362H13.0589C12.827 40.1362 12.5952 39.9044 12.5952 39.6726C12.5952 39.4408 12.827 39.209 13.0589 39.209H27.0452C27.277 39.209 27.5088 39.4408 27.5088 39.6726C27.5088 39.9044 27.277 40.1362 27.0452 40.1362Z" fill="#132C12"/>
<path d="M9.19567 36.2727C7.34113 36.2727 5.79568 37.8182 5.79568 39.6727C5.79568 41.5273 7.34113 43.0727 9.19567 43.0727C11.0502 43.0727 12.5957 41.5273 12.5957 39.6727C12.5957 37.8182 11.0502 36.2727 9.19567 36.2727ZM9.19567 44C6.80022 44 4.86841 42.0682 4.86841 39.6727C4.86841 37.2773 6.80022 35.3455 9.19567 35.3455C11.5911 35.3455 13.5229 37.2773 13.5229 39.6727C13.5229 42.0682 11.5911 44 9.19567 44Z" fill="#132C12"/>
<path d="M30.9095 36.2727C29.055 36.2727 27.5095 37.8182 27.5095 39.6727C27.5095 41.5273 29.055 43.0727 30.9095 43.0727C32.7641 43.0727 34.3095 41.5273 34.3095 39.6727C34.3095 37.8182 32.7641 36.2727 30.9095 36.2727ZM30.9095 44C28.5141 44 26.5823 42.0682 26.5823 39.6727C26.5823 37.2773 28.5141 35.3455 30.9095 35.3455C33.305 35.3455 35.2368 37.2773 35.2368 39.6727C35.2368 42.0682 33.305 44 30.9095 44Z" fill="#132C12"/>
<path d="M20.2454 31.0186C20.0136 31.0186 19.7817 30.7867 19.7817 30.5549V22.7504C19.7817 22.5186 20.0136 22.2867 20.2454 22.2867C20.4772 22.2867 20.709 22.5186 20.709 22.7504V30.4776C20.7863 30.7867 20.5545 31.0186 20.2454 31.0186Z" fill="#132C12"/>
<path d="M20.2454 40.1362C20.0136 40.1362 19.7817 39.9044 19.7817 39.6726V33.8771C19.7817 33.6453 20.0136 33.4135 20.2454 33.4135C20.4772 33.4135 20.709 33.6453 20.709 33.8771V39.6726C20.7863 39.9044 20.5545 40.1362 20.2454 40.1362Z" fill="#132C12"/>
<path d="M30.4458 31.0186H10.1231C9.89124 31.0186 9.65942 30.7867 9.65942 30.5549C9.65942 30.3231 9.89124 30.0913 10.1231 30.0913H30.4458C30.6776 30.0913 30.9094 30.3231 30.9094 30.5549C30.9094 30.7867 30.6776 31.0186 30.4458 31.0186Z" fill="#132C12"/>
<path d="M37.8636 34.8818V33.9546C39.5636 33.9546 41.0318 32.5637 41.0318 30.7864V21.1273C41.0318 19.4273 39.6409 17.9591 37.8636 17.9591H28.2818C26.5818 17.9591 25.1136 16.5682 25.1136 14.7909C25.1136 14.1728 24.8818 13.6319 24.4954 13.2455C24.1091 12.8591 23.5681 12.6273 22.95 12.6273H18.3909C18.1591 12.6273 17.9272 12.3955 17.9272 12.1637C17.9272 11.9319 18.1591 11.7 18.3909 11.7H22.95C23.8 11.7 24.5727 12.0091 25.1909 12.6273C25.8091 13.2455 26.1181 14.0182 26.1181 14.8682C26.1181 16.1046 27.1227 17.0319 28.2818 17.0319H37.9409C40.1818 17.0319 42.0363 18.8864 42.0363 21.1273V30.7091C42.0363 33.0273 40.1818 34.8046 37.8636 34.8818Z" fill="#132C12"/>
<path d="M33.0733 15.1772C32.996 15.1772 32.996 15.1772 32.9188 15.1772C30.6779 14.4045 28.9006 13.0136 27.8188 11.1591C27.587 10.6954 27.3551 10.2318 27.2006 9.76816C26.6597 8.22271 26.5824 6.44544 26.9688 4.59089C26.9688 4.43635 27.046 4.35907 27.2006 4.2818C27.3551 4.20453 27.4324 4.20453 27.587 4.20453C28.2051 4.43635 28.8233 4.66817 29.4415 4.97726C30.9097 5.74998 32.0688 6.8318 32.8415 8.22271C33.0733 8.60907 33.2279 8.91816 33.3824 9.30452C33.4597 9.53634 33.3824 9.84543 33.0733 9.92271C32.8415 9.99998 32.5324 9.92271 32.4551 9.61362C32.3006 9.30452 32.146 8.91816 31.9915 8.60907C31.296 7.37271 30.2915 6.44544 28.9779 5.74998C28.5915 5.51816 28.2051 5.36362 27.8188 5.20907C27.587 6.67725 27.6642 8.06816 28.1279 9.30452C28.2824 9.76816 28.437 10.1545 28.6688 10.5409C29.596 12.2409 31.2188 13.4772 33.3051 14.0954C33.5369 14.1727 33.6915 14.4818 33.6142 14.7136C33.4597 15.0227 33.2279 15.1772 33.0733 15.1772Z" fill="#132C12"/>
<path d="M33.3049 9.53671C33.0731 10.9276 33.0731 12.4731 33.3822 14.0185C36.164 13.014 38.4049 11.314 39.7185 8.9958C40.2594 8.06853 40.6458 6.98671 40.8776 5.90489C41.1867 4.35944 41.1867 2.73671 40.8776 0.95944C39.4094 1.50035 38.1731 2.1958 37.0912 3.0458C36.0867 3.8958 35.2367 4.82307 34.5412 5.98216C34.0003 7.14125 33.5367 8.30034 33.3049 9.53671ZM33.0731 15.1776C32.9958 15.1776 32.9185 15.1776 32.8412 15.1003C32.6867 15.0231 32.6094 14.9458 32.6094 14.7912C32.2231 12.9367 32.1458 11.1594 32.4549 9.45943C32.6867 8.06853 33.1503 6.83216 33.8458 5.5958C34.5412 4.35944 35.4685 3.27762 36.6276 2.42762C37.9412 1.3458 39.4867 0.573077 41.264 0.0321684C41.4185 -0.045104 41.4958 0.0321684 41.6503 0.109441C41.8049 0.186714 41.8821 0.263987 41.8821 0.418531C42.3458 2.42762 42.3458 4.43671 41.9594 6.29125C41.7276 7.45034 41.264 8.60943 40.6458 9.61398C39.1003 12.2412 36.5503 14.1731 33.3049 15.2549C33.1503 15.1003 33.0731 15.1776 33.0731 15.1776Z" fill="#132C12"/>
<path d="M29.1321 5.9043C28.9003 5.9043 28.6685 5.67248 28.6685 5.44066C28.6685 5.36339 28.6685 5.20884 28.7457 5.13157C30.2912 3.19975 32.5321 2.04066 35.0048 2.04066C35.623 2.04066 36.3184 2.11794 36.9366 2.27248C37.1684 2.34975 37.323 2.58157 37.323 2.89066C37.2457 3.12248 37.0139 3.27703 36.7048 3.27703C36.1639 3.12248 35.623 3.04521 35.0048 3.04521C32.8412 3.04521 30.8321 4.04975 29.5185 5.74975C29.4412 5.82702 29.2866 5.9043 29.1321 5.9043Z" fill="#132C12"/>
<path d="M35.0047 17.959C30.6002 17.959 27.0457 14.4044 27.0457 9.9999C27.0457 9.84536 27.0457 9.69081 27.0457 9.53627C27.0457 9.30445 27.2775 9.07263 27.5866 9.07263C27.8184 9.07263 28.0502 9.30445 28.0502 9.61354C28.0502 9.76808 28.0502 9.92263 28.0502 9.9999C28.0502 13.8635 31.2184 16.9544 35.0047 16.9544C38.8684 16.9544 41.9593 13.7863 41.9593 9.9999C41.9593 8.68627 41.5729 7.4499 40.8775 6.29081C40.7229 6.059 40.8002 5.7499 41.032 5.59536C41.2638 5.44081 41.5729 5.51809 41.7275 5.7499C42.5002 6.98627 42.8865 8.45445 42.8865 9.92263C42.9638 14.4044 39.4093 17.959 35.0047 17.959Z" fill="#132C12"/>
<path d="M33.0729 15.1772C32.9957 15.1772 32.9184 15.1772 32.8411 15.1C32.6093 14.9454 32.532 14.7136 32.6093 14.4818L37.0911 6.05907C37.2457 5.82726 37.4775 5.74998 37.7093 5.82726C37.9411 5.9818 38.0184 6.21362 37.9411 6.44544L33.4593 14.8682C33.382 15.0227 33.2275 15.1772 33.0729 15.1772Z" fill="#132C12"/>
<path d="M33.0727 15.1772C32.9181 15.1772 32.7636 15.1 32.6863 14.9454L30.1363 10.85C29.9818 10.6182 30.059 10.3091 30.2909 10.1545C30.5227 9.99998 30.8318 10.0773 30.9863 10.3091L33.5363 14.4045C33.6909 14.6363 33.6136 14.9454 33.3818 15.1C33.2272 15.1 33.1499 15.1772 33.0727 15.1772Z" fill="#132C12"/>
<path d="M14.4503 16.4907H10.1231C9.89124 16.4907 9.65942 16.2589 9.65942 16.0271V14.5589C9.65942 14.3271 9.89124 14.0953 10.1231 14.0953C10.3549 14.0953 10.5867 14.3271 10.5867 14.5589V15.5635H14.4503C15.3776 15.5635 16.2276 15.1771 16.8458 14.5589C17.464 13.9407 17.773 13.168 17.8503 12.2407V12.1635C17.8503 10.3089 16.3049 8.76346 14.4503 8.76346H10.5867V9.768C10.5867 9.99982 10.3549 10.2316 10.1231 10.2316C9.89124 10.2316 9.65942 9.99982 9.65942 9.768V8.29982C9.65942 8.068 9.89124 7.83618 10.1231 7.83618H14.4503C16.8458 7.83618 18.7776 9.768 18.7776 12.1635V12.2407C18.7003 13.3998 18.314 14.4816 17.5412 15.2544C16.7685 16.0271 15.6094 16.4907 14.4503 16.4907Z" fill="#132C12"/>
<path d="M10.1231 13.6323C9.89124 13.6323 9.65942 13.4005 9.65942 13.1687V11.1596C9.65942 10.9278 9.89124 10.696 10.1231 10.696C10.3549 10.696 10.5867 10.9278 10.5867 11.1596V13.0914C10.5867 13.4005 10.4322 13.6323 10.1231 13.6323Z" fill="#132C12"/>
<path d="M7.03238 10.2315C6.87784 10.2315 6.80057 10.3088 6.80057 10.4633C6.80057 10.5406 6.87784 10.6179 6.87784 10.6179C6.87784 10.6179 6.95511 10.6952 7.03238 10.6952H9.65965V10.2315H7.03238ZM10.1233 11.6997H6.95511C6.64602 11.6997 6.33693 11.5452 6.10511 11.3133C5.8733 11.0815 5.71875 10.7724 5.71875 10.4633C5.71875 9.76789 6.25966 9.22698 6.95511 9.22698H10.1233C10.3551 9.22698 10.5869 9.4588 10.5869 9.69062V11.1588C10.5869 11.4679 10.4324 11.6997 10.1233 11.6997Z" fill="#132C12"/>
<path d="M7.03238 13.632C6.87784 13.632 6.80057 13.7093 6.80057 13.8639C6.80057 13.9411 6.87784 14.0184 6.87784 14.0184C6.87784 14.0184 6.95511 14.0957 7.03238 14.0957H9.65965V13.632H7.03238ZM10.1233 15.0229H6.95511C6.64602 15.0229 6.33693 14.8684 6.10511 14.6366C5.8733 14.4048 5.71875 14.0957 5.71875 13.7866C5.71875 13.0911 6.25966 12.5502 6.95511 12.5502H10.1233C10.3551 12.5502 10.5869 12.782 10.5869 13.0139V14.482C10.5869 14.7911 10.4324 15.0229 10.1233 15.0229Z" fill="#132C12"/>
<path d="M21.2502 2.9684C20.4775 2.9684 19.782 3.58658 19.782 4.43658C19.782 5.28658 20.4002 5.90476 21.2502 5.90476C22.1002 5.90476 22.7184 5.28658 22.7184 4.43658C22.7184 3.58658 22.0229 2.9684 21.2502 2.9684ZM21.2502 6.83203C19.9366 6.83203 18.8547 5.75021 18.8547 4.43658C18.8547 3.12294 19.9366 2.04113 21.2502 2.04113C22.5638 2.04113 23.6456 3.12294 23.6456 4.43658C23.6456 5.75021 22.5638 6.83203 21.2502 6.83203Z" fill="#132C12"/>
<path d="M4.32727 18.8865C2.47272 18.8865 0.927271 20.432 0.927271 22.2865C0.927271 24.141 2.47272 25.6865 4.32727 25.6865C6.18181 25.6865 7.72726 24.141 7.72726 22.2865C7.72726 20.432 6.18181 18.8865 4.32727 18.8865ZM4.32727 26.6138C1.93182 26.6138 0 24.682 0 22.2865C0 19.891 1.93182 17.9592 4.32727 17.9592C6.72272 17.9592 8.65453 19.891 8.65453 22.2865C8.65453 24.682 6.72272 26.6138 4.32727 26.6138Z" fill="#132C12"/>
<path d="M40.1049 44H4.32765C4.09583 44 3.86401 43.7682 3.86401 43.5364C3.86401 43.3045 4.09583 43.0727 4.32765 43.0727H40.1049C40.3367 43.0727 40.5685 43.3045 40.5685 43.5364C40.5685 43.7682 40.3367 44 40.1049 44Z" fill="#132C12"/>
</svg>
