<svg width="43" height="44" viewBox="0 0 43 44" fill="none" xmlns="http://www.w3.org/2000/svg">
<path d="M42.2427 11.5352C42.6223 11.5352 42.9302 11.843 42.9302 12.2227C42.9302 12.6023 42.6223 12.9102 42.2427 12.9102C41.863 12.9102 41.5552 12.6023 41.5552 12.2227C41.5552 11.843 41.863 11.5352 42.2427 11.5352Z" fill="#132C12"/>
<path d="M40.3332 34.9097C40.7129 34.9097 41.0207 35.2175 41.0207 35.5972C41.0207 35.9768 40.7129 36.2847 40.3332 36.2847C39.9536 36.2847 39.6458 35.9768 39.6458 35.5972C39.6458 35.2175 39.9536 34.9097 40.3332 34.9097Z" fill="#132C12"/>
<path d="M34.604 0.0766696C34.9836 0.0766696 35.2915 0.384515 35.2915 0.764165C35.2915 1.14382 34.9836 1.45166 34.604 1.45166C34.2243 1.45166 33.9165 1.14382 33.9165 0.764165C33.9165 0.384515 34.2243 0.0766696 34.604 0.0766696Z" fill="#132C12"/>
<path d="M32.2358 39.1875C32.6155 39.1875 32.9233 39.4954 32.9233 39.875C32.9233 40.2547 32.6155 40.5625 32.2358 40.5625C31.8562 40.5625 31.5483 40.2547 31.5483 39.875C31.5483 39.4954 31.8562 39.1875 32.2358 39.1875Z" fill="#132C12"/>
<path d="M12.1457 37.8125C12.5254 37.8125 12.8332 38.1204 12.8332 38.5C12.8332 38.8797 12.5254 39.1875 12.1457 39.1875C11.7661 39.1875 11.4583 38.8797 11.4583 38.5C11.4583 38.1204 11.7661 37.8125 12.1457 37.8125Z" fill="#132C12"/>
<path d="M3.59008 2.44435C3.96973 2.44435 4.27758 2.75219 4.27758 3.13184C4.27758 3.51149 3.96973 3.81934 3.59008 3.81934C3.21043 3.81934 2.90259 3.51149 2.90259 3.13184C2.90259 2.75219 3.21043 2.44435 3.59008 2.44435Z" fill="#132C12"/>
<path d="M0.687495 28.7222C1.06715 28.7222 1.37499 29.03 1.37499 29.4097C1.37499 29.7893 1.06715 30.0972 0.687495 30.0972C0.307845 30.0972 0 29.7893 0 29.4097C0 29.03 0.307845 28.7222 0.687495 28.7222Z" fill="#132C12"/>
<path d="M26.5066 35.3682C26.2774 35.3682 26.0482 35.139 26.0482 34.9098V33.0765C26.0482 32.8473 26.201 32.6946 26.3538 32.6182C32.0065 30.5557 35.8259 25.1321 35.8259 19.1738C35.8259 11.3058 29.4093 4.81282 21.4649 4.81282C13.5969 4.81282 7.10392 11.2294 7.10392 19.1738C7.10392 25.2085 10.9233 30.6321 16.5761 32.6182C16.7289 32.6946 16.8816 32.8473 16.8816 33.0765V34.9098C16.8816 35.139 16.6525 35.3682 16.4233 35.3682C16.1941 35.3682 15.965 35.139 15.965 34.9098V33.3821C10.0831 31.1668 6.18726 25.4377 6.18726 19.1738C6.18726 10.7711 13.0622 3.89616 21.4649 3.89616C29.8676 3.89616 36.7426 10.7711 36.7426 19.1738C36.7426 25.5141 32.8468 31.1668 26.9649 33.4585V34.9862C26.9649 35.139 26.7357 35.3682 26.5066 35.3682Z" fill="#132C12"/>
<path d="M26.7355 38.271C26.5063 38.271 26.2772 38.0418 26.2772 37.8127C26.2772 37.5835 26.5063 37.3543 26.7355 37.3543C26.9646 37.3543 27.1938 37.2779 27.423 37.0488C27.5758 36.896 27.7285 36.5905 27.7285 36.3613C27.7285 35.8266 27.2702 35.3682 26.7355 35.3682H16.1939C15.9647 35.3682 15.7356 35.4446 15.5064 35.6738C15.3536 35.8266 15.2008 36.1321 15.2008 36.3613C15.2008 36.896 15.6592 37.3543 16.1939 37.3543C16.4231 37.3543 16.6522 37.5835 16.6522 37.8127C16.6522 38.0418 16.4231 38.271 16.1939 38.271C15.1245 38.271 14.2842 37.4307 14.2842 36.3613C14.2842 35.8266 14.5133 35.3682 14.8189 34.9863C15.2008 34.6044 15.6592 34.4516 16.1939 34.4516H26.7355C27.8049 34.4516 28.6452 35.2918 28.6452 36.3613C28.6452 36.896 28.416 37.3543 28.1105 37.7363C27.7285 38.0418 27.1938 38.271 26.7355 38.271Z" fill="#132C12"/>
<path d="M26.7355 41.0972H24.8258C24.5966 41.0972 24.3674 40.868 24.3674 40.6388C24.3674 40.4097 24.5966 40.1805 24.8258 40.1805H26.7355C26.9646 40.1805 27.1938 40.1041 27.423 39.875C27.5758 39.7222 27.7285 39.4166 27.7285 39.1875C27.7285 38.6527 27.2702 38.1944 26.7355 38.1944H16.1939C15.9647 38.1944 15.7356 38.2708 15.5064 38.5C15.3536 38.6527 15.2008 38.9583 15.2008 39.1875C15.2008 39.7222 15.6592 40.1805 16.1939 40.1805H18.1036C18.3328 40.1805 18.5619 40.4097 18.5619 40.6388C18.5619 40.868 18.3328 41.0972 18.1036 41.0972H16.1939C15.1245 41.0972 14.2842 40.2569 14.2842 39.1875C14.2842 38.6527 14.5133 38.1944 14.8189 37.8125C15.2008 37.4305 15.6592 37.2777 16.1939 37.2777H26.7355C27.8049 37.2777 28.6452 38.118 28.6452 39.1875C28.6452 39.7222 28.416 40.1805 28.1105 40.5624C27.7285 40.868 27.1938 41.0972 26.7355 41.0972Z" fill="#132C12"/>
<path d="M18.6386 41.0972V41.632C18.6386 42.3958 19.2497 43.007 20.0135 43.007H22.9927C23.7566 43.007 24.3677 42.3958 24.3677 41.632V41.0972H18.6386ZM22.9927 44H19.9372C18.6386 44 17.6455 42.9306 17.6455 41.7083V40.7153C17.6455 40.4861 17.8747 40.257 18.1038 40.257H24.826C25.0552 40.257 25.2843 40.4861 25.2843 40.7153V41.7083C25.2843 42.9306 24.2149 44 22.9927 44Z" fill="#132C12"/>
<path d="M21.4647 2.90283C21.2355 2.90283 21.0063 2.67367 21.0063 2.4445V0.993123C21.0063 0.763958 21.2355 0.534793 21.4647 0.534793C21.6938 0.534793 21.923 0.763958 21.923 0.993123V2.4445C21.923 2.67367 21.6938 2.90283 21.4647 2.90283Z" fill="#132C12"/>
<path d="M33.3049 7.79199C33.1521 7.79199 33.0757 7.7156 32.9993 7.63922C32.8466 7.48644 32.8466 7.18089 32.9993 6.95172L33.9924 5.95867C34.1452 5.80589 34.4507 5.80589 34.6799 5.95867C34.8327 6.11145 34.8327 6.417 34.6799 6.64617L33.6868 7.63922C33.5341 7.7156 33.3813 7.79199 33.3049 7.79199Z" fill="#132C12"/>
<path d="M8.63181 32.4653C8.47903 32.4653 8.40264 32.3889 8.32625 32.3126C8.17348 32.1598 8.17348 31.8542 8.32625 31.6251L9.3193 30.632C9.47208 30.4792 9.77763 30.4792 10.0068 30.632C10.1596 30.7848 10.1596 31.0903 10.0068 31.3195L9.01375 32.3126C8.86097 32.3889 8.78458 32.4653 8.63181 32.4653Z" fill="#132C12"/>
<path d="M39.6453 19.6323H38.1939C37.9648 19.6323 37.7356 19.4032 37.7356 19.174C37.7356 18.9448 37.9648 18.7157 38.1939 18.7157H39.6453C39.8745 18.7157 40.1036 18.9448 40.1036 19.174C40.1036 19.4032 39.8745 19.6323 39.6453 19.6323Z" fill="#132C12"/>
<path d="M16.9581 28.646C16.8817 28.646 16.8817 28.646 16.8053 28.646C16.5761 28.5696 16.4233 28.3404 16.4997 28.0349L17.7219 24.1391C17.7219 24.0627 17.7983 23.9863 17.8747 23.9099L18.5622 23.2988L16.8817 22.6877C16.8053 22.6877 16.7289 22.6113 16.6525 22.5349L15.4303 21.1599L13.3678 20.4724C13.1386 20.3961 13.0623 20.2433 13.0623 20.0141V18.028C13.0623 17.8752 13.1386 17.7988 13.215 17.7225L15.965 14.8197C16.0414 14.7433 16.1178 14.6669 16.2706 14.6669L17.1108 14.5905V13.8267C17.1108 13.6739 17.1872 13.5975 17.2636 13.5211L17.7219 13.0628L17.6456 12.1461C17.6456 11.9169 17.7983 11.7642 17.9511 11.6878L19.0969 11.3058C19.3261 11.2294 19.5553 11.3058 19.708 11.535L19.9372 11.9933L21.8469 10.542L21.3122 9.01418C21.2358 8.78502 21.3886 8.47947 21.6941 8.40308C21.9233 8.32669 22.2289 8.47947 22.3052 8.78502L22.7636 10.6947C22.84 10.8475 22.7636 11.0767 22.6108 11.1531L19.9372 13.1392C19.8608 13.2155 19.708 13.2919 19.5553 13.2155C19.4025 13.1392 19.3261 13.0628 19.2497 12.9864L18.9442 12.3753L18.5622 12.5281L18.6386 13.2919C18.6386 13.4447 18.5622 13.5211 18.4858 13.6739L18.0275 14.1322V15.1253C18.0275 15.3544 17.8747 15.5836 17.5692 15.5836L16.4997 15.66L13.9789 18.2572V19.7086L15.8886 20.3197C15.965 20.3197 16.0414 20.3961 16.1178 20.4724L17.34 21.8474L19.5553 22.6877C19.708 22.7641 19.8608 22.9169 19.8608 23.0696C19.8608 23.2224 19.8608 23.3752 19.708 23.528L18.5622 24.5974L17.4164 28.4168C17.34 28.4932 17.1872 28.646 16.9581 28.646Z" fill="#132C12"/>
<path d="M27.1942 24.6738H25.4373C25.2845 24.6738 25.2081 24.5974 25.0554 24.5211C24.979 24.4447 24.9026 24.2919 24.9026 24.1391L25.1317 21.6947L23.0693 20.778C22.9929 20.778 22.9165 20.7016 22.8401 20.6252L20.6248 17.7225C20.4721 17.5697 20.4721 17.3405 20.6248 17.1878L22.229 15.1253L21.6943 14.9725C21.5415 14.9725 21.3887 14.8197 21.3887 14.667C21.3123 14.5142 21.3123 14.3614 21.3887 14.2086L22.3054 12.4517C22.3818 12.2989 22.5345 12.2225 22.6873 12.2225L23.8331 12.1461L24.1387 11.0003C24.1387 10.9239 24.2151 10.7711 24.2915 10.7711L25.8192 9.62532C26.0484 9.47254 26.354 9.47254 26.5067 9.70171C26.6595 9.93087 26.6595 10.2364 26.4304 10.3892L25.0554 11.4586L24.7498 12.7572C24.6734 12.9864 24.5206 13.1392 24.2915 13.1392L23.0693 13.2156L22.5345 14.1322L23.1457 14.285C23.2984 14.285 23.4512 14.4378 23.5276 14.5906C23.604 14.7433 23.604 14.8961 23.4512 15.0489L21.7707 17.4169L23.6804 19.9377L25.972 20.9308C26.2012 21.0072 26.2776 21.2364 26.2776 21.3891L26.0484 23.6808H26.9651C27.0415 23.528 27.1178 23.4516 27.1942 23.2988L28.7984 20.5489C28.8748 20.4725 28.8748 20.3961 28.9512 20.3961L31.3956 18.9447C31.6248 18.7919 31.9303 18.8683 32.0831 19.0975C32.2359 19.3266 32.1595 19.6322 31.9303 19.785L29.4859 21.16L27.9581 23.8336C27.8817 23.9863 27.8053 24.1391 27.729 24.2919L27.6526 24.3683C27.5762 24.5974 27.4234 24.6738 27.1942 24.6738Z" fill="#132C12"/>
<path d="M26.4304 18.1046L27.3471 18.7157L28.1873 17.8754L27.4235 16.806C27.4235 16.806 27.4235 16.7296 27.3471 16.7296L26.736 15.2782L26.0485 16.5768L26.4304 18.1046ZM27.4235 19.7852C27.3471 19.7852 27.2707 19.7852 27.1943 19.7088L25.7429 18.7921C25.6665 18.7157 25.5901 18.6393 25.5138 18.4866L25.0554 16.5768C25.0554 16.4241 25.0554 16.3477 25.1318 16.1949L26.5832 13.8269C26.6596 13.6741 26.8124 13.5977 27.0415 13.5977C27.1943 13.5977 27.3471 13.7505 27.4235 13.9033L28.3401 16.1949L29.2568 17.5699C29.4096 17.7227 29.3332 18.0282 29.1804 18.181L27.8054 19.7088C27.729 19.7852 27.5762 19.7852 27.4235 19.7852Z" fill="#132C12"/>
<path d="M21.4651 9.31964C16.1179 9.31964 11.7638 13.6738 11.7638 19.021C11.7638 22.764 13.8263 26.0487 17.1874 27.7292C18.5624 28.4167 19.9374 28.7223 21.4651 28.7223C26.7359 28.7223 31.0137 24.5973 31.1664 19.3265C31.1664 19.2501 31.1664 19.0973 31.1664 19.021C31.1664 15.4307 29.1803 12.0696 25.972 10.3891C24.6734 9.70158 23.2221 9.31964 21.7707 9.31964C21.6179 9.31964 21.5415 9.31964 21.4651 9.31964ZM21.4651 29.7153C19.7846 29.7153 18.2568 29.3334 16.729 28.6459C14.9721 27.8056 13.5207 26.4306 12.4513 24.8265C11.3819 23.1459 10.7708 21.1598 10.7708 19.0973C10.7708 13.2154 15.5832 8.47937 21.3887 8.47937C21.4651 8.47937 21.6179 8.47937 21.6943 8.47937C23.2984 8.55575 24.9026 8.9377 26.354 9.70158C29.8678 11.5349 32.0831 15.2015 32.0831 19.1737C32.0831 19.2501 32.0831 19.4029 32.0831 19.4793C32.0067 22.2293 30.8609 24.8265 28.8748 26.8126C26.8887 28.6459 24.2915 29.7153 21.4651 29.7153Z" fill="#132C12"/>
<path d="M4.73564 19.6323H3.28426C3.05509 19.6323 2.82593 19.4032 2.82593 19.174C2.82593 18.9448 3.05509 18.7157 3.28426 18.7157H4.73564C4.9648 18.7157 5.19397 18.9448 5.19397 19.174C5.27036 19.4032 5.04119 19.6323 4.73564 19.6323Z" fill="#132C12"/>
<path d="M9.62485 7.79199C9.47208 7.79199 9.39569 7.7156 9.3193 7.63922L8.32625 6.64617C8.17348 6.49339 8.17348 6.18784 8.32625 5.95867C8.47903 5.80589 8.78458 5.80589 9.01375 5.95867L10.0068 6.95172C10.1596 7.1045 10.1596 7.41005 10.0068 7.63922C9.93041 7.7156 9.77763 7.79199 9.62485 7.79199Z" fill="#132C12"/>
<path d="M34.2984 32.4653C34.1456 32.4653 34.0692 32.3889 33.9929 32.3126L32.9234 31.3195C32.7706 31.1667 32.7706 30.8612 32.9234 30.632C33.0762 30.4792 33.3818 30.4792 33.6109 30.632L34.604 31.6251C34.7567 31.7778 34.7567 32.0834 34.604 32.3126C34.5276 32.3889 34.4512 32.4653 34.2984 32.4653Z" fill="#132C12"/>
<path d="M28.1868 4.35449C28.1104 4.35449 28.034 4.35449 27.9577 4.2781C27.7285 4.20172 27.5757 3.89616 27.7285 3.667L28.3396 2.36839C28.416 2.13923 28.7215 1.98645 28.9507 2.13923C29.1799 2.21562 29.3326 2.52117 29.1799 2.75034L28.5688 4.04894C28.5688 4.20172 28.416 4.35449 28.1868 4.35449Z" fill="#132C12"/>
<path d="M37.0481 13.5972C36.819 13.5972 36.6662 13.4444 36.5898 13.2916C36.5134 13.0624 36.5898 12.7569 36.8954 12.6805L38.194 12.1458C38.4231 12.0694 38.7287 12.1458 38.8051 12.4513C38.8815 12.6805 38.8051 12.9861 38.4995 13.0624L37.2009 13.5972C37.1245 13.5208 37.1245 13.5972 37.0481 13.5972Z" fill="#132C12"/>
<path d="M4.58305 26.2017C4.35388 26.2017 4.20111 26.0489 4.12472 25.8961C4.04833 25.6669 4.12472 25.3614 4.43027 25.285L5.72888 24.7503C5.95804 24.6739 6.26359 24.7503 6.33998 25.0558C6.41637 25.3614 6.33998 25.5906 6.03443 25.6669L4.73583 26.2017C4.65944 26.2017 4.58305 26.2017 4.58305 26.2017Z" fill="#132C12"/>
<path d="M38.0411 26.8887C37.9647 26.8887 37.8883 26.8887 37.8119 26.8123L36.5133 26.2012C36.2842 26.1248 36.1314 25.8192 36.2842 25.5901C36.3605 25.3609 36.6661 25.2081 36.8953 25.3609L38.1939 25.972C38.423 26.0484 38.5758 26.354 38.423 26.5831C38.423 26.8123 38.2703 26.8887 38.0411 26.8887Z" fill="#132C12"/>
<path d="M6.18757 12.9102C6.11118 12.9102 6.03479 12.9102 5.95841 12.8338L4.6598 12.2227C4.43064 12.1463 4.27786 11.8407 4.43064 11.6116C4.50703 11.3824 4.81258 11.2296 5.04174 11.3824L6.34035 11.9935C6.56951 12.0699 6.72229 12.3754 6.56951 12.6046C6.56951 12.7574 6.34035 12.9102 6.18757 12.9102Z" fill="#132C12"/>
<path d="M15.43 4.04883C15.2009 4.04883 15.0481 3.89605 14.9717 3.74327L14.437 2.44467C14.3606 2.21551 14.437 1.90995 14.7425 1.83357C14.9717 1.75718 15.2772 1.83357 15.3536 2.13912L15.8884 3.43772C15.9647 3.66689 15.8884 3.97244 15.5828 4.04883C15.5064 4.04883 15.5064 4.04883 15.43 4.04883Z" fill="#132C12"/>
<path d="M2.82629 36.3612C2.06241 36.3612 1.37491 36.9724 1.37491 37.8126C1.37491 38.5765 1.98602 39.264 2.82629 39.264C3.66656 39.264 4.27767 38.6529 4.27767 37.8126C4.27767 36.9724 3.66656 36.3612 2.82629 36.3612ZM2.82629 40.1807C1.52769 40.1807 0.458252 39.1112 0.458252 37.8126C0.458252 36.514 1.52769 35.4446 2.82629 35.4446C4.12489 35.4446 5.19433 36.514 5.19433 37.8126C5.27072 39.0348 4.12489 40.1807 2.82629 40.1807Z" fill="#132C12"/>
<path d="M39.8744 0.992874C38.6521 0.992874 37.7355 1.98592 37.7355 3.13175C37.7355 4.27757 38.7285 5.27062 39.8744 5.27062C41.0202 5.27062 42.0132 4.27757 42.0132 3.13175C42.0132 1.98592 41.0202 0.992874 39.8744 0.992874ZM39.8744 6.26367C38.1938 6.26367 36.7424 4.88868 36.7424 3.13175C36.7424 1.37482 38.1174 -0.000174999 39.8744 -0.000174999C41.6313 -0.000174999 43.0063 1.37482 43.0063 3.13175C43.0063 4.88868 41.5549 6.26367 39.8744 6.26367Z" fill="#132C12"/>
</svg>
