<svg width="40" height="35" viewBox="0 0 40 35" fill="none" xmlns="http://www.w3.org/2000/svg">
<path d="M28.6815 32.1526H26.042V21.7361H28.6815V32.1526ZM10.4863 32.1526V21.7361H13.1253V32.1526H10.4863ZM24.3758 21.7361V32.1526H14.7921V21.7361H24.3758ZM6.11147 19.1669C6.11147 18.6806 6.52799 18.2639 7.01414 18.2639H32.1537C32.6393 18.2639 33.056 18.6806 33.056 19.1669C33.056 19.6525 32.6393 20.0692 32.1537 20.0692C28.1952 20.0692 10.139 20.0692 6.9445 20.0692C6.52799 19.9997 6.11147 19.5836 6.11147 19.1669ZM13.0559 6.11098H26.1116V16.5275H13.0559V6.11098ZM7.84771 8.74972H6.11147C6.11147 7.22268 6.11147 3.40268 6.11147 1.80539H7.84771V8.74972ZM3.54192 6.11098V4.37522H4.37523V6.11098H3.54192ZM31.3203 1.80539H33.056C33.056 3.33312 33.056 7.15312 33.056 8.74972H31.3203V1.80539ZM35.6259 4.37522V6.11098H34.7229V4.37522H35.6259ZM32.1537 21.7361C33.6119 21.7361 34.7925 20.5555 34.7925 19.0974C34.7925 17.6392 33.6119 16.4586 32.1537 16.4586H27.7785V6.04143H29.5149V9.51358C29.5149 9.99986 29.931 10.4166 30.4172 10.4166H33.8895C34.3757 10.4166 34.7925 9.99986 34.7925 9.51358V7.84741H36.5282C37.0145 7.84741 37.4312 7.4307 37.4312 6.94442V6.04143H38.3343C38.8199 6.04143 39.2366 5.6247 39.2366 5.13911C39.2366 4.65282 38.8199 4.23612 38.3343 4.23612H37.4312V3.3331C37.4312 2.8475 37.0145 2.43078 36.5282 2.43078H34.7925V0.903069C34.7925 0.416786 34.3757 8.01086e-05 33.8895 8.01086e-05H30.4172C29.931 8.01086e-05 29.5149 0.416786 29.5149 0.903069V4.37522H27.7785V2.63879C27.7785 2.15251 27.3618 1.7358 26.8755 1.7358C26.3899 1.7358 25.9731 2.15251 25.9731 2.63879V4.37522H13.0559V2.63879C13.0559 2.15251 12.6391 1.7358 12.1532 1.7358C11.667 1.7358 11.3199 2.15251 11.3199 2.63879V4.37522H9.58368V0.903069C9.58368 0.416786 9.16689 8.01086e-05 8.68074 8.01086e-05H5.20846C4.72258 8.01086e-05 4.3058 0.416786 4.3058 0.903069V2.63879H2.56983C2.08361 2.63879 1.66682 3.05553 1.66682 3.54182V4.37522H0.903013C0.416793 4.37522 0 4.79194 0 5.27754C0 5.76382 0.416793 6.18056 0.903013 6.18056H1.80595V7.08355C1.80595 7.56984 2.22219 7.98654 2.70862 7.98654H4.37523V9.7223C4.37523 10.2086 4.79174 10.6253 5.27817 10.6253H8.75038C9.23632 10.6253 9.65311 10.2086 9.65311 9.7223V6.25011H11.3199V16.6666H6.9445C5.48646 16.6666 4.3058 17.8472 4.3058 19.3061C4.3058 20.7642 5.48646 21.9448 6.9445 21.9448H8.68074V32.3613H5.20846C4.72258 32.3613 4.3058 32.7781 4.3058 33.2643C4.3058 33.7499 4.72258 34.1666 5.20846 34.1666C6.45855 34.1666 32.3617 34.1666 33.8895 34.1666C34.3757 34.1666 34.7925 33.7499 34.7925 33.2643C34.7925 32.7781 34.3757 32.3613 33.8895 32.3613H30.4172V21.7361H32.1537Z" fill="#132C12"/>
<path d="M2.22133 27.847C2.01311 27.847 1.80509 27.639 1.80509 27.4303C1.80509 27.2223 2.01311 27.0143 2.22133 27.0143C2.42983 27.0143 2.63812 27.2223 2.63812 27.4303C2.63812 27.639 2.42983 27.847 2.22133 27.847ZM2.22133 25.2083C1.04094 25.2083 0.0688477 26.1809 0.0688477 27.3615C0.0688477 28.542 1.04094 29.5139 2.22133 29.5139C3.4022 29.5139 4.37436 28.542 4.37436 27.3615C4.37436 26.1809 3.4022 25.2083 2.22133 25.2083Z" fill="#132C12"/>
<path d="M37.3612 14.7909C36.8756 14.7909 36.4589 14.3741 36.4589 13.8879C36.4589 13.4016 36.8756 12.9855 37.3612 12.9855C37.8475 12.9855 38.2642 13.4016 38.2642 13.8879C38.2642 14.3741 37.8475 14.7909 37.3612 14.7909ZM37.3612 11.3187C35.903 11.3187 34.7224 12.4993 34.7224 13.9574C34.7224 15.4156 35.903 16.5962 37.3612 16.5962C38.8194 16.5962 40 15.4156 40 13.9574C40 12.4993 38.8194 11.3187 37.3612 11.3187Z" fill="#132C12"/>
</svg>
