<svg width="36" height="35" viewBox="0 0 36 35" fill="none" xmlns="http://www.w3.org/2000/svg">
<path d="M25.3404 32.6812H11.4888C10.0213 32.6812 8.87224 31.4682 8.87224 30.064V28.7237H28.0216V30.064C27.9576 31.4682 26.8085 32.6812 25.3404 32.6812ZM11.5534 7.14901C12.1916 7.14901 24.5743 7.14901 25.2125 7.14901C26.7446 7.14901 27.9576 8.36202 27.9576 9.89412V13.5319H8.80831V11.1065H24.7662C25.2125 11.1065 25.5962 10.7235 25.5962 10.2765C25.5962 9.83018 25.2125 9.44715 24.7662 9.44715H8.80831C9.00014 8.17082 10.2125 7.14901 11.5534 7.14901ZM11.1704 1.85124C11.1704 1.65941 11.2983 1.53215 11.4888 1.53215H26.1064C26.2976 1.53215 26.4255 1.65941 26.4255 1.85124V2.80849C26.4255 3.00032 26.2976 3.12757 26.1064 3.12757C25.5322 3.12757 12.2549 3.12757 11.4888 3.12757C11.2983 3.12757 11.1704 3.00032 11.1704 2.80849V1.85124ZM12.7658 4.72361H24.7662V5.55359H12.7658V4.72361ZM19.6596 20.6808L21.3196 20.9366L18.5745 23.809L18.8935 23.0429C19.1487 22.532 18.7663 21.8939 18.1915 21.8939H16.6593L18.3193 17.9363H19.7235L19.0214 19.5324C18.8296 20.1066 19.1487 20.6175 19.6596 20.6808ZM25.5962 17.4894C25.1492 17.4894 24.7662 17.8724 24.7662 18.3194V27.1277H17.6812L23.5532 20.9366C24.0001 20.4896 23.745 19.6603 23.1062 19.5963L20.9359 19.2773L21.702 17.5533C21.9577 17.0431 21.5108 16.4682 20.9999 16.4682H17.873C17.5533 16.4682 17.2342 16.66 17.1702 16.9791L14.8088 22.532C14.553 23.0429 15 23.6178 15.5109 23.6178H17.0424L15.383 27.1277H12.1276V18.3194C12.1276 17.8724 11.7446 17.4894 11.2983 17.4894C10.8513 17.4894 10.4677 17.8724 10.4677 18.3194V27.1277H8.87224V15.1279H28.0216V27.1277H26.4255V18.3194C26.3622 17.8724 26.0425 17.4894 25.5962 17.4894ZM26.3622 5.68148V4.72361C27.2555 4.59636 27.9576 3.76635 27.9576 2.87242V1.9152C27.9576 0.893375 27.1283 7.62939e-05 26.0425 7.62939e-05H11.4888C10.4677 7.62939e-05 9.57433 0.830067 9.57433 1.9152V2.87242C9.57433 3.8303 10.2764 4.59636 11.1704 4.72361V5.55359C8.93617 5.74479 7.21289 7.59597 7.21289 9.89412V30.064C7.21289 32.4261 9.12738 34.2766 11.4255 34.2766H25.3404C27.7025 34.2766 29.5536 32.3621 29.5536 30.064V9.89412C29.5536 7.91505 28.2134 6.19176 26.3622 5.68148Z" fill="#132C12"/>
<path d="M2.4254 23.107C1.97844 23.107 1.59604 22.724 1.59604 22.277C1.59604 21.83 1.97844 21.447 2.4254 21.447C2.87237 21.447 3.25542 21.83 3.25542 22.277C3.25542 22.724 2.87237 23.107 2.4254 23.107ZM2.4254 19.9156C1.08513 19.9156 0 21.0007 0 22.341C0 23.6812 1.08513 24.7664 2.4254 24.7664C3.76567 24.7664 4.8508 23.6812 4.8508 22.341C4.8508 21.0007 3.76567 19.9156 2.4254 19.9156Z" fill="#132C12"/>
<path d="M33.5748 31.8515C33.1278 31.8515 32.7455 31.4685 32.7455 31.0221C32.7455 30.5752 33.1278 30.1921 33.5748 30.1921C34.0218 30.1921 34.4048 30.5752 34.4048 31.0221C34.3409 31.5324 34.0218 31.8515 33.5748 31.8515ZM33.5748 28.6601C32.2345 28.6601 31.1494 29.7452 31.1494 31.0855C31.1494 32.4264 32.2345 33.5115 33.5748 33.5115C34.9151 33.5115 36.0002 32.4264 36.0002 31.0855C36.0002 29.7452 34.8518 28.6601 33.5748 28.6601Z" fill="#132C12"/>
<path d="M33.1919 3.95805C33.83 3.95805 34.4043 4.46833 34.4043 5.17107C34.4043 5.87318 33.8933 6.38345 33.1919 6.38345C32.4891 6.38345 31.9789 5.87318 31.9789 5.17107C31.9789 4.46897 32.4891 3.95805 33.1919 3.95805ZM33.1919 7.91553C34.7233 7.91553 35.9997 6.63921 35.9997 5.10711C35.9997 3.57502 34.7233 2.2987 33.1919 2.2987C31.6598 2.2987 30.3828 3.57502 30.3828 5.10711C30.3828 6.63921 31.5952 7.91553 33.1919 7.91553Z" fill="#132C12"/>
</svg>
