<svg width="34" height="38" viewBox="0 0 34 38" fill="none" xmlns="http://www.w3.org/2000/svg">
<path d="M25.8408 35.0421L24.1602 25.0413H26.2407L29.6012 35.0421H25.8408ZM8.16024 35.0421H4.40069L7.68019 25.0413H9.76074L8.16024 35.0421ZM2.00039 19.9207V14.0812C2.00039 12.4005 3.36045 10.9602 5.12041 10.9602H28.8807C30.5613 10.9602 32.0007 12.3203 32.0007 14.0812V19.9207C32.0007 21.6006 30.6406 23.0417 28.8807 23.0417C28.3213 23.0417 6.08052 23.0417 5.04025 23.0417C3.36043 23.0417 2.00039 21.6815 2.00039 19.9207ZM5.12041 6.08003H7.03986C7.28029 7.20049 8.31974 8.07971 9.52029 8.07971C10.7208 8.07971 11.7603 7.20049 11.9999 6.08003H22.0804C22.3209 7.20049 23.3611 8.07971 24.5601 8.07971C25.7607 8.07971 26.8009 7.20049 27.0406 6.08003H28.8807C30.5613 6.08003 32.0007 7.44093 32.0007 9.20017V10.1603C31.1207 9.44061 30.0804 9.03988 28.8807 9.03988H5.12041C3.92066 9.03988 2.88037 9.44061 2.00039 10.0802V9.12082C2.00039 7.44093 3.36045 6.08003 5.12041 6.08003ZM8.96008 2.55994C8.96008 2.3203 9.20052 2.07986 9.44094 2.07986C9.67978 2.07986 9.92021 2.3203 9.92021 2.55994C9.92021 2.71944 9.92021 5.76024 9.92021 5.59995C9.92021 5.84038 9.67978 6.08003 9.44094 6.08003C9.20052 6.08003 8.96008 5.84038 8.96008 5.59995V2.55994ZM24.0007 2.55994C24.0007 2.3203 24.2403 2.07986 24.4808 2.07986C24.7204 2.07986 24.9608 2.3203 24.9608 2.55994V5.59995C24.9608 5.84038 24.7204 6.08003 24.4808 6.08003C24.2403 6.08003 24.0007 5.84038 24.0007 5.59995V2.55994ZM28.4006 25.0413H28.8807C31.6809 25.0413 34.001 22.7219 34.001 19.9207C34.001 18.8812 34.001 10.2405 34.001 9.12082C34.001 6.32047 31.6809 4.00019 28.8807 4.00019H26.9612V2.48059C26.9612 1.11969 25.8408 3.8147e-05 24.4808 3.8147e-05C23.1207 3.8147e-05 22.0011 1.11969 22.0011 2.48059V4.00019H11.9999V2.48059C11.9999 1.11969 10.8803 3.8147e-05 9.52029 3.8147e-05C8.16025 3.8147e-05 7.03986 1.11969 7.03986 2.48059V4.00019H5.12041C2.32019 4.00019 0 6.32047 0 9.12082C0 10.2405 0 18.8812 0 19.9207C0 22.7219 2.32019 25.0413 5.12041 25.0413H5.60046L2.00039 35.7619C1.76075 36.4023 2.24003 37.0417 2.96052 37.0417H8.96008C9.44094 37.0417 9.84087 36.7219 9.92021 36.2427L11.7603 25.0413H22.0804L23.9205 36.2427C24.0007 36.7219 24.4006 37.0417 24.8807 37.0417H30.8802C31.6007 37.0417 32.0808 36.4023 31.8404 35.7619L28.4006 25.0413Z" fill="#132C12"/>
<path d="M16.0006 20.0796C16.0006 19.5193 15.5205 19.0393 14.9603 19.0393H6.00022C5.44081 19.0393 4.95996 19.5193 4.95996 20.0796C4.95996 20.639 5.44081 21.1199 6.00022 21.1199H15.0405C15.5205 21.0397 16.0006 20.5596 16.0006 20.0796Z" fill="#132C12"/>
<path d="M18.961 21.0398H20.9606C21.52 21.0398 22.0009 20.5597 22.0009 19.9995C22.0009 19.44 21.52 18.9592 20.9606 18.9592H18.961C18.4008 18.9592 17.9199 19.44 17.9199 19.9995C18.0009 20.5597 18.4008 21.0398 18.961 21.0398Z" fill="#132C12"/>
</svg>
