<svg width="49" height="44" viewBox="0 0 49 44" fill="none" xmlns="http://www.w3.org/2000/svg">
<path d="M41.4376 34.4789L39.6241 36.5644L39.3521 37.7432L38.536 37.5618L38.8081 36.3831L38.1733 33.7535L38.9894 33.9349L39.4428 35.7483L40.5309 34.2976L41.4376 34.4789Z" fill="#132C12"/>
<path d="M36.8135 35.8389L36.6321 34.4788L35.9974 35.6576L36.8135 35.8389ZM37.1762 33.9348L37.8109 37.3804L36.9948 37.199L36.8135 36.383L35.7254 36.2016L35.3627 36.927L34.5466 36.7457L36.4508 33.3907L37.1762 33.4814V33.9348Z" fill="#132C12"/>
<path d="M33.8213 34.9325C33.8213 34.7511 33.8213 34.6604 33.8213 34.4791C33.8213 34.2978 33.7307 34.2071 33.64 34.1164C33.5493 34.0257 33.4586 33.9351 33.368 33.8444C33.2773 33.7537 33.0959 33.7537 33.0053 33.7537L32.4612 33.663L32.2799 35.7485L32.8239 35.8392C33.0053 35.8392 33.0959 35.8392 33.2773 35.8392C33.368 35.8392 33.5493 35.7485 33.64 35.6579C33.7307 35.5672 33.8213 35.4765 33.8213 35.2952C33.7307 35.2045 33.8213 35.1138 33.8213 34.9325ZM34.6374 34.2978C34.7281 34.4791 34.7281 34.7511 34.6374 35.0231C34.6374 35.2952 34.5467 35.5672 34.4561 35.7485C34.3654 35.9299 34.184 36.1112 34.0027 36.2926C33.8213 36.4739 33.64 36.5646 33.368 36.5646C33.0959 36.6553 32.9146 36.6553 32.6426 36.6553L31.2825 36.4739L31.6452 32.847L33.0053 33.0283C33.2773 33.0283 33.5493 33.119 33.7307 33.2097C33.912 33.3003 34.0934 33.4817 34.2747 33.663C34.4561 33.9351 34.5467 34.1164 34.6374 34.2978Z" fill="#132C12"/>
<path d="M28.9246 32.7559L28.8339 36.3828H28.0178V34.8414H26.567V36.2921H25.751V32.7559H26.6577L26.567 34.116H28.0178V32.7559H28.9246Z" fill="#132C12"/>
<path d="M25.2068 32.7559L25.2975 33.4812H24.2094L24.3001 36.3828H23.484L23.3027 33.5719H22.2146V32.8465L25.2068 32.7559Z" fill="#132C12"/>
<path d="M21.0363 34.5699C21.127 34.4792 21.127 34.3886 21.127 34.2072C21.127 34.0259 21.0363 33.9352 20.9457 33.8445C20.855 33.7539 20.7643 33.7539 20.6736 33.7539L19.9482 33.8445L20.0389 34.8419L20.7643 34.7513C20.855 34.7513 20.9457 34.6606 21.0363 34.5699ZM21.399 35.2046L22.3058 36.4741L21.399 36.5647L20.583 35.4767H20.1296L20.2203 36.6554L19.4042 36.7461L19.0415 33.1191L20.6736 32.9378C20.855 32.9378 21.0363 32.9378 21.127 33.0285C21.3084 33.1191 21.399 33.2098 21.4897 33.3005C21.5804 33.3912 21.671 33.5725 21.7617 33.6632C21.8524 33.8445 21.8524 33.9352 21.8524 34.1166C21.8524 34.2072 21.8524 34.2979 21.8524 34.4792C21.8524 34.5699 21.7617 34.6606 21.7617 34.7513C21.7617 34.8419 21.671 34.9326 21.5804 35.0233C21.5804 35.114 21.4897 35.114 21.399 35.2046Z" fill="#132C12"/>
<path d="M17.5905 35.6578L16.9558 34.479L16.7744 35.8391L17.5905 35.6578ZM17.2278 33.3909L19.1319 36.7458L18.3159 36.8365L17.9532 36.1111L16.8651 36.2925L16.6837 37.1085L15.8677 37.1992L16.5931 33.3909H17.2278Z" fill="#132C12"/>
<path d="M15.5049 36.6549L15.5956 37.3803L13.1474 37.9243L12.3313 34.388L14.7795 33.844L14.9608 34.5694L13.3287 34.9321L13.5101 35.5668L14.8702 35.2948L15.0515 35.9295L13.6007 36.2922L13.7821 37.0176L15.5049 36.6549Z" fill="#132C12"/>
<path d="M26.6577 39.1036C33.2769 39.1036 39.624 40.1917 45.0645 42.1865L42.0722 37.5622C41.8909 37.2901 41.8909 37.0181 42.0722 36.8368L45.5178 33.2098C40.0774 31.0336 33.5489 29.8549 26.6577 29.8549C19.7664 29.8549 13.2379 31.0336 7.79749 33.2098L11.2431 36.8368C11.4244 37.0181 11.4244 37.2901 11.3338 37.5622L8.34153 42.1865C13.6913 40.1917 19.9478 39.1036 26.6577 39.1036ZM6.80007 44C6.61873 44 6.43738 43.9093 6.3467 43.8187C6.16536 43.6373 6.16536 43.3653 6.3467 43.1839L10.0643 37.3808L6.43738 33.4818C6.3467 33.3912 6.25603 33.1191 6.25603 32.9378C6.25603 32.7564 6.43738 32.5751 6.61873 32.5751C12.4219 30.1269 19.3131 28.7668 26.6577 28.7668C34.0022 28.7668 40.9841 30.0362 46.6966 32.4844C46.8779 32.5751 46.9686 32.6658 47.0593 32.8471C47.0593 33.0285 47.0593 33.2098 46.8779 33.3912L43.251 37.2901L46.9686 43.0026C47.0593 43.0933 47.0593 43.1839 47.0593 43.3653C47.0593 43.6373 46.7873 43.9093 46.5152 43.9093C46.4246 43.9093 46.3339 43.9093 46.2432 43.8187C40.6214 41.3705 33.8209 40.101 26.6577 40.101C19.4944 40.101 12.6939 41.3705 7.0721 43.8187C6.98142 43.9093 6.89075 44 6.80007 44Z" fill="#132C12"/>
<path d="M20.1293 25.1396C19.8573 25.1396 19.5853 24.8676 19.5853 24.5956C19.5853 24.5049 19.5853 24.5049 19.5853 24.4143L21.036 19.5179C21.036 19.4272 21.1267 19.3365 21.2174 19.2458L22.1241 18.4298L20.0386 17.7044C19.948 17.7044 19.8573 17.6137 19.7666 17.523L18.2251 15.8002L15.5956 15.0748C15.3236 14.9842 15.2329 14.8028 15.2329 14.5308V12.0826C15.2329 11.9013 15.3236 11.8106 15.4143 11.7199L18.8599 8.09295C18.9505 8.00228 19.0412 7.9116 19.2226 7.9116L20.3106 7.82093V6.82352C20.3106 6.64217 20.4013 6.5515 20.492 6.46082L21.036 5.82611L20.9454 4.64734C20.9454 4.37532 21.1267 4.19397 21.3081 4.1033L22.7588 3.64993C23.0309 3.55926 23.3029 3.64993 23.4842 3.92195L23.7563 4.55667L26.1138 2.74319L25.4791 0.748365C25.3884 0.476343 25.5697 0.113647 25.9324 0.022974C26.2045 -0.0676994 26.5672 0.113647 26.6578 0.476343L27.2925 2.83386C27.3832 3.01521 27.2925 3.28724 27.1112 3.37791L23.7563 5.91678C23.6656 6.00745 23.4842 6.09813 23.3029 6.00745C23.1215 6.00745 23.0309 5.82611 22.9402 5.73543L22.5775 4.91936L21.9428 5.10071L22.0335 6.00745C22.0335 6.1888 21.9428 6.27947 21.8521 6.46082L21.3081 7.09554V8.36497C21.3081 8.637 21.1267 8.90902 20.764 8.90902L19.4039 9.09036L16.321 12.3546V14.1681L18.7692 14.9842C18.8599 14.9842 18.9505 15.0748 19.0412 15.1655L20.5827 16.8883L23.3936 17.8857C23.5749 17.9764 23.7563 18.1578 23.7563 18.3391C23.7563 18.5205 23.7563 18.7018 23.5749 18.8831L22.1241 20.2433L20.6733 24.9583C20.5827 25.049 20.4013 25.1396 20.1293 25.1396Z" fill="#132C12"/>
<path d="M33.3679 19.8805C33.2772 20.0618 33.0958 20.2432 32.8238 20.2432H30.6476C30.4663 20.2432 30.3756 20.1525 30.1943 20.0618C30.0129 19.9711 30.1036 19.7898 30.1036 19.6084L30.4663 16.5255L27.8367 15.4374C27.7461 15.4374 27.6554 15.3468 27.5647 15.2561L24.8445 11.6291C24.6632 11.4478 24.6632 11.1758 24.8445 10.9944L26.658 8.36488L25.9326 8.18353C25.7512 8.18353 25.5699 8.00219 25.5699 7.82084C25.4792 7.63949 25.4792 7.45814 25.5699 7.2768L26.7487 5.10062C26.8393 4.91927 27.0207 4.8286 27.202 4.8286L28.6528 4.73793L29.0155 3.28714C29.0155 3.19647 29.1062 3.01512 29.1969 3.01512L31.101 1.56434C31.373 1.38299 31.7357 1.38299 31.9171 1.65501C32.0984 1.92703 32.0984 2.28973 31.8264 2.47108L30.1036 3.83119L29.6502 5.46332C29.5596 5.73534 29.3782 5.91669 29.1062 5.91669L27.5647 6.00736L26.93 7.18612L27.7461 7.36747C27.9274 7.36747 28.1088 7.54882 28.1994 7.73016C28.2901 7.91151 28.2901 8.09286 28.1088 8.27421L26.0233 11.2664L28.3808 14.44L31.1917 15.6188C31.4637 15.7095 31.5544 15.9815 31.5544 16.1628L31.2824 19.0644H32.4611C32.5518 18.8831 32.6425 18.7017 32.7331 18.611L34.728 15.1654C34.8186 15.0748 34.8186 14.9841 34.9093 14.9841L38.0829 13.1706C38.2642 13.0799 38.6269 13.0799 38.8083 13.2613C38.9896 13.4426 38.9896 13.8053 38.8083 14.0773L38.7176 14.168L35.544 15.8908L33.7306 19.1551C33.6399 19.3364 33.5492 19.5178 33.4585 19.7898L33.3679 19.8805Z" fill="#132C12"/>
<path d="M31.8266 12.0825L33.0053 12.8985L34.0934 11.8104L33.1867 10.4503C33.1867 10.4503 33.1867 10.3597 33.096 10.3597L32.3706 8.45551L31.2825 10.1783L31.8266 12.0825ZM33.096 14.168C33.0053 14.168 32.9147 14.168 32.824 14.0773L31.0105 12.8985C30.9198 12.8079 30.8292 12.7172 30.7385 12.5358L30.1038 10.1783C30.1038 9.99697 30.1038 9.90629 30.1944 9.72495L32.0079 6.73271C32.0986 6.55136 32.2799 6.46069 32.552 6.46069C32.7333 6.46069 32.9147 6.64203 33.0053 6.82338L34.1841 9.72495L35.3628 11.4478C35.5442 11.6291 35.4535 11.9918 35.2722 12.1731L33.4587 13.9866C33.4587 14.168 33.2773 14.168 33.096 14.168Z" fill="#132C12"/>
<path d="M25.6608 1.20149C19.0416 1.20149 13.6011 6.64193 13.6011 13.2611C13.6011 17.8855 16.14 22.0565 20.311 24.142C21.9431 24.9581 23.7566 25.4114 25.6608 25.4114C32.1893 25.4114 37.539 20.243 37.7204 13.7145C37.7204 13.6238 37.7204 13.4425 37.7204 13.3518C37.7204 8.8181 35.2722 4.73777 31.1919 2.65227C29.5597 1.83621 27.8369 1.38284 25.9328 1.29217C25.9328 1.20149 25.8421 1.20149 25.6608 1.20149ZM25.6608 26.4995C23.5753 26.4995 21.6711 26.0461 19.8576 25.1394C17.6815 24.0513 15.868 22.4192 14.5079 20.3337C13.1478 18.2482 12.4224 15.8 12.4224 13.2611C12.4224 6.00721 18.3162 0.0227299 25.6608 0.0227299C25.7514 0.0227299 25.9328 0.0227299 26.0235 0.0227299C28.0183 0.113405 30.0131 0.566774 31.7359 1.47351C36.0883 3.74036 38.8085 8.27406 38.8085 13.1704C38.8085 13.2611 38.8085 13.4425 38.8085 13.5331C38.7178 16.9788 37.267 20.1523 34.8188 22.6005C32.3706 25.1394 29.1064 26.4995 25.6608 26.4995Z" fill="#132C12"/>
<path d="M25.6605 29.855C16.5024 29.855 9.06714 22.4197 9.06714 13.2617C9.06714 12.9896 9.33916 12.7176 9.61118 12.7176C9.8832 12.7176 10.1552 12.9896 10.1552 13.2617C10.1552 21.785 17.1371 28.7669 25.6605 28.7669C34.1838 28.7669 41.1657 21.785 41.1657 13.2617C41.1657 12.9896 41.4377 12.7176 41.7097 12.7176C41.9818 12.7176 42.2538 12.9896 42.2538 13.2617C42.2538 22.4197 34.8185 29.855 25.6605 29.855Z" fill="#132C12"/>
<path d="M4.5337 21.9663C2.62954 21.9663 1.08809 23.5078 1.08809 25.412C1.08809 27.3161 2.62954 28.8576 4.5337 28.8576C6.43785 28.8576 7.9793 27.3161 7.9793 25.412C7.9793 23.5078 6.43785 21.9663 4.5337 21.9663ZM4.5337 29.855C1.99483 29.855 0 27.8602 0 25.3213C0 22.7824 1.99483 20.7876 4.5337 20.7876C7.07257 20.7876 9.06739 22.7824 9.06739 25.3213C9.06739 27.8602 7.07257 29.855 4.5337 29.855Z" fill="#132C12"/>
</svg>
