<svg width="40" height="38" viewBox="0 0 40 38" fill="none" xmlns="http://www.w3.org/2000/svg">
<path d="M19.4997 19.9665H17.7695L15.3072 22.8289V19.9665H13.7764V26.6219H15.3072V24.6251L15.9726 23.9604L17.9029 26.6219H19.6331L16.9708 22.8949L19.4997 19.9665Z" fill="#132C12"/>
<path d="M23.0946 24.2263H24.4255V24.4257C23.9601 24.9578 23.4274 25.2904 22.828 25.2904C22.5619 25.2904 22.2959 25.2244 22.0965 25.1577C20.8984 24.625 20.765 22.8288 21.4971 21.8967C22.2959 20.8986 23.8267 21.2313 24.2928 22.2294L25.4243 21.364C24.6922 19.8998 22.7619 19.6337 21.4305 20.1665C18.6354 21.364 18.8348 25.3578 21.3644 26.4225C21.7638 26.5553 22.1632 26.6886 22.6286 26.6886C23.294 26.6886 23.8934 26.4225 24.3588 25.9565V26.6218H25.6236V23.1615H23.028L23.0946 24.2263Z" fill="#132C12"/>
<path d="M19.7 31.6132C15.1075 31.6132 11.3803 27.8867 11.3803 23.2943C11.3803 18.7018 15.1075 14.9746 19.7 14.9746C24.2926 14.9746 28.0197 18.7018 28.0197 23.2943C28.0197 27.8867 24.2926 31.6132 19.7 31.6132ZM19.7 13.3111C14.176 13.3111 9.7168 17.7703 9.7168 23.2943C9.7168 28.8185 14.176 33.2775 19.7 33.2775C25.224 33.2775 29.6832 28.8185 29.6832 23.2943C29.6832 17.7703 25.224 13.3111 19.7 13.3111Z" fill="#132C12"/>
<path d="M17.1049 18.1696C18.3697 17.3708 19.9666 17.2375 21.3648 17.7702C21.7641 17.9036 22.2962 17.7035 22.4296 17.3042C22.5623 16.9048 22.3629 16.3727 21.9635 16.2394C20.0999 15.5739 17.9704 15.7733 16.2395 16.7721C15.8401 17.0381 15.7074 17.5035 15.9734 17.9036C16.2395 18.3023 16.7055 18.4356 17.1049 18.1696Z" fill="#132C12"/>
<path d="M27.7528 34.9417H11.6461C7.78633 32.2794 5.52339 27.9527 5.52339 23.2943C5.52339 15.5073 11.8462 9.11788 19.6998 9.11788C27.5534 9.11788 33.8762 15.4407 33.8762 23.2943C33.8762 27.9527 31.5466 32.2794 27.7528 34.9417ZM8.9178 3.26117C8.78445 2.46241 9.38386 1.66365 10.2486 1.66365H29.1509C30.0164 1.66365 30.6151 2.46241 30.4818 3.26117L29.0842 10.5821C23.4936 6.52224 15.9727 6.52224 10.382 10.5821L8.9178 3.26117ZM30.4818 11.7796L32.0793 3.59388C32.412 1.73032 31.0145 0.000106812 29.1509 0.000106812H10.2486C8.38508 0.000106812 6.92089 1.73032 7.32027 3.59388L8.9178 11.7796C1.46356 18.7684 2.52835 30.8145 10.9807 36.4726C11.1141 36.5386 11.2468 36.6052 11.4468 36.6052H28.0195C28.1521 36.6052 28.3522 36.5386 28.4855 36.4726C36.9379 30.8145 37.936 18.7684 30.4818 11.7796Z" fill="#132C12"/>
<path d="M18.3693 3.32771H12.5119C12.0459 3.32771 11.6465 3.72643 11.6465 4.19249C11.6465 4.65854 12.0459 5.05792 12.5119 5.05792H18.3693C18.8347 5.05792 19.2341 4.65854 19.2341 4.19249C19.2341 3.66042 18.8347 3.32771 18.3693 3.32771Z" fill="#132C12"/>
<path d="M21.6965 4.99121H23.36C23.8261 4.99121 24.2255 4.59183 24.2255 4.12644C24.2255 3.66038 23.8261 3.261 23.36 3.261H21.6965C21.2304 3.261 20.8311 3.66038 20.8311 4.12644C20.8977 4.59183 21.2304 4.99121 21.6965 4.99121Z" fill="#132C12"/>
<path d="M1.73021 10.782C1.73021 10.3159 2.12958 9.91657 2.59564 9.91657C3.06169 9.91657 3.46108 10.3159 3.46108 10.782C3.46108 11.2474 3.06169 11.6468 2.59564 11.6468C2.12958 11.6468 1.73021 11.2474 1.73021 10.782ZM5.05794 10.782C5.05794 9.3845 3.92648 8.25302 2.52898 8.25302C1.13147 8.25302 0 9.3845 0 10.782C0 12.1795 1.13147 13.311 2.52898 13.311C3.92648 13.311 5.05794 12.1795 5.05794 10.782Z" fill="#132C12"/>
<path d="M35.4076 7.45437C35.607 7.45437 35.807 7.65373 35.807 7.85309C35.807 8.05311 35.607 8.25313 35.4076 8.25313C35.2076 8.25313 35.0083 8.11978 35.0083 7.91976C35.0083 7.65373 35.2076 7.45437 35.4076 7.45437ZM35.4076 9.98334C36.5391 9.98334 37.4712 9.05189 37.4712 7.91976C37.4712 6.78829 36.5391 5.85684 35.4076 5.85684C34.2762 5.85684 33.3447 6.78829 33.3447 7.91976C33.3447 9.05189 34.2762 9.98334 35.4076 9.98334Z" fill="#132C12"/>
<path d="M37.0716 35.7398C36.4055 35.7398 35.8068 35.2078 35.8068 34.4757C35.8068 33.7437 36.3395 33.2109 37.0716 33.2109C37.803 33.2109 38.3358 33.7437 38.3358 34.4757C38.3358 35.2078 37.803 35.7398 37.0716 35.7398ZM37.0716 31.6132C35.4741 31.6132 34.1426 32.9448 34.1426 34.5423C34.1426 36.14 35.4741 37.4706 37.0716 37.4706C38.6685 37.4706 40 36.14 40 34.5423C40 32.9448 38.6685 31.6132 37.0716 31.6132Z" fill="#132C12"/>
</svg>
