<svg width="44" height="44" viewBox="0 0 44 44" fill="none" xmlns="http://www.w3.org/2000/svg">
<path d="M30.7922 34.1528H11.2537C6.17412 34.1528 1.95341 30.0112 1.95341 24.8525C1.95341 19.6946 6.09583 15.5529 11.2537 15.5529H14.693V20.4767C14.693 21.0232 15.1613 21.4922 15.7093 21.4922C16.2558 21.4922 16.7247 21.0232 16.7247 20.4767V15.5529H26.494V20.4767C26.494 21.0232 26.9622 21.4922 27.5095 21.4922C28.0567 21.4922 28.5257 21.0232 28.5257 20.4767V15.5529H30.9488C36.0276 15.5529 40.2491 19.6946 40.2491 24.8525C40.2491 30.0112 35.8718 34.1528 30.7922 34.1528ZM16.5681 11.7236H26.3374V13.677H16.5681V11.7236ZM30.7922 13.677H28.3699V4.84562C28.3699 4.29836 28.8381 3.82938 29.3853 3.82938C29.9326 3.82938 30.4016 4.29836 30.4016 4.84562V6.7998C30.4016 7.34706 30.8698 7.81526 31.417 7.81526C31.9643 7.81526 32.4333 7.34706 32.4333 6.7998V4.84562C32.4333 3.20461 31.1046 1.87598 29.4636 1.87598C27.8219 1.87598 26.494 3.20461 26.494 4.84562V9.76943H16.5681V4.84562C16.5681 4.29836 17.0371 3.82938 17.5836 3.82938C18.1316 3.82938 18.6006 4.29836 18.6006 4.84562V6.7998C18.6006 7.34706 19.0688 7.81526 19.6168 7.81526C20.1633 7.81526 20.6323 7.34706 20.6323 6.7998V4.84562C20.6323 3.20461 19.3037 1.87598 17.6627 1.87598C16.0217 1.87598 14.693 3.20461 14.693 4.84562V13.677H11.2537C5.08038 13.677 0 18.6791 0 24.9308C0 31.1832 5.00209 36.1853 11.2537 36.1853H30.7922C36.9656 36.1853 42.0459 31.1832 42.0459 24.9308C42.0459 18.6791 36.9656 13.677 30.7922 13.677Z" fill="#132C12"/>
<path d="M35.403 28.4484C35.2472 28.6042 34.0744 29.6987 31.5738 28.2918C27.7445 26.1035 25.5562 28.2918 25.3997 28.4484C25.2431 28.6042 24.0711 29.6987 21.5704 28.2918C17.6629 26.0252 15.4746 28.3693 15.318 28.4484C15.318 28.4484 14.0677 29.777 11.4887 28.2918C7.58041 26.0252 5.39291 28.3693 5.23633 28.4484L6.64326 29.777C6.79907 29.6196 7.97187 28.5259 10.4725 29.9328C11.7228 30.6358 12.8174 30.9482 13.6762 30.9482C15.4746 30.9482 16.49 29.9328 16.6466 29.777C16.8032 29.6196 17.9752 28.5259 20.4759 29.9328C21.7262 30.6358 22.8207 30.9482 23.6804 30.9482C25.4779 30.9482 26.4942 29.9328 26.65 29.777C26.8066 29.6196 27.9786 28.5259 30.4793 29.9328C31.7304 30.6358 32.8249 30.9482 33.6838 30.9482C35.5596 30.9482 36.5751 29.8545 36.6534 29.777L35.403 28.4484Z" fill="#132C12"/>
<path d="M35.403 24.5401C35.2472 24.6966 34.0744 25.7904 31.5738 24.3843C27.7445 22.196 25.5562 24.3843 25.3997 24.5401C25.2431 24.6966 24.0711 25.7904 21.5704 24.3843C17.6629 22.1177 15.4746 24.4625 15.318 24.5401C15.318 24.5401 14.0677 25.8687 11.4887 24.3843C7.58041 22.1177 5.39291 24.4625 5.23633 24.5401L6.64326 25.8687C6.79907 25.7121 7.97187 24.6183 10.4725 26.0253C11.7228 26.7283 12.8174 27.0415 13.6762 27.0415C15.4746 27.0415 16.49 26.0253 16.6466 25.8687C16.8032 25.7121 17.9752 24.6183 20.4759 26.0253C21.7262 26.7283 22.8207 27.0415 23.6804 27.0415C25.4779 27.0415 26.4942 26.0253 26.65 25.8687C26.8066 25.7121 27.9786 24.6183 30.4793 26.0253C31.7304 26.7283 32.8249 27.0415 33.6838 27.0415C35.5596 27.0415 36.5751 25.947 36.6534 25.8687L35.403 24.5401Z" fill="#132C12"/>
<path d="M4.84556 5.86221C5.39282 5.86221 5.86102 6.33117 5.86102 6.87843C5.86102 7.42492 5.39282 7.89389 4.84556 7.89389C4.2983 7.89389 3.82934 7.42492 3.82934 6.87843C3.90763 6.25288 4.2983 5.86221 4.84556 5.86221ZM4.84556 9.76978C6.48656 9.76978 7.81518 8.44115 7.81518 6.80014C7.81518 5.15835 6.48656 3.82972 4.84556 3.82972C3.20456 3.82972 1.87598 5.15835 1.87598 6.80014C1.87598 8.44115 3.28207 9.76978 4.84556 9.76978Z" fill="#132C12"/>
<path d="M31.2611 41.968C30.7139 41.968 30.2449 41.4998 30.2449 40.9526C30.2449 40.4053 30.7139 39.9363 31.2611 39.9363C31.8076 39.9363 32.2773 40.4053 32.2773 40.9526C32.1991 41.5773 31.8076 41.968 31.2611 41.968ZM31.2611 38.0604C29.6201 38.0604 28.2915 39.3891 28.2915 41.0308C28.2915 42.6719 29.6201 44.0005 31.2611 44.0005C32.9021 44.0005 34.2308 42.6719 34.2308 41.0308C34.2308 39.3891 32.8246 38.0604 31.2611 38.0604Z" fill="#132C12"/>
<path d="M40.5608 4.84547C39.7795 4.84547 39.0764 4.21992 39.0764 3.36027C39.0764 2.50139 39.702 1.87583 40.5608 1.87583C41.4205 1.87583 42.046 2.50139 42.046 3.36027C42.046 4.21992 41.343 4.84547 40.5608 4.84547ZM40.5608 -5.38826e-05C38.6857 -5.38826e-05 37.123 1.56345 37.123 3.43856C37.123 5.31444 38.6857 6.87793 40.5608 6.87793C42.4367 6.87793 44.0002 5.31444 44.0002 3.43856C44.0002 1.56345 42.4367 -5.38826e-05 40.5608 -5.38826e-05Z" fill="#132C12"/>
</svg>
