<svg width="40" height="39" viewBox="0 0 40 39" fill="none" xmlns="http://www.w3.org/2000/svg">
<path d="M32.0832 33.1603C29.583 33.1603 27.3609 31.7021 26.4579 29.341C26.3195 28.9938 26.042 28.7858 25.6246 28.7858H14.2363C13.8885 28.7858 13.5414 28.9938 13.4029 29.341C12.5006 31.6326 10.2779 33.1603 7.77765 33.1603C4.44467 33.1603 1.66685 30.452 1.66685 27.0494C1.66685 23.6468 4.3751 20.9385 7.77765 20.9385C10.3475 20.9385 12.5006 22.4662 13.4029 24.7578C13.5414 25.1049 13.8196 25.313 14.2363 25.313H25.6948C26.042 25.313 26.3891 25.1049 26.5275 24.7578C27.4305 22.4662 29.6525 20.9385 32.1528 20.9385C35.4864 20.9385 38.2636 23.6468 38.2636 27.0494C38.2636 30.452 35.4162 33.1603 32.0832 33.1603ZM6.3891 11.9801C8.68066 11.0075 11.3194 11.4938 13.0558 13.2302C13.3333 13.5078 13.6812 13.5767 14.0276 13.4383L24.4447 8.78551C24.7911 8.64638 24.9998 8.29922 24.9309 7.95207C24.7911 3.5769 29.2365 0.521442 33.1949 2.11874C36.3198 3.36889 37.8476 6.84106 36.667 9.96609C35.069 13.9934 29.9301 15.174 26.7362 12.1185C26.458 11.841 26.1108 11.7714 25.7644 11.9105L15.4169 16.5633C15.0697 16.7024 14.861 17.0496 14.9306 17.3967C15.0002 18.9244 14.3748 20.4522 13.4029 21.6328C10.8338 18.994 6.66668 18.5773 3.61127 20.5913C1.73642 17.3967 3.05612 13.4383 6.3891 11.9801ZM32.0832 19.2716C29.0967 19.2716 26.3891 20.9385 25.0694 23.6468H14.7922C14.653 23.4381 14.5835 23.2301 14.4443 23.0214C15.764 21.6328 16.5279 19.8274 16.5975 17.9519L26.042 13.7854C28.2633 15.6603 31.4585 16.1466 34.1668 14.966C38.1252 13.2303 39.9304 8.64636 38.194 4.68859C36.4583 0.730133 31.8752 -1.07587 27.9168 0.660564C25.139 1.84115 23.4033 4.47989 23.2641 7.46579L13.8196 11.5634C11.5281 9.68781 8.40308 9.20222 5.69481 10.3828C1.31971 12.2577 -0.347142 17.6047 2.22268 21.6328C0.83342 23.0213 0 24.9665 0 27.0494C0 31.355 3.47213 34.8967 7.84724 34.8967C10.8338 34.8967 13.5414 33.2306 14.861 30.5216H25.1389C26.458 33.1603 29.1669 34.8967 32.1528 34.8967C36.4583 34.8967 40 31.4246 40 27.0494C40 22.6742 36.3887 19.2716 32.0832 19.2716Z" fill="white"/>
<path d="M9.09861 1.909C9.7929 1.909 10.4176 2.46485 10.4176 3.22871C10.4176 3.99258 9.86247 4.54844 9.09861 4.54844C8.33476 4.54844 7.77891 3.92301 7.77891 3.22871C7.77891 2.53442 8.33476 1.909 9.09861 1.909ZM9.09861 6.28418C10.7655 6.28418 12.154 4.89558 12.154 3.22871C12.154 1.56254 10.7655 0.173263 9.09861 0.173263C7.43178 0.173263 6.04321 1.56254 6.04321 3.22871C6.04321 4.89558 7.43178 6.28418 9.09861 6.28418Z" fill="white"/>
<path d="M19.0971 36.6312C18.6109 36.6312 18.1935 36.2152 18.1935 35.7289C18.1935 35.2427 18.6109 34.8259 19.0971 34.8259C19.5827 34.8259 19.9994 35.2427 19.9994 35.7289C19.9299 36.2841 19.5132 36.6312 19.0971 36.6312ZM19.0971 33.1591C17.639 33.1591 16.4578 34.3397 16.4578 35.7985C16.4578 37.2567 17.639 38.4373 19.0971 38.4373C20.5553 38.4373 21.7358 37.2567 21.7358 35.7985C21.7358 34.3397 20.485 33.1591 19.0971 33.1591Z" fill="white"/>
<path d="M35.5556 27.118C35.0693 27.118 34.6533 27.5347 34.6533 28.021C34.6533 28.9929 33.8888 29.7567 32.9169 29.7567C32.4306 29.7567 32.0139 30.1735 32.0139 30.6597C32.0139 31.1453 32.4306 31.5627 32.9169 31.5627C34.8613 31.5627 36.389 30.0343 36.389 28.0906C36.4586 27.4651 36.0419 27.118 35.5556 27.118Z" fill="white"/>
</svg>
