<svg width="44" height="45" viewBox="0 0 44 45" fill="none" xmlns="http://www.w3.org/2000/svg">
<path d="M33.3024 39.4561C30.4248 40.6677 28.1526 40.8195 24.8206 40.5919C13.6121 39.8347 5.13019 30.0654 5.9632 18.8569C5.9632 18.3266 5.58463 17.8729 5.05432 17.8729C4.52402 17.8729 4.07033 18.2515 4.07033 18.7818C3.16145 30.9743 12.4005 41.5766 24.6688 42.4096C24.8957 42.4096 25.0474 42.4096 25.275 42.4855C18.686 43.4695 11.7184 41.198 6.94795 35.6696C-0.776772 26.8092 0.73753 13.4802 9.67384 6.36166C8.23541 18.9327 17.6262 30.0654 30.1972 30.9743C34.2113 31.277 38.1488 30.444 41.5575 28.7021C40.1183 33.2457 37.0889 36.9571 33.3024 39.4561ZM43.6021 26.0513C43.2986 25.8244 42.8442 25.8244 42.5415 26.0513C38.9067 28.3235 34.6658 29.4592 30.2731 29.1565C18.0806 28.2476 9.22015 16.7364 11.8702 4.54391C11.946 4.16534 11.7951 3.78675 11.4916 3.55916C11.1889 3.33231 10.7344 3.33231 10.4317 3.55916C4.4489 7.34641 0.586547 13.7071 0.0562422 20.8264C-0.852637 33.7009 9.37112 44.606 22.2457 44.606C32.6212 44.606 41.7843 37.3349 43.9807 27.036C44.0565 26.6575 43.9048 26.2789 43.6021 26.0513Z" fill="#132C12"/>
<path d="M16.5651 8.25488H19.973L16.8678 11.3601C16.5651 11.6628 16.4899 12.0414 16.6409 12.4207C16.7927 12.7985 17.0954 13.0261 17.5498 13.0261H25.1228C25.6531 13.0261 26.1075 12.5717 26.1075 12.0414C26.1075 11.5118 25.6531 11.0574 25.1228 11.0574H19.822L22.9265 7.95217C23.2299 7.64946 23.305 7.27088 23.1541 6.8923C23.0023 6.51298 22.6996 6.28614 22.2452 6.28614H16.5651C16.0355 6.28614 15.5811 6.74057 15.5811 7.27088C15.6562 7.8763 16.0355 8.25488 16.5651 8.25488Z" fill="#132C12"/>
<path d="M22.2451 14.9201C22.2451 15.4497 22.6996 15.9041 23.2299 15.9041H30.4243L24.1387 22.1897C23.8353 22.4931 23.7594 22.8717 23.9111 23.2503C24.0629 23.6288 24.3656 23.8564 24.82 23.8564H37.467C37.9973 23.8564 38.4517 23.402 38.4517 22.8717C38.4517 22.3414 37.9973 21.887 37.467 21.887H27.0915L33.3778 15.6014C33.6805 15.2987 33.7563 14.9201 33.6046 14.5408C33.4536 14.1622 33.1502 13.9354 32.6957 13.9354H23.2299C22.6996 13.9354 22.2451 14.3898 22.2451 14.9201Z" fill="#132C12"/>
<path d="M26.0319 1.96876C26.5622 1.96876 27.0167 2.42319 27.0167 2.95349C27.0167 3.4838 26.5622 3.93825 26.0319 3.93825C25.5016 3.93825 25.0472 3.4838 25.0472 2.95349C25.123 2.42319 25.5016 1.96876 26.0319 1.96876ZM26.0319 5.75525C27.6221 5.75525 28.9095 4.46779 28.9095 2.87763C28.9095 1.28746 27.6221 4.76837e-06 26.0319 4.76837e-06C24.4418 4.76837e-06 23.1543 1.28746 23.1543 2.87763C23.1543 4.46779 24.4418 5.75525 26.0319 5.75525Z" fill="#132C12"/>
<path d="M39.7393 12.4202C40.4964 12.4202 41.1777 13.0257 41.1777 13.8587C41.1777 14.6917 40.5723 15.2979 39.7393 15.2979C38.9063 15.2979 38.3001 14.6917 38.3001 13.8587C38.376 13.0257 38.9814 12.4202 39.7393 12.4202ZM39.7393 17.1149C41.5571 17.1149 43.0713 15.6006 43.0713 13.7828C43.0713 11.9658 41.5571 10.4508 39.7393 10.4508C37.9215 10.4508 36.4072 11.9658 36.4072 13.7828C36.4831 15.6764 37.9215 17.1149 39.7393 17.1149Z" fill="#132C12"/>
</svg>
