<svg width="43" height="36" viewBox="0 0 43 36" fill="none" xmlns="http://www.w3.org/2000/svg">
<path d="M40.5021 22.7825C40.5021 23.4856 39.9393 24.1181 39.1665 24.1181C38.3924 24.1181 37.8296 23.5567 37.8296 22.7825V12.3753C37.8296 11.673 38.3924 11.0397 39.1665 11.0397C39.9393 11.0397 40.5021 11.6025 40.5021 12.3753V22.7825ZM36.1425 26.3686C36.1425 27.8453 34.9471 29.0413 33.4707 29.0413C31.9935 29.0413 30.7982 27.8453 30.7982 26.3686C30.7982 24.5409 30.7982 10.6177 30.7982 8.78972C30.7982 7.31324 31.9935 6.11782 33.4707 6.11782C34.9471 6.11782 36.1425 7.31324 36.1425 8.78972C36.1425 10.829 36.1425 24.6106 36.1425 26.3686ZM13.2901 21.0947V14.0631H29.1111V21.0947H13.2901ZM11.5319 26.3686C11.5319 27.8453 10.3372 29.0413 8.86005 29.0413C7.38361 29.0413 6.18751 27.8453 6.18751 26.3686C6.18751 24.6809 6.18751 10.8988 6.18751 8.78972C6.18751 7.31324 7.38361 6.11782 8.86005 6.11782C10.3372 6.11782 11.5319 7.31324 11.5319 8.78972C11.5319 10.6177 11.5319 24.5409 11.5319 26.3686ZM3.16421 24.0484C2.46191 24.0484 1.82862 23.4855 1.82862 22.7128V12.3753C1.82862 11.673 2.39077 11.0397 3.16421 11.0397C3.93835 11.0397 4.50045 11.6025 4.50045 12.3753V22.7825C4.50045 23.4856 3.86721 24.0484 3.16421 24.0484ZM39.1665 9.28212C38.6734 9.28212 38.2522 9.42231 37.8296 9.56319V8.71929C37.8296 6.32845 35.8607 4.28913 33.4002 4.28913C30.9397 4.28913 28.9702 6.25801 28.9702 8.71929V12.2351H13.2901V8.71929C13.2901 6.32845 11.3213 4.28913 8.86005 4.28913C6.39885 4.28913 4.43003 6.25801 4.43003 8.71929V9.56319C4.00809 9.35187 3.58685 9.28212 3.09447 9.28212C1.40671 9.28212 0 10.6875 0 12.3753V22.7825C0 24.4703 1.40671 25.8772 3.09447 25.8772C3.58685 25.8772 4.00809 25.7363 4.43003 25.5952V26.4392C4.43003 28.8301 6.39885 30.8694 8.86005 30.8694C11.3213 30.8694 13.2901 28.9004 13.2901 26.4392V22.9227H29.1111V26.4392C29.1111 28.8301 31.0799 30.8694 33.5411 30.8694C36.0016 30.8694 37.9711 28.9004 37.9711 26.4392V25.5952C38.3924 25.8058 38.815 25.8772 39.3067 25.8772C40.9945 25.8772 42.4005 24.4703 42.4005 22.7825V12.3753C42.2596 10.6875 40.8536 9.28212 39.1665 9.28212Z" fill="#132C12"/>
<path d="M21.1651 15.8207H15.8912C15.3988 15.8207 14.9775 16.2426 14.9775 16.7343C14.9775 17.2267 15.3988 17.6487 15.8912 17.6487H21.1651C21.6575 17.6487 22.0794 17.2267 22.0794 16.7343C22.0794 16.1722 21.6575 15.8207 21.1651 15.8207Z" fill="#132C12"/>
<path d="M24.6815 15.8207H23.7671C23.2748 15.8207 22.8535 16.2426 22.8535 16.7343C22.8535 17.2267 23.2748 17.6487 23.7671 17.6487H24.6815C25.1738 17.6487 25.5958 17.2267 25.5958 16.7343C25.5958 16.1722 25.1738 15.8207 24.6815 15.8207Z" fill="#132C12"/>
<path d="M34.3843 17.5764C33.8927 17.5764 33.4707 17.9983 33.4707 18.4907V22.0065C33.4707 22.4989 33.8927 22.9202 34.3843 22.9202C34.8767 22.9202 35.2986 22.4989 35.2986 22.0065V18.4907C35.2282 17.9279 34.807 17.5764 34.3843 17.5764Z" fill="#132C12"/>
<path d="M34.3843 23.6934C33.8927 23.6934 33.4707 24.1147 33.4707 24.6072V25.5215C33.4707 26.0138 33.8927 26.4358 34.3843 26.4358C34.8767 26.4358 35.2986 26.0138 35.2986 25.5215V24.6072C35.2282 24.1147 34.807 23.6934 34.3843 23.6934Z" fill="#132C12"/>
<path d="M18.9851 1.75815C19.1964 1.75815 19.4071 1.96878 19.4071 2.17941C19.4071 2.39074 19.1964 2.60206 18.9851 2.60206C18.7745 2.60206 18.5632 2.39074 18.5632 2.17941C18.5632 1.96878 18.7047 1.75815 18.9851 1.75815ZM18.9851 4.35962C20.1812 4.35962 21.1653 3.37483 21.1653 2.17941C21.1653 0.983994 20.1812 -9.87053e-05 18.9851 -9.87053e-05C17.7897 -9.87053e-05 16.8057 0.983994 16.8057 2.17941C16.8057 3.37483 17.7897 4.35962 18.9851 4.35962Z" fill="#132C12"/>
<path d="M5.76733 34.2408C5.55602 34.2408 5.34541 34.0302 5.34541 33.8188C5.34541 33.6082 5.55602 33.3968 5.76733 33.3968C5.97865 33.3968 6.18858 33.6082 6.18858 33.8188C6.25972 34.0302 6.0484 34.2408 5.76733 34.2408ZM5.76733 31.6385C4.57195 31.6385 3.58789 32.6241 3.58789 33.8188C3.58789 35.0143 4.57195 35.9983 5.76733 35.9983C6.96272 35.9983 7.94749 35.0143 7.94749 33.8188C8.01724 32.6241 6.96272 31.6385 5.76733 31.6385Z" fill="#132C12"/>
<path d="M26.4384 32.4841C25.946 32.4841 25.5248 32.0629 25.5248 31.5707C25.5248 31.0781 25.946 30.656 26.4384 30.656C26.9315 30.656 27.3527 31.0781 27.3527 31.5707C27.3527 32.1327 26.9315 32.4841 26.4384 32.4841ZM26.4384 28.9683C24.962 28.9683 23.7666 30.1638 23.7666 31.6401C23.7666 33.1181 24.962 34.3127 26.4384 34.3127C27.9156 34.3127 29.1109 33.1181 29.1109 31.6401C29.1109 30.1638 27.9156 28.9683 26.4384 28.9683Z" fill="#132C12"/>
</svg>
