<svg width="44" height="44" viewBox="0 0 44 44" fill="none" xmlns="http://www.w3.org/2000/svg">
<path d="M28.406 3.66045H15.594V1.83057H28.406V3.66045ZM43.048 -3.43323e-05C41.6567 -3.43323e-05 2.34255 -3.43323e-05 0.951256 -3.43323e-05C0.439325 -3.43323e-05 0 0.439289 0 0.951946V42.1694C0 42.682 0.439325 43.1213 0.951256 43.1213C1.46391 43.1213 1.90323 42.682 1.90323 42.1694V1.90319H13.8367V4.68578C13.8367 5.19771 14.276 5.63774 14.7887 5.63774H29.4306C29.9433 5.63774 30.3826 5.19771 30.3826 4.68578V1.90319H42.0961V42.1694C42.0961 42.682 42.5354 43.1213 43.048 43.1213C43.5607 43.1213 44 42.682 44 42.1694V0.951946C43.9267 0.439289 43.4874 -3.43323e-05 43.048 -3.43323e-05Z" fill="#132C12"/>
<path d="M25.6236 35.727V32.9451H38.4357V35.727H25.6236ZM38.4357 10.1028V12.8854H25.6236V10.1028H38.4357ZM15.5941 11.2015C15.5941 11.6401 15.3015 11.9334 14.8621 11.9334H12.6656C12.2262 11.9334 11.9336 11.6401 11.9336 11.2015V10.1028H15.5941V11.2015ZM25.6236 28.406H38.4357V31.1879H25.6236V28.406ZM38.4357 26.5761H25.6236V23.7943H38.4357V26.5761ZM38.4357 21.9637H25.6236V19.1811H38.4357V21.9637ZM38.4357 17.4245H25.6236V14.6419H38.4357V17.4245ZM14.6421 29.0646V25.9168C15.8867 26.5761 15.8867 28.3334 14.6421 29.0646ZM12.8122 25.9168V29.0646C11.5676 28.3334 11.5676 26.5761 12.8122 25.9168ZM39.3877 8.27292C38.509 8.27292 8.85911 8.27292 4.61262 8.27292C4.09996 8.27292 3.66064 8.71225 3.66064 9.22418V42.1694C3.66064 42.682 4.09996 43.1213 4.61262 43.1213C5.12455 43.1213 5.56387 42.682 5.56387 42.1694V10.1028H10.1763V11.2015C10.1763 12.5928 11.3476 13.7633 12.7389 13.7633H12.8122V23.9402C11.2016 24.3788 10.0297 25.7701 10.0297 27.4548C10.0297 29.138 11.2016 30.6026 12.8122 30.9686V31.9939C12.8122 32.5058 13.2516 32.9451 13.7635 32.9451C14.2762 32.9451 14.7155 32.5058 14.7155 31.9939V30.9686C16.3261 30.5293 17.4973 29.138 17.4973 27.4548C17.4973 25.7701 16.3261 24.3062 14.7155 23.9402V13.7633H14.9355C16.3261 13.7633 17.4973 12.5928 17.4973 11.2015V10.1028H23.7937V42.1694C23.7937 42.682 24.233 43.1213 24.745 43.1213C25.2576 43.1213 25.697 42.682 25.697 42.1694V37.5576H38.4357V42.1694C38.4357 42.682 38.875 43.1213 39.3877 43.1213C39.9003 43.1213 40.3397 42.682 40.3397 42.1694V9.22418C40.2663 8.63963 39.827 8.27292 39.3877 8.27292Z" fill="#132C12"/>
</svg>
