<svg width="36" height="31" viewBox="0 0 36 31" fill="none" xmlns="http://www.w3.org/2000/svg">
<path d="M25.813 28.9374H23.4375V19.5625H25.813V28.9374ZM9.4376 28.9374V19.5625H11.8127V28.9374H9.4376ZM21.938 19.5625V28.9374H13.3128V19.5625H21.938ZM5.50026 17.2503C5.50026 16.8126 5.87512 16.4376 6.31265 16.4376H28.938C29.375 16.4376 29.7501 16.8126 29.7501 17.2503C29.7501 17.6873 29.375 18.0623 28.938 18.0623C25.3754 18.0623 9.12499 18.0623 6.24998 18.0623C5.87512 17.9997 5.50026 17.6253 5.50026 17.2503ZM11.7502 5.49992H23.5002V14.8748H11.7502V5.49992ZM7.06286 7.87479H5.50026C5.50026 6.50045 5.50026 3.06245 5.50026 1.62489H7.06286V7.87479ZM3.18769 5.49992V3.93774H3.93766V5.49992H3.18769ZM28.1879 1.62489H29.7501C29.7501 2.99984 29.7501 6.43784 29.7501 7.87479H28.1879V1.62489ZM32.063 3.93774V5.49992H31.2503V3.93774H32.063ZM28.938 19.5625C30.2503 19.5625 31.3129 18.5 31.3129 17.1877C31.3129 15.8753 30.2503 14.8128 28.938 14.8128H25.0003V5.43732H26.5631V8.56226C26.5631 8.99991 26.9376 9.37498 27.3752 9.37498H30.5002C30.9378 9.37498 31.3129 8.99991 31.3129 8.56226V7.0627H32.875C33.3127 7.0627 33.6877 6.68767 33.6877 6.25001V5.43732H34.5004C34.9375 5.43732 35.3125 5.06227 35.3125 4.62524C35.3125 4.18758 34.9375 3.81255 34.5004 3.81255H33.6877V2.99982C33.6877 2.56279 33.3127 2.18774 32.875 2.18774H31.3129V0.812801C31.3129 0.375147 30.9378 0.000110626 30.5002 0.000110626H27.3752C26.9376 0.000110626 26.5631 0.375147 26.5631 0.812801V3.93774H25.0003V2.37495C25.0003 1.9373 24.6253 1.56226 24.1876 1.56226C23.7506 1.56226 23.3756 1.9373 23.3756 2.37495V3.93774H11.7502V2.37495C11.7502 1.9373 11.3751 1.56226 10.9378 1.56226C10.5002 1.56226 10.1878 1.9373 10.1878 2.37495V3.93774H8.62522V0.812801C8.62522 0.375147 8.25011 0.000110626 7.81258 0.000110626H4.68756C4.25028 0.000110626 3.87517 0.375147 3.87517 0.812801V2.37495H2.31282C1.87522 2.37495 1.50012 2.75002 1.50012 3.18767V3.93774H0.812702C0.375109 3.93774 0 4.31279 0 4.74982C0 5.18748 0.375109 5.56254 0.812702 5.56254H1.62534V6.37523C1.62534 6.81289 1.99995 7.18793 2.43773 7.18793H3.93766V8.75011C3.93766 9.18776 4.31252 9.5628 4.7503 9.5628H7.87525C8.3126 9.5628 8.6877 9.18776 8.6877 8.75011V5.62514H10.1878V15H6.24998C4.93776 15 3.87517 16.0625 3.87517 17.3755C3.87517 18.6878 4.93776 19.7504 6.24998 19.7504H7.81258V29.1252H4.68756C4.25028 29.1252 3.87517 29.5003 3.87517 29.9379C3.87517 30.375 4.25028 30.75 4.68756 30.75C5.81263 30.75 29.1252 30.75 30.5002 30.75C30.9378 30.75 31.3129 30.375 31.3129 29.9379C31.3129 29.5003 30.9378 29.1252 30.5002 29.1252H27.3752V19.5625H28.938Z" fill="#132C12"/>
<path d="M1.99971 25.0628C1.81231 25.0628 1.6251 24.8756 1.6251 24.6878C1.6251 24.5006 1.81231 24.3133 1.99971 24.3133C2.18736 24.3133 2.37482 24.5006 2.37482 24.6878C2.37482 24.8756 2.18736 25.0628 1.99971 25.0628ZM1.99971 22.688C0.937376 22.688 0.0625 23.5633 0.0625 24.6258C0.0625 25.6883 0.937376 26.563 1.99971 26.563C3.06248 26.563 3.93742 25.6883 3.93742 24.6258C3.93742 23.5633 3.06248 22.688 1.99971 22.688Z" fill="#132C12"/>
<path d="M33.6249 13.3122C33.1878 13.3122 32.8128 12.9372 32.8128 12.4995C32.8128 12.0619 33.1878 11.6874 33.6249 11.6874C34.0625 11.6874 34.4376 12.0619 34.4376 12.4995C34.4376 12.9372 34.0625 13.3122 33.6249 13.3122ZM33.6249 10.1873C32.3125 10.1873 31.25 11.2498 31.25 12.5621C31.25 13.8745 32.3125 14.937 33.6249 14.937C34.9372 14.937 35.9997 13.8745 35.9997 12.5621C35.9997 11.2498 34.9372 10.1873 33.6249 10.1873Z" fill="#132C12"/>
</svg>
