<svg width="40" height="37" viewBox="0 0 40 37" fill="none" xmlns="http://www.w3.org/2000/svg">
<path d="M8.56968 19.5197C9.05822 19.5197 9.45401 19.9156 9.45401 20.4047C9.45401 20.8925 9.05822 21.2885 8.56968 21.2885C8.08161 21.2885 7.68555 20.8925 7.68555 20.4047C7.68555 19.9156 8.08161 19.5197 8.56968 19.5197Z" fill="#132C12"/>
<path d="M9.45367 9.31732C9.94194 9.31732 10.3381 9.71331 10.3381 10.2017C10.3381 10.6901 9.94194 11.0854 9.45367 11.0854C8.96539 11.0854 8.56934 10.6901 8.56934 10.2017C8.56934 9.71331 8.96539 9.31732 9.45367 9.31732Z" fill="#132C12"/>
<path d="M31.5592 14.4187C32.0469 14.4187 32.4429 14.8147 32.4429 15.3024C32.4429 15.7915 32.0469 16.1875 31.5592 16.1875C31.0708 16.1875 30.6748 15.7915 30.6748 15.3024C30.6748 14.8147 31.0708 14.4187 31.5592 14.4187Z" fill="#132C12"/>
<path d="M29.8585 25.5049C30.3469 25.5049 30.7429 25.9009 30.7429 26.3893C30.7429 26.8771 30.3469 27.2731 29.8585 27.2731C29.3701 27.2731 28.9741 26.8771 28.9741 26.3893C28.9741 25.9009 29.3701 25.5049 29.8585 25.5049Z" fill="#132C12"/>
<path d="M38.3601 33.5991C38.3601 34.2791 37.8157 34.891 37.0676 34.891C36.3195 34.891 35.7757 34.2791 35.7757 33.5991V1.69998C35.9795 1.69998 37.6801 1.69998 38.3601 1.69998V33.5991ZM26.4575 10.6782C26.4575 11.3576 25.9138 11.902 25.2331 11.902C23.6687 11.902 16.2552 11.902 14.9632 11.902C14.2828 11.902 13.7389 11.3576 13.7389 10.6782V1.69998H14.6232V8.09384C14.6232 9.72638 15.9152 11.0182 17.5475 11.0182H22.7168C24.3494 11.0182 25.6412 9.72638 25.6412 8.09384V1.69998H26.5256V10.6782H26.4575ZM23.465 25.9809C23.465 26.6616 22.9212 27.2734 22.1724 27.2734C21.4243 27.2734 20.8806 26.7297 20.8806 25.9809V19.5884C20.8806 19.1121 20.4724 18.704 19.9964 18.704C19.5199 18.704 19.1117 19.1121 19.1117 19.5884V25.9809C19.1117 26.6616 18.5681 27.2734 17.8197 27.2734C17.0716 27.2734 16.5274 26.7297 16.5274 25.9809V13.6026H23.3287V25.9809H23.465ZM4.35299 33.5991C4.35299 34.2791 3.80879 34.891 3.06046 34.891C2.31233 34.891 1.76812 34.2791 1.76812 33.5991V1.69998H4.35299V33.5991ZM20.064 4.28438C18.1599 4.28438 16.6634 5.78133 16.6634 7.68505C16.6634 8.29759 16.7996 8.84199 17.0716 9.31758C16.5952 9.18198 16.2552 8.70571 16.2552 8.1613V1.76812H23.9412V8.1613C23.9412 8.70571 23.6006 9.18198 23.125 9.31758C23.3968 8.84199 23.5331 8.29759 23.5331 7.68505C23.465 5.78133 21.9687 4.28438 20.064 4.28438ZM18.3638 7.68505C18.3638 6.73319 19.1117 5.98504 20.064 5.98504C21.0162 5.98504 21.7643 6.73319 21.7643 7.68505C21.7643 8.63758 21.0162 9.38571 20.064 9.38571C19.1117 9.38571 18.3638 8.63758 18.3638 7.68505ZM39.1764 -1.14441e-05C35.6395 -1.14441e-05 2.58453 -1.14441e-05 0.884062 -1.14441e-05C0.408132 -1.14441e-05 0 0.408131 0 0.883724V33.5991C0 35.231 1.36026 36.5917 2.99273 36.5917C4.62492 36.5917 5.98519 35.231 5.98519 33.5991V1.69998H11.9707V10.6782C11.9707 12.3108 13.2627 13.6026 14.8949 13.6026V25.9134C14.8949 27.546 16.2552 28.9059 17.888 28.9059C18.704 28.9059 19.4522 28.566 19.9964 28.0222C20.5406 28.566 21.2887 28.9059 22.105 28.9059C23.7368 28.9059 25.0975 27.546 25.0975 25.9134V13.6026C26.73 13.6026 28.0219 12.3108 28.0219 10.6782V1.69998H34.0069V33.5991C34.0069 35.231 35.3676 36.5917 37.0001 36.5917C38.632 36.5917 39.9927 35.231 39.9927 33.5991V0.883724C40.0601 0.408131 39.652 -1.14441e-05 39.1764 -1.14441e-05Z" fill="#132C12"/>
<path d="M11.9706 32.3062C11.4941 32.3062 11.0862 31.8981 11.0862 31.4225C11.0862 30.9462 11.4941 30.5381 11.9706 30.5381C12.4465 30.5381 12.8544 30.9462 12.8544 31.4225C12.8544 31.9662 12.4465 32.3062 11.9706 32.3062ZM11.9706 28.9055C10.5423 28.9055 9.38574 30.0618 9.38574 31.4899C9.38574 32.9181 10.5423 34.0743 11.9706 34.0743C13.3989 34.0743 14.5549 32.9181 14.5549 31.4899C14.5549 30.0618 13.3989 28.9055 11.9706 28.9055Z" fill="#132C12"/>
<path d="M29.8583 21.2884C29.3827 21.2884 28.9739 20.8803 28.9739 20.4047C28.9739 19.9284 29.3827 19.5196 29.8583 19.5196C30.3346 19.5196 30.7427 19.9284 30.7427 20.4047C30.7427 20.8803 30.3346 21.2884 29.8583 21.2884ZM29.8583 17.8877C28.4302 17.8877 27.2739 19.044 27.2739 20.4721C27.2739 21.9002 28.4302 23.0565 29.8583 23.0565C31.2865 23.0565 32.4427 21.9002 32.4427 20.4721C32.4427 19.044 31.2183 17.8877 29.8583 17.8877Z" fill="#132C12"/>
</svg>
