<svg width="40" height="38" viewBox="0 0 40 38" fill="none" xmlns="http://www.w3.org/2000/svg">
<path d="M19.5001 19.9667H17.7699L15.3076 22.8291V19.9667H13.7767V26.6221H15.3076V24.6253L15.973 23.9605L17.9032 26.6221H19.6334L16.9711 22.8951L19.5001 19.9667Z" fill="#132C12"/>
<path d="M23.0941 24.2262H24.4249V24.4255C23.9595 24.9577 23.4268 25.2903 22.8274 25.2903C22.5614 25.2903 22.2953 25.2243 22.096 25.1576C20.8978 24.6249 20.7645 22.8287 21.4966 21.8966C22.2953 20.8984 23.8262 21.2311 24.2923 22.2293L25.4237 21.3638C24.6916 19.8997 22.7614 19.6336 21.4299 20.1663C18.6349 21.3638 18.8343 25.3576 21.3639 26.4224C21.7633 26.5551 22.1627 26.6885 22.6281 26.6885C23.2935 26.6885 23.8929 26.4224 24.3583 25.9564V26.6217H25.6231V23.1614H23.0274L23.0941 24.2262Z" fill="#132C12"/>
<path d="M19.6996 31.6131C15.107 31.6131 11.3799 27.8866 11.3799 23.2942C11.3799 18.7016 15.107 14.9745 19.6996 14.9745C24.2921 14.9745 28.0193 18.7016 28.0193 23.2942C28.0193 27.8866 24.2921 31.6131 19.6996 31.6131ZM19.6996 13.311C14.1756 13.311 9.71637 17.7702 9.71637 23.2942C9.71637 28.8183 14.1756 33.2773 19.6996 33.2773C25.2236 33.2773 29.6828 28.8183 29.6828 23.2942C29.6828 17.7702 25.2236 13.311 19.6996 13.311Z" fill="#132C12"/>
<path d="M17.1045 18.1698C18.3693 17.371 19.9662 17.2377 21.3643 17.7704C21.7637 17.9037 22.2958 17.7037 22.4291 17.3043C22.5618 16.905 22.3625 16.3729 21.9631 16.2395C20.0995 15.5741 17.9699 15.7735 16.2391 16.7723C15.8397 17.0383 15.707 17.5037 15.973 17.9037C16.2391 18.3025 16.7051 18.4358 17.1045 18.1698Z" fill="#132C12"/>
<path d="M27.7529 34.9415H11.6463C7.78651 32.2793 5.52357 27.9525 5.52357 23.2941C5.52357 15.5071 11.8463 9.1177 19.7 9.1177C27.5536 9.1177 33.8764 15.4405 33.8764 23.2941C33.8764 27.9525 31.5467 32.2793 27.7529 34.9415ZM8.91798 3.26099C8.78463 2.46223 9.38404 1.66347 10.2488 1.66347H29.1511C30.0165 1.66347 30.6153 2.46223 30.4819 3.26099L29.0844 10.5819C23.4938 6.52206 15.9729 6.52206 10.3822 10.5819L8.91798 3.26099ZM30.4819 11.7794L32.0795 3.5937C32.4122 1.73014 31.0147 -7.68585e-05 29.1511 -7.68585e-05H10.2488C8.38526 -7.68585e-05 6.92108 1.73014 7.32046 3.5937L8.91798 11.7794C1.46374 18.7682 2.52854 30.8143 10.9809 36.4724C11.1142 36.5384 11.2469 36.605 11.447 36.605H28.0196C28.1523 36.605 28.3524 36.5384 28.4857 36.4724C36.9381 30.8143 37.9362 18.7682 30.4819 11.7794Z" fill="#132C12"/>
<path d="M18.3693 3.3279H12.5119C12.0459 3.3279 11.6465 3.72661 11.6465 4.19267C11.6465 4.65872 12.0459 5.05811 12.5119 5.05811H18.3693C18.8347 5.05811 19.2341 4.65872 19.2341 4.19267C19.2341 3.6606 18.8347 3.3279 18.3693 3.3279Z" fill="#132C12"/>
<path d="M21.6964 4.99121H23.36C23.826 4.99121 24.2254 4.59183 24.2254 4.12644C24.2254 3.66038 23.826 3.261 23.36 3.261H21.6964C21.2304 3.261 20.831 3.66038 20.831 4.12644C20.8977 4.59183 21.2304 4.99121 21.6964 4.99121Z" fill="#132C12"/>
<path d="M1.73021 10.7821C1.73021 10.316 2.12958 9.91663 2.59564 9.91663C3.06169 9.91663 3.46108 10.316 3.46108 10.7821C3.46108 11.2475 3.06169 11.6468 2.59564 11.6468C2.12958 11.6468 1.73021 11.2475 1.73021 10.7821ZM5.05794 10.7821C5.05794 9.38456 3.92648 8.25308 2.52898 8.25308C1.13147 8.25308 0 9.38456 0 10.7821C0 12.1796 1.13147 13.311 2.52898 13.311C3.92648 13.311 5.05794 12.1796 5.05794 10.7821Z" fill="#132C12"/>
<path d="M35.4068 7.45443C35.6062 7.45443 35.8062 7.65379 35.8062 7.85315C35.8062 8.05317 35.6062 8.25319 35.4068 8.25319C35.2068 8.25319 35.0074 8.11985 35.0074 7.91983C35.0074 7.65379 35.2068 7.45443 35.4068 7.45443ZM35.4068 9.9834C36.5383 9.9834 37.4704 9.05196 37.4704 7.91983C37.4704 6.78835 36.5383 5.8569 35.4068 5.8569C34.2753 5.8569 33.3439 6.78835 33.3439 7.91983C33.3439 9.05196 34.2753 9.9834 35.4068 9.9834Z" fill="#132C12"/>
<path d="M37.0716 35.7399C36.4056 35.7399 35.8068 35.208 35.8068 34.4759C35.8068 33.7438 36.3396 33.2111 37.0716 33.2111C37.8031 33.2111 38.3358 33.7438 38.3358 34.4759C38.3358 35.208 37.8031 35.7399 37.0716 35.7399ZM37.0716 31.6133C35.4741 31.6133 34.1426 32.945 34.1426 34.5424C34.1426 36.1401 35.4741 37.4707 37.0716 37.4707C38.6685 37.4707 40 36.1401 40 34.5424C40 32.945 38.6685 31.6133 37.0716 31.6133Z" fill="#132C12"/>
</svg>
