<svg width="40" height="43" viewBox="0 0 40 43" fill="none" xmlns="http://www.w3.org/2000/svg">
<path d="M28.2052 40.8524H13.6409C13.0015 40.8524 12.504 40.3549 12.504 39.7158V22.2384H29.4131V37.3001H15.2038C14.7067 37.3001 14.2803 37.7265 14.2803 38.224C14.2803 38.7215 14.7067 39.1471 15.2038 39.1471H29.4131V39.7862C29.3419 40.3549 28.8451 40.8524 28.2052 40.8524ZM17.3355 5.32896H24.5113L28.3476 9.80507H13.4989L17.3355 5.32896ZM16.9091 1.99022C16.9091 1.84787 16.9801 1.7767 17.1221 1.7767H24.653C24.7953 1.7767 24.8665 1.84787 24.8665 1.99022V3.33966C24.8665 3.48201 24.7953 3.55248 24.653 3.55248H17.1221C16.9801 3.55248 16.9091 3.48201 16.9091 3.33966V1.99022ZM13.3568 13.3573C12.8591 13.3573 12.4331 12.931 12.4331 12.4335C12.4331 11.936 12.8591 11.5104 13.3568 11.5104H28.4899C28.9867 11.5104 29.4131 11.936 29.4131 12.4335C29.4131 12.931 28.9867 13.3573 28.4899 13.3573H13.3568ZM12.504 19.8227C12.504 19.1836 13.0015 18.6861 13.6409 18.6861H28.2052C28.8451 18.6861 29.3419 19.1836 29.3419 19.8227V20.4619H12.504V19.8227ZM29.3419 15.9865C29.3419 16.4833 28.9163 16.9096 28.4188 16.9096C25.5768 16.9096 14.9198 16.9096 13.2855 16.9096C12.7884 16.9096 12.362 16.4833 12.362 15.9865C12.362 15.489 12.7884 15.0627 13.2855 15.0627H28.4188C28.9867 15.1338 29.3419 15.489 29.3419 15.9865ZM30.4081 10.6577C30.5504 10.1602 30.4792 9.59155 30.1241 9.23639L26.216 4.61866C26.5006 4.2635 26.7134 3.83717 26.7134 3.33966V1.99022C26.7134 0.852867 25.7896 0.000209808 24.7242 0.000209808H17.1221C15.9856 0.000209808 15.1331 0.924042 15.1331 1.99022V3.33966C15.1331 3.83717 15.2752 4.2635 15.6302 4.61866L11.7228 9.23639C11.3672 9.59155 11.2965 10.1602 11.4385 10.6577C10.5147 11.652 10.5147 13.215 11.4385 14.21C10.5147 15.2755 10.5147 16.8384 11.5095 17.8334C11.0121 18.3309 10.728 19.0413 10.728 19.8227V39.7158C10.728 41.3499 12.0779 42.6289 13.6409 42.6289H28.2052C29.8394 42.6289 31.1184 41.2794 31.1184 39.7158V19.8227C31.1184 19.0413 30.8344 18.4014 30.3369 17.8334C31.3319 16.8384 31.3319 15.2755 30.4081 14.21C31.4031 13.215 31.3319 11.652 30.4081 10.6577Z" fill="#132C12"/>
<path d="M26.7134 34.6718H23.1611C22.6636 34.6718 22.2373 35.0975 22.2373 35.595C22.2373 36.0925 22.6636 36.5188 23.1611 36.5188H26.7134C27.2109 36.5188 27.6372 36.0925 27.6372 35.595C27.5661 35.027 27.2109 34.6718 26.7134 34.6718Z" fill="#132C12"/>
<path d="M17.8327 33.748H26.7135C27.211 33.748 27.6374 33.3217 27.6374 32.8249C27.6374 32.3267 27.211 31.9011 26.7135 31.9011H17.8327C17.3356 31.9011 16.9092 32.3267 16.9092 32.8249C16.9092 33.3217 17.3356 33.748 17.8327 33.748Z" fill="#132C12"/>
<path d="M26.7134 29.3431H23.1611C22.6636 29.3431 22.2373 29.7694 22.2373 30.2669C22.2373 30.7644 22.6636 31.1901 23.1611 31.1901H26.7134C27.2109 31.1901 27.6372 30.7644 27.6372 30.2669C27.6372 29.7694 27.2109 29.3431 26.7134 29.3431Z" fill="#132C12"/>
<path d="M17.8327 28.4199H26.7135C27.211 28.4199 27.6374 27.9929 27.6374 27.4961C27.6374 26.9986 27.211 26.6434 26.7135 26.6434H17.8327C17.3356 26.6434 16.9092 27.0698 16.9092 27.5673C16.9092 28.0648 17.3356 28.4199 17.8327 28.4199Z" fill="#132C12"/>
<path d="M2.69982 34.6718C2.20267 34.6718 1.77627 34.2455 1.77627 33.748C1.77627 33.2505 2.20267 32.8249 2.69982 32.8249C3.19718 32.8249 3.62358 33.2505 3.62358 33.748C3.62358 34.2455 3.19718 34.6718 2.69982 34.6718ZM2.69982 31.1196C1.20788 31.1196 0 32.3267 0 33.8192C0 35.311 1.20788 36.5188 2.69982 36.5188C4.19197 36.5188 5.39986 35.311 5.39986 33.8192C5.39986 32.3267 4.19197 31.1196 2.69982 31.1196Z" fill="#132C12"/>
<path d="M36.4478 19.539C35.4528 19.539 34.6713 18.7575 34.6713 17.7625C34.6713 16.7675 35.4528 15.9868 36.4478 15.9868C37.4421 15.9868 38.2236 16.7675 38.2236 17.7625C38.2236 18.7575 37.4421 19.539 36.4478 19.539ZM40 17.7625C40 15.7732 38.4371 14.2103 36.4478 14.2103C34.4585 14.2103 32.8955 15.7732 32.8955 17.7625C32.8955 19.7518 34.4585 21.3148 36.4478 21.3148C38.4371 21.3148 40 19.7518 40 17.7625Z" fill="#132C12"/>
<path d="M5.40023 8.88122C4.90252 8.88122 4.47619 8.45489 4.47619 7.95738C4.47619 7.46059 4.90252 7.03425 5.40023 7.03425C5.89738 7.03425 6.32343 7.46059 6.32343 7.95738C6.25246 8.45489 5.89738 8.88122 5.40023 8.88122ZM5.40023 5.32894C3.90801 5.32894 2.7002 6.53676 2.7002 8.02926C2.7002 9.52106 3.90801 10.7289 5.40023 10.7289C6.89217 10.7289 8.09977 9.52106 8.09977 8.02926C8.09977 6.53676 6.82086 5.32894 5.40023 5.32894Z" fill="#132C12"/>
<path d="M8.95208 35.5247C9.46212 35.5247 9.87591 35.9377 9.87591 36.4479C9.87591 36.9581 9.46212 37.3717 8.95208 37.3717C8.44203 37.3717 8.02832 36.9581 8.02832 36.4479C8.02832 35.9377 8.44203 35.5247 8.95208 35.5247Z" fill="#132C12"/>
</svg>
