<svg width="46" height="51" viewBox="0 0 46 51" fill="none" xmlns="http://www.w3.org/2000/svg">
<path d="M24.3011 27.7844H22.008C21.8369 28.124 20.3081 29.1438 19.7131 29.1438V31.1833C20.4775 31.1833 21.6675 30.5883 22.008 30.1636V33.7319H20.0528V35.7715H26.0853V33.7319H24.3011V27.7844Z" fill="#132C12"/>
<path d="M22.9422 48.0084C14.7851 48.0084 8.07247 41.2965 8.07247 33.1392C8.07247 24.9818 14.7851 18.269 22.9422 18.269C31.0993 18.269 37.8119 24.9818 37.8119 33.1392C37.8119 41.2965 31.0993 48.0084 22.9422 48.0084ZM18.6938 14.0206H27.1906V16.6543C24.3867 15.975 21.4977 15.975 18.6938 16.6543V14.0206ZM14.8702 9.77206H30.8448V11.8959C28.9747 11.8959 16.8246 11.8959 14.8702 11.8959V9.77206ZM13.2563 2.29403H19.5442L24.9817 7.6474H18.6938L13.2563 2.29403ZM26.1708 2.29403H32.4587L27.5302 7.05239L24.3867 3.99392L26.1708 2.29403ZM29.3143 17.3344V13.9354H31.8645C32.4587 13.9354 32.9686 13.4255 32.9686 12.8305V8.58204C32.9686 7.98787 32.4587 7.47802 31.8645 7.47802H29.9944L35.7733 1.86926C36.1129 1.52962 36.1972 1.10487 36.0278 0.680099C35.8576 0.255337 35.5179 -5.34058e-05 35.0081 -5.34058e-05H25.661C25.4064 -5.34058e-05 25.1519 0.0850906 24.8966 0.339611L22.7728 2.37917L20.6482 0.339611C20.478 0.170212 20.2235 -5.34058e-05 19.8838 -5.34058e-05H10.5367C10.112 -5.34058e-05 9.68722 0.255337 9.51698 0.680099C9.34758 1.10487 9.43272 1.52962 9.77236 1.86926L15.5495 7.47802H13.6811C13.0861 7.47802 12.5762 7.98787 12.5762 8.58204V12.8305C12.5762 13.4255 13.0861 13.9354 13.6811 13.9354H16.485V17.3344C10.3673 19.883 5.94873 26.0016 5.94873 33.1392C5.94873 42.4856 13.596 50.1331 22.9422 50.1331C32.2893 50.1331 39.9365 42.4856 39.9365 33.1392C39.9365 26.0016 35.5179 19.883 29.3143 17.3344Z" fill="#132C12"/>
<path d="M22.942 42.6548C17.6738 42.6548 13.3403 38.4063 13.3403 33.0529C13.3403 27.6995 17.5887 23.451 22.942 23.451C28.2952 23.451 32.5435 27.6995 32.5435 33.0529C32.5435 38.4063 28.2101 42.6548 22.942 42.6548ZM22.942 21.4115C16.4847 21.4115 11.2166 26.6798 11.2166 33.138C11.2166 39.5955 16.4847 44.7786 22.942 44.7786C29.4 44.7786 34.6681 39.5103 34.6681 33.0529C34.6681 26.5955 29.4 21.4115 22.942 21.4115Z" fill="#132C12"/>
<path d="M22.9415 38.4072C20.0525 38.4072 17.5883 36.028 17.5883 33.0538C17.5883 32.4588 17.0792 31.9489 16.4842 31.9489C15.8893 31.9489 15.3794 32.4588 15.3794 33.0538C15.3794 37.132 18.6931 40.531 22.8564 40.531C23.4514 40.531 23.9612 40.0211 23.9612 39.4269C24.0455 38.9162 23.5365 38.4072 22.9415 38.4072Z" fill="#132C12"/>
<path d="M2.6345 23.5366C2.37914 23.5366 2.1246 23.2821 2.1246 23.0267C2.1246 22.7722 2.37914 22.5168 2.6345 22.5168C2.88901 22.5168 3.14436 22.7722 3.14436 23.0267C3.22863 23.2821 2.97498 23.5366 2.6345 23.5366ZM2.6345 20.3921C1.18916 20.3921 0 21.5822 0 23.0267C0 24.4712 1.18916 25.6604 2.6345 25.6604C4.079 25.6604 5.26814 24.4712 5.26814 23.0267C5.26814 21.5822 4.079 20.3921 2.6345 20.3921Z" fill="#132C12"/>
<path d="M41.9752 44.7789C41.7207 44.7789 41.4653 44.5244 41.4653 44.269C41.4653 44.0145 41.7207 43.7592 41.9752 43.7592C42.2305 43.7592 42.485 44.0145 42.485 44.269C42.485 44.5244 42.2305 44.7789 41.9752 44.7789ZM41.9752 41.6353C40.5307 41.6353 39.3416 42.8253 39.3416 44.269C39.3416 45.7136 40.5307 46.9036 41.9752 46.9036C43.4205 46.9036 44.6096 45.7136 44.6096 44.269C44.6096 42.8253 43.4205 41.6353 41.9752 41.6353Z" fill="#132C12"/>
<path d="M41.4662 9.772C42.6561 9.772 43.5908 10.7067 43.5908 11.8958C43.5908 13.0858 42.6561 14.0205 41.4662 14.0205C40.277 14.0205 39.3424 13.0858 39.3424 11.8958C39.3424 10.7067 40.277 9.772 41.4662 9.772ZM41.4662 16.1443C43.8461 16.1443 45.7145 14.275 45.7145 11.8958C45.7145 9.51665 43.8461 7.64734 41.4662 7.64734C39.087 7.64734 37.2178 9.51665 37.2178 11.8958C37.2178 14.275 39.087 16.1443 41.4662 16.1443Z" fill="#132C12"/>
</svg>
