<svg width="40" height="43" viewBox="0 0 40 43" fill="none" xmlns="http://www.w3.org/2000/svg">
<path d="M34.7271 33.7777C32.6837 33.7777 31.0794 32.1728 31.0794 30.1301V24.6589H38.3748V30.1301C38.3748 32.1004 36.6968 33.7777 34.7271 33.7777ZM38.3748 18.2384V20.0626H31.0794V18.2384C32.976 18.2384 36.4775 18.2384 38.3748 18.2384ZM32.9029 15.5394C32.9029 14.5177 33.7054 13.7152 34.7271 13.7152C35.7481 13.7152 36.5506 14.5177 36.5506 15.5394V16.4873H32.9029V15.5394ZM31.0794 21.8861H38.3748V22.8348H31.0794V21.8861ZM28.3066 10.5053C28.3066 11.2355 27.7226 11.8918 26.9209 11.8918C26.1184 11.8918 25.5345 11.3078 25.5345 10.5053C25.5345 8.9004 26.7016 7.58706 28.3066 7.36853V10.5053ZM17.1443 6.4199C18.3122 6.4199 19.2601 7.36856 19.2601 8.53572C19.2601 9.41128 18.5307 10.0676 17.7282 10.0676H15.3208C13.9344 10.0676 12.8403 8.97348 12.8403 7.58706V6.4199H17.1443ZM8.24393 22.8348V23.7834H4.59625V22.8348C4.59625 21.8138 5.39873 21.0106 6.41973 21.0106C7.44146 21.0106 8.24393 21.8138 8.24393 22.8348ZM6.41973 41.073C4.37772 41.073 2.77205 39.4689 2.77205 37.4254V31.9543H10.0674V37.4254C10.0674 39.3958 8.46319 41.073 6.41973 41.073ZM2.77205 29.1814H10.0674V30.1301H2.77205V29.1814ZM10.0674 25.5338V27.358H2.77205V25.5338C5.03404 25.5338 7.87925 25.5338 10.0674 25.5338ZM39.2504 16.415H38.3017V15.4663C38.3017 13.7883 37.1345 12.3295 35.5289 11.9641V8.68186C35.5289 6.93075 34.0701 5.47128 32.319 5.47128H30.0577V3.21003C30.0577 1.45892 28.5982 0.00012207 26.8478 0.00012207H14.2267C12.4756 0.00012207 11.0168 1.45892 11.0168 3.21003V4.59642H8.7548C7.00368 4.59642 5.54491 6.05522 5.54491 7.80633V19.3332C3.93995 19.771 2.77205 21.1567 2.77205 22.8348V23.7834H1.82412C1.31326 23.7834 0.875488 24.2212 0.875488 24.7313V37.4992C0.875488 40.4898 3.35599 42.9703 6.34737 42.9703C9.33875 42.9703 11.8185 40.4898 11.8185 37.4992V24.6589C11.8185 24.1481 11.3808 23.7103 10.8706 23.7103H9.92199V22.7617C9.92199 21.0836 8.75481 19.6249 7.14985 19.2602V7.80633C7.14985 7.07694 7.73307 6.4199 8.53555 6.4199H10.7975V7.58706C10.7975 9.92212 12.6941 11.8918 15.1023 11.8918H17.5097C19.4063 11.8918 20.865 10.3599 20.865 8.53572C20.865 6.34684 19.1139 4.59642 16.9258 4.59642H12.621V3.21003C12.621 2.48064 13.205 1.8236 14.0075 1.8236H26.7747C27.5041 1.8236 28.1604 2.40756 28.1604 3.21003V5.54434C25.6075 5.76359 23.5648 7.95248 23.5648 10.5053C23.5648 12.2565 25.0236 13.7152 26.7747 13.7152C28.5258 13.7152 29.9846 12.2565 29.9846 10.5053V7.29547H32.2459C32.976 7.29547 33.6323 7.87866 33.6323 8.68186V11.9641C32.0274 12.4019 30.8602 13.7883 30.8602 15.4663V16.415H29.9115C29.4007 16.415 28.9636 16.8528 28.9636 17.3629V30.1301C28.9636 33.1214 31.4434 35.6019 34.4348 35.6019C37.4262 35.6019 39.9067 33.1214 39.9067 30.1301V17.3629C40.1983 16.8528 39.7605 16.415 39.2504 16.415Z" fill="#132C12"/>
<path d="M19.6982 31.0054C18.9688 31.0054 18.3125 30.4222 18.3125 29.619C18.3125 28.8165 18.8957 28.2333 19.6982 28.2333C20.5007 28.2333 21.0846 28.8165 21.0846 29.619C21.0846 30.4222 20.4276 31.0054 19.6982 31.0054ZM19.6982 26.4822C17.9478 26.4822 16.4883 27.9417 16.4883 29.6921C16.4883 31.4432 17.9478 32.902 19.6982 32.902C21.4493 32.902 22.9088 31.4432 22.9088 29.6921C22.9088 27.9417 21.4493 26.4822 19.6982 26.4822Z" fill="#132C12"/>
<path d="M1.89656 3.64732C1.89656 3.13646 2.33435 2.69869 2.84594 2.69869C3.35608 2.69869 3.79385 3.13646 3.79385 3.64732C3.79385 4.15818 3.35608 4.59595 2.84594 4.59595C2.33435 4.59595 1.89656 4.15818 1.89656 3.64732ZM5.54499 3.64732C5.54499 2.11546 4.30472 0.875212 2.77213 0.875212C1.24026 0.875212 0 2.11546 0 3.64732C0 5.17918 1.24026 6.41943 2.77213 6.41943C4.30472 6.41943 5.54499 5.17918 5.54499 3.64732Z" fill="#132C12"/>
<path d="M35.6024 41.073C35.0916 41.073 34.6538 40.6353 34.6538 40.1251C34.6538 39.6143 35.0916 39.1765 35.6024 39.1765C36.1126 39.1765 36.5504 39.6143 36.5504 40.1251C36.5504 40.6353 36.1126 41.073 35.6024 41.073ZM35.6024 37.4254C34.0699 37.4254 32.8296 38.6656 32.8296 40.1982C32.8296 41.7301 34.0699 42.9703 35.6024 42.9703C37.1343 42.9703 38.3746 41.7301 38.3746 40.1982C38.3746 38.6656 37.1343 37.4254 35.6024 37.4254Z" fill="#132C12"/>
</svg>
