<svg width="40" height="41" viewBox="0 0 40 41" fill="none" xmlns="http://www.w3.org/2000/svg">
<path d="M30.2749 35.8697C27.6589 36.9712 25.5933 37.1091 22.5642 36.9022C12.3746 36.2139 4.6638 27.3326 5.42109 17.143C5.42109 16.6609 5.07693 16.2484 4.59484 16.2484C4.11274 16.2484 3.7003 16.5926 3.7003 17.0747C2.87405 28.1589 11.2732 37.7974 22.4262 38.5547C22.6324 38.5547 22.7704 38.5547 22.9773 38.6237C16.9873 39.5182 10.6531 37.4533 6.31632 32.4274C-0.706157 24.3724 0.670481 12.2551 8.7944 5.78363C7.48674 17.212 16.0238 27.3326 27.452 28.1589C31.1012 28.4341 34.6807 27.6768 37.7795 26.0932C36.4712 30.2238 33.7172 33.5978 30.2749 35.8697ZM39.6383 23.6834C39.3624 23.4772 38.9493 23.4772 38.6741 23.6834C35.3697 25.7491 31.5143 26.7815 27.521 26.5064C16.4369 25.6801 8.38196 15.2153 10.7911 4.13111C10.86 3.78695 10.7228 3.44278 10.4469 3.23588C10.1717 3.02965 9.75858 3.02965 9.48339 3.23588C4.04446 6.67885 0.533225 12.4613 0.0511292 18.9334C-0.775125 30.6376 8.5192 40.5514 20.2233 40.5514C29.6556 40.5514 37.9858 33.9413 39.9824 24.5786C40.0514 24.2345 39.9134 23.8903 39.6383 23.6834Z" fill="#132C12"/>
<path d="M15.0596 7.50428H18.1577L15.3348 10.3272C15.0596 10.6024 14.9913 10.9466 15.1286 11.2914C15.2665 11.6349 15.5417 11.8418 15.9548 11.8418H22.8393C23.3214 11.8418 23.7346 11.4287 23.7346 10.9466C23.7346 10.4651 23.3214 10.052 22.8393 10.052H18.0204L20.8427 7.22908C21.1185 6.95389 21.1868 6.60972 21.0496 6.26556C20.9116 5.92072 20.6364 5.7145 20.2233 5.7145H15.0596C14.5782 5.7145 14.165 6.12762 14.165 6.60972C14.2333 7.16011 14.5782 7.50428 15.0596 7.50428Z" fill="#132C12"/>
<path d="M20.2231 13.5633C20.2231 14.0447 20.6363 14.4578 21.1184 14.4578H27.6588L21.9446 20.172C21.6687 20.4479 21.5998 20.792 21.7377 21.1362C21.8756 21.4803 22.1508 21.6873 22.564 21.6873H34.0612C34.5433 21.6873 34.9564 21.2741 34.9564 20.792C34.9564 20.3099 34.5433 19.8968 34.0612 19.8968H24.6289L30.3437 14.1826C30.6189 13.9075 30.6879 13.5633 30.55 13.2184C30.4127 12.8743 30.1368 12.668 29.7237 12.668H21.1184C20.6363 12.668 20.2231 13.0812 20.2231 13.5633Z" fill="#132C12"/>
<path d="M23.6653 1.78977C24.1474 1.78977 24.5605 2.20289 24.5605 2.68499C24.5605 3.16709 24.1474 3.58022 23.6653 3.58022C23.1832 3.58022 22.7701 3.16709 22.7701 2.68499C22.8391 2.20289 23.1832 1.78977 23.6653 1.78977ZM23.6653 5.23206C25.1109 5.23206 26.2813 4.06163 26.2813 2.61602C26.2813 1.17041 25.1109 -1.85966e-05 23.6653 -1.85966e-05C22.2197 -1.85966e-05 21.0493 1.17041 21.0493 2.61602C21.0493 4.06163 22.2197 5.23206 23.6653 5.23206Z" fill="#132C12"/>
<path d="M36.1268 11.2915C36.8151 11.2915 37.4345 11.8418 37.4345 12.5991C37.4345 13.3564 36.8841 13.9075 36.1268 13.9075C35.3695 13.9075 34.8184 13.3564 34.8184 12.5991C34.8874 11.8418 35.4378 11.2915 36.1268 11.2915ZM36.1268 15.5593C37.7793 15.5593 39.1559 14.1827 39.1559 12.5302C39.1559 10.8783 37.7793 9.501 36.1268 9.501C34.4743 9.501 33.0977 10.8783 33.0977 12.5302C33.1666 14.2517 34.4743 15.5593 36.1268 15.5593Z" fill="#132C12"/>
</svg>
