<svg width="40" height="41" viewBox="0 0 40 41" fill="none" xmlns="http://www.w3.org/2000/svg">
<path d="M19.634 34.7408C13.4447 34.7408 8.38617 29.6829 8.38617 23.493C8.38617 17.3037 13.4447 12.2459 19.634 12.2459C25.8239 12.2459 30.8817 17.3037 30.8817 23.493C30.8817 29.6829 25.8239 34.7408 19.634 34.7408ZM19.634 10.5817C12.5126 10.5817 6.72266 16.3723 6.72266 23.493C6.72266 30.6143 12.5126 36.4049 19.634 36.4049C26.7553 36.4049 32.5453 30.6143 32.5453 23.493C32.5453 16.3723 26.7553 10.5817 19.634 10.5817Z" fill="#132C12"/>
<path d="M28.3525 22.6949C27.8864 22.6949 27.487 23.0936 27.487 23.5597C27.487 27.8861 23.9594 31.4798 19.5669 31.4798C19.1009 31.4798 18.7021 31.8792 18.7021 32.3452C18.7021 32.8113 19.1009 33.21 19.5669 33.21C24.8248 33.21 29.1512 28.9509 29.1512 23.6264C29.2172 23.0276 28.8178 22.6949 28.3525 22.6949Z" fill="#132C12"/>
<path d="M18.3033 23.1603C18.3033 22.6283 18.7687 22.1622 19.3014 22.1622C19.8335 22.1622 20.2995 22.6283 20.2995 23.1603C20.2995 23.693 19.8335 24.1591 19.3014 24.1591C18.7687 24.1591 18.3033 23.693 18.3033 23.1603ZM21.9637 23.1603C21.9637 21.2308 19.9668 19.8993 18.17 20.6981L15.5077 18.0358C15.175 17.7031 14.6423 17.7031 14.3096 18.0358C13.9769 18.3685 13.9769 18.9012 14.3096 19.2339L16.9052 21.8295C16.7058 22.2289 16.5725 22.6949 16.5725 23.1603C16.5725 24.6251 17.7706 25.8232 19.2347 25.8232C20.7656 25.8232 21.9637 24.6251 21.9637 23.1603Z" fill="#132C12"/>
<path d="M19.6344 38.8672C11.1155 38.8672 4.2602 31.9459 4.2602 23.4931C4.2602 14.9749 11.1816 8.11956 19.6344 8.11956C28.1532 8.11956 35.0086 15.0409 35.0086 23.4931C35.0086 32.0126 28.1532 38.8672 19.6344 38.8672ZM9.11867 9.51702C8.91932 9.11765 9.052 8.58494 9.45138 8.38559C9.85075 8.18557 10.3828 8.31892 10.5828 8.71829L10.7822 8.9843C10.3168 9.25099 9.85075 9.5837 9.3847 9.9164L9.11867 9.51702ZM17.7042 5.39062H21.5646V6.58875C20.2998 6.4554 19.035 6.4554 17.7042 6.58875V5.39062ZM14.0438 2.72836C14.0438 2.1963 14.5092 1.73026 15.0419 1.73026H24.2269C24.7589 1.73026 25.225 2.1963 25.225 2.72836C25.225 3.26107 24.7589 3.72712 24.2269 3.72712C23.1614 3.72712 16.0407 3.72712 15.0419 3.72712C14.5092 3.72712 14.0438 3.26107 14.0438 2.72836ZM28.686 8.65162C28.8187 8.45226 28.952 8.31891 29.218 8.25224C29.6841 8.11956 30.1501 8.38557 30.2168 8.85162C30.2828 9.05097 30.2168 9.31701 30.1501 9.45035L29.9508 9.84973C29.4847 9.51702 29.0187 9.18432 28.5526 8.91829L28.686 8.65162ZM31.2149 10.9812L31.6143 10.3158C31.947 9.71638 32.0136 9.05099 31.8803 8.45226C31.5476 7.12146 30.1501 6.32272 28.8187 6.65542C28.1533 6.85477 27.6212 7.25414 27.2878 7.78619L27.0885 8.11956C25.8904 7.52017 24.5596 7.05477 23.2281 6.78809V5.32394H24.2269C25.691 5.32394 26.8885 4.1265 26.8885 2.6617C26.8885 1.19755 25.691 9.15527e-05 24.2269 9.15527e-05H15.0419C13.5778 9.15527e-05 12.3797 1.19755 12.3797 2.6617C12.3797 4.1265 13.5778 5.32394 15.0419 5.32394H16.0407V6.78809C14.7092 7.05477 13.3784 7.52017 12.1803 8.11956L11.9803 7.78619C11.3149 6.58874 9.78409 6.18936 8.58597 6.85476C7.38851 7.52016 6.98913 9.05099 7.65453 10.2491L8.05391 10.9145C4.65957 14.0428 2.59668 18.5019 2.59668 23.427C2.59668 32.8113 10.2501 40.4647 19.6344 40.4647C29.0187 40.4647 36.6721 32.8113 36.6721 23.427C36.6721 18.5686 34.5426 14.1095 31.2149 10.9812Z" fill="#132C12"/>
<path d="M1.66416 4.92456C1.66416 4.25916 2.19687 3.65978 2.92829 3.65978C3.66102 3.65978 4.19309 4.19249 4.19309 4.92456C4.19309 5.65663 3.66102 6.18936 2.92829 6.18936C2.19687 6.18936 1.66416 5.65663 1.66416 4.92456ZM5.85725 4.92456C5.85725 3.32773 4.52578 1.99628 2.92829 1.99628C1.33145 1.99628 0 3.32773 0 4.92456C0 6.52205 1.33145 7.85352 2.92829 7.85352C4.52578 7.85352 5.85725 6.52205 5.85725 4.92456Z" fill="#132C12"/>
<path d="M37.4703 12.046C37.0049 12.046 36.6056 11.6466 36.6056 11.1813C36.6056 10.7152 37.0049 10.3159 37.4703 10.3159C37.9364 10.3159 38.3358 10.7152 38.3358 11.1813C38.2691 11.6466 37.8697 12.046 37.4703 12.046ZM37.4703 8.71837C36.0729 8.71837 34.9414 9.8498 34.9414 11.2473C34.9414 12.6454 36.0729 13.7769 37.4703 13.7769C38.8678 13.7769 39.9999 12.6454 39.9999 11.2473C39.9999 9.8498 38.8018 8.71837 37.4703 8.71837Z" fill="#132C12"/>
<path d="M4.19299 37.8024C3.72694 37.8024 3.32756 37.4037 3.32756 36.9377C3.32756 36.4716 3.72694 36.0723 4.19299 36.0723C4.65903 36.0723 5.0584 36.4716 5.0584 36.9377C4.99172 37.4697 4.59236 37.8024 4.19299 37.8024ZM4.19299 34.4748C2.79551 34.4748 1.66406 35.6062 1.66406 37.0037C1.66406 38.4012 2.79551 39.5326 4.19299 39.5326C5.59112 39.5326 6.72256 38.4012 6.72256 37.0037C6.72256 35.6062 5.52445 34.4748 4.19299 34.4748Z" fill="#132C12"/>
</svg>
