<svg width="33" height="32" viewBox="0 0 33 32" fill="none" xmlns="http://www.w3.org/2000/svg">
<path d="M21.0799 2.71642H11.5721V1.35848H21.0799V2.71642ZM31.9456 -1.06209e-06C30.9131 -1.06209e-06 1.73839 -1.06209e-06 0.705919 -1.06209e-06C0.326019 -1.06209e-06 0 0.326018 0 0.706458V31.2935C0 31.674 0.326019 32 0.705919 32C1.08636 32 1.41237 31.674 1.41237 31.2935V1.41236H10.2681V3.4773C10.2681 3.8572 10.5941 4.18375 10.9745 4.18375H21.8402C22.2207 4.18375 22.5467 3.8572 22.5467 3.4773V1.41236H31.2391V31.2935C31.2391 31.674 31.5651 32 31.9456 32C32.326 32 32.652 31.674 32.652 31.2935V0.706458C32.5976 0.326018 32.2716 -1.06209e-06 31.9456 -1.06209e-06Z" fill="#132C12"/>
<path d="M19.0144 26.5127V24.4483H28.5221V26.5127H19.0144ZM28.5221 7.49724V9.56217H19.0144V7.49724H28.5221ZM11.5715 8.31254C11.5715 8.63801 11.3544 8.85572 11.0284 8.85572H9.39829C9.07227 8.85572 8.85512 8.63801 8.85512 8.31254V7.49724H11.5715V8.31254ZM19.0144 21.0799H28.5221V23.1443H19.0144V21.0799ZM28.5221 19.7219H19.0144V17.6575H28.5221V19.7219ZM28.5221 16.2991H19.0144V14.2341H28.5221V16.2991ZM28.5221 12.9306H19.0144V10.8657H28.5221V12.9306ZM10.8651 21.5686V19.2326C11.7887 19.7219 11.7887 21.026 10.8651 21.5686ZM9.50714 19.2326V21.5686C8.58352 21.026 8.58352 19.7219 9.50714 19.2326ZM29.2285 6.13929C28.5765 6.13929 6.57356 6.13929 3.42227 6.13929C3.04183 6.13929 2.71582 6.46531 2.71582 6.84521V31.2935C2.71582 31.674 3.04183 32 3.42227 32C3.80217 32 4.12819 31.674 4.12819 31.2935V7.49724H7.55107V8.31254C7.55107 9.345 8.42025 10.2137 9.45271 10.2137H9.50714V17.7659C8.31194 18.0913 7.44222 19.1238 7.44222 20.374C7.44222 21.6231 8.31194 22.71 9.50714 22.9815V23.7424C9.50714 24.1223 9.83316 24.4483 10.2131 24.4483C10.5935 24.4483 10.9195 24.1223 10.9195 23.7424V22.9815C12.1147 22.6555 12.9839 21.6231 12.9839 20.374C12.9839 19.1238 12.1147 18.0374 10.9195 17.7659V10.2137H11.0828C12.1147 10.2137 12.9839 9.345 12.9839 8.31254V7.49724H17.6564V31.2935C17.6564 31.674 17.9824 32 18.3623 32C18.7428 32 19.0688 31.674 19.0688 31.2935V27.8712H28.5221V31.2935C28.5221 31.674 28.8481 32 29.2285 32C29.609 32 29.935 31.674 29.935 31.2935V6.84521C29.8806 6.41142 29.5546 6.13929 29.2285 6.13929Z" fill="#132C12"/>
</svg>
