<svg width="45" height="44" viewBox="0 0 45 44" fill="none" xmlns="http://www.w3.org/2000/svg">
<path d="M1.51099 29.1228C1.28328 29.1228 1.13147 28.971 1.05557 28.8192C-0.158878 25.0241 -0.310684 20.9253 0.524249 17.0542C1.43509 13.0314 3.48447 9.38804 6.44469 6.42782C10.0121 2.86038 14.7181 0.583286 19.7277 0.127869C24.5096 -0.403454 29.4433 0.735092 33.5421 3.23989L35.6674 1.11461C35.8192 0.962801 35.971 0.962801 36.1228 0.962801C36.2746 1.0387 36.4264 1.11461 36.4264 1.26641L38.8553 10.9061C38.9312 11.0579 38.8553 11.2097 38.7035 11.3615C38.5517 11.5133 38.3999 11.5133 38.2481 11.5133L28.6843 9.00852C28.5325 8.93262 28.3807 8.85672 28.3807 8.70491C28.3048 8.5531 28.3807 8.4013 28.4566 8.24949L30.506 5.9724C23.5229 2.25315 14.8699 3.5435 9.1772 9.16033C9.02539 9.31214 8.72178 9.31214 8.49407 9.16033C8.34226 9.00852 8.34226 8.70491 8.49407 8.4772C14.5663 2.40496 24.0542 1.11461 31.4927 5.44108C31.6445 5.51698 31.7204 5.66879 31.7204 5.74469C31.7204 5.8965 31.7204 6.04831 31.5686 6.12421L29.7469 8.3254L37.7926 10.4507L35.7433 2.40496L33.9216 4.22663C33.7698 4.37844 33.5421 4.37844 33.3144 4.30253C25.0409 -0.934774 14.035 0.203772 7.05191 7.18685C1.43509 12.8037 -0.538393 21.0012 1.8905 28.5915C1.96641 28.8192 1.8146 29.1228 1.58689 29.1987C1.58689 29.1228 1.51099 29.1228 1.51099 29.1228Z" fill="#132C12"/>
<path d="M22.0048 44C17.906 44 13.959 42.8615 10.4675 40.7362L8.34222 42.9374C8.19041 43.0892 8.0386 43.0892 7.8868 43.0892C7.73499 43.0133 7.58319 42.9374 7.58319 42.7856L5.15429 33.1459C5.07839 32.9941 5.15429 32.8423 5.30609 32.6904C5.4579 32.5386 5.60971 32.5386 5.76151 32.5386L15.3253 35.0434C15.4771 35.1193 15.6289 35.1952 15.6289 35.3471C15.7048 35.4989 15.6289 35.6507 15.4771 35.8025L13.3518 37.9278C20.4108 41.7229 29.1397 40.5085 34.8324 34.8157C34.9842 34.6639 35.2878 34.6639 35.5155 34.8157C35.6673 34.9675 35.6673 35.2712 35.5155 35.4989C29.3674 41.647 19.8036 42.8615 12.3651 38.4591C12.2133 38.3832 12.1374 38.2314 12.1374 38.0796C12.1374 37.9278 12.1374 37.776 12.2892 37.7L14.3386 35.6507L6.29283 33.5254L8.34222 41.5711L10.1639 39.7494C10.3157 39.5976 10.5434 39.5976 10.7711 39.6735C19.0445 44.9108 30.0505 43.7723 37.0336 36.7892C42.6504 31.1724 44.6239 22.9749 42.195 15.3846C42.1191 15.1568 42.2709 14.8532 42.4986 14.7773C42.7263 14.7014 43.0299 14.8532 43.1058 15.0809C44.3203 18.8761 44.4721 22.9749 43.6371 26.8459C42.7263 30.8688 40.6769 34.5121 37.7167 37.4723C34.1493 41.0398 29.4433 43.3169 24.4337 43.7723C23.5228 44 22.7638 44 22.0048 44Z" fill="#132C12"/>
<path d="M41.4359 3.92281C40.9046 3.92281 40.4492 4.37823 40.4492 4.90955C40.4492 5.44087 40.9046 5.89629 41.4359 5.89629C41.9672 5.89629 42.4226 5.44087 42.4226 4.90955C42.4226 4.37823 41.9672 3.92281 41.4359 3.92281ZM41.4359 6.80713C40.3733 6.80713 39.5383 5.9722 39.5383 4.90955C39.5383 3.84691 40.3733 3.01198 41.4359 3.01198C42.4985 3.01198 43.3335 3.84691 43.3335 4.90955C43.3335 5.9722 42.4985 6.80713 41.4359 6.80713Z" fill="#132C12"/>
<path d="M14.7177 20.5458H20.1827C20.3345 20.5458 20.4863 20.6217 20.5622 20.7735C20.6381 20.9253 20.6381 21.0771 20.5622 21.2289L16.3875 30.1855L31.1886 15.3844H23.7501C23.5983 15.3844 23.4465 15.3085 23.3706 15.1567C23.2947 15.0049 23.2947 14.853 23.3706 14.7012L25.6477 10.223H19.6514L14.7177 20.5458ZM14.7936 32.918C14.7177 32.918 14.6418 32.918 14.49 32.8421C14.3381 32.6903 14.2622 32.4626 14.3381 32.2348L19.3478 21.5325H13.8827C13.7309 21.5325 13.5791 21.4566 13.5032 21.3048C13.4273 21.153 13.4273 21.0012 13.5032 20.8494L18.8164 9.53983C18.8923 9.38803 19.0441 9.23622 19.2718 9.23622H26.3308C26.4826 9.23622 26.6344 9.31212 26.7103 9.46393C26.7862 9.61574 26.7862 9.76754 26.7103 9.91935L24.4333 14.3976H32.2513C32.479 14.3976 32.6308 14.5494 32.7067 14.7012C32.7826 14.853 32.7067 15.0808 32.6308 15.2326L15.1731 32.7662C15.0972 32.8421 14.9454 32.918 14.7936 32.918Z" fill="#132C12"/>
<path d="M5.83744 23.8858C4.7748 23.8858 3.93986 24.7207 3.93986 25.7834C3.93986 26.846 4.7748 27.681 5.83744 27.681C6.90008 27.681 7.73502 26.846 7.73502 25.7834C7.73502 24.7207 6.90008 23.8858 5.83744 23.8858ZM5.83744 28.5918C4.24348 28.5918 2.95312 27.3014 2.95312 25.7075C2.95312 24.1135 4.24348 22.8232 5.83744 22.8232C7.4314 22.8232 8.72176 24.1135 8.72176 25.7075C8.72176 27.3014 7.4314 28.5918 5.83744 28.5918Z" fill="#132C12"/>
</svg>
