<svg width="40" height="35" viewBox="0 0 40 35" fill="none" xmlns="http://www.w3.org/2000/svg">
<path d="M28.681 32.1528H26.0416V21.7362H28.681V32.1528ZM10.4862 32.1528V21.7362H13.1251V32.1528H10.4862ZM24.3754 21.7362V32.1528H14.7919V21.7362H24.3754ZM6.11136 19.167C6.11136 18.6808 6.52787 18.264 7.01401 18.264H32.1531C32.6387 18.264 33.0554 18.6808 33.0554 19.167C33.0554 19.6526 32.6387 20.0694 32.1531 20.0694C28.1947 20.0694 10.1388 20.0694 6.94438 20.0694C6.52787 19.9998 6.11136 19.5838 6.11136 19.167ZM13.0557 6.1111H26.1111V16.5276H13.0557V6.1111ZM7.84758 8.74985H6.11136C6.11136 7.22281 6.11136 3.40281 6.11136 1.80551H7.84758V8.74985ZM3.54186 6.1111V4.37535H4.37515V6.1111H3.54186ZM31.3197 1.80551H33.0554C33.0554 3.33324 33.0554 7.15324 33.0554 8.74985H31.3197V1.80551ZM35.6253 4.37535V6.1111H34.7223V4.37535H35.6253ZM32.1531 21.7362C33.6113 21.7362 34.7918 20.5556 34.7918 19.0975C34.7918 17.6393 33.6113 16.4587 32.1531 16.4587H27.778V6.04155H29.5144V9.5137C29.5144 9.99998 29.9304 10.4167 30.4167 10.4167H33.8889C34.3751 10.4167 34.7918 9.99998 34.7918 9.5137V7.84753H36.5276C37.0139 7.84753 37.4306 7.43082 37.4306 6.94454V6.04155H38.3336C38.8192 6.04155 39.2359 5.62483 39.2359 5.13923C39.2359 4.65295 38.8192 4.23624 38.3336 4.23624H37.4306V3.33322C37.4306 2.84763 37.0139 2.4309 36.5276 2.4309H34.7918V0.903194C34.7918 0.416912 34.3751 0.000205994 33.8889 0.000205994H30.4167C29.9304 0.000205994 29.5144 0.416912 29.5144 0.903194V4.37535H27.778V2.63892C27.778 2.15263 27.3613 1.73593 26.875 1.73593C26.3894 1.73593 25.9727 2.15263 25.9727 2.63892V4.37535H13.0557V2.63892C13.0557 2.15263 12.6389 1.73593 12.153 1.73593C11.6668 1.73593 11.3197 2.15263 11.3197 2.63892V4.37535H9.58351V0.903194C9.58351 0.416912 9.16673 0.000205994 8.68059 0.000205994H5.20837C4.7225 0.000205994 4.30572 0.416912 4.30572 0.903194V2.63892H2.56978C2.08357 2.63892 1.66679 3.05566 1.66679 3.54194V4.37535H0.902997C0.416785 4.37535 0 4.79207 0 5.27766C0 5.76395 0.416785 6.18069 0.902997 6.18069H1.80592V7.08368C1.80592 7.56996 2.22215 7.98667 2.70857 7.98667H4.37515V9.72242C4.37515 10.2087 4.79166 10.6254 5.27807 10.6254H8.75022C9.23616 10.6254 9.65294 10.2087 9.65294 9.72242V6.25024H11.3197V16.6668H6.94438C5.48636 16.6668 4.30572 17.8473 4.30572 19.3062C4.30572 20.7643 5.48636 21.9449 6.94438 21.9449H8.68059V32.3614H5.20837C4.7225 32.3614 4.30572 32.7782 4.30572 33.2645C4.30572 33.7501 4.7225 34.1667 5.20837 34.1667C6.45844 34.1667 32.3611 34.1667 33.8889 34.1667C34.3751 34.1667 34.7918 33.7501 34.7918 33.2645C34.7918 32.7782 34.3751 32.3614 33.8889 32.3614H30.4167V21.7362H32.1531Z" fill="#132C12"/>
<path d="M2.22178 27.847C2.01356 27.847 1.80555 27.639 1.80555 27.4303C1.80555 27.2223 2.01356 27.0143 2.22178 27.0143C2.43028 27.0143 2.63857 27.2223 2.63857 27.4303C2.63857 27.639 2.43028 27.847 2.22178 27.847ZM2.22178 25.2083C1.04141 25.2083 0.0693359 26.1809 0.0693359 27.3615C0.0693359 28.542 1.04141 29.5139 2.22178 29.5139C3.40263 29.5139 4.37478 28.542 4.37478 27.3615C4.37478 26.1809 3.40263 25.2083 2.22178 25.2083Z" fill="#132C12"/>
<path d="M37.3614 14.7914C36.8758 14.7914 36.4591 14.3746 36.4591 13.8883C36.4591 13.4021 36.8758 12.986 37.3614 12.986C37.8477 12.986 38.2644 13.4021 38.2644 13.8883C38.2644 14.3746 37.8477 14.7914 37.3614 14.7914ZM37.3614 11.3192C35.9032 11.3192 34.7227 12.4998 34.7227 13.9579C34.7227 15.4161 35.9032 16.5967 37.3614 16.5967C38.8195 16.5967 40.0001 15.4161 40.0001 13.9579C40.0001 12.4998 38.8195 11.3192 37.3614 11.3192Z" fill="#132C12"/>
</svg>
