<svg width="36" height="39" viewBox="0 0 36 39" fill="none" xmlns="http://www.w3.org/2000/svg">
<path d="M31.2543 30.4C29.4152 30.4 27.9714 28.9555 27.9714 27.1171V22.1931H34.5372V27.1171C34.5372 28.8904 33.027 30.4 31.2543 30.4ZM34.5372 16.4146V18.0564H27.9714V16.4146C29.6783 16.4146 32.8297 16.4146 34.5372 16.4146ZM29.6126 13.9855C29.6126 13.066 30.3348 12.3437 31.2543 12.3437C32.1732 12.3437 32.8955 13.066 32.8955 13.9855V14.8386H29.6126V13.9855ZM27.9714 19.6975H34.5372V20.5513H27.9714V19.6975ZM25.4759 9.45484C25.4759 10.1119 24.9503 10.7026 24.2288 10.7026C23.5066 10.7026 22.981 10.1771 22.981 9.45484C22.981 8.0104 24.0314 6.82839 25.4759 6.63172V9.45484ZM15.4299 5.77795C16.481 5.77795 17.3341 6.63174 17.3341 7.68219C17.3341 8.47019 16.6777 9.06086 15.9554 9.06086H13.7888C12.541 9.06086 11.5563 8.07617 11.5563 6.82839V5.77795H15.4299ZM7.41964 20.5513V21.4051H4.13675V20.5513C4.13675 19.6324 4.85897 18.9095 5.77787 18.9095C6.69742 18.9095 7.41964 19.6324 7.41964 20.5513ZM5.77787 36.9658C3.94007 36.9658 2.49498 35.522 2.49498 33.6829V28.7589H9.06078V33.6829C9.06078 35.4562 7.61697 36.9658 5.77787 36.9658ZM2.49498 26.2633H9.06078V27.1171H2.49498V26.2633ZM9.06078 22.9804V24.6222H2.49498V22.9804C4.53075 22.9804 7.09143 22.9804 9.06078 22.9804ZM35.3252 14.7735H34.4715V13.9197C34.4715 12.4095 33.421 11.0966 31.9759 10.7678V7.81371C31.9759 6.23771 30.663 4.92419 29.087 4.92419H27.0519V2.88906C27.0519 1.31306 25.7383 0.000144958 24.163 0.000144958H12.8041C11.2281 0.000144958 9.91519 1.31306 9.91519 2.88906V4.13682H7.87942C6.30342 4.13682 4.99053 5.44974 4.99053 7.02574V17.4C3.54608 17.794 2.49498 19.0411 2.49498 20.5513V21.4051H1.64185C1.18208 21.4051 0.788086 21.7991 0.788086 22.2582V33.7493C0.788086 36.4409 3.02052 38.6733 5.71275 38.6733C8.40497 38.6733 10.6368 36.4409 10.6368 33.7493V22.1931C10.6368 21.7333 10.2428 21.3393 9.78364 21.3393H8.92988V20.4855C8.92988 18.9753 7.87942 17.6624 6.43498 17.3342V7.02574C6.43498 6.36929 6.95987 5.77795 7.68209 5.77795H9.71787V6.82839C9.71787 8.92994 11.4248 10.7026 13.5921 10.7026H15.7588C17.4657 10.7026 18.7786 9.32396 18.7786 7.68219C18.7786 5.71219 17.2026 4.13682 15.2332 4.13682H11.359V2.88906C11.359 2.23262 11.8845 1.64128 12.6068 1.64128H24.0972C24.7537 1.64128 25.3443 2.16684 25.3443 2.88906V4.98994C23.0468 5.18727 21.2083 7.15727 21.2083 9.45484C21.2083 11.0308 22.5212 12.3437 24.0972 12.3437C25.6732 12.3437 26.9861 11.0308 26.9861 9.45484V6.56596H29.0212C29.6783 6.56596 30.269 7.09083 30.269 7.81371V10.7678C28.8246 11.1618 27.7741 12.4095 27.7741 13.9197V14.7735H26.9204C26.4606 14.7735 26.0672 15.1675 26.0672 15.6266V27.1171C26.0672 29.8093 28.299 32.0418 30.9912 32.0418C33.6835 32.0418 35.9159 29.8093 35.9159 27.1171V15.6266C36.1784 15.1675 35.7844 14.7735 35.3252 14.7735Z" fill="#132C12"/>
<path d="M17.7278 27.9037C17.0713 27.9037 16.4806 27.3788 16.4806 26.6559C16.4806 25.9337 17.0055 25.4088 17.7278 25.4088C18.45 25.4088 18.9755 25.9337 18.9755 26.6559C18.9755 27.3788 18.3842 27.9037 17.7278 27.9037ZM17.7278 23.8328C16.1524 23.8328 14.8389 25.1464 14.8389 26.7217C14.8389 28.2977 16.1524 29.6106 17.7278 29.6106C19.3038 29.6106 20.6173 28.2977 20.6173 26.7217C20.6173 25.1464 19.3038 23.8328 17.7278 23.8328Z" fill="#132C12"/>
<path d="M1.70689 3.28196C1.70689 2.82218 2.1009 2.42819 2.56133 2.42819C3.02045 2.42819 3.41444 2.82218 3.41444 3.28196C3.41444 3.74173 3.02045 4.13572 2.56133 4.13572C2.1009 4.13572 1.70689 3.74173 1.70689 3.28196ZM4.99045 3.28196C4.99045 1.90328 3.87422 0.787055 2.4949 0.787055C1.11623 0.787055 0 1.90328 0 3.28196C0 4.66063 1.11623 5.77686 2.4949 5.77686C3.87422 5.77686 4.99045 4.66063 4.99045 3.28196Z" fill="#132C12"/>
<path d="M32.0424 36.9658C31.5827 36.9658 31.1887 36.5718 31.1887 36.1126C31.1887 35.6529 31.5827 35.2589 32.0424 35.2589C32.5016 35.2589 32.8956 35.6529 32.8956 36.1126C32.8956 36.5718 32.5016 36.9658 32.0424 36.9658ZM32.0424 33.6829C30.6631 33.6829 29.5469 34.7991 29.5469 36.1784C29.5469 37.5571 30.6631 38.6733 32.0424 38.6733C33.4211 38.6733 34.5373 37.5571 34.5373 36.1784C34.5373 34.7991 33.4211 33.6829 32.0424 33.6829Z" fill="#132C12"/>
</svg>
