<svg width="40" height="39" viewBox="0 0 40 39" fill="none" xmlns="http://www.w3.org/2000/svg">
<path d="M5.09631 14.3768C5.59714 14.3768 6.02562 14.806 6.02562 15.3061C6.02562 15.8069 5.59714 16.2361 5.09631 16.2361C4.59548 16.2361 4.16631 15.8069 4.16631 15.3061C4.16631 14.806 4.59548 14.3768 5.09631 14.3768ZM2.37793 15.2345C2.37793 16.737 3.59382 17.9529 5.09631 17.9529C6.5981 17.9529 7.814 16.737 7.814 15.2345C7.814 13.7327 6.5981 12.5167 5.09631 12.5167C3.59382 12.5167 2.37793 13.8043 2.37793 15.2345Z" fill="white"/>
<path d="M35.4943 5.43637C35.9951 5.43637 36.4243 5.86555 36.4243 6.36638C36.4243 6.86651 35.9951 7.29571 35.4943 7.29571C34.9935 7.29571 34.565 6.86651 34.565 6.36638C34.565 5.7939 34.9935 5.43637 35.4943 5.43637ZM35.4943 9.01245C36.9961 9.01245 38.212 7.79653 38.212 6.29473C38.212 4.79222 36.9961 3.57631 35.4943 3.57631C33.9925 3.57631 32.7766 4.79222 32.7766 6.29473C32.7766 7.79653 33.9925 9.01245 35.4943 9.01245Z" fill="white"/>
<path d="M16.2548 1.85997C16.9698 1.85997 17.6139 2.43176 17.6139 3.21848C17.6139 4.00521 17.0415 4.57769 16.2548 4.57769C15.468 4.57769 14.8956 4.00521 14.8956 3.21848C14.8956 2.43176 15.5397 1.85997 16.2548 1.85997ZM16.2548 6.29443C17.9715 6.29443 19.4023 4.86358 19.4023 3.14683C19.4023 1.43079 17.9715 -7.72476e-05 16.2548 -7.72476e-05C14.538 -7.72476e-05 13.1072 1.43079 13.1072 3.14683C13.1072 4.86358 14.538 6.29443 16.2548 6.29443Z" fill="white"/>
<path d="M34.493 29.2527C34.2071 30.9694 34.278 31.7569 34.3497 32.257C34.4206 32.5429 34.4206 32.5429 34.2071 32.8288C33.9205 33.3296 32.8479 34.188 29.0569 34.6172C27.1976 34.8314 25.1949 34.9031 23.6215 34.9031C24.1223 34.3306 24.5508 33.6162 24.8374 32.6145C24.98 32.1137 24.7658 31.6129 24.2649 31.4703C23.7641 31.327 23.264 31.5419 23.1207 32.0428C22.4056 34.188 21.0464 34.7605 20.6889 34.9031C19.0438 35.0464 16.1828 38.0507 11.0333 36.2623C9.03073 35.5472 7.67151 36.3339 6.38467 35.9764C3.95216 35.333 2.80864 33.8305 2.30781 32.6862C1.52038 30.9694 1.52038 28.8952 2.30781 27.1784C2.37875 27.0358 2.37875 26.8209 2.37875 26.6783C2.02192 23.9606 4.16711 21.6004 6.81315 21.6004C8.74482 21.6004 10.4609 22.8156 11.0333 24.6756C11.105 24.8189 11.1766 24.9615 11.3192 25.1048C11.3916 25.1765 11.4625 25.2481 11.5342 25.2481C10.0324 25.9632 7.67152 27.6792 7.45728 30.8269C7.38563 31.327 7.81482 31.7569 8.31565 31.7569C8.81649 31.7569 9.17403 31.3993 9.17403 30.8985C9.38826 27.5367 13.036 26.464 13.1793 26.3924C13.2509 26.3924 13.3935 26.32 13.3218 26.32C16.4694 24.6756 19.0438 24.5323 21.8331 25.8916C22.5482 26.2491 22.9065 26.6066 23.264 26.9649C23.6215 27.3934 24.05 27.8225 24.8374 28.0368C25.2659 28.1808 25.6958 27.9658 25.91 27.5366C26.4101 26.464 26.6251 23.6023 26.6251 17.4518C26.6251 17.3085 26.6967 16.8793 26.4101 16.0926H30.0586C32.5613 20.8137 34.7788 24.0315 34.493 29.2527ZM21.1897 17.9527H19.402V12.5882H21.1897V17.9527ZM36.3523 12.5882H38.1407V17.9527H36.3523V12.5882ZM32.2038 16.1643H34.5646V18.882C34.5646 19.3828 34.9931 19.812 35.4939 19.812H39.07C39.5708 19.812 40 19.3828 40 18.882V11.7298C40 11.229 39.5708 10.8005 39.07 10.8005H35.4939C34.9931 10.8005 34.5646 11.229 34.5646 11.7298V14.4482C33.2054 14.4482 24.1224 14.4482 22.9065 14.4482V11.7298C22.9065 11.229 22.4773 10.8005 21.9757 10.8005H18.3997C17.8988 10.8005 17.4704 11.229 17.4704 11.7298V18.882C17.4704 19.3828 17.8988 19.812 18.3997 19.812H21.9757C22.4773 19.812 22.9065 19.3828 22.9065 18.882V16.1643H24.5508C24.98 17.0943 24.8374 17.3802 24.9084 17.5235C24.9084 22.0296 24.7658 24.4607 24.6225 25.6766C24.2649 25.2481 23.6925 24.7473 22.7632 24.2465C19.6879 22.7447 16.612 22.8156 13.3218 24.3898C13.1792 24.1748 12.9643 23.9606 12.7501 23.8173C11.82 21.3854 9.53085 19.7403 6.88481 19.7403C3.23711 19.7403 0.305194 22.8872 0.662728 26.535C-0.267286 28.6093 -0.195654 31.1844 0.73436 33.3296C1.73531 35.4756 3.59464 36.9774 6.02644 37.6215C7.74317 38.0507 9.0307 37.3356 10.6041 37.9074C11.9626 38.4082 13.2509 38.5515 14.3952 38.5515C16.8979 38.5515 18.8296 37.6215 19.9738 37.049C20.3313 36.8348 20.8315 36.6198 20.9748 36.6198C21.2614 36.6198 21.5473 36.6198 21.9048 36.6198C28.1985 36.6915 34.2071 36.4056 35.7798 33.7595C36.209 32.9721 36.209 32.6145 36.1373 32.0428C36.0664 31.6129 35.9948 31.0411 36.2806 29.5393V29.4677C36.5672 24.0315 34.5646 20.5987 32.2038 16.1643Z" fill="white"/>
</svg>
