<svg width="32" height="31" viewBox="0 0 32 31" fill="none" xmlns="http://www.w3.org/2000/svg">
<path d="M22.5244 29.3665H10.212C8.9075 29.3665 7.8861 28.2765 7.8861 27.0147V25.8104H24.9076V27.0147C24.8508 28.2765 23.8294 29.3665 22.5244 29.3665ZM10.2694 6.42387C10.8366 6.42387 21.8435 6.42387 22.4107 6.42387C23.7726 6.42387 24.8508 7.51384 24.8508 8.89055V12.1594H7.82928V9.97996H22.014C22.4107 9.97996 22.7517 9.63579 22.7517 9.23416C22.7517 8.83309 22.4107 8.48891 22.014 8.48891H7.82928C7.99979 7.34204 9.07745 6.42387 10.2694 6.42387ZM9.92888 1.66342C9.92888 1.49104 10.0426 1.3767 10.212 1.3767H23.2053C23.3753 1.3767 23.4889 1.49104 23.4889 1.66342V2.52358C23.4889 2.69595 23.3753 2.8103 23.2053 2.8103C22.6949 2.8103 10.8929 2.8103 10.212 2.8103C10.0426 2.8103 9.92888 2.69595 9.92888 2.52358V1.66342ZM11.347 4.24446H22.014V4.99026H11.347V4.24446ZM17.4748 18.5832L18.9503 18.8131L16.5103 21.3941L16.7939 20.7057C17.0207 20.2466 16.6808 19.6732 16.1698 19.6732H14.8079L16.2835 16.1171H17.5316L16.9076 17.5513C16.7371 18.0672 17.0207 18.5263 17.4748 18.5832ZM22.7517 15.7155C22.3544 15.7155 22.014 16.0597 22.014 16.4613V24.3762H15.7162L20.9357 18.8131C21.333 18.4114 21.1063 17.6662 20.5384 17.6087L18.6093 17.322L19.2902 15.7729C19.5176 15.3144 19.1203 14.7979 18.6662 14.7979H15.8867C15.6025 14.7979 15.3189 14.9702 15.2621 15.257L13.163 20.2467C12.9357 20.7057 13.333 21.2223 13.7871 21.2223H15.1484L13.6734 24.3762H10.7798V16.4613C10.7798 16.0597 10.4393 15.7155 10.0426 15.7155C9.64525 15.7155 9.30424 16.0597 9.30424 16.4613V24.3762H7.8861V13.5935H24.9076V24.3762H23.4889V16.4613C23.4327 16.0597 23.1485 15.7155 22.7517 15.7155ZM23.4327 5.10518V4.24446C24.2267 4.13011 24.8508 3.38429 24.8508 2.58102V1.72089C24.8508 0.802708 24.1136 9.53674e-06 23.1485 9.53674e-06H10.212C9.30424 9.53674e-06 8.51018 0.745819 8.51018 1.72089V2.58102C8.51018 3.44175 9.13427 4.13011 9.92888 4.24446V4.99026C7.94293 5.16207 6.41113 6.82549 6.41113 8.89055V27.0147C6.41113 29.1372 8.11289 30.8 10.1557 30.8H22.5244C24.624 30.8 26.2695 29.0797 26.2695 27.0147V8.89055C26.2695 7.11221 25.0782 5.5637 23.4327 5.10518Z" fill="#132C12"/>
<path d="M2.1559 20.7632C1.7586 20.7632 1.41869 20.419 1.41869 20.0174C1.41869 19.6158 1.7586 19.2716 2.1559 19.2716C2.5532 19.2716 2.89369 19.6158 2.89369 20.0174C2.89369 20.419 2.5532 20.7632 2.1559 20.7632ZM2.1559 17.8955C0.964558 17.8955 0 18.8705 0 20.0749C0 21.2792 0.964558 22.2543 2.1559 22.2543C3.34725 22.2543 4.3118 21.2792 4.3118 20.0749C4.3118 18.8705 3.34725 17.8955 2.1559 17.8955Z" fill="#132C12"/>
<path d="M29.8444 28.6209C29.4471 28.6209 29.1072 28.2768 29.1072 27.8757C29.1072 27.4741 29.4471 27.1299 29.8444 27.1299C30.2417 27.1299 30.5821 27.4741 30.5821 27.8757C30.5253 28.3342 30.2417 28.6209 29.8444 28.6209ZM29.8444 25.7532C28.653 25.7532 27.6885 26.7283 27.6885 27.9326C27.6885 29.1375 28.653 30.1125 29.8444 30.1125C31.0357 30.1125 32.0003 29.1375 32.0003 27.9326C32.0003 26.7283 30.9794 25.7532 29.8444 25.7532Z" fill="#132C12"/>
<path d="M29.5038 3.55572C30.071 3.55572 30.5814 4.01425 30.5814 4.64572C30.5814 5.27661 30.1273 5.73513 29.5038 5.73513C28.8791 5.73513 28.4255 5.27661 28.4255 4.64572C28.4255 4.01482 28.8791 3.55572 29.5038 3.55572ZM29.5038 7.11182C30.8651 7.11182 31.9996 5.96495 31.9996 4.58825C31.9996 3.21154 30.8651 2.06468 29.5038 2.06468C28.1419 2.06468 27.0068 3.21154 27.0068 4.58825C27.0068 5.96495 28.0845 7.11182 29.5038 7.11182Z" fill="#132C12"/>
</svg>
