<svg width="32" height="37" viewBox="0 0 32 37" fill="none" xmlns="http://www.w3.org/2000/svg">
<path d="M27.3215 18.7755L27.0097 18.8379C27.0097 18.4636 27.0097 18.2143 27.0097 17.84L27.3215 17.9025V18.7755ZM16.0934 27.6958C14.4712 27.6958 12.9121 27.259 11.5399 26.5104H17.1533C17.5901 26.5104 17.9644 26.1361 17.9644 25.6993C17.9644 25.2631 17.5901 24.8888 17.1533 24.8888H9.48149C7.79679 23.2047 6.73694 20.8345 6.73694 18.2768C6.73694 13.0996 10.9156 8.91969 16.0934 8.91969C21.2707 8.91969 25.45 13.0996 25.45 18.2768C25.45 23.454 21.2707 27.6958 16.0934 27.6958ZM19.6491 34.3078C19.6491 34.7439 19.2748 35.1183 18.838 35.1183H17.9644V32.748C17.9644 32.3112 17.5901 31.9376 17.1533 31.9376C16.7171 31.9376 16.3428 32.3112 16.3428 32.748V35.1183H15.5317V32.748C15.5317 32.3112 15.158 31.9376 14.7212 31.9376C14.2844 31.9376 13.9101 32.3112 13.9101 32.748V35.1183H13.224C12.7872 35.1183 12.4129 34.7439 12.4129 34.3078V28.6937C14.6587 29.4424 17.1533 29.4424 19.4616 28.6937V34.3078H19.6491ZM12.6003 2.37017C12.6003 1.93338 12.9746 1.55907 13.4114 1.55907H14.0969V3.9299C14.0969 4.36608 14.4712 4.74039 14.9087 4.74039C15.3448 4.74039 15.7192 4.36608 15.7192 3.9299V1.55907H16.5302V3.9299C16.5302 4.36608 16.9039 4.74039 17.3407 4.74039C17.7775 4.74039 18.1518 4.36608 18.1518 3.9299V1.55907H18.838C19.2748 1.55907 19.6491 1.93338 19.6491 2.37017V7.98421C17.4032 7.2356 14.9087 7.2356 12.6003 7.98421V2.37017ZM28.1945 16.4052L26.8222 16.2803C26.1986 12.9746 24.0777 10.2294 21.1463 8.67034V2.37017C21.1463 1.0604 20.0859 -4.57764e-05 18.7755 -4.57764e-05H13.3489C12.0385 -4.57764e-05 10.9781 1.0604 10.9781 2.37017V8.67034C7.48496 10.4794 5.11475 14.16 5.11475 18.3387C5.11475 22.5186 7.48496 26.1986 10.9781 28.0076V34.3078C10.9781 35.6175 12.0385 36.678 13.3489 36.678H18.838C20.1478 36.678 21.2082 35.6175 21.2082 34.3078V28.0076C24.0777 26.5104 26.1986 23.7034 26.8847 20.3977L28.257 20.2727C28.6313 20.2102 28.9431 19.8984 28.9431 19.5241V17.1539C28.8806 16.7796 28.5688 16.4052 28.1945 16.4052Z" fill="#132C12"/>
<path d="M11.9762 21.3331C10.542 19.9609 9.35663 19.2123 9.35663 18.0893C9.35663 17.5901 9.79342 17.1539 10.2927 17.1539C10.6664 17.1539 10.9157 17.2164 11.2906 17.9644C11.6025 18.5261 12.413 18.5261 12.6629 17.9644C13.0366 17.2164 13.2859 17.1539 13.6609 17.1539C14.1602 17.1539 14.5963 17.5901 14.5963 18.0893C14.5963 19.2123 13.4734 19.9609 11.9762 21.3331ZM13.7227 15.5941C12.9747 15.5941 12.4129 15.8441 12.0386 16.2803C11.6643 15.906 11.1032 15.5941 10.3546 15.5941C8.98231 15.5941 7.85938 16.7171 7.85938 18.0893C7.85938 20.2102 9.79341 21.3331 11.4775 23.0172C11.7893 23.3291 12.288 23.3291 12.6004 23.0172C14.2845 21.3331 16.2185 20.2102 16.2185 18.0893C16.1554 16.7171 15.0331 15.5941 13.7227 15.5941Z" fill="#132C12"/>
<path d="M20.3355 15.5941H22.7057C23.1419 15.5941 23.5168 15.2198 23.5168 14.7836C23.5168 14.3468 23.1419 13.9725 22.7057 13.9725H20.3355C19.8987 13.9725 19.5244 14.3468 19.5244 14.7836C19.5244 15.2823 19.8987 15.5941 20.3355 15.5941Z" fill="#132C12"/>
<path d="M22.6428 16.4051H20.2719C19.8357 16.4051 19.4614 16.7794 19.4614 17.2162C19.4614 17.6524 19.8357 18.0267 20.2719 18.0267H22.6428C23.0796 18.0267 23.4539 17.6524 23.4539 17.2162C23.4539 16.717 23.0796 16.4051 22.6428 16.4051Z" fill="#132C12"/>
<path d="M22.643 18.7129H17.9644C17.5282 18.7129 17.1533 19.0872 17.1533 19.524C17.1533 19.9608 17.5282 20.3351 17.9644 20.3351H22.643C23.0798 20.3351 23.4541 19.9608 23.4541 19.524C23.4541 19.0872 23.0798 18.7129 22.643 18.7129Z" fill="#132C12"/>
<path d="M22.643 21.0839H17.9644C17.5282 21.0839 17.1533 21.4575 17.1533 21.8943C17.1533 22.3311 17.5282 22.7054 17.9644 22.7054H22.643C23.0798 22.7054 23.4541 22.3311 23.4541 21.8943C23.4541 21.4575 23.0798 21.0839 22.643 21.0839Z" fill="#132C12"/>
<path d="M2.37019 31.1891C1.93339 31.1891 1.55909 30.8147 1.55909 30.3779C1.55909 29.9411 1.93339 29.5668 2.37019 29.5668C2.80699 29.5668 3.18068 29.9411 3.18068 30.3779C3.18068 30.8772 2.80699 31.1891 2.37019 31.1891ZM2.37019 28.0702C1.06041 28.0702 0 29.1307 0 30.4404C0 31.7502 1.06041 32.8107 2.37019 32.8107C3.67996 32.8107 4.74041 31.7502 4.74041 30.4404C4.74041 29.1307 3.67996 28.0702 2.37019 28.0702Z" fill="#132C12"/>
<path d="M29.3173 7.79747C28.6936 7.79747 28.1325 7.29818 28.1325 6.61205C28.1325 5.92592 28.6311 5.42665 29.3173 5.42665C30.0034 5.42665 30.5027 5.92592 30.5027 6.61205C30.5027 7.29818 29.9409 7.79747 29.3173 7.79747ZM31.9999 6.67455C31.9999 5.17731 30.752 3.93 29.2548 3.93C27.7575 3.93 26.5103 5.17731 26.5103 6.67455C26.5103 8.17117 27.7575 9.41907 29.2548 9.41907C30.752 9.41907 31.9999 8.17117 31.9999 6.67455Z" fill="#132C12"/>
</svg>
