<svg width="36" height="38" viewBox="0 0 36 38" fill="none" xmlns="http://www.w3.org/2000/svg">
<path d="M22.4692 25.7151C20.7549 25.7151 19.408 24.3688 19.408 22.6538C19.408 20.9395 20.7549 19.5926 22.4692 19.5926C24.1835 19.5926 25.5304 20.9395 25.5304 22.6538C25.5304 24.3688 24.1835 25.7151 22.4692 25.7151ZM14.8159 25.7151C13.1018 25.7151 11.7547 24.3688 11.7547 22.6538C11.7547 20.9395 13.1018 19.5926 14.8159 19.5926C16.5303 19.5926 17.8772 20.9395 17.8772 22.6538C17.8772 24.3688 16.5303 25.7151 14.8159 25.7151ZM11.7547 15.0011C11.7547 13.2868 13.1018 11.9393 14.8159 11.9393C16.5303 11.9393 17.8772 13.2868 17.8772 15.0011C17.8772 16.7148 16.5303 18.0623 14.8159 18.0623C13.1628 18.0623 11.7547 16.6541 11.7547 15.0011ZM18.6732 20.0827C18.3058 19.5926 17.8772 19.1032 17.3873 18.7965C17.8772 18.4291 18.3672 18.0004 18.6732 17.5109C19.0406 18.0004 19.4693 18.4904 19.9588 18.7965C19.408 19.1639 18.9793 19.5926 18.6732 20.0827ZM22.4692 11.9393C24.1835 11.9393 25.5304 13.2868 25.5304 15.0011C25.5304 16.7148 24.1835 18.0623 22.4692 18.0623C20.7549 18.0623 19.408 16.7148 19.408 15.0011C19.408 13.2868 20.8163 11.9393 22.4692 11.9393ZM25.0404 18.7965C26.2652 18.0004 27.1221 16.5928 27.1221 14.9392C27.1221 12.4287 25.0404 10.3477 22.5306 10.3477C20.9383 10.3477 19.5301 11.1432 18.6732 12.4287C17.8772 11.2051 16.469 10.3477 14.8769 10.3477C12.367 10.3477 10.2852 12.4287 10.2852 14.9392C10.2852 16.5314 11.0813 17.9397 12.367 18.7965C11.1424 19.5926 10.2852 21.0009 10.2852 22.6538C10.2852 25.1643 12.367 27.2458 14.8769 27.2458C16.469 27.2458 17.8772 26.4498 18.6732 25.1643C19.4693 26.3891 20.8776 27.2458 22.5306 27.2458C25.0404 27.2458 27.1221 25.1643 27.1221 22.6538C27.0614 21.0009 26.2652 19.5926 25.0404 18.7965Z" fill="#132C12"/>
<path d="M32.939 16.1042H31.6534V12.2474H32.939V16.1042ZM32.939 22.2266V24.5531H31.6534V22.2266H32.939ZM27.5514 29.8799C27.0006 29.8799 10.4082 29.8799 9.73494 29.8799C8.32663 29.8799 7.1633 28.7171 7.1633 27.3081V10.7779H9.97973C10.4082 10.7779 10.7756 10.4099 10.7756 9.98174C10.7756 9.55301 10.4082 9.18622 9.97973 9.18622H7.40833C7.77579 8.26744 8.69403 7.65532 9.73494 7.65532C10.4696 7.65532 27.0619 7.65532 27.5514 7.65532C28.9596 7.65532 30.1231 8.81822 30.1231 10.2271C30.1231 12.1855 30.1231 24.8591 30.1231 26.8187H26.8166C26.3879 26.8187 26.0205 27.1862 26.0205 27.6143C26.0205 28.043 26.3879 28.4109 26.8166 28.4109H29.9391C29.5104 29.2677 28.5922 29.8799 27.5514 29.8799ZM25.531 36.0024H11.7552V34.4714H23.7554C24.1841 34.4714 24.5515 34.1047 24.5515 33.6761C24.5515 33.2479 24.1841 32.8797 23.7554 32.8797H11.7552V31.3495H25.531V36.0024ZM11.7552 1.59422H25.531V3.12453H13.7759C13.3469 3.12453 12.9798 3.49192 12.9798 3.92065C12.9798 4.34937 13.3469 4.71616 13.7759 4.71616H25.531V6.24707H11.7552V1.59422ZM33.6738 10.7779H31.6534V10.2878C31.6534 8.02271 29.8171 6.18573 27.5514 6.18573H27.0619V0.798096C27.0619 0.36937 26.6945 0.00197601 26.3271 0.00197601H11.0206C10.592 0.00197601 10.2245 0.36937 10.2245 0.798096V6.18573H9.73494C7.4693 6.18573 5.63281 8.02271 5.63281 10.2878V27.3695C5.63281 29.6351 7.4693 31.4721 9.73494 31.4721H10.2245V36.8599C10.2245 37.2885 10.592 37.656 11.0206 37.656H26.3271C26.7552 37.656 27.0619 37.2885 27.0619 36.8599V31.4721H27.5514C29.8171 31.4721 31.6534 29.6351 31.6534 27.3695V26.0838H33.6738C34.1025 26.0838 34.4699 25.7166 34.4699 25.2878V21.4311C34.4699 21.0024 34.1025 20.635 33.6738 20.635H31.6534V17.5737H33.6738C34.1025 17.5737 34.4699 17.2064 34.4699 16.7782V11.39C34.4699 11.0839 34.1025 10.7779 33.6738 10.7779Z" fill="#132C12"/>
<path d="M0.796056 8.75562C1.22466 8.75562 1.59212 8.38761 1.59212 7.95949C1.59212 4.40822 4.46951 1.59233 7.95964 1.59233C8.388 1.59233 8.75521 1.22433 8.75521 0.796211C8.75521 0.367483 8.388 8.96454e-05 7.95964 8.96454e-05C3.61273 8.96454e-05 0.0613872 3.55076 0.0613872 7.89816C0.000175051 8.38761 0.367388 8.75562 0.796056 8.75562Z" fill="#132C12"/>
<path d="M8.69432 3.30604C8.69432 2.87791 8.32692 2.50991 7.89825 2.50991C4.89849 2.50991 2.44922 4.95961 2.44922 7.95949C2.44922 8.38761 2.81643 8.75562 3.24534 8.75562C3.67377 8.75562 4.04116 8.38761 4.04116 7.95949C4.04116 5.81646 5.81674 4.04082 7.95971 4.04082C8.38807 4.04082 8.69432 3.73476 8.69432 3.30604Z" fill="#132C12"/>
<path d="M2.32637 31.4095C1.89794 31.4095 1.53049 31.0428 1.53049 30.6142C1.53049 30.1853 1.89794 29.8178 2.32637 29.8178C2.75522 29.8178 3.12243 30.1853 3.12243 30.6142C3.06128 31.1035 2.75522 31.4095 2.32637 31.4095ZM2.32637 28.3483C1.04067 28.3483 0 29.3892 0 30.6747C0 31.9615 1.04067 33.0017 2.32637 33.0017C3.61255 33.0017 4.65315 31.9615 4.65315 30.6747C4.65315 29.3892 3.55109 28.3483 2.32637 28.3483Z" fill="#132C12"/>
<path d="M33.6731 4.65422C33.245 4.65422 32.8776 4.28621 32.8776 3.85809C32.8776 3.42937 33.245 3.06197 33.6731 3.06197C34.1018 3.06197 34.4692 3.42937 34.4692 3.85809C34.4692 4.28621 34.1018 4.65422 33.6731 4.65422ZM33.6731 1.593C32.3875 1.593 31.3467 2.63385 31.3467 3.91943C31.3467 5.205 32.3875 6.24585 33.6731 6.24585C34.9587 6.24585 35.9995 5.205 35.9995 3.91943C35.9995 2.63385 34.9587 1.593 33.6731 1.593Z" fill="#132C12"/>
</svg>
