<svg width="40" height="42" viewBox="0 0 40 42" fill="none" xmlns="http://www.w3.org/2000/svg">
<path d="M16.0431 8.20218C17.0598 8.20218 17.8583 9.00071 17.8583 10.0167C17.8583 11.0334 17.0598 11.832 16.0431 11.832C15.0264 11.832 14.2286 11.0334 14.2286 10.0167C14.2286 9.00071 15.0998 8.20218 16.0431 8.20218ZM16.0431 13.6465C18.0765 13.6465 19.6728 12.0494 19.6728 10.0167C19.6728 7.98472 18.0765 6.38693 16.0431 6.38693C14.0104 6.38693 12.4133 7.98472 12.4133 10.0167C12.4133 12.0494 14.0831 13.6465 16.0431 13.6465Z" fill="white"/>
<path d="M38.1847 19.092C35.9345 19.092 32.5957 19.092 29.9819 19.092V17.2767H38.1847V19.092ZM33.6837 39.0562H3.19415C2.46835 39.0562 1.81453 38.4758 1.81453 37.6765C1.81453 36.8787 2.3949 36.2976 3.19415 36.2976H29.9819C30.4175 36.2976 30.8532 35.9347 30.8532 35.4991L32.5957 20.9072H35.3542L33.6837 39.0562ZM20.617 33.902L19.6731 28.6744C19.6731 28.5297 19.601 28.3843 19.4556 28.2395L16.3342 24.8272C16.0433 24.537 15.535 24.4643 15.1721 24.6817L8.49368 28.6744L4.28286 27.7312C3.91996 27.6584 3.77451 27.2955 3.7025 27.2235C3.55706 26.6424 3.99269 26.1341 4.57376 26.2068L8.13003 26.6425C8.34821 26.6425 8.5664 26.6425 8.71113 26.497L11.9052 24.6097C12.1234 24.4643 12.3408 24.2468 12.3408 23.9567L12.8492 19.3094C12.9212 18.9465 12.7045 18.5843 12.3408 18.3662L10.1627 17.3502C9.94526 17.2767 9.6551 17.2047 9.43764 17.3502L5.08138 19.2374C4.57375 19.4556 3.91996 19.1647 3.77451 18.5843C3.62906 18.148 3.91996 17.6404 4.28286 17.4949L10.5256 14.7364L12.2681 16.188C12.4136 16.3335 12.559 16.4062 12.7765 16.4062L17.2775 16.8418C17.4956 16.8418 17.6404 16.8418 17.8586 16.6964L20.1814 15.3167C25.9893 12.0499 25.6264 12.268 25.6264 12.268C26.062 11.9779 26.6424 12.1226 26.8606 12.5582C27.1507 12.9939 27.0053 13.5022 26.5704 13.7924C20.7618 17.0593 21.1254 16.8418 21.1254 16.8418L18.8018 18.2214C18.5843 18.3662 18.3662 18.6563 18.3662 18.8745L17.9313 23.3756C17.9313 23.6658 18.0033 23.8832 18.1487 24.1014L21.1254 27.2955L22.2868 33.5391C22.3596 34.0467 21.9966 34.4831 21.4883 34.4831C21.0519 34.5551 20.6897 34.3376 20.617 33.902ZM39.0559 15.4622H29.1107C28.6031 15.4622 28.1667 15.8978 28.1667 16.4062V20.036C28.1667 20.5436 28.6031 20.98 29.1107 20.98H30.7805L29.1827 34.6278H23.8839C24.0286 34.1922 24.0286 33.7566 23.9566 33.3937L22.7224 26.9326C22.7224 26.7872 22.6497 26.6425 22.5043 26.497L19.6731 23.3756L20.036 19.7458L21.9966 18.5843C27.8038 15.3167 27.4416 15.5349 27.4416 15.5349C28.7478 14.7364 29.1107 13.0659 28.3849 11.8324C27.6584 10.5982 25.9893 10.0906 24.6824 10.8884C18.8745 14.1553 19.2374 13.9371 19.2374 13.9371L17.132 15.0266L13.2121 14.5909L11.2522 12.9939C10.962 12.7757 10.5991 12.7037 10.3089 12.8491L3.55705 15.8258C2.3229 16.4062 1.66981 17.7131 2.03199 19.0193C2.46834 20.6891 4.21012 21.5603 5.80789 20.9072L9.80055 19.2374L11.034 19.8178L10.6711 23.3756L8.13003 24.8999C4.71847 24.4643 4.86394 24.4643 4.57376 24.4643C2.83126 24.4643 1.52366 26.1341 2.10473 27.8766C2.39491 28.7479 3.12141 29.401 3.99267 29.6191L8.56638 30.6351C8.78384 30.7072 9.00131 30.6351 9.21949 30.5624L15.6077 26.7152L18.0767 29.401C19.02 34.5551 19.02 34.4097 19.0927 34.6998H3.26615C1.52365 34.6998 0.0727539 36.1522 0.0727539 37.8947C0.0727539 39.6372 1.52365 41.0889 3.26615 41.0889H34.5549C34.9913 41.0889 35.4262 40.726 35.4262 40.2903L37.1687 21.1247H39.0559C39.5643 21.1247 39.9999 20.6891 39.9999 20.1807V16.5509C39.9999 15.8978 39.5643 15.4622 39.0559 15.4622Z" fill="white"/>
<path d="M2.75923 1.88731C3.26686 1.88731 3.7032 2.32365 3.7032 2.83129C3.7032 3.33965 3.26686 3.77529 2.75923 3.77529C2.25088 3.77529 1.81523 3.33965 1.81523 2.83129C1.88795 2.25021 2.25088 1.88731 2.75923 1.88731ZM2.75923 5.51709C4.28356 5.51709 5.51768 4.28292 5.51768 2.75856C5.51768 1.23421 4.28356 5.48363e-05 2.75923 5.48363e-05C1.23418 5.48363e-05 0 1.23421 0 2.75856C0 4.28292 1.30762 5.51709 2.75923 5.51709Z" fill="white"/>
</svg>
