<svg width="32" height="33" viewBox="0 0 32 33" fill="none" xmlns="http://www.w3.org/2000/svg">
<path d="M24.22 28.6953C22.1271 29.5765 20.4746 29.6869 18.0513 29.5213C9.89968 28.9707 3.73104 21.8657 4.33687 13.7141C4.33687 13.3284 4.06155 12.9984 3.67587 12.9984C3.29019 12.9984 2.96024 13.2738 2.96024 13.6594C2.29924 22.5267 9.01853 30.2375 17.941 30.8433C18.106 30.8433 18.2163 30.8433 18.3818 30.8985C13.5898 31.6141 8.5225 29.9622 5.05306 25.9415C-0.564925 19.4976 0.536385 9.80377 7.03552 4.62664C5.98939 13.7692 12.819 21.8657 21.9616 22.5267C24.881 22.7469 27.7446 22.141 30.2236 20.8742C29.1769 24.1787 26.9738 26.8779 24.22 28.6953ZM31.7106 18.9464C31.4899 18.7814 31.1594 18.7814 30.9393 18.9464C28.2958 20.5989 25.2115 21.4249 22.0168 21.2047C13.1495 20.5437 6.70557 12.1719 8.63286 3.30464C8.68803 3.02931 8.57823 2.75398 8.35753 2.58846C8.13737 2.42348 7.80687 2.42348 7.58671 2.58846C3.23556 5.34282 0.42658 9.96874 0.0409034 15.1464C-0.6201 24.5097 6.81536 32.4407 16.1787 32.4407C23.7245 32.4407 30.3886 27.1527 31.9859 19.6626C32.0411 19.3872 31.9308 19.1119 31.7106 18.9464Z" fill="#132C12"/>
<path d="M12.0477 6.00339H14.5262L12.2678 8.26174C12.0477 8.48189 11.993 8.75721 12.1028 9.03308C12.2132 9.30786 12.4333 9.47339 12.7638 9.47339H18.2715C18.6572 9.47339 18.9877 9.14288 18.9877 8.7572C18.9877 8.37207 18.6572 8.04158 18.2715 8.04158H14.4163L16.6741 5.78324C16.8948 5.56309 16.9495 5.28775 16.8397 5.01243C16.7293 4.73655 16.5092 4.57159 16.1787 4.57159H12.0477C11.6625 4.57159 11.332 4.90208 11.332 5.28776C11.3867 5.72806 11.6625 6.00339 12.0477 6.00339Z" fill="#132C12"/>
<path d="M16.1782 10.8505C16.1782 11.2356 16.5087 11.5661 16.8944 11.5661H22.1267L17.5554 16.1374C17.3347 16.3581 17.2795 16.6334 17.3899 16.9088C17.5002 17.1841 17.7204 17.3496 18.0509 17.3496H27.2487C27.6343 17.3496 27.9648 17.0191 27.9648 16.6334C27.9648 16.2478 27.6343 15.9173 27.2487 15.9173H19.7028L24.2747 11.346C24.4948 11.1258 24.55 10.8505 24.4397 10.5746C24.3299 10.2993 24.1092 10.1343 23.7787 10.1343H16.8944C16.5087 10.1343 16.1782 10.4648 16.1782 10.8505Z" fill="#132C12"/>
<path d="M18.9322 1.43198C19.3178 1.43198 19.6483 1.76247 19.6483 2.14815C19.6483 2.53383 19.3178 2.86433 18.9322 2.86433C18.5465 2.86433 18.216 2.53383 18.216 2.14815C18.2712 1.76247 18.5465 1.43198 18.9322 1.43198ZM18.9322 4.18579C20.0887 4.18579 21.025 3.24946 21.025 2.09297C21.025 0.936492 20.0887 0.000158787 18.9322 0.000158787C17.7757 0.000158787 16.8394 0.936492 16.8394 2.09297C16.8394 3.24946 17.7757 4.18579 18.9322 4.18579Z" fill="#132C12"/>
<path d="M28.9013 9.03299C29.452 9.03299 29.9475 9.47329 29.9475 10.0791C29.9475 10.6849 29.5072 11.1258 28.9013 11.1258C28.2955 11.1258 27.8547 10.6849 27.8547 10.0791C27.9098 9.47329 28.3501 9.03299 28.9013 9.03299ZM28.9013 12.4473C30.2234 12.4473 31.3247 11.346 31.3247 10.024C31.3247 8.7025 30.2234 7.60064 28.9013 7.60064C27.5793 7.60064 26.478 8.7025 26.478 10.024C26.5332 11.4011 27.5793 12.4473 28.9013 12.4473Z" fill="#132C12"/>
</svg>
