<svg width="20" height="20" viewBox="0 0 20 20" fill="none" xmlns="http://www.w3.org/2000/svg">
<path d="M6.5384 1C6.68692 1 6.82936 1.06637 6.93438 1.18452C7.0394 1.30267 7.0984 1.46291 7.0984 1.63V2.8081H13.112V1.6381C13.112 1.47101 13.171 1.31077 13.276 1.19262C13.381 1.07447 13.5235 1.0081 13.672 1.0081C13.8205 1.0081 13.963 1.07447 14.068 1.19262C14.173 1.31077 14.232 1.47101 14.232 1.6381V2.8081H16.4C16.8242 2.8081 17.2311 2.99762 17.5311 3.33499C17.8311 3.67236 17.9998 4.12997 18 4.6072V17.2009C17.9998 17.6781 17.8311 18.1357 17.5311 18.4731C17.2311 18.8105 16.8242 19 16.4 19H3.6C3.17579 19 2.76895 18.8105 2.46891 18.4731C2.16888 18.1357 2.00021 17.6781 2 17.2009V4.6072C2.00021 4.12997 2.16888 3.67236 2.46891 3.33499C2.76895 2.99762 3.17579 2.8081 3.6 2.8081H5.9784V1.6291C5.97861 1.46217 6.03771 1.30216 6.1427 1.1842C6.2477 1.06625 6.39002 1 6.5384 1ZM3.12 7.9678V17.2009C3.12 17.2718 3.13242 17.342 3.15654 17.4075C3.18066 17.4731 3.21602 17.5326 3.26059 17.5827C3.30516 17.6329 3.35808 17.6727 3.41631 17.6998C3.47455 17.7269 3.53697 17.7409 3.6 17.7409H16.4C16.463 17.7409 16.5255 17.7269 16.5837 17.6998C16.6419 17.6727 16.6948 17.6329 16.7394 17.5827C16.784 17.5326 16.8193 17.4731 16.8435 17.4075C16.8676 17.342 16.88 17.2718 16.88 17.2009V7.9804L3.12 7.9678ZM7.3336 14.1571V15.6565H6V14.1571H7.3336ZM10.6664 14.1571V15.6565H9.3336V14.1571H10.6664ZM14 14.1571V15.6565H12.6664V14.1571H14ZM7.3336 10.5778V12.0772H6V10.5778H7.3336ZM10.6664 10.5778V12.0772H9.3336V10.5778H10.6664ZM14 10.5778V12.0772H12.6664V10.5778H14ZM5.9784 4.0672H3.6C3.53697 4.0672 3.47455 4.08117 3.41631 4.1083C3.35808 4.13544 3.30516 4.17522 3.26059 4.22536C3.21602 4.27551 3.18066 4.33504 3.15654 4.40055C3.13242 4.46607 3.12 4.53629 3.12 4.6072V6.7087L16.88 6.7213V4.6072C16.88 4.53629 16.8676 4.46607 16.8435 4.40055C16.8193 4.33504 16.784 4.27551 16.7394 4.22536C16.6948 4.17522 16.6419 4.13544 16.5837 4.1083C16.5255 4.08117 16.463 4.0672 16.4 4.0672H14.232V4.9033C14.232 5.07039 14.173 5.23063 14.068 5.34878C13.963 5.46693 13.8205 5.5333 13.672 5.5333C13.5235 5.5333 13.381 5.46693 13.276 5.34878C13.171 5.23063 13.112 5.07039 13.112 4.9033V4.0672H7.0984V4.8952C7.0984 5.06229 7.0394 5.22253 6.93438 5.34068C6.82936 5.45883 6.68692 5.5252 6.5384 5.5252C6.38988 5.5252 6.24744 5.45883 6.14242 5.34068C6.0374 5.22253 5.9784 5.06229 5.9784 4.8952V4.0672Z" fill="#132C12"/>
</svg>
