<svg width="40" height="34" viewBox="0 0 40 34" fill="none" xmlns="http://www.w3.org/2000/svg">
<path d="M38.2091 21.4918C38.2091 22.155 37.6781 22.7518 36.9491 22.7518C36.2188 22.7518 35.6879 22.2221 35.6879 21.4918V11.6741C35.6879 11.0115 36.2188 10.4141 36.9491 10.4141C37.6781 10.4141 38.2091 10.9451 38.2091 11.6741V21.4918ZM34.0963 24.8748C34.0963 26.2678 32.9686 27.3961 31.5758 27.3961C30.1822 27.3961 29.0546 26.2678 29.0546 24.8748C29.0546 23.1505 29.0546 10.0161 29.0546 8.2916C29.0546 6.89874 30.1822 5.77104 31.5758 5.77104C32.9686 5.77104 34.0963 6.89874 34.0963 8.2916C34.0963 10.2154 34.0963 23.2163 34.0963 24.8748ZM12.5377 19.8996V13.2663H27.463V19.8996H12.5377ZM10.879 24.8748C10.879 26.2678 9.75196 27.3961 8.35845 27.3961C6.96559 27.3961 5.83721 26.2678 5.83721 24.8748C5.83721 23.2827 5.83721 10.2812 5.83721 8.2916C5.83721 6.89874 6.96559 5.77104 8.35845 5.77104C9.75196 5.77104 10.879 6.89874 10.879 8.2916C10.879 10.0161 10.879 23.1505 10.879 24.8748ZM2.98507 22.686C2.32253 22.686 1.7251 22.155 1.7251 21.426V11.6741C1.7251 11.0115 2.25542 10.4141 2.98507 10.4141C3.71538 10.4141 4.24566 10.9451 4.24566 11.6741V21.4918C4.24566 22.155 3.64827 22.686 2.98507 22.686ZM36.9491 8.75611C36.484 8.75611 36.0866 8.88835 35.6879 9.02126V8.22515C35.6879 5.96974 33.8305 4.04593 31.5093 4.04593C29.1881 4.04593 27.3301 5.90329 27.3301 8.22515V11.5418H12.5377V8.22515C12.5377 5.96974 10.6803 4.04593 8.35845 4.04593C6.03658 4.04593 4.17922 5.90329 4.17922 8.22515V9.02126C3.78117 8.8219 3.38378 8.75611 2.91928 8.75611C1.32707 8.75611 0 10.0819 0 11.6741V21.4918C0 23.084 1.32707 24.4111 2.91928 24.4111C3.38378 24.4111 3.78117 24.2783 4.17922 24.1451V24.9414C4.17922 27.1969 6.03658 29.1206 8.35845 29.1206C10.6803 29.1206 12.5377 27.2632 12.5377 24.9414V21.6241H27.463V24.9414C27.463 27.1969 29.3203 29.1206 31.6422 29.1206C33.9634 29.1206 35.8214 27.2632 35.8214 24.9414V24.1451C36.2188 24.3438 36.6175 24.4111 37.0814 24.4111C38.6736 24.4111 40 23.084 40 21.4918V11.6741C39.8671 10.0819 38.5407 8.75611 36.9491 8.75611Z" fill="#132C12"/>
<path d="M19.9672 14.9254H14.9918C14.5273 14.9254 14.1299 15.3235 14.1299 15.7873C14.1299 16.2519 14.5273 16.6499 14.9918 16.6499H19.9672C20.4317 16.6499 20.8297 16.2519 20.8297 15.7873C20.8297 15.257 20.4317 14.9254 19.9672 14.9254Z" fill="#132C12"/>
<path d="M23.2841 14.9254H22.4216C21.9571 14.9254 21.5597 15.3235 21.5597 15.7873C21.5597 16.2519 21.9571 16.6499 22.4216 16.6499H23.2841C23.7486 16.6499 24.1467 16.2519 24.1467 15.7873C24.1467 15.257 23.7486 14.9254 23.2841 14.9254Z" fill="#132C12"/>
<path d="M32.4372 16.5829C31.9733 16.5829 31.5753 16.9809 31.5753 17.4455V20.7621C31.5753 21.2266 31.9733 21.624 32.4372 21.624C32.9017 21.624 33.2997 21.2266 33.2997 20.7621V17.4455C33.2333 16.9145 32.8359 16.5829 32.4372 16.5829Z" fill="#132C12"/>
<path d="M32.4372 22.3544C31.9733 22.3544 31.5753 22.7518 31.5753 23.2164V24.0789C31.5753 24.5433 31.9733 24.9414 32.4372 24.9414C32.9017 24.9414 33.2997 24.5433 33.2997 24.0789V23.2164C33.2333 22.7518 32.8359 22.3544 32.4372 22.3544Z" fill="#132C12"/>
<path d="M17.9102 1.65868C18.1095 1.65868 18.3083 1.85738 18.3083 2.05608C18.3083 2.25543 18.1095 2.45478 17.9102 2.45478C17.7115 2.45478 17.5121 2.25543 17.5121 2.05608C17.5121 1.85738 17.6457 1.65868 17.9102 1.65868ZM17.9102 4.11279C19.0385 4.11279 19.9669 3.18378 19.9669 2.05608C19.9669 0.928372 19.0385 2.14577e-05 17.9102 2.14577e-05C16.7825 2.14577e-05 15.8541 0.928372 15.8541 2.05608C15.8541 3.18378 16.7825 4.11279 17.9102 4.11279Z" fill="#132C12"/>
<path d="M5.43985 32.3045C5.24049 32.3045 5.04181 32.1058 5.04181 31.9063C5.04181 31.7077 5.24049 31.5083 5.43985 31.5083C5.6392 31.5083 5.83724 31.7077 5.83724 31.9063C5.90435 32.1058 5.70499 32.3045 5.43985 32.3045ZM5.43985 29.8496C4.31214 29.8496 3.38379 30.7794 3.38379 31.9063C3.38379 33.0341 4.31214 33.9624 5.43985 33.9624C6.56755 33.9624 7.49658 33.0341 7.49658 31.9063C7.56237 30.7794 6.56755 29.8496 5.43985 29.8496Z" fill="#132C12"/>
<path d="M24.9419 30.6456C24.4774 30.6456 24.08 30.2482 24.08 29.7839C24.08 29.3192 24.4774 28.921 24.9419 28.921C25.4071 28.921 25.8044 29.3192 25.8044 29.7839C25.8044 30.314 25.4071 30.6456 24.9419 30.6456ZM24.9419 27.3289C23.549 27.3289 22.4213 28.4567 22.4213 29.8494C22.4213 31.2436 23.549 32.3706 24.9419 32.3706C26.3354 32.3706 27.4631 31.2436 27.4631 29.8494C27.4631 28.4567 26.3354 27.3289 24.9419 27.3289Z" fill="#132C12"/>
</svg>
