<svg width="40" height="42" viewBox="0 0 40 42" fill="none" xmlns="http://www.w3.org/2000/svg">
<path d="M24.9656 28.5718C23.0608 28.5718 21.5642 27.0758 21.5642 25.1704C21.5642 23.2656 23.0608 21.769 24.9656 21.769C26.8704 21.769 28.3669 23.2656 28.3669 25.1704C28.3669 27.0758 26.8704 28.5718 24.9656 28.5718ZM16.4619 28.5718C14.5574 28.5718 13.0605 27.0758 13.0605 25.1704C13.0605 23.2656 14.5574 21.769 16.4619 21.769C18.3667 21.769 19.8633 23.2656 19.8633 25.1704C19.8633 27.0758 18.3667 28.5718 16.4619 28.5718ZM13.0605 16.6673C13.0605 14.7625 14.5574 13.2653 16.4619 13.2653C18.3667 13.2653 19.8633 14.7625 19.8633 16.6673C19.8633 18.5714 18.3667 20.0687 16.4619 20.0687C14.6251 20.0687 13.0605 18.504 13.0605 16.6673ZM20.7478 22.3135C20.3396 21.769 19.8633 21.2252 19.319 20.8844C19.8633 20.4762 20.4077 19.9998 20.7478 19.456C21.156 19.9998 21.6324 20.5444 22.1762 20.8844C21.5642 21.2926 21.0879 21.769 20.7478 22.3135ZM24.9656 13.2653C26.8704 13.2653 28.3669 14.7625 28.3669 16.6673C28.3669 18.5714 26.8704 20.0687 24.9656 20.0687C23.0608 20.0687 21.5642 18.5714 21.5642 16.6673C21.5642 14.7625 23.129 13.2653 24.9656 13.2653ZM27.8224 20.8844C29.1834 19.9998 30.1354 18.4358 30.1354 16.5985C30.1354 13.8091 27.8224 11.4968 25.0337 11.4968C23.2646 11.4968 21.6999 12.3807 20.7478 13.8091C19.8633 12.4495 18.2987 11.4968 16.5297 11.4968C13.7409 11.4968 11.4277 13.8091 11.4277 16.5985C11.4277 18.3677 12.3123 19.9324 13.7409 20.8844C12.3803 21.769 11.4277 23.3337 11.4277 25.1704C11.4277 27.9598 13.7409 30.2726 16.5297 30.2726C18.2987 30.2726 19.8633 29.3881 20.7478 27.9598C21.6324 29.3206 23.1971 30.2726 25.0337 30.2726C27.8224 30.2726 30.1354 27.9598 30.1354 25.1704C30.0679 23.3337 29.1834 21.769 27.8224 20.8844Z" fill="#132C12"/>
<path d="M36.599 17.8913H35.1706V13.606H36.599V17.8913ZM36.599 24.694V27.279H35.1706V24.694H36.599ZM30.6127 33.1977C30.0007 33.1977 11.5647 33.1977 10.8167 33.1977C9.25192 33.1977 7.95933 31.9057 7.95933 30.34V11.9732H11.0887C11.5647 11.9732 11.973 11.5643 11.973 11.0886C11.973 10.6122 11.5647 10.2047 11.0887 10.2047H8.23159C8.63987 9.1838 9.66014 8.50367 10.8167 8.50367C11.633 8.50367 30.0689 8.50367 30.6127 8.50367C32.1774 8.50367 33.4702 9.79579 33.4702 11.3612C33.4702 13.5372 33.4702 27.619 33.4702 29.7963H29.7963C29.3199 29.7963 28.9117 30.2046 28.9117 30.6803C28.9117 31.1566 29.3199 31.5654 29.7963 31.5654H33.2658C32.7894 32.5174 31.7692 33.1977 30.6127 33.1977ZM28.3679 40.0004H13.0615V38.2993H26.395C26.8713 38.2993 27.2795 37.8918 27.2795 37.4156C27.2795 36.9399 26.8713 36.5308 26.395 36.5308H13.0615V34.8305H28.3679V40.0004ZM13.0615 1.76912H28.3679V3.46946H15.3066C14.83 3.46946 14.4221 3.87767 14.4221 4.35404C14.4221 4.8304 14.83 5.23794 15.3066 5.23794H28.3679V6.93895H13.0615V1.76912ZM37.4154 11.9732H35.1706V11.4287C35.1706 8.91188 33.1302 6.8708 30.6127 6.8708H30.0689V0.884541C30.0689 0.408173 29.6607 -4.19617e-05 29.2525 -4.19617e-05H12.2453C11.769 -4.19617e-05 11.3607 0.408173 11.3607 0.884541V6.8708H10.8167C8.29933 6.8708 6.25879 8.91188 6.25879 11.4287V30.4083C6.25879 32.9257 8.29933 34.9668 10.8167 34.9668H11.3607V40.9532C11.3607 41.4295 11.769 41.8378 12.2453 41.8378H29.2525C29.7282 41.8378 30.0689 41.4295 30.0689 40.9532V34.9668H30.6127C33.1302 34.9668 35.1706 32.9257 35.1706 30.4083V28.9798H37.4154C37.8918 28.9798 38.3 28.5718 38.3 28.0953V23.8101C38.3 23.3337 37.8918 22.9255 37.4154 22.9255H35.1706V19.5241H37.4154C37.8918 19.5241 38.3 19.1159 38.3 18.6402V12.6533C38.3 12.3132 37.8918 11.9732 37.4154 11.9732Z" fill="#132C12"/>
<path d="M0.883801 9.72839C1.36003 9.72839 1.76831 9.3195 1.76831 8.84381C1.76831 4.89795 4.96542 1.76919 8.84333 1.76919C9.31929 1.76919 9.7273 1.3603 9.7273 0.884612C9.7273 0.408248 9.31929 3.24249e-05 8.84333 3.24249e-05C4.01343 3.24249e-05 0.0675027 3.94522 0.0675027 8.77567C-0.00051076 9.3195 0.407504 9.72839 0.883801 9.72839Z" fill="#132C12"/>
<path d="M9.6597 3.67331C9.6597 3.19762 9.25148 2.78872 8.77518 2.78872C5.44212 2.78872 2.7207 5.51061 2.7207 8.84381C2.7207 9.3195 3.12872 9.72839 3.60529 9.72839C4.08131 9.72839 4.48953 9.3195 4.48953 8.84381C4.48953 6.46267 6.46239 4.48974 8.84347 4.48974C9.31943 4.48974 9.6597 4.14967 9.6597 3.67331Z" fill="#132C12"/>
<path d="M2.58485 34.8978C2.10882 34.8978 1.70054 34.4903 1.70054 34.0141C1.70054 33.5375 2.10882 33.1292 2.58485 33.1292C3.06135 33.1292 3.46936 33.5375 3.46936 34.0141C3.40142 34.5578 3.06135 34.8978 2.58485 34.8978ZM2.58485 31.4964C1.1563 31.4964 0 32.653 0 34.0813C0 35.5111 1.1563 36.6669 2.58485 36.6669C4.01394 36.6669 5.17017 35.5111 5.17017 34.0813C5.17017 32.653 3.94566 31.4964 2.58485 31.4964Z" fill="#132C12"/>
<path d="M37.415 5.17024C36.9393 5.17024 36.5311 4.76135 36.5311 4.28566C36.5311 3.80929 36.9393 3.40108 37.415 3.40108C37.8914 3.40108 38.2996 3.80929 38.2996 4.28566C38.2996 4.76135 37.8914 5.17024 37.415 5.17024ZM37.415 1.76889C35.9866 1.76889 34.8301 2.92539 34.8301 4.35381C34.8301 5.78223 35.9866 6.93872 37.415 6.93872C38.8434 6.93872 39.9999 5.78223 39.9999 4.35381C39.9999 2.92539 38.8434 1.76889 37.415 1.76889Z" fill="#132C12"/>
</svg>
