<svg width="40" height="36" viewBox="0 0 40 36" fill="none" xmlns="http://www.w3.org/2000/svg">
<path d="M28.2777 33.7486L26.7851 24.8674H28.6328L31.6172 33.7486H28.2777ZM12.5756 33.7486H9.23679L12.1493 24.8674H13.997L12.5756 33.7486ZM7.10509 20.32V15.1341C7.10509 13.6416 8.31296 12.3626 9.87597 12.3626H30.9774C32.4699 12.3626 33.7482 13.5704 33.7482 15.1341V20.32C33.7482 21.8118 32.5404 23.0915 30.9774 23.0915C30.4806 23.0915 10.7286 23.0915 9.80478 23.0915C8.31294 23.0915 7.10509 21.8837 7.10509 20.32ZM9.87597 8.02868H11.5806C11.7941 9.02371 12.7173 9.80451 13.7835 9.80451C14.8497 9.80451 15.7728 9.02371 15.9857 8.02868H24.9381C25.1516 9.02371 26.0755 9.80451 27.1403 9.80451C28.2065 9.80451 29.1304 9.02371 29.3432 8.02868H30.9774C32.4699 8.02868 33.7482 9.23723 33.7482 10.7995V11.6522C32.9667 11.0131 32.0429 10.6572 30.9774 10.6572H9.87597C8.81047 10.6572 7.88659 11.0131 7.10509 11.581V10.7291C7.10509 9.23723 8.31296 8.02868 9.87597 8.02868ZM13.286 4.90264C13.286 4.68983 13.4995 4.47631 13.713 4.47631C13.9251 4.47631 14.1387 4.68983 14.1387 4.90264C14.1387 5.04429 14.1387 7.74469 14.1387 7.60234C14.1387 7.81586 13.9251 8.02868 13.713 8.02868C13.4995 8.02868 13.286 7.81586 13.286 7.60234V4.90264ZM26.6435 4.90264C26.6435 4.68983 26.8563 4.47631 27.0698 4.47631C27.2826 4.47631 27.4961 4.68983 27.4961 4.90264V7.60234C27.4961 7.81586 27.2826 8.02868 27.0698 8.02868C26.8563 8.02868 26.6435 7.81586 26.6435 7.60234V4.90264ZM30.551 24.8674H30.9774C33.4642 24.8674 35.5247 22.8075 35.5247 20.32C35.5247 19.3968 35.5247 11.7234 35.5247 10.7291C35.5247 8.2422 33.4642 6.18167 30.9774 6.18167H29.2727V4.83218C29.2727 3.62362 28.2777 2.62931 27.0698 2.62931C25.862 2.62931 24.8676 3.62362 24.8676 4.83218V6.18167H15.9857V4.83218C15.9857 3.62362 14.9913 2.62931 13.7835 2.62931C12.5756 2.62931 11.5806 3.62362 11.5806 4.83218V6.18167H9.87597C7.3891 6.18167 5.32855 8.2422 5.32855 10.7291C5.32855 11.7234 5.32855 19.3968 5.32855 20.32C5.32855 22.8075 7.3891 24.8674 9.87597 24.8674H10.3023L7.10509 34.3878C6.89227 34.9566 7.31791 35.5244 7.95777 35.5244H13.286C13.713 35.5244 14.0682 35.2404 14.1387 34.8148L15.7728 24.8674H24.9381L26.5723 34.8148C26.6435 35.2404 26.9986 35.5244 27.425 35.5244H32.7532C33.393 35.5244 33.8194 34.9566 33.6059 34.3878L30.551 24.8674Z" fill="#132C12"/>
<path d="M19.5384 20.4624C19.5384 19.9649 19.1121 19.5385 18.6145 19.5385H10.6571C10.1603 19.5385 9.73328 19.9649 9.73328 20.4624C9.73328 20.9592 10.1603 21.3862 10.6571 21.3862H18.6857C19.1121 21.3151 19.5384 20.8887 19.5384 20.4624Z" fill="#132C12"/>
<path d="M22.1676 21.3149H23.9435C24.4403 21.3149 24.8673 20.8886 24.8673 20.3911C24.8673 19.8943 24.4403 19.4672 23.9435 19.4672H22.1676C21.6701 19.4672 21.243 19.8943 21.243 20.3911C21.3149 20.8886 21.6701 21.3149 22.1676 21.3149Z" fill="#132C12"/>
<path d="M2.20286 31.1191C1.98934 31.1191 1.77581 30.9066 1.77581 30.6936C1.77581 30.4802 1.98934 30.2666 2.20286 30.2666C2.41497 30.2666 2.6285 30.4802 2.6285 30.6936C2.6285 30.9066 2.41497 31.1191 2.20286 31.1191ZM2.20286 28.4195C0.994309 28.4195 0 29.4138 0 30.6217C0 31.8296 0.994309 32.8247 2.20286 32.8247C3.41 32.8247 4.40503 31.8296 4.40503 30.6217C4.40503 29.4138 3.41 28.4195 2.20286 28.4195Z" fill="#132C12"/>
<path d="M34.1746 1.77638C34.3875 1.77638 34.601 1.9892 34.601 2.20273C34.601 2.41554 34.3875 2.62907 34.1746 2.62907C33.9618 2.62907 33.7483 2.41554 33.7483 2.20273C33.7483 1.9892 33.9618 1.77638 34.1746 1.77638ZM34.1746 4.47607C35.3832 4.47607 36.3775 3.48175 36.3775 2.2739C36.3775 1.06605 35.3832 -0.000152077 34.1746 -0.000152077C32.9668 -0.000152077 31.9725 0.994174 31.9725 2.20273C31.9725 3.41057 32.9668 4.47607 34.1746 4.47607Z" fill="#132C12"/>
<path d="M37.3003 27.5668C36.8028 27.5668 36.3771 27.1404 36.3771 26.6436C36.3771 26.1461 36.8028 25.719 37.3003 25.719C37.7978 25.719 38.2241 26.1461 38.2241 26.6436C38.2241 27.1404 37.7978 27.5668 37.3003 27.5668ZM37.3003 24.0143C35.8084 24.0143 34.6006 25.2222 34.6006 26.714C34.6006 28.2066 35.8084 29.4136 37.3003 29.4136C38.7921 29.4136 40 28.2066 40 26.714C40 25.2222 38.7216 24.0143 37.3003 24.0143Z" fill="#132C12"/>
</svg>
