<svg width="40" height="46" viewBox="0 0 40 46" fill="none" xmlns="http://www.w3.org/2000/svg">
<path d="M34.151 23.4695L33.7613 23.5476C33.7613 23.0797 33.7613 22.7681 33.7613 22.3002L34.151 22.3783V23.4695ZM20.1161 34.6199C18.0883 34.6199 16.1395 34.0739 14.4241 33.1382H21.4409C21.9869 33.1382 22.4547 32.6703 22.4547 32.1243C22.4547 31.5791 21.9869 31.1112 21.4409 31.1112H11.8512C9.74535 29.0061 8.42055 26.0433 8.42055 22.8462C8.42055 16.3746 13.6438 11.1498 20.1161 11.1498C26.5876 11.1498 31.8116 16.3746 31.8116 22.8462C31.8116 29.3177 26.5876 34.6199 20.1161 34.6199ZM24.5606 42.8849C24.5606 43.4301 24.0927 43.898 23.5467 43.898H22.4547V40.9352C22.4547 40.3892 21.9869 39.9221 21.4409 39.9221C20.8957 39.9221 20.4278 40.3892 20.4278 40.9352V43.898H19.4139V40.9352C19.4139 40.3892 18.9468 39.9221 18.4008 39.9221C17.8548 39.9221 17.3869 40.3892 17.3869 40.9352V43.898H16.5292C15.9833 43.898 15.5154 43.4301 15.5154 42.8849V35.8674C18.3227 36.8031 21.4408 36.8031 24.3263 35.8674V42.8849H24.5606ZM15.7497 2.96291C15.7497 2.41691 16.2176 1.94903 16.7636 1.94903H17.6204V4.91256C17.6204 5.45778 18.0883 5.92568 18.6351 5.92568C19.1803 5.92568 19.6482 5.45778 19.6482 4.91256V1.94903H20.6621V4.91256C20.6621 5.45778 21.1292 5.92568 21.6752 5.92568C22.2212 5.92568 22.6891 5.45778 22.6891 4.91256V1.94903H23.5467C24.0927 1.94903 24.5606 2.41691 24.5606 2.96291V9.98045C21.7533 9.04468 18.6351 9.04468 15.7497 9.98045V2.96291ZM35.2423 20.5067L33.5269 20.3505C32.7474 16.2184 30.0963 12.787 26.4321 10.8381V2.96291C26.4321 1.32569 25.1066 0.0001297 23.4686 0.0001297H16.6855C15.0475 0.0001297 13.722 1.32569 13.722 2.96291V10.8381C9.35557 13.0994 6.39282 17.7002 6.39282 22.9235C6.39282 28.1484 9.35557 32.7484 13.722 35.0097V42.8849C13.722 44.5221 15.0475 45.8477 16.6855 45.8477H23.5467C25.1839 45.8477 26.5095 44.5221 26.5095 42.8849V35.0097C30.0963 33.1382 32.7474 29.6294 33.605 25.4973L35.3204 25.3411C35.7882 25.263 36.178 24.8732 36.178 24.4053V21.4425C36.0999 20.9746 35.7102 20.5067 35.2423 20.5067Z" fill="white"/>
<path d="M14.9697 26.6665C13.177 24.9512 11.6953 24.0154 11.6953 22.6118C11.6953 21.9877 12.2413 21.4424 12.8654 21.4424C13.3325 21.4424 13.6441 21.5206 14.1128 22.4556C14.5026 23.1578 15.5157 23.1578 15.8281 22.4556C16.2952 21.5206 16.6069 21.4424 17.0755 21.4424C17.6996 21.4424 18.2449 21.9877 18.2449 22.6118C18.2449 24.0154 16.8412 24.9512 14.9697 26.6665ZM17.1529 19.4928C16.2179 19.4928 15.5157 19.8052 15.0478 20.3504C14.5799 19.8825 13.8785 19.4928 12.9427 19.4928C11.2274 19.4928 9.82373 20.8964 9.82373 22.6118C9.82373 25.2629 12.2413 26.6665 14.3463 28.7716C14.7361 29.1614 15.3594 29.1614 15.75 28.7716C17.8551 26.6665 20.2726 25.2629 20.2726 22.6118C20.1937 20.8964 18.7909 19.4928 17.1529 19.4928Z" fill="white"/>
<path d="M25.4187 19.4924H28.3814C28.9266 19.4924 29.3953 19.0245 29.3953 18.4793C29.3953 17.9333 28.9266 17.4654 28.3814 17.4654H25.4187C24.8727 17.4654 24.4048 17.9333 24.4048 18.4793C24.4048 19.1026 24.8727 19.4924 25.4187 19.4924Z" fill="white"/>
<path d="M28.3033 20.506H25.3398C24.7946 20.506 24.3267 20.9738 24.3267 21.5198C24.3267 22.0651 24.7946 22.533 25.3398 22.533H28.3033C28.8493 22.533 29.3172 22.0651 29.3172 21.5198C29.3172 20.8957 28.8493 20.506 28.3033 20.506Z" fill="white"/>
<path d="M28.3029 23.3914H22.4548C21.9096 23.3914 21.4409 23.8593 21.4409 24.4053C21.4409 24.9513 21.9096 25.4192 22.4548 25.4192H28.3029C28.8489 25.4192 29.3168 24.9513 29.3168 24.4053C29.3168 23.8593 28.8489 23.3914 28.3029 23.3914Z" fill="white"/>
<path d="M28.3029 26.3548H22.4548C21.9096 26.3548 21.4409 26.822 21.4409 27.368C21.4409 27.914 21.9096 28.3818 22.4548 28.3818H28.3029C28.8489 28.3818 29.3168 27.914 29.3168 27.368C29.3168 26.822 28.8489 26.3548 28.3029 26.3548Z" fill="white"/>
<path d="M2.96271 38.9857C2.41672 38.9857 1.94885 38.5178 1.94885 37.9718C1.94885 37.4258 2.41672 36.9579 2.96271 36.9579C3.5087 36.9579 3.97582 37.4258 3.97582 37.9718C3.97582 38.5959 3.5087 38.9857 2.96271 38.9857ZM2.96271 35.0871C1.32551 35.0871 0 36.4127 0 38.0499C0 39.6871 1.32551 41.0127 2.96271 41.0127C4.59992 41.0127 5.92546 39.6871 5.92546 38.0499C5.92546 36.4127 4.59992 35.0871 2.96271 35.0871Z" fill="white"/>
<path d="M36.6467 9.74645C35.8671 9.74645 35.1657 9.12233 35.1657 8.26466C35.1657 7.407 35.789 6.78292 36.6467 6.78292C37.5043 6.78292 38.1284 7.407 38.1284 8.26466C38.1284 9.12233 37.4262 9.74645 36.6467 9.74645ZM40 8.34279C40 6.47124 38.4401 4.91211 36.5686 4.91211C34.697 4.91211 33.1379 6.47124 33.1379 8.34279C33.1379 10.2136 34.697 11.7734 36.5686 11.7734C38.4401 11.7734 40 10.2136 40 8.34279Z" fill="white"/>
</svg>
