<svg width="40" height="45" viewBox="0 0 40 45" fill="none" xmlns="http://www.w3.org/2000/svg">
<path d="M33.3175 36.4395C33.1685 36.515 33.0195 36.5894 32.945 36.6631L32.6478 36.9604C32.5733 37.0348 32.4988 37.184 32.425 37.3321C31.9788 38.5965 31.3097 39.787 30.4172 40.6788C29.4502 41.6458 27.7397 42.1664 25.5829 42.1664C22.0881 42.1664 17.551 40.9024 13.5354 38.7454C9.22181 36.4395 6.09875 33.4657 4.90897 30.5654C3.71846 27.7395 4.38821 24.9875 6.99126 22.4589C9.14805 20.3021 12.1221 19.6331 14.7997 20.2284C15.0232 20.3766 15.1714 20.3766 15.3942 20.3766C16.0639 20.4511 16.5847 19.8566 16.3612 19.1868C15.4687 16.2865 16.2867 13.1635 18.4435 11.0067C20.154 9.29615 22.0136 8.40363 23.8724 8.40363C26.1036 8.40363 28.4832 9.66791 30.7145 11.973C32.7968 14.1298 34.6556 17.1053 36.0688 20.4511C38.5974 26.549 38.8201 32.3495 36.6634 34.5065C35.7716 35.325 34.5818 36.0679 33.3175 36.4395ZM2.97495 17.2536C5.28 14.7995 8.47829 14.8733 10.7096 17.2536C8.47829 19.6331 5.20623 19.6331 2.97495 17.2536ZM31.607 10.2624C31.607 10.1887 31.607 3.19753 31.607 0.96698C31.607 0.446224 31.1607 -3.43323e-05 30.7145 -3.43323e-05C30.2682 -3.43323e-05 29.7475 0.446224 29.7475 0.96698V8.70089C25.5084 5.57783 20.9721 5.80059 17.031 9.74241C14.8742 11.8992 13.8327 14.7995 14.0554 17.6998C11.5276 15.8403 10.3371 14.2042 9.81707 13.0145C9.14806 11.6019 9.29631 10.7094 9.37081 10.6349L7.58579 10.1887C7.58579 10.2624 7.28853 11.6757 8.18105 13.6835C5.6525 13.1635 2.90044 14.1298 1.04165 16.6583C0.818149 16.9556 0.818149 17.4763 1.04165 17.7743C2.23142 19.4103 3.94197 20.5256 5.94976 20.8236C5.87526 20.8974 5.72626 21.0456 5.6525 21.1209C1.78517 24.9875 2.15692 28.781 3.19844 31.3088C6.17251 38.4481 17.849 44.026 25.5829 44.026C28.3342 44.026 30.4172 43.3564 31.7553 42.0175C32.7968 40.9767 33.6148 39.6381 34.1355 38.151C35.6226 37.6301 36.9613 36.812 38.0021 35.7707C42.762 30.9371 38.3746 16.8073 31.607 10.2624Z" fill="#132C12"/>
<path d="M15.7665 34.7299C12.3454 33.3912 9.74239 31.0862 9.29614 29.0776C9.07338 27.9624 9.44514 26.8471 10.4859 25.8056C10.8584 25.4346 10.8584 24.8393 10.4859 24.4676C10.1142 24.0951 9.51963 24.0951 9.14787 24.4676C7.28834 26.3263 7.13935 28.1859 7.43735 29.4502C8.10636 32.7216 11.8247 35.1762 15.023 36.5151C15.4685 36.7379 16.0638 36.4397 16.212 35.9942C16.4355 35.3989 16.212 34.8783 15.7665 34.7299Z" fill="#132C12"/>
<path d="M2.82581 40.0097C2.30579 40.0097 1.85954 39.5643 1.85954 39.0433C1.85954 38.5227 2.30579 38.0764 2.82581 38.0764C3.34657 38.0764 3.79282 38.5227 3.79282 39.0433C3.71832 39.5643 3.34657 40.0097 2.82581 40.0097ZM2.82581 36.2914C1.26428 36.2914 0 37.5557 0 39.1171C0 40.6788 1.26428 41.9431 2.82581 41.9431C4.38808 41.9431 5.65236 40.6788 5.65236 39.1171C5.65236 37.5557 4.38808 36.2914 2.82581 36.2914Z" fill="#132C12"/>
<path d="M14.4273 2.82568C15.1709 2.82568 15.8399 3.42094 15.8399 4.23896C15.8399 5.05697 15.1709 5.57772 14.4273 5.57772C13.6838 5.57772 13.0141 4.98248 13.0141 4.1652C13.0141 3.34644 13.6838 2.82568 14.4273 2.82568ZM14.4273 7.43652C16.2116 7.43652 17.6994 5.94875 17.6994 4.1652C17.6994 2.38017 16.2116 0.892394 14.4273 0.892394C12.6423 0.892394 11.1553 2.38017 11.1553 4.1652C11.1553 5.94875 12.6423 7.43652 14.4273 7.43652Z" fill="#132C12"/>
<path d="M34.4328 10.2623C34.9536 10.2623 35.3998 9.81681 35.3998 9.29605V3.7182C35.3998 3.19744 34.9536 2.75192 34.4328 2.75192C33.9121 2.75192 33.4658 3.19744 33.4658 3.7182V9.29605C33.4658 9.81681 33.9121 10.2623 34.4328 10.2623Z" fill="#132C12"/>
<path d="M38.1506 16.7328C38.6714 16.7328 39.1176 16.2865 39.1176 15.7658V8.32912C39.1176 7.80836 38.6714 7.36285 38.1506 7.36285C37.6298 7.36285 37.1836 7.80836 37.1836 8.32912V15.7658C37.1836 16.2865 37.6298 16.7328 38.1506 16.7328Z" fill="#132C12"/>
</svg>
