<svg width="44" height="43" viewBox="0 0 44 43" fill="none" xmlns="http://www.w3.org/2000/svg">
<path d="M35.2915 36.4755C32.5412 36.4755 30.097 34.8715 29.1037 32.2743C28.9515 31.8924 28.6462 31.6636 28.187 31.6636H15.6599C15.2773 31.6636 14.8955 31.8924 14.7432 32.2743C13.7507 34.795 11.3057 36.4755 8.55542 36.4755C4.88913 36.4755 1.83354 33.4964 1.83354 29.7536C1.83354 26.0108 4.81261 23.0317 8.55542 23.0317C11.3822 23.0317 13.7507 24.7122 14.7432 27.2329C14.8955 27.6148 15.2016 27.8436 15.6599 27.8436H28.2643C28.6462 27.8436 29.028 27.6148 29.1803 27.2329C30.1736 24.7122 32.6178 23.0317 35.368 23.0317C39.0351 23.0317 42.09 26.0108 42.09 29.7536C42.09 33.4964 38.9578 36.4755 35.2915 36.4755ZM7.02802 13.1777C9.54873 12.1079 12.4513 12.6428 14.3613 14.5529C14.6667 14.8582 15.0493 14.934 15.4304 14.7817L26.8891 9.66377C27.2702 9.51073 27.4998 9.12886 27.424 8.74701C27.2702 3.93442 32.1601 0.573486 36.5144 2.33048C39.9518 3.70561 41.6323 7.52492 40.3337 10.9624C38.5759 15.3924 32.9231 16.691 29.4098 13.33C29.1037 13.0247 28.7219 12.9482 28.3408 13.1012L16.9586 18.2191C16.5767 18.3722 16.3471 18.754 16.4237 19.1359C16.5002 20.8164 15.8123 22.4968 14.7432 23.7954C11.9172 20.8929 7.33334 20.4345 3.97239 22.6499C1.91006 19.1359 3.36173 14.7817 7.02802 13.1777ZM35.2915 21.1982C32.0063 21.1982 29.028 23.0317 27.5763 26.0108H16.2714C16.1183 25.7813 16.0418 25.5524 15.8888 25.3229C17.3404 23.7954 18.1807 21.8096 18.2572 19.7466L28.6462 15.1635C31.0896 17.2259 34.6043 17.7608 37.5834 16.4622C41.9377 14.5529 43.9235 9.51071 42.0134 5.15725C40.1041 0.80304 35.0627 -1.18351 30.7085 0.726521C27.6528 2.02513 25.7436 4.92769 25.5905 8.2121L15.2016 12.7194C12.6809 10.6563 9.24339 10.1221 6.26429 11.4208C1.45168 13.4831 -0.381856 19.3647 2.44495 23.7954C0.916762 25.3229 0 27.4625 0 29.7536C0 34.4897 3.81935 38.3855 8.63196 38.3855C11.9171 38.3855 14.8955 36.5527 16.3472 33.5729H27.6528C29.1038 36.4755 32.0836 38.3855 35.368 38.3855C40.1041 38.3855 44 34.5662 44 29.7536C44 24.941 40.0276 21.1982 35.2915 21.1982Z" fill="#132C12"/>
<path d="M10.0069 2.10074C10.7707 2.10074 11.4578 2.71215 11.4578 3.55239C11.4578 4.39262 10.8472 5.00406 10.0069 5.00406C9.1667 5.00406 8.55526 4.3161 8.55526 3.55239C8.55526 2.78868 9.1667 2.10074 10.0069 2.10074ZM10.0069 6.91333C11.8405 6.91333 13.3679 5.3859 13.3679 3.55239C13.3679 1.71963 11.8405 0.191464 10.0069 0.191464C8.17342 0.191464 6.646 1.71963 6.646 3.55239C6.646 5.3859 8.17342 6.91333 10.0069 6.91333Z" fill="#132C12"/>
<path d="M21.0078 40.2944C20.4729 40.2944 20.0138 39.8368 20.0138 39.3019C20.0138 38.767 20.4729 38.3086 21.0078 38.3086C21.542 38.3086 22.0003 38.767 22.0003 39.3019C21.9238 39.9126 21.4654 40.2944 21.0078 40.2944ZM21.0078 36.4751C19.4039 36.4751 18.1045 37.7737 18.1045 39.3784C18.1045 40.9824 19.4039 42.281 21.0078 42.281C22.6118 42.281 23.9104 40.9824 23.9104 39.3784C23.9104 37.7737 22.5345 36.4751 21.0078 36.4751Z" fill="#132C12"/>
<path d="M39.1107 29.8299C38.5758 29.8299 38.1182 30.2882 38.1182 30.8231C38.1182 31.8922 37.2772 32.7324 36.2081 32.7324C35.6732 32.7324 35.2148 33.1908 35.2148 33.7257C35.2148 34.2599 35.6732 34.719 36.2081 34.719C38.347 34.719 40.0275 33.0378 40.0275 30.8997C40.104 30.2117 39.6456 29.8299 39.1107 29.8299Z" fill="#132C12"/>
</svg>
