<svg width="40" height="38" viewBox="0 0 40 38" fill="none" xmlns="http://www.w3.org/2000/svg">
<path d="M19.4997 19.9665H17.7695L15.3072 22.8288V19.9665H13.7764V26.6218H15.3072V24.6251L15.9726 23.9603L17.9029 26.6218H19.6331L16.9708 22.8948L19.4997 19.9665Z" fill="#132C12"/>
<path d="M23.0946 24.2264H24.4255V24.4258C23.9601 24.9579 23.4274 25.2906 22.828 25.2906C22.5619 25.2906 22.2959 25.2245 22.0965 25.1578C20.8984 24.6251 20.765 22.8289 21.4971 21.8968C22.2959 20.8987 23.8267 21.2314 24.2928 22.2295L25.4243 21.3641C24.6922 19.8999 22.7619 19.6339 21.4305 20.1666C18.6354 21.3641 18.8348 25.3579 21.3644 26.4226C21.7638 26.5554 22.1632 26.6887 22.6286 26.6887C23.294 26.6887 23.8934 26.4226 24.3588 25.9566V26.6219H25.6236V23.1616H23.028L23.0946 24.2264Z" fill="#132C12"/>
<path d="M19.7 31.6133C15.1075 31.6133 11.3803 27.8869 11.3803 23.2944C11.3803 18.7019 15.1075 14.9748 19.7 14.9748C24.2926 14.9748 28.0197 18.7019 28.0197 23.2944C28.0197 27.8869 24.2926 31.6133 19.7 31.6133ZM19.7 13.3112C14.176 13.3112 9.7168 17.7704 9.7168 23.2944C9.7168 28.8186 14.176 33.2776 19.7 33.2776C25.224 33.2776 29.6832 28.8186 29.6832 23.2944C29.6832 17.7704 25.224 13.3112 19.7 13.3112Z" fill="#132C12"/>
<path d="M17.1049 18.1695C18.3697 17.3708 19.9666 17.2374 21.3648 17.7702C21.7641 17.9035 22.2962 17.7035 22.4296 17.3041C22.5623 16.9047 22.3629 16.3726 21.9635 16.2393C20.0999 15.5739 17.9704 15.7732 16.2395 16.772C15.8401 17.0381 15.7074 17.5035 15.9734 17.9035C16.2395 18.3022 16.7055 18.4356 17.1049 18.1695Z" fill="#132C12"/>
<path d="M27.7528 34.9418H11.6461C7.78633 32.2795 5.52339 27.9528 5.52339 23.2943C5.52339 15.5074 11.8462 9.11794 19.6998 9.11794C27.5534 9.11794 33.8762 15.4407 33.8762 23.2943C33.8762 27.9528 31.5466 32.2795 27.7528 34.9418ZM8.9178 3.26123C8.78445 2.46247 9.38386 1.66371 10.2486 1.66371H29.1509C30.0164 1.66371 30.6151 2.46247 30.4818 3.26123L29.0842 10.5821C23.4936 6.5223 15.9727 6.5223 10.382 10.5821L8.9178 3.26123ZM30.4818 11.7796L32.0793 3.59394C32.412 1.73038 31.0145 0.000167847 29.1509 0.000167847H10.2486C8.38508 0.000167847 6.92089 1.73038 7.32027 3.59394L8.9178 11.7796C1.46356 18.7685 2.52835 30.8146 10.9807 36.4727C11.1141 36.5387 11.2468 36.6052 11.4468 36.6052H28.0195C28.1521 36.6052 28.3522 36.5387 28.4855 36.4727C36.9379 30.8146 37.936 18.7685 30.4818 11.7796Z" fill="#132C12"/>
<path d="M18.3693 3.32765H12.5119C12.0459 3.32765 11.6465 3.72637 11.6465 4.19243C11.6465 4.65848 12.0459 5.05786 12.5119 5.05786H18.3693C18.8347 5.05786 19.2341 4.65848 19.2341 4.19243C19.2341 3.66036 18.8347 3.32765 18.3693 3.32765Z" fill="#132C12"/>
<path d="M21.6965 4.99121H23.36C23.8261 4.99121 24.2255 4.59183 24.2255 4.12644C24.2255 3.66038 23.8261 3.261 23.36 3.261H21.6965C21.2304 3.261 20.8311 3.66038 20.8311 4.12644C20.8977 4.59183 21.2304 4.99121 21.6965 4.99121Z" fill="#132C12"/>
<path d="M1.73021 10.7821C1.73021 10.316 2.12958 9.91663 2.59564 9.91663C3.06169 9.91663 3.46108 10.316 3.46108 10.7821C3.46108 11.2475 3.06169 11.6468 2.59564 11.6468C2.12958 11.6468 1.73021 11.2475 1.73021 10.7821ZM5.05794 10.7821C5.05794 9.38456 3.92648 8.25308 2.52898 8.25308C1.13147 8.25308 0 9.38456 0 10.7821C0 12.1796 1.13147 13.311 2.52898 13.311C3.92648 13.311 5.05794 12.1796 5.05794 10.7821Z" fill="#132C12"/>
<path d="M35.4076 7.45443C35.607 7.45443 35.807 7.65379 35.807 7.85315C35.807 8.05317 35.607 8.25319 35.4076 8.25319C35.2076 8.25319 35.0083 8.11985 35.0083 7.91983C35.0083 7.65379 35.2076 7.45443 35.4076 7.45443ZM35.4076 9.9834C36.5391 9.9834 37.4712 9.05196 37.4712 7.91983C37.4712 6.78835 36.5391 5.8569 35.4076 5.8569C34.2762 5.8569 33.3447 6.78835 33.3447 7.91983C33.3447 9.05196 34.2762 9.9834 35.4076 9.9834Z" fill="#132C12"/>
<path d="M37.0716 35.7399C36.4055 35.7399 35.8068 35.208 35.8068 34.4759C35.8068 33.7438 36.3395 33.2111 37.0716 33.2111C37.803 33.2111 38.3358 33.7438 38.3358 34.4759C38.3358 35.208 37.803 35.7399 37.0716 35.7399ZM37.0716 31.6133C35.4741 31.6133 34.1426 32.945 34.1426 34.5424C34.1426 36.1401 35.4741 37.4707 37.0716 37.4707C38.6685 37.4707 40 36.1401 40 34.5424C40 32.945 38.6685 31.6133 37.0716 31.6133Z" fill="#132C12"/>
</svg>
