<svg width="57" height="56" viewBox="0 0 57 56" fill="none" xmlns="http://www.w3.org/2000/svg">
<path d="M22.2676 47.0522C21.9625 47.0522 21.6575 46.7472 21.6575 46.4422C21.6575 46.3405 21.6575 46.3405 21.6575 46.2388L23.1827 41.2565C23.1827 41.1548 23.2844 41.0532 23.386 40.9515L24.1995 40.2397L22.1659 39.528C22.0642 39.528 21.9625 39.4263 21.8608 39.3246L20.3357 37.5961L17.5903 36.7826C17.2853 36.681 17.1836 36.4776 17.1836 36.1726V33.6306C17.1836 33.4272 17.2853 33.3255 17.387 33.2239L20.844 29.5634C20.9457 29.4617 21.0474 29.36 21.2508 29.36L22.2676 29.2584V28.3433C22.2676 28.1399 22.3692 28.0382 22.4709 27.9365L22.9793 27.3265L22.8776 26.208C22.8776 25.9029 23.081 25.6996 23.2844 25.5979L24.7079 25.0895C25.0129 24.9878 25.3179 25.0895 25.5213 25.3946L25.8263 26.0046L28.165 24.2761L27.6566 22.2425C27.5549 21.9375 27.7582 21.5307 28.165 21.4291C28.47 21.3274 28.8767 21.5307 28.9784 21.9375L29.5885 24.3778C29.6902 24.5811 29.5885 24.8862 29.3851 24.9878L26.1314 27.5298C26.0297 27.6315 25.8263 27.7332 25.623 27.6315C25.4196 27.6315 25.3179 27.4281 25.2163 27.3265L24.8095 26.513L24.1995 26.4113L24.3011 27.3265C24.3011 27.5298 24.1995 27.6315 24.0978 27.8349L23.4877 28.4449V29.7668C23.4877 30.0718 23.2844 30.3768 22.8776 30.3768L21.4541 30.4785L18.3021 33.8339V35.5625L20.7424 36.3759C20.844 36.3759 20.9457 36.4776 21.0474 36.5793L22.5726 38.3078L25.4196 39.3246C25.623 39.4263 25.8263 39.6297 25.8263 39.833C25.8263 40.0364 25.8263 40.2397 25.623 40.4431L24.1995 41.7649L22.776 46.5438C22.776 46.8489 22.5726 47.0522 22.2676 47.0522Z" fill="#132C12"/>
<path d="M35.2826 41.9683H33.0456C32.8423 41.9683 32.7406 41.8666 32.5372 41.7649C32.4356 41.6632 32.3339 41.4599 32.3339 41.2565L32.6389 38.1044L30.0969 36.986C29.9953 36.986 29.8936 36.8843 29.7919 36.7826L27.0466 33.1222C26.8432 32.9188 26.8432 32.6138 27.0466 32.4104L28.8768 29.7667L28.2667 29.6651C28.0634 29.6651 27.86 29.4617 27.86 29.2583C27.7583 29.055 27.7583 28.8516 27.86 28.6483L29.0801 26.4113C29.1818 26.208 29.3852 26.1063 29.5885 26.1063L31.0121 26.0046L31.4188 24.5811C31.4188 24.4794 31.5205 24.2761 31.6221 24.2761L33.554 22.8526C33.8591 22.6492 34.2658 22.6492 34.4692 22.9542C34.6725 23.2593 34.6725 23.666 34.3675 23.8693L32.6389 25.1912L32.1305 26.818C32.0288 27.1231 31.8255 27.3264 31.5205 27.3264L29.9953 27.4281L29.3852 28.5466L30.0969 28.75C30.3003 28.75 30.5037 28.9533 30.6053 29.1567C30.707 29.36 30.707 29.5634 30.5037 29.7667L28.3684 32.8171L30.8087 35.9692L33.6557 37.1893C33.9608 37.291 34.0624 37.5961 34.0624 37.7994L33.7574 40.6464H34.8759C34.9775 40.5448 34.9775 40.3414 35.0792 40.2397L37.1128 36.6809C37.2145 36.5793 37.2145 36.4776 37.3162 36.4776L40.5699 34.6474C40.8749 34.444 41.2817 34.5457 41.485 34.8507C41.6884 35.1557 41.5867 35.5625 41.2817 35.7658L38.2313 37.4944L36.2994 40.8498C36.1977 41.0531 36.096 41.2565 35.9943 41.4599V41.5615C35.6893 41.8666 35.4859 41.9683 35.2826 41.9683Z" fill="#132C12"/>
<path d="M34.2658 33.5289L35.3842 34.3424L36.5027 33.2239L35.5876 31.9021C35.5876 31.9021 35.5876 31.8004 35.4859 31.8004L34.7742 29.9701L33.7574 31.6987L34.2658 33.5289ZM35.5876 35.7659C35.4859 35.7659 35.3842 35.7659 35.2826 35.6642L33.3507 34.444C33.249 34.3424 33.1473 34.2407 33.0456 34.0373L32.4355 31.597C32.4355 31.3937 32.4355 31.292 32.5372 31.0886L34.3675 28.0382C34.4691 27.8349 34.6725 27.7332 34.9775 27.7332C35.1809 27.7332 35.3842 27.9366 35.4859 28.1399L36.7061 31.0886L37.8246 32.8172C38.0279 33.0205 37.9262 33.4272 37.7229 33.6306L35.8926 35.4608C35.8926 35.7659 35.6893 35.7659 35.5876 35.7659Z" fill="#132C12"/>
<path d="M27.9624 22.5475C21.1499 22.5475 15.6592 28.0382 15.6592 34.8507C15.6592 39.5279 18.3029 43.7985 22.4717 45.832C24.2003 46.6455 26.0305 47.0522 27.8608 47.0522C34.5716 47.0522 39.9606 41.8665 40.1639 35.1557C40.1639 35.054 40.1639 34.9524 40.1639 34.749C40.1639 30.1734 37.622 26.0046 33.5548 23.8693C31.9279 22.9542 30.0977 22.5475 28.2675 22.4458C28.1658 22.5475 28.0641 22.5475 27.9624 22.5475ZM27.9624 48.374C25.8272 48.374 23.8953 47.8656 21.9634 46.9505C19.7264 45.832 17.7945 44.2052 16.4727 42.0699C15.0492 39.9346 14.3374 37.3927 14.3374 34.8507C14.3374 27.4281 20.4382 21.3273 27.8608 21.3273C27.9624 21.3273 28.1658 21.3273 28.2675 21.3273C30.3011 21.429 32.3346 21.9374 34.1649 22.8525C38.6388 25.1911 41.4858 29.7667 41.4858 34.8507C41.4858 34.9524 41.4858 35.1557 41.4858 35.2574C41.3841 38.8162 39.9606 42.0699 37.4186 44.5102C34.8766 46.9505 31.5212 48.374 27.9624 48.374Z" fill="#132C12"/>
<path d="M53.7885 19.0903H46.3659C46.0608 19.0903 45.7558 18.7853 45.7558 18.4803C45.7558 18.1752 46.0608 17.8702 46.3659 17.8702H51.7549L42.9088 11.6677C42.6037 11.4644 42.502 11.0577 42.7054 10.7526C42.9088 10.4476 43.3155 10.3459 43.6205 10.5493L54.1952 17.8702C54.3985 18.0735 54.5002 18.2769 54.3985 18.5819C54.2969 18.887 53.9918 19.0903 53.7885 19.0903Z" fill="#132C12"/>
<path d="M9.5584 19.0903H2.13581C1.83077 19.0903 1.62741 18.887 1.52573 18.6836C1.42405 18.3786 1.52573 18.1752 1.72909 17.9719L27.5556 0.0762978C27.759 -0.0253811 28.064 -0.0253811 28.2674 0.0762978L39.1471 7.49889C39.4521 7.70225 39.5538 8.10896 39.3504 8.414C39.1471 8.71904 38.7404 8.82072 38.4353 8.61736L27.9624 1.39813L4.16939 17.8702H9.5584C9.86343 17.8702 10.1685 18.1752 10.1685 18.4803C10.1685 18.7853 9.86343 19.0903 9.5584 19.0903Z" fill="#132C12"/>
<path d="M9.35484 19.0903C9.15148 19.0903 8.94812 18.9887 8.84644 18.7853C8.64308 18.4803 8.74476 18.0735 8.94812 17.8702L26.8437 5.16026C27.1487 4.95691 27.5554 5.05859 27.7588 5.26194C27.9622 5.56698 27.8605 5.9737 27.6571 6.17706L9.76156 18.9887C9.65988 19.0903 9.45652 19.0903 9.35484 19.0903Z" fill="#132C12"/>
<path d="M39.3498 13.3965H42.5018V5.16052H39.3498V13.3965ZM43.2136 14.6167H38.7397C38.4347 14.6167 38.1296 14.3117 38.1296 14.0066V4.44877C38.1296 4.14373 38.4347 3.83869 38.7397 3.83869H43.2136C43.5186 3.83869 43.8237 4.14373 43.8237 4.44877V14.0066C43.8237 14.4133 43.5186 14.6167 43.2136 14.6167Z" fill="#132C12"/>
<path d="M48.2976 52.1362C47.9926 52.1362 47.6875 51.8312 47.6875 51.5262V48.3741H46.3657C46.0607 48.3741 45.7556 48.0691 45.7556 47.764C45.7556 47.459 46.0607 47.1539 46.3657 47.1539H48.2976C48.6026 47.1539 48.9077 47.459 48.9077 47.764V51.6278C48.9077 51.8312 48.6026 52.1362 48.2976 52.1362Z" fill="#132C12"/>
<path d="M7.62619 52.1362C7.32115 52.1362 7.01611 51.8312 7.01611 51.5262V47.6623C7.01611 47.3573 7.32115 47.0523 7.62619 47.0523H9.5581C9.86313 47.0523 10.1682 47.3573 10.1682 47.6623C10.1682 47.9674 9.86313 48.2724 9.5581 48.2724H8.23627V51.4245C8.23627 51.8312 7.93123 52.1362 7.62619 52.1362Z" fill="#132C12"/>
<path d="M51.4502 56C51.1451 56 50.8401 55.695 50.8401 55.3899V52.2379H5.08441V55.2882C5.08441 55.5933 4.77937 55.8983 4.47433 55.8983C4.1693 55.8983 3.86426 55.5933 3.86426 55.2882V51.4244C3.86426 51.1194 4.1693 50.8144 4.47433 50.8144H51.5519C51.8569 50.8144 52.1619 51.1194 52.1619 51.4244V55.2882C52.0603 55.695 51.8569 56 51.4502 56Z" fill="#132C12"/>
<path d="M53.9917 56H1.93185C1.62682 56 1.32178 55.695 1.32178 55.3899C1.32178 55.0849 1.62682 54.7798 1.93185 54.7798H54.0933C54.3984 54.7798 54.7034 55.0849 54.7034 55.3899C54.6017 55.695 54.3984 56 53.9917 56Z" fill="#132C12"/>
<path d="M52.772 23.5643C51.3485 23.5643 50.23 24.6828 50.23 26.1063C50.23 27.5298 51.3485 28.6483 52.772 28.6483C54.1955 28.6483 55.314 27.5298 55.314 26.1063C55.314 24.6828 54.0938 23.5643 52.772 23.5643ZM52.772 29.8684C50.6368 29.8684 48.9082 28.1399 48.9082 26.0046C48.9082 23.8693 50.6368 22.1408 52.772 22.1408C54.9073 22.1408 56.6358 23.8693 56.6358 26.0046C56.6358 28.1399 54.8056 29.8684 52.772 29.8684Z" fill="#132C12"/>
<path d="M3.15206 38.8162C2.13527 38.8162 1.22015 39.6296 1.22015 40.7481C1.22015 41.8666 2.03359 42.68 3.15206 42.68C4.27053 42.68 5.08397 41.8666 5.08397 40.7481C5.08397 39.6296 4.16885 38.8162 3.15206 38.8162ZM3.15206 43.9001C1.42351 43.9001 0 42.4766 0 40.7481C0 39.0195 1.42351 37.596 3.15206 37.596C4.88061 37.596 6.30412 39.0195 6.30412 40.7481C6.30412 42.4766 4.88061 43.9001 3.15206 43.9001Z" fill="#132C12"/>
<path d="M10.1679 47.0522H45.7557V19.0904H10.1679V47.0522ZM46.3657 48.374H9.55783C9.25279 48.374 8.94775 48.069 8.94775 47.7639V18.4803C8.94775 18.1753 9.25279 17.8702 9.55783 17.8702H46.4674C46.7725 17.8702 47.0775 18.1753 47.0775 18.4803V47.7639C46.9758 48.069 46.7725 48.374 46.3657 48.374Z" fill="#132C12"/>
</svg>
