<svg width="60" height="56" viewBox="0 0 60 56" fill="none" xmlns="http://www.w3.org/2000/svg">
<path d="M29.6637 7.79616C29.7735 7.79616 29.9931 7.79616 30.1029 7.90597L54.3696 26.2432C54.8088 26.5726 55.248 26.6824 55.797 26.6824C56.4558 26.6824 57.0049 26.4628 57.4441 26.0236C57.8833 25.5844 58.2127 24.8157 58.1029 24.1569C58.1029 23.4981 57.6637 22.8393 57.2245 22.4001L52.9421 19.106C52.7225 18.9961 52.7225 18.7765 52.7225 18.5569V8.45498C52.7225 6.91773 51.5147 5.60009 49.9774 5.60009C48.4402 5.60009 47.2323 6.80793 47.2323 8.34518V13.2864C47.2323 13.506 47.1225 13.8354 46.9029 13.9452C46.6833 14.055 46.3539 14.055 46.1343 13.8354L29.7735 1.64715L2.32258 22.0707C1.77356 22.5099 1.44415 23.0589 1.33434 23.8275C1.33434 24.4863 1.55395 25.1452 1.99317 25.6942C2.43238 26.1334 2.9814 26.353 3.64022 26.353C4.18924 26.353 4.62846 26.2432 5.06767 25.9138L29.2245 8.01577C29.4441 7.79616 29.5539 7.79616 29.6637 7.79616ZM55.797 28.1099C55.0284 28.1099 54.15 27.8903 53.4911 27.3412L29.6637 9.33342L5.9461 27.0118C5.28728 27.451 4.51865 27.7805 3.75003 27.7805C2.76179 27.7805 1.77356 27.3412 1.11473 26.6824C0.346108 25.9138 -0.0931067 24.8157 0.016697 23.7177C0.126501 22.6197 0.67552 21.6314 1.55395 20.9726L29.3343 0.329504C29.5539 0.109898 29.8833 0.109898 30.2127 0.329504L45.8049 12.0785V8.45498C45.8049 6.25891 47.5617 4.39224 49.8676 4.39224C49.8676 4.39224 49.8676 4.39224 49.9774 4.39224C52.2833 4.39224 54.15 6.25891 54.15 8.56479V18.3373L58.2127 21.4118C59.0911 22.0707 59.6402 23.0589 59.6402 24.1569C59.75 25.255 59.3107 26.2432 58.5421 27.0118C57.7735 27.7805 56.7853 28.1099 55.797 28.1099Z" fill="#132C12"/>
<path d="M22.7458 49.6316C22.4164 49.6316 22.087 49.3022 22.087 48.9728C22.087 48.863 22.087 48.863 22.087 48.7532L23.8438 42.8238C23.8438 42.714 23.9537 42.6041 24.0635 42.4943L25.1615 41.5061L22.636 40.6277C22.5262 40.6277 22.4164 40.5179 22.3066 40.4081L20.5497 38.4316L17.2556 37.3336C16.9262 37.2238 16.8164 37.0042 16.8164 36.6747V33.71C16.8164 33.4904 16.9262 33.3806 17.036 33.2708L21.2086 28.8787C21.3184 28.7689 21.4282 28.6591 21.6478 28.6591L22.9654 28.5493V27.3414C22.9654 27.1218 23.0752 27.012 23.185 26.9022L23.8438 26.1336L23.734 24.7061C23.734 24.3767 23.9537 24.1571 24.1733 24.0473L25.9301 23.4983C26.2595 23.3885 26.5889 23.4983 26.8085 23.8277L27.138 24.5963L29.9929 22.4003L29.334 19.9846C29.2242 19.6552 29.4438 19.2159 29.8831 19.1061C30.2125 18.9963 30.6517 19.2159 30.7615 19.6552L31.5301 22.5101C31.6399 22.7297 31.5301 23.0591 31.3105 23.1689L27.138 26.3532C27.0282 26.463 26.8085 26.5728 26.5889 26.463C26.3693 26.463 26.2595 26.2434 26.1497 26.1336L25.7105 25.0355L25.0517 25.2552L25.1615 26.3532C25.1615 26.5728 25.0517 26.6826 24.9419 26.9022L24.2831 27.6708V29.2081C24.2831 29.5375 24.0635 29.8669 23.6242 29.8669L21.9772 30.0865L18.1341 34.0395V36.2355L21.0988 37.2238C21.2086 37.2238 21.3184 37.3336 21.4282 37.4434L23.2948 39.5296L26.6987 40.7375C26.9184 40.8473 27.138 41.0669 27.138 41.2865C27.138 41.5061 27.138 41.7257 26.9184 41.9453L25.1615 43.5924L23.4046 49.3022C23.2948 49.412 23.0752 49.6316 22.7458 49.6316Z" fill="#132C12"/>
<path d="M38.1181 43.7021H35.4829C35.2633 43.7021 35.1534 43.5923 34.9338 43.4825C34.824 43.3727 34.7142 43.1531 34.7142 42.9335L35.1534 39.2002L31.9691 37.8825C31.8593 37.8825 31.7495 37.7727 31.6397 37.6629L28.3456 33.2708C28.126 33.0512 28.126 32.7218 28.3456 32.5022L30.5417 29.3179L29.6633 29.0982C29.4437 29.0982 29.224 28.8786 29.224 28.659C29.1142 28.4394 29.1142 28.2198 29.224 28.0002L30.6515 25.3649C30.7613 25.1453 30.9809 25.0355 31.2005 25.0355L32.9574 24.9257L33.3966 23.1688C33.3966 23.059 33.5064 22.8394 33.6162 22.8394L35.9221 21.0826C36.2515 20.863 36.6907 20.863 36.9103 21.1924C37.1299 21.5218 37.1299 21.961 36.8005 22.1806L34.7142 23.8277L34.1652 25.8041C34.0554 26.1335 33.8358 26.3531 33.5064 26.3531L31.6397 26.463L30.8711 27.8904L31.8593 28.11C32.0789 28.11 32.2985 28.3296 32.4084 28.5492C32.5182 28.7688 32.5182 28.9884 32.2985 29.208L29.7731 32.8316L32.628 36.6747L36.0319 38.1022C36.3613 38.212 36.4711 38.5414 36.4711 38.761L36.1417 42.2747H37.5691C37.6789 42.0551 37.7887 41.8355 37.8985 41.7257L40.3142 37.5531C40.424 37.4433 40.424 37.3335 40.5338 37.3335L44.377 35.1375C44.5966 35.0276 45.0358 35.0276 45.2554 35.2473C45.475 35.5767 45.475 35.9061 45.2554 36.2355L45.1456 36.3453L41.5221 38.4316L39.2162 42.4943C39.1064 42.7139 38.9966 42.9335 38.8868 43.2629L38.777 43.3727C38.6672 43.4825 38.4476 43.7021 38.1181 43.7021Z" fill="#132C12"/>
<path d="M37.0204 33.8197L38.4478 34.808L39.7654 33.4903L38.6674 31.8433C38.6674 31.8433 38.6674 31.7335 38.5576 31.7335L37.6792 29.4276L36.3615 31.5138L37.0204 33.8197ZM38.5576 36.3452C38.4478 36.3452 38.338 36.3452 38.2282 36.2354L36.0321 34.808C35.9223 34.6982 35.8125 34.5884 35.7027 34.3687L34.9341 31.5138C34.9341 31.2942 34.9341 31.1844 35.0439 30.9648L37.24 27.3413C37.3498 27.1217 37.5694 27.0119 37.8988 27.0119C38.1184 27.0119 38.338 27.2315 38.4478 27.4511L39.8753 30.9648L41.3027 33.0511C41.5223 33.2707 41.4125 33.7099 41.1929 33.9295L38.9968 36.1256C38.887 36.2354 38.6674 36.3452 38.5576 36.3452Z" fill="#132C12"/>
<path d="M29.5536 20.6433C21.5379 20.6433 14.9497 27.2315 14.9497 35.2472C14.9497 40.8471 18.0242 45.8981 23.0751 48.4236C25.0516 49.4118 27.2477 49.9609 29.5536 49.9609C37.4594 49.9609 43.9379 43.702 44.1575 35.7962C44.1575 35.6864 44.1575 35.4668 44.1575 35.357C44.1575 29.8668 41.1928 24.9256 36.2516 22.4001C34.2751 21.4119 32.1889 20.8629 29.883 20.7531C29.7732 20.6433 29.6634 20.6433 29.5536 20.6433ZM29.5536 51.1687C27.0281 51.1687 24.7222 50.6197 22.5261 49.5216C19.8908 48.204 17.6948 46.2275 16.0477 43.702C14.4006 41.1766 13.5222 38.2119 13.5222 35.1374C13.5222 26.353 20.6595 19.106 29.5536 19.106C29.6634 19.106 29.883 19.106 29.9928 19.106C32.4085 19.2158 34.8242 19.7648 36.9104 20.8629C42.181 23.8276 45.4751 29.2079 45.4751 35.2472C45.4751 35.357 45.4751 35.5766 45.4751 35.6864C45.3653 39.8589 43.6085 43.702 40.6438 46.6667C37.6791 49.6314 33.7261 51.1687 29.5536 51.1687Z" fill="#132C12"/>
<path d="M29.5533 55.3413C18.4631 55.3413 9.45923 46.3374 9.45923 35.2472C9.45923 34.9178 9.78864 34.5884 10.1181 34.5884C10.4475 34.5884 10.7769 34.9178 10.7769 35.2472C10.7769 45.5688 19.2318 54.0237 29.5533 54.0237C39.8749 54.0237 48.3298 45.5688 48.3298 35.2472C48.3298 34.9178 48.6592 34.5884 48.9886 34.5884C49.318 34.5884 49.6474 34.9178 49.6474 35.2472C49.6474 46.3374 40.6435 55.3413 29.5533 55.3413Z" fill="#132C12"/>
<path d="M54.0397 48.0943C52.9416 48.0943 51.9534 48.9727 51.9534 50.1806C51.9534 51.2786 52.8318 52.2668 54.0397 52.2668C55.1377 52.2668 56.1259 51.3884 56.1259 50.1806C56.0161 48.9727 55.1377 48.0943 54.0397 48.0943ZM54.0397 53.5845C52.173 53.5845 50.6357 52.0472 50.6357 50.1806C50.6357 48.3139 52.173 46.7766 54.0397 46.7766C55.9063 46.7766 57.4436 48.3139 57.4436 50.1806C57.4436 51.9374 55.9063 53.5845 54.0397 53.5845Z" fill="#132C12"/>
</svg>
