<svg width="40" height="34" viewBox="0 0 40 34" fill="none" xmlns="http://www.w3.org/2000/svg">
<path d="M38.2091 21.4921C38.2091 22.1553 37.6781 22.752 36.9491 22.752C36.2188 22.752 35.6879 22.2224 35.6879 21.4921V11.6743C35.6879 11.0118 36.2188 10.4144 36.9491 10.4144C37.6781 10.4144 38.2091 10.9453 38.2091 11.6743V21.4921ZM34.0963 24.875C34.0963 26.268 32.9686 27.3963 31.5758 27.3963C30.1822 27.3963 29.0546 26.268 29.0546 24.875C29.0546 23.1508 29.0546 10.0163 29.0546 8.29184C29.0546 6.89899 30.1822 5.77129 31.5758 5.77129C32.9686 5.77129 34.0963 6.89899 34.0963 8.29184C34.0963 10.2157 34.0963 23.2166 34.0963 24.875ZM12.5377 19.8998V13.2665H27.463V19.8998H12.5377ZM10.879 24.875C10.879 26.268 9.75196 27.3963 8.35845 27.3963C6.96559 27.3963 5.83721 26.268 5.83721 24.875C5.83721 23.2829 5.83721 10.2814 5.83721 8.29184C5.83721 6.89899 6.96559 5.77129 8.35845 5.77129C9.75196 5.77129 10.879 6.89899 10.879 8.29184C10.879 10.0163 10.879 23.1508 10.879 24.875ZM2.98507 22.6862C2.32253 22.6862 1.7251 22.1553 1.7251 21.4263V11.6743C1.7251 11.0118 2.25542 10.4144 2.98507 10.4144C3.71538 10.4144 4.24566 10.9453 4.24566 11.6743V21.4921C4.24566 22.1553 3.64827 22.6862 2.98507 22.6862ZM36.9491 8.75635C36.484 8.75635 36.0866 8.8886 35.6879 9.0215V8.2254C35.6879 5.96999 33.8305 4.04617 31.5093 4.04617C29.1881 4.04617 27.3301 5.90353 27.3301 8.2254V11.5421H12.5377V8.2254C12.5377 5.96999 10.6803 4.04617 8.35845 4.04617C6.03658 4.04617 4.17922 5.90353 4.17922 8.2254V9.0215C3.78117 8.82215 3.38378 8.75635 2.91928 8.75635C1.32707 8.75635 0 10.0821 0 11.6743V21.4921C0 23.0843 1.32707 24.4114 2.91928 24.4114C3.38378 24.4114 3.78117 24.2786 4.17922 24.1454V24.9416C4.17922 27.1971 6.03658 29.1208 8.35845 29.1208C10.6803 29.1208 12.5377 27.2634 12.5377 24.9416V21.6243H27.463V24.9416C27.463 27.1971 29.3203 29.1208 31.6422 29.1208C33.9634 29.1208 35.8214 27.2634 35.8214 24.9416V24.1454C36.2188 24.3441 36.6175 24.4114 37.0814 24.4114C38.6736 24.4114 40 23.0843 40 21.4921V11.6743C39.8671 10.0821 38.5407 8.75635 36.9491 8.75635Z" fill="#132C12"/>
<path d="M19.9671 14.9254H14.9918C14.5273 14.9254 14.1299 15.3235 14.1299 15.7873C14.1299 16.2519 14.5273 16.6499 14.9918 16.6499H19.9671C20.4316 16.6499 20.8297 16.2519 20.8297 15.7873C20.8297 15.257 20.4316 14.9254 19.9671 14.9254Z" fill="#132C12"/>
<path d="M23.284 14.9254H22.4215C21.957 14.9254 21.5596 15.3235 21.5596 15.7873C21.5596 16.2519 21.957 16.6499 22.4215 16.6499H23.284C23.7485 16.6499 24.1466 16.2519 24.1466 15.7873C24.1466 15.257 23.7485 14.9254 23.284 14.9254Z" fill="#132C12"/>
<path d="M32.4381 16.5831C31.9742 16.5831 31.5762 16.9812 31.5762 17.4457V20.7624C31.5762 21.2269 31.9742 21.6243 32.4381 21.6243C32.9026 21.6243 33.3006 21.2269 33.3006 20.7624V17.4457C33.2342 16.9147 32.8368 16.5831 32.4381 16.5831Z" fill="#132C12"/>
<path d="M32.4381 22.3546C31.9742 22.3546 31.5762 22.752 31.5762 23.2166V24.0792C31.5762 24.5435 31.9742 24.9417 32.4381 24.9417C32.9026 24.9417 33.3006 24.5435 33.3006 24.0792V23.2166C33.2342 22.752 32.8368 22.3546 32.4381 22.3546Z" fill="#132C12"/>
<path d="M17.9105 1.65868C18.1099 1.65868 18.3086 1.85738 18.3086 2.05608C18.3086 2.25543 18.1099 2.45478 17.9105 2.45478C17.7119 2.45478 17.5125 2.25543 17.5125 2.05608C17.5125 1.85738 17.6461 1.65868 17.9105 1.65868ZM17.9105 4.11279C19.0389 4.11279 19.9673 3.18378 19.9673 2.05608C19.9673 0.928372 19.0389 2.14577e-05 17.9105 2.14577e-05C16.7828 2.14577e-05 15.8545 0.928372 15.8545 2.05608C15.8545 3.18378 16.7828 4.11279 17.9105 4.11279Z" fill="#132C12"/>
<path d="M5.43985 32.3047C5.24049 32.3047 5.04181 32.1061 5.04181 31.9066C5.04181 31.708 5.24049 31.5085 5.43985 31.5085C5.6392 31.5085 5.83724 31.708 5.83724 31.9066C5.90435 32.1061 5.70499 32.3047 5.43985 32.3047ZM5.43985 29.8498C4.31214 29.8498 3.38379 30.7796 3.38379 31.9066C3.38379 33.0344 4.31214 33.9626 5.43985 33.9626C6.56755 33.9626 7.49658 33.0344 7.49658 31.9066C7.56237 30.7796 6.56755 29.8498 5.43985 29.8498Z" fill="#132C12"/>
<path d="M24.9415 30.6458C24.477 30.6458 24.0796 30.2485 24.0796 29.7841C24.0796 29.3194 24.477 28.9213 24.9415 28.9213C25.4066 28.9213 25.804 29.3194 25.804 29.7841C25.804 30.3143 25.4066 30.6458 24.9415 30.6458ZM24.9415 27.3291C23.5486 27.3291 22.4209 28.4569 22.4209 29.8496C22.4209 31.2439 23.5486 32.3708 24.9415 32.3708C26.335 32.3708 27.4627 31.2439 27.4627 29.8496C27.4627 28.4569 26.335 27.3291 24.9415 27.3291Z" fill="#132C12"/>
</svg>
