<svg width="40" height="42" viewBox="0 0 40 42" fill="none" xmlns="http://www.w3.org/2000/svg">
<path d="M24.9656 28.5721C23.0608 28.5721 21.5642 27.0762 21.5642 25.1707C21.5642 23.2659 23.0608 21.7694 24.9656 21.7694C26.8704 21.7694 28.3669 23.2659 28.3669 25.1707C28.3669 27.0762 26.8704 28.5721 24.9656 28.5721ZM16.4619 28.5721C14.5574 28.5721 13.0605 27.0762 13.0605 25.1707C13.0605 23.2659 14.5574 21.7694 16.4619 21.7694C18.3667 21.7694 19.8633 23.2659 19.8633 25.1707C19.8633 27.0762 18.3667 28.5721 16.4619 28.5721ZM13.0605 16.6677C13.0605 14.7629 14.5574 13.2657 16.4619 13.2657C18.3667 13.2657 19.8633 14.7629 19.8633 16.6677C19.8633 18.5718 18.3667 20.069 16.4619 20.069C14.6251 20.069 13.0605 18.5043 13.0605 16.6677ZM20.7478 22.3139C20.3396 21.7694 19.8633 21.2255 19.319 20.8848C19.8633 20.4766 20.4077 20.0002 20.7478 19.4564C21.156 20.0002 21.6324 20.5447 22.1762 20.8848C21.5642 21.293 21.0879 21.7694 20.7478 22.3139ZM24.9656 13.2657C26.8704 13.2657 28.3669 14.7629 28.3669 16.6677C28.3669 18.5718 26.8704 20.069 24.9656 20.069C23.0608 20.069 21.5642 18.5718 21.5642 16.6677C21.5642 14.7629 23.129 13.2657 24.9656 13.2657ZM27.8224 20.8848C29.1834 20.0002 30.1354 18.4362 30.1354 16.5989C30.1354 13.8095 27.8224 11.4972 25.0337 11.4972C23.2646 11.4972 21.6999 12.3811 20.7478 13.8095C19.8633 12.4499 18.2987 11.4972 16.5297 11.4972C13.7409 11.4972 11.4277 13.8095 11.4277 16.5989C11.4277 18.368 12.3123 19.9327 13.7409 20.8848C12.3803 21.7694 11.4277 23.3341 11.4277 25.1707C11.4277 27.9602 13.7409 30.2729 16.5297 30.2729C18.2987 30.2729 19.8633 29.3884 20.7478 27.9602C21.6324 29.321 23.1971 30.2729 25.0337 30.2729C27.8224 30.2729 30.1354 27.9602 30.1354 25.1707C30.068 23.3341 29.1834 21.7694 27.8224 20.8848Z" fill="#132C12"/>
<path d="M36.599 17.8914H35.1706V13.6062H36.599V17.8914ZM36.599 24.6941V27.2791H35.1706V24.6941H36.599ZM30.6127 33.1978C30.0008 33.1978 11.5647 33.1978 10.8167 33.1978C9.25192 33.1978 7.95933 31.9058 7.95933 30.3402V11.9733H11.0887C11.5647 11.9733 11.973 11.5644 11.973 11.0887C11.973 10.6123 11.5647 10.2048 11.0887 10.2048H8.23159C8.63987 9.18393 9.66014 8.50379 10.8167 8.50379C11.633 8.50379 30.0689 8.50379 30.6127 8.50379C32.1775 8.50379 33.4703 9.79591 33.4703 11.3613C33.4703 13.5373 33.4703 27.6191 33.4703 29.7965H29.7963C29.32 29.7965 28.9117 30.2047 28.9117 30.6804C28.9117 31.1567 29.32 31.5656 29.7963 31.5656H33.2658C32.7894 32.5175 31.7692 33.1978 30.6127 33.1978ZM28.3679 40.0005H13.0615V38.2994H26.395C26.8713 38.2994 27.2795 37.892 27.2795 37.4157C27.2795 36.94 26.8713 36.5309 26.395 36.5309H13.0615V34.8306H28.3679V40.0005ZM13.0615 1.76924H28.3679V3.46958H15.3066C14.83 3.46958 14.4221 3.8778 14.4221 4.35416C14.4221 4.83052 14.83 5.23806 15.3066 5.23806H28.3679V6.93908H13.0615V1.76924ZM37.4154 11.9733H35.1706V11.4288C35.1706 8.91201 33.1302 6.87093 30.6127 6.87093H30.0689V0.884663C30.0689 0.408295 29.6607 8.01086e-05 29.2525 8.01086e-05H12.2453C11.769 8.01086e-05 11.3607 0.408295 11.3607 0.884663V6.87093H10.8167C8.29933 6.87093 6.25879 8.91201 6.25879 11.4288V30.4085C6.25879 32.9258 8.29933 34.9669 10.8167 34.9669H11.3607V40.9533C11.3607 41.4296 11.769 41.8379 12.2453 41.8379H29.2525C29.7282 41.8379 30.0689 41.4296 30.0689 40.9533V34.9669H30.6127C33.1302 34.9669 35.1706 32.9258 35.1706 30.4085V28.9799H37.4154C37.8918 28.9799 38.3 28.5719 38.3 28.0954V23.8102C38.3 23.3338 37.8918 22.9256 37.4154 22.9256H35.1706V19.5243H37.4154C37.8918 19.5243 38.3 19.1161 38.3 18.6404V12.6534C38.3 12.3134 37.8918 11.9733 37.4154 11.9733Z" fill="#132C12"/>
<path d="M0.884289 9.72852C1.36052 9.72852 1.7688 9.31963 1.7688 8.84394C1.7688 4.89807 4.96591 1.76931 8.84383 1.76931C9.31979 1.76931 9.7278 1.36042 9.7278 0.884734C9.7278 0.40837 9.31979 0.000154495 8.84383 0.000154495C4.01392 0.000154495 0.067991 3.94535 0.067991 8.77579C-2.25194e-05 9.31963 0.407992 9.72852 0.884289 9.72852Z" fill="#132C12"/>
<path d="M9.6597 3.67343C9.6597 3.19774 9.25148 2.78884 8.77519 2.78884C5.44212 2.78884 2.7207 5.51074 2.7207 8.84394C2.7207 9.31963 3.12872 9.72852 3.60529 9.72852C4.08131 9.72852 4.48953 9.31963 4.48953 8.84394C4.48953 6.46279 6.46239 4.48986 8.84347 4.48986C9.31943 4.48986 9.6597 4.14979 9.6597 3.67343Z" fill="#132C12"/>
<path d="M2.58485 34.8981C2.10882 34.8981 1.70054 34.4907 1.70054 34.0144C1.70054 33.5379 2.10882 33.1296 2.58485 33.1296C3.06135 33.1296 3.46936 33.5379 3.46936 34.0144C3.40142 34.5581 3.06135 34.8981 2.58485 34.8981ZM2.58485 31.4968C1.1563 31.4968 0 32.6534 0 34.0816C0 35.5115 1.1563 36.6672 2.58485 36.6672C4.01394 36.6672 5.17017 35.5115 5.17017 34.0816C5.17017 32.6534 3.94566 31.4968 2.58485 31.4968Z" fill="#132C12"/>
<path d="M37.415 5.17073C36.9393 5.17073 36.5311 4.76184 36.5311 4.28615C36.5311 3.80978 36.9393 3.40157 37.415 3.40157C37.8914 3.40157 38.2996 3.80978 38.2996 4.28615C38.2996 4.76184 37.8914 5.17073 37.415 5.17073ZM37.415 1.76937C35.9866 1.76937 34.8301 2.92588 34.8301 4.3543C34.8301 5.78271 35.9866 6.93921 37.415 6.93921C38.8434 6.93921 39.9999 5.78271 39.9999 4.3543C39.9999 2.92588 38.8434 1.76937 37.415 1.76937Z" fill="#132C12"/>
</svg>
