<svg width="60" height="55" viewBox="0 0 60 55" fill="none" xmlns="http://www.w3.org/2000/svg">
<path d="M16.6671 9.99988C16.1115 9.99988 15.556 10.2221 15.2227 10.5554C14.7782 10.9999 14.6671 11.4443 14.6671 11.9999C14.6671 13.111 15.556 14.111 16.7782 14.111C18.0004 14.111 18.8893 13.2221 18.8893 11.9999C18.8893 10.7777 17.7782 9.99988 16.6671 9.99988ZM16.6671 15.5554C14.7782 15.5554 13.2227 13.9999 13.2227 12.111C13.2227 11.2221 13.556 10.3332 14.2227 9.66654C14.8893 8.99988 15.7782 8.66654 16.6671 8.66654C18.556 8.66654 20.1115 10.2221 20.1115 12.111C20.1115 13.9999 18.556 15.5554 16.6671 15.5554Z" fill="#132C12"/>
<path d="M8.22221 13.3333C7.99998 13.3333 7.88887 13.2221 7.77776 13.111L1.11111 6.44438C0.444444 5.77771 0 4.77771 0 3.77771C0 2.77772 0.444444 1.77772 1.11111 1.11105C1.77777 0.444387 2.77777 -5.62668e-05 3.77777 -5.62668e-05C4.77777 -5.62668e-05 5.77777 0.444387 6.44443 1.11105L15 9.66659C15.2222 9.88881 15.2222 10.3333 15 10.6666C14.7777 10.8888 14.3333 10.8888 14 10.6666L5.44443 2.11105C4.99999 1.66661 4.33332 1.44439 3.77777 1.44439C3.1111 1.44439 2.55555 1.66661 2.11111 2.11105C1.66666 2.55549 1.44444 3.22216 1.44444 3.77771C1.44444 4.44438 1.66666 4.99993 2.11111 5.44438L8.77776 12.111C8.99998 12.3333 8.99998 12.7777 8.77776 13.111C8.66665 13.2221 8.44443 13.3333 8.22221 13.3333Z" fill="#132C12"/>
<path d="M32.6664 19.6665C32.4442 19.6665 32.3331 19.5554 32.222 19.4443L23.5553 10.7776C23.3331 10.5554 23.3331 10.111 23.5553 9.77763C23.7776 9.4443 24.222 9.55541 24.5553 9.77763L33.222 18.4443C33.4442 18.6665 33.4442 19.1109 33.222 19.4443C33.1109 19.5554 32.8887 19.6665 32.6664 19.6665Z" fill="#132C12"/>
<path d="M29.2223 11.3333C29.0001 11.3333 28.889 11.2221 28.7779 11.111L23.2223 5.55549C23.0001 5.33326 23.0001 4.88882 23.2223 4.55549C23.4446 4.22215 23.889 4.33327 24.2223 4.55549L29.7779 10.111C30.0001 10.3333 30.0001 10.7777 29.7779 11.111C29.5557 11.2221 29.4445 11.3333 29.2223 11.3333Z" fill="#132C12"/>
<path d="M18.3339 53C18.2228 53 18.2228 53 18.1116 53C17.7783 52.8889 17.5561 52.5556 17.6672 52.1111L19.3339 46.6667C19.3339 46.5556 19.445 46.4445 19.5561 46.3333L20.445 45.5556L18.2228 44.7778C18.1116 44.7778 18.0005 44.6667 17.8894 44.5556L16.2228 42.6667L13.2228 41.7778C12.8894 41.6667 12.7783 41.4445 12.7783 41.1111V38.3334C12.7783 38.1111 12.8894 38 13.0005 37.8889L16.7783 33.8889C16.8894 33.7778 17.0005 33.6667 17.2228 33.6667L18.3339 33.5556V32.5556C18.3339 32.3334 18.445 32.2223 18.5561 32.1112L19.1116 31.4445L19.0005 30.2223C19.0005 29.8889 19.2228 29.6667 19.445 29.5556L21.0005 29C21.3339 28.8889 21.6672 29 21.8894 29.3334L22.2227 30L24.7783 28.1112L24.2227 25.8889C24.1116 25.5556 24.3339 25.1112 24.7783 25.0001C25.1116 24.8889 25.5561 25.1112 25.6672 25.5556L26.3339 28.2223C26.445 28.4445 26.3339 28.7778 26.1116 28.8889L22.5561 31.6667C22.445 31.7778 22.2227 31.8889 22.0005 31.7778C21.7783 31.7778 21.6672 31.5556 21.5561 31.4445L21.1116 30.5556L20.5561 30.6667L20.6672 31.6667C20.6672 31.8889 20.5561 32 20.445 32.2223L19.6672 32.7778V34.2223C19.6672 34.5556 19.445 34.8889 19.0005 34.8889L17.445 35L14.1117 38.6667V40.5556L16.7783 41.4445C16.8894 41.4445 17.0005 41.5556 17.1116 41.6667L18.7783 43.5556L21.8894 44.6667C22.1116 44.7778 22.3339 45 22.3339 45.2222C22.3339 45.4445 22.3339 45.6667 22.1116 45.8889L20.5561 47.3333L19.0005 52.5556C18.8894 52.7778 18.6672 53 18.3339 53Z" fill="#132C12"/>
<path d="M32.5556 47.5554H30.1112C29.8889 47.5554 29.7778 47.4443 29.5556 47.3332C29.4445 47.2221 29.3334 46.9999 29.3334 46.7776L29.6667 43.3332L26.7778 42.111C26.6667 42.111 26.5556 41.9999 26.4445 41.8888L23.4445 37.8888C23.2223 37.6666 23.2223 37.3332 23.4445 37.111L25.4445 34.2221L24.7778 34.111C24.5556 34.111 24.3334 33.8888 24.3334 33.6666C24.2223 33.4443 24.2223 33.2221 24.3334 32.9999L25.6667 30.5555C25.7778 30.3332 26 30.2221 26.2223 30.2221L27.7778 30.111L28.2223 28.5555C28.2223 28.4443 28.3334 28.2221 28.4445 28.2221L30.5556 26.6666C30.7778 26.4443 31.2223 26.4443 31.4445 26.6666C31.6667 26.8888 31.7778 27.3332 31.4445 27.6666C31.4445 27.6666 31.4445 27.6666 31.3334 27.7777L29.4445 29.2221L29 30.9999C28.8889 31.3332 28.6667 31.5555 28.3334 31.5555L26.6667 31.6666L26 32.8888L26.7778 33.111C27 33.111 27.2223 33.3332 27.3334 33.5554C27.4445 33.7777 27.4445 33.9999 27.2223 34.2221L24.8889 37.5554L27.5556 40.9999L30.7778 42.2221C31.1112 42.3332 31.2223 42.6665 31.2223 42.8888L30.8889 45.9999H32.1111C32.2223 45.8888 32.2223 45.6665 32.3334 45.4443L34.5556 41.5554C34.6667 41.4443 34.6667 41.3332 34.7778 41.3332L38.3334 39.3332C38.4445 39.2221 38.5556 39.2221 38.6667 39.2221C39 39.2221 39.3334 39.5554 39.3334 39.8888C39.3334 40.111 39.2222 40.4443 39 40.5554L35.6667 42.4443L33.5556 46.111C33.4445 46.3332 33.3334 46.5554 33.2223 46.7776V46.8888C33 47.3332 32.7778 47.5554 32.5556 47.5554Z" fill="#132C12"/>
<path d="M31.4445 38.3331L32.6668 39.222L33.889 37.9998L32.889 36.5554C32.889 36.5554 32.889 36.4443 32.7779 36.4443L32.1112 34.4443L31.0001 36.3332L31.4445 38.3331ZM32.889 40.7776C32.7779 40.7776 32.6668 40.7776 32.5557 40.6665L30.5557 39.3331C30.4446 39.222 30.3334 39.1109 30.2223 38.8887L29.5557 36.222C29.5557 35.9998 29.5557 35.8887 29.6668 35.6665L31.6668 32.3332C31.7779 32.1109 32.0001 31.9998 32.3334 31.9998C32.5557 31.9998 32.7779 32.222 32.889 32.4443L34.2223 35.6665L35.4445 37.5554C35.6668 37.7776 35.5557 38.222 35.3334 38.4443L33.3334 40.4443C33.2223 40.6665 33.0001 40.7776 32.889 40.7776Z" fill="#132C12"/>
<path d="M37.7778 54.7776C36.4445 54.7776 35.3334 54.222 34.3334 53.3331L32.4445 51.4443C32.2223 51.222 32.2223 50.7776 32.4445 50.4443C32.6667 50.222 33.1112 50.222 33.4445 50.4443L35.3334 52.3331C36 52.9998 36.8889 53.3331 37.7778 53.3331C38.6667 53.3331 39.5556 52.9998 40.2223 52.3331L57 35.5554C58.3333 34.2221 58.3333 31.9999 57 30.6665L27.6667 1.55547H14.4445L6.00011 9.9999V23.2221L13.6668 30.8887C13.889 31.111 13.889 31.5554 13.6668 31.8887C13.4445 32.111 13.0001 32.111 12.6668 31.8887L4.77789 23.9999C4.66677 23.8888 4.55566 23.6665 4.55566 23.5554V9.66656C4.55566 9.44434 4.66677 9.33323 4.77789 9.22212L13.6668 0.333248C13.7779 0.222137 14.0001 0.111027 14.1112 0.111027H27.889C28.1112 0.111027 28.2223 0.222137 28.3334 0.333248L57.7778 29.7776C59.6667 31.6665 59.6667 34.6665 57.7778 36.5554L41.1112 53.3331C40.2223 54.3331 39 54.7776 37.7778 54.7776Z" fill="#132C12"/>
<path d="M24.5561 26.2219C20.3339 26.2219 16.3339 28.2219 13.7783 31.6664C12.1117 33.9997 11.1117 36.7775 11.1117 39.6663C11.1117 44.7774 14.0006 49.4441 18.5561 51.6663C20.445 52.5552 22.445 52.9997 24.445 52.9997C27.3339 52.9997 30.1116 52.1108 32.445 50.333C35.7783 47.8885 37.7783 44.1108 37.8894 39.9997C37.8894 39.8886 37.8894 39.7775 37.8894 39.5552C37.8894 34.5552 35.1116 29.9997 30.6672 27.6664C28.8894 26.6664 26.8894 26.2219 24.8894 26.1108C24.7783 26.2219 24.6672 26.2219 24.5561 26.2219ZM24.5561 54.4441C22.2228 54.4441 20.1117 53.8885 18.0006 52.8885C15.5561 51.6663 13.445 49.7774 12.0006 47.5552C10.445 45.2219 9.66724 42.4441 9.66724 39.6663C9.66724 36.4441 10.6672 33.4441 12.5561 30.8886C15.3339 27.1108 19.7783 24.8886 24.445 24.8886C24.5561 24.8886 24.7783 24.8886 24.8894 24.8886C27.1116 24.9997 29.3339 25.5553 31.3339 26.5553C36.2227 29.1108 39.3338 34.1108 39.3338 39.6663C39.3338 39.7775 39.3338 39.9997 39.3338 40.1108C39.2227 44.6663 37.0005 48.8885 33.3339 51.5552C30.7783 53.4441 27.7783 54.4441 24.5561 54.4441Z" fill="#132C12"/>
</svg>
