<svg width="40" height="40" viewBox="0 0 40 40" fill="none" xmlns="http://www.w3.org/2000/svg">
<path d="M35.6475 16.4693L15.6635 17.9596C10.3789 17.0787 10.6503 17.1466 10.5825 17.1466C9.70228 17.0787 8.95644 16.6722 8.41488 16.0628L37.2056 15.9271C36.7313 16.1979 36.1897 16.3336 35.6475 16.4693ZM12.4793 6.24013C14.7154 6.44305 18.847 4.07187 20.8116 2.92022L21.964 3.73323L20.2694 6.51092C19.9986 6.91742 20.1344 7.45898 20.5402 7.66257C20.9474 7.93335 21.4896 7.79763 21.6925 7.39179L23.3864 4.68197L24.2666 5.2914C18.6441 14.7076 18.9827 14.166 18.9155 14.3696H17.4924L19.66 10.8461C19.9308 10.4402 19.7957 9.89802 19.3892 9.69511C18.9827 9.42365 18.4405 9.55937 18.2375 9.96588C15.5284 14.3696 15.5956 14.166 15.5284 14.3696H7.73758C7.73758 14.166 7.73758 13.8946 7.73758 13.6916L7.9405 11.1847H10.4468C10.9211 11.1847 11.3283 10.7789 11.3283 10.3045C11.3283 9.83083 10.9211 9.42365 10.4468 9.42365H8.07623L8.14342 8.54345H10.4468C10.9211 8.54345 11.3283 8.13627 11.3283 7.66257C11.3283 7.1882 10.9211 6.78236 10.4468 6.78236H8.27915L8.48207 4.00468C9.43081 5.35926 10.8533 6.10441 12.4793 6.24013ZM32.9383 11.1847C34.2922 12.0656 35.851 12.54 37.4092 12.6757C37.8829 13.0822 38.2215 13.6238 38.2894 14.2332L20.8116 14.3011L25.6219 6.24013L26.9764 7.1882L25.7569 9.01781C25.3504 9.55937 25.8248 10.3045 26.4342 10.3045C26.705 10.3045 26.9764 10.1695 27.1122 9.89802L28.331 8.00121L32.9383 11.1847ZM38.2216 11.1175C38.0865 11.0497 37.9508 10.9825 37.815 10.9825C36.4605 10.9139 35.1052 10.5074 33.8864 9.7623L21.3532 1.227C21.0824 1.02341 20.6766 1.02341 20.4052 1.227C18.847 2.24293 14.444 4.74916 12.615 4.6141C10.5153 4.47838 8.88925 2.85303 8.75352 0.75263C8.68566 0.346123 8.41489 0.00748253 8.00838 0.00748253H7.9405C7.46613 -0.0603809 7.05964 0.346123 7.05964 0.75263L6.0437 13.5566C5.84078 16.2657 7.8048 18.6369 10.5153 18.8405C15.7307 19.6528 15.5956 19.6528 15.7992 19.6528L35.9182 18.1625C36.054 18.1625 36.054 18.1625 36.3254 18.0947C37.4771 17.7567 39.8476 17.0787 39.9833 14.8433C40.1184 13.353 39.4411 11.9306 38.2216 11.1175Z" fill="#132C12"/>
<path d="M29.7533 36.1823L9.70212 37.6725C4.41754 36.7925 4.68898 36.8597 4.62112 36.8597C3.74091 36.7925 2.99511 36.3852 2.45355 35.7757L31.2443 35.6408C30.7699 35.9109 30.2277 36.0466 29.7533 36.1823ZM6.5858 25.9532C8.82125 26.1567 13.0214 23.7849 14.9175 22.6332L16.0691 23.4462L14.3759 26.2238C14.0373 26.7661 14.4438 27.5112 15.1211 27.5112C15.3919 27.5112 15.6633 27.3755 15.8663 27.1049L17.5601 24.3943L18.4403 25.0051C12.8178 34.4206 13.1564 33.8789 13.0892 34.0818H11.6661L13.8337 30.5589C14.1045 30.1532 13.9694 29.6109 13.5629 29.4075C13.1564 29.1366 12.6148 29.2724 12.4113 29.6789C9.70211 34.0818 9.76931 33.8789 9.70212 34.0818H1.91129C1.91129 33.8789 1.91129 33.6075 1.91129 33.4054L2.1149 30.8983H4.62112C5.09481 30.8983 5.50202 30.492 5.50202 30.0175C5.50202 29.5438 5.09481 29.1366 4.62112 29.1366H2.04636L2.1149 28.2564H4.41754C4.89191 28.2564 5.29841 27.8501 5.29841 27.3755C5.29841 26.9013 4.89191 26.4947 4.41754 26.4947H2.24994L2.45355 23.7177C3.46948 25.0723 4.89191 25.8181 6.5858 25.9532ZM26.9763 30.8983C28.3309 31.7791 29.8897 32.2529 31.4472 32.3886C31.9216 32.7944 32.2602 33.3366 32.3274 33.9469L14.9175 34.0149L19.7277 25.9532L21.0823 26.9013L19.7956 28.7981C19.3891 29.3403 19.8634 30.0855 20.4728 30.0855C20.7436 30.0855 21.0151 29.9498 21.1508 29.6789L22.3696 27.7821C27.3149 31.1012 26.9763 30.8983 26.9763 30.8983ZM32.2602 30.8306C32.1251 30.7626 31.9894 30.6947 31.8537 30.6947C30.4991 30.6278 29.1439 30.2204 27.925 29.476L15.3919 20.94C15.1211 20.7364 14.7152 20.7364 14.4438 20.94C12.8856 21.9566 8.48192 24.4628 6.65365 24.3271C4.55325 24.192 2.9279 22.566 2.7915 20.4656C2.72431 20.0591 2.45354 19.7205 2.04636 19.7205H1.97848C1.50411 19.6526 1.09831 20.0591 1.09831 20.4656L0.0144878 33.2689C-0.189101 35.9794 1.77557 38.35 4.48539 38.5534C9.83716 39.4337 9.56572 39.3665 9.76931 39.3665L30.0247 37.8755C30.1605 37.8755 30.1605 37.8755 30.4312 37.8077C31.5829 37.4689 33.9534 36.7925 34.0898 34.5563C34.157 33.0661 33.4797 31.6435 32.2602 30.8306Z" fill="#132C12"/>
</svg>
