<svg width="54" height="56" viewBox="0 0 54 56" fill="none" xmlns="http://www.w3.org/2000/svg">
<path d="M21.8427 32.7146C21.9389 32.7146 21.9389 32.7146 22.0351 32.7146C22.2276 32.8109 22.42 32.9071 22.42 33.0995C22.9011 34.5428 24.3444 35.505 25.884 35.505C27.4235 35.505 28.7706 34.5428 29.3479 33.0995C29.4441 32.9071 29.5404 32.8109 29.7328 32.7146C29.9252 32.6184 30.1177 32.7146 30.3101 32.8109C30.9837 33.3882 31.8497 33.6768 32.7157 33.6768C33.3892 33.6768 33.9665 33.4844 34.5439 33.1957C35.891 32.426 36.5645 30.8865 36.2758 29.3469C36.2758 29.1545 36.2758 28.9621 36.4683 28.7696C36.5645 28.6734 36.8532 28.5772 37.0456 28.5772C37.2381 28.5772 37.5267 28.6734 37.7192 28.6734C39.0663 28.6734 40.2209 27.9999 40.8945 26.8452C41.6642 25.4982 41.4718 23.8624 40.5096 22.6116C40.2209 22.6116 40.1247 22.4191 40.2209 22.2267C40.3171 22.0343 40.4133 21.8418 40.6058 21.8418C42.0491 21.3607 43.0113 19.9174 43.0113 18.3779C43.0113 16.8384 42.0491 15.4913 40.6058 14.914C40.4133 14.8178 40.3171 14.7216 40.2209 14.5291C40.1247 14.3367 40.2209 14.1442 40.3171 13.9518C41.2793 12.7972 41.4718 11.0652 40.702 9.71814C40.0285 8.56351 38.8738 7.88997 37.5267 7.88997C37.3343 7.88997 37.0456 7.88997 36.8532 7.98619C36.6607 7.98619 36.4683 7.98619 36.2758 7.79375C36.1796 7.69753 36.0834 7.40887 36.0834 7.21643C36.3721 5.67692 35.6985 4.1374 34.3514 3.36765C33.7741 3.07899 33.1968 2.88655 32.5232 2.88655C31.6572 2.88655 30.7912 3.17521 30.1177 3.75253C29.9252 3.84874 29.7328 3.94496 29.5404 3.84874C29.3479 3.75252 29.1555 3.6563 29.1555 3.46386C28.6744 2.02057 27.2311 1.05837 25.6915 1.05837C24.152 1.05837 22.8049 2.02057 22.2276 3.46386C22.1313 3.6563 22.0351 3.75252 21.8427 3.84874C21.6502 3.94496 21.4578 3.84874 21.2654 3.75253C20.7842 3.27143 19.9183 2.98277 19.0523 2.98277C18.3787 2.98277 17.8014 3.1752 17.2241 3.46386C15.877 4.23362 15.2034 5.77314 15.4921 7.31265C15.4921 7.50509 15.4921 7.69753 15.2996 7.88997C15.2034 7.98619 14.9148 8.08241 14.7223 8.08241C14.5299 8.08241 14.2412 7.98619 14.0488 7.98619C12.7017 7.98619 11.547 8.65973 10.8735 9.81436C10.1037 11.1614 10.2961 12.7972 11.2584 14.048C11.3546 14.2405 11.4508 14.4329 11.3546 14.6253C11.2584 14.8178 11.1621 15.0102 10.9697 15.0102C9.52638 15.4913 8.56417 16.9346 8.56417 18.4741C8.56417 20.0136 9.52638 21.3607 10.9697 21.938C11.1621 22.0343 11.2584 22.1305 11.3546 22.3229C11.4508 22.5154 11.3546 22.7078 11.2584 22.9002C10.2961 24.0549 10.1037 25.7868 10.8735 27.1339C11.547 28.2885 12.7017 28.9621 14.0488 28.9621C14.2412 28.9621 14.5299 28.9621 14.7223 28.8658C14.9148 28.8658 15.1072 28.8658 15.2996 29.0583C15.3959 29.1545 15.4921 29.4432 15.4921 29.6356C15.2034 31.1751 15.877 32.7146 17.2241 33.4844C17.8014 33.7731 18.3787 33.9655 19.0523 33.9655C19.9183 33.9655 20.7842 33.6768 21.4578 33.0995C21.554 32.8109 21.7465 32.7146 21.8427 32.7146ZM25.884 36.7559C24.0558 36.7559 22.5162 35.7937 21.6502 34.2541C20.8805 34.7352 20.0145 34.9277 19.0523 34.9277C18.1863 34.9277 17.3203 34.7352 16.6467 34.2541C15.1072 33.3882 14.145 31.6562 14.2412 29.9243C12.5092 29.9243 10.7773 29.0583 9.91126 27.5188C9.04527 25.9793 9.04527 24.0549 10.0075 22.6116C8.46795 21.7456 7.50574 20.2061 7.50574 18.3779C7.50574 16.5497 8.46795 15.0102 10.0075 14.1442C9.1415 12.6047 9.04527 10.7766 9.91126 9.23704C10.7773 7.69753 12.413 6.73533 14.2412 6.83155C14.2412 5.0996 15.1072 3.46386 16.6467 2.50167C17.4165 2.11679 18.1863 1.82813 19.0523 1.82813C19.9183 1.82813 20.7842 2.11679 21.554 2.50167C22.42 0.962153 24.0558 -4.19617e-05 25.7877 -4.19617e-05C27.6159 -4.19617e-05 29.1555 0.962153 30.0215 2.50167C30.7912 2.02057 31.6572 1.82813 32.5232 1.82813C33.3892 1.82813 34.2552 2.02057 34.9287 2.50167C36.4683 3.36764 37.4305 5.0996 37.3343 6.83155C39.0663 6.83155 40.7982 7.69753 41.6642 9.23704C42.5302 10.7766 42.5302 12.701 41.568 14.1442C43.1075 15.0102 44.0697 16.646 44.0697 18.3779C44.0697 20.2061 43.1075 21.7456 41.568 22.6116C42.434 24.1511 42.5302 25.9793 41.6642 27.5188C40.7982 29.0583 39.1625 29.9243 37.4305 29.9243H37.3343C37.3343 31.6562 36.4683 33.292 34.9287 34.2541C34.159 34.639 33.3892 34.9277 32.5232 34.9277C31.6572 34.9277 30.7912 34.639 30.0215 34.2541C29.2517 35.7937 27.6159 36.7559 25.884 36.7559Z" fill="#132C12"/>
<path d="M20.9776 28.77C20.8814 28.77 20.8814 28.77 20.7851 28.77C20.4965 28.6738 20.304 28.3851 20.4003 28.0003L21.6511 23.7666C21.6511 23.6704 21.7474 23.5742 21.8436 23.4779L22.4209 22.9006L20.7851 22.3233C20.6889 22.3233 20.5927 22.2271 20.4965 22.1309L19.1494 20.6876L16.8401 19.9178C16.5514 19.8216 16.4552 19.6292 16.4552 19.3405V17.2237C16.4552 17.0312 16.5514 16.935 16.6476 16.8388L19.6305 13.6635C19.7267 13.5673 19.8229 13.4711 20.0154 13.4711L20.8814 13.3749V12.6051C20.8814 12.4127 20.9776 12.3165 21.0738 12.2202L21.5549 11.7391L21.4587 10.7769C21.4587 10.4883 21.6511 10.2958 21.8436 10.1996L23.0945 9.81475C23.3831 9.71853 23.6718 9.81475 23.8642 10.1034L24.0567 10.5845L25.9811 9.14121L25.5962 7.40926C25.5 7.1206 25.6924 6.73572 26.0773 6.6395C26.366 6.54328 26.7509 6.73572 26.8471 7.1206L27.3282 9.23743C27.4244 9.42987 27.3282 9.71853 27.1357 9.81475L24.3453 11.9316C24.2491 12.0278 24.0567 12.124 23.8642 12.0278C23.6718 12.0278 23.5756 11.8354 23.4793 11.7391L23.1907 11.0656L22.902 11.1618V11.9316C22.902 12.124 22.8058 12.2202 22.7096 12.4127L22.2285 12.8938V13.9522C22.2285 14.2409 22.036 14.5295 21.6511 14.5295L20.4965 14.6257L17.8023 17.4161V18.8594L19.8229 19.5329C19.9192 19.5329 20.0154 19.6292 20.1116 19.7254L21.4587 21.1687L23.8642 22.0346C24.0567 22.1309 24.2491 22.3233 24.2491 22.5157C24.2491 22.7082 24.2491 22.9006 24.0567 23.0931L22.8058 24.2477L21.5549 28.2889C21.4587 28.5776 21.2663 28.77 20.9776 28.77Z" fill="#132C12"/>
<path d="M32.0414 24.5359H30.117C29.9245 24.5359 29.8283 24.4397 29.6359 24.3434C29.5396 24.2472 29.4434 24.0548 29.4434 23.8624L29.7321 21.2644L27.7114 20.3022C27.6152 20.3022 27.519 20.206 27.4228 20.1098L25.0173 17.0308C24.8248 16.8383 24.8248 16.5497 25.0173 16.3572L26.5568 14.2404L26.0757 14.1442C25.8832 14.1442 25.6908 13.9517 25.6908 13.7593C25.5946 13.5668 25.5946 13.3744 25.6908 13.182L26.7492 11.2576C26.8455 11.0651 27.0379 10.9689 27.2303 10.9689L28.385 10.8727L28.6737 9.71806C28.6737 9.62185 28.7699 9.42941 28.8661 9.42941L30.5019 8.17855C30.7905 7.98611 31.1754 7.98611 31.3678 8.27477C31.5603 8.56343 31.5603 8.94831 31.2716 9.14075L29.7321 10.2954L29.3472 11.7387C29.251 12.0273 29.0585 12.2198 28.7699 12.2198L27.4228 12.316L26.9417 13.182L27.519 13.2782C27.7114 13.2782 27.9039 13.4706 28.0001 13.6631C28.0963 13.8555 28.0963 14.0479 27.9039 14.2404L26.1719 16.7421L28.1926 19.4362L30.5981 20.4947C30.8867 20.5909 30.983 20.8795 30.983 21.072L30.6943 23.4775H31.5603C31.6565 23.3813 31.6565 23.285 31.7527 23.0926L33.4847 20.1098C33.5809 20.0136 33.5809 19.9173 33.6772 19.9173L36.4676 18.3778C36.7562 18.1854 37.1411 18.2816 37.3336 18.5703C37.526 18.8589 37.4298 19.2438 37.1411 19.4362L34.5431 20.9758L32.9074 23.8624C32.8112 24.0548 32.7149 24.2472 32.6187 24.4397V24.5359C32.5225 24.3434 32.3301 24.5359 32.0414 24.5359Z" fill="#132C12"/>
<path d="M31.2729 17.2235L32.2351 17.8008L33.1011 16.9349L32.3314 15.7802C32.3314 15.7802 32.3314 15.684 32.2351 15.684L31.6578 14.2407L30.8881 15.5878L31.2729 17.2235ZM32.3314 19.2441C32.2351 19.2441 32.1389 19.2441 32.0427 19.1479L30.5032 18.0895C30.4069 17.9933 30.3107 17.8971 30.2145 17.7046L29.7334 15.684C29.7334 15.4916 29.7334 15.3954 29.8296 15.2029L31.3692 12.605C31.4654 12.4125 31.6578 12.3163 31.9465 12.3163C32.1389 12.3163 32.3314 12.5088 32.4276 12.7012L33.3898 15.2029L34.352 16.6462C34.5445 16.8386 34.4482 17.2235 34.2558 17.416L32.7163 18.9555C32.62 19.1479 32.5238 19.2441 32.3314 19.2441Z" fill="#132C12"/>
<path d="M25.8832 7.89026C20.1099 7.89026 15.4913 12.605 15.4913 18.282C15.4913 22.3232 17.7044 25.8833 21.2646 27.6153C22.7079 28.2888 24.2474 28.6737 25.8832 28.6737C31.5602 28.6737 36.0826 24.2476 36.2751 18.5706C36.2751 18.4744 36.2751 18.3782 36.2751 18.282C36.2751 14.4332 34.1582 10.8731 30.6943 9.0449C29.2509 8.27514 27.8076 7.89026 26.1719 7.89026C26.0756 7.89026 25.9794 7.89026 25.8832 7.89026ZM25.8832 29.9246C24.055 29.9246 22.323 29.5397 20.7835 28.7699C16.7422 26.8455 14.3367 22.8043 14.3367 18.3782C14.3367 11.9315 19.5326 6.73563 25.9794 6.73563C26.0756 6.73563 26.1719 6.73563 26.3643 6.73563C28.0963 6.83185 29.8283 7.21672 31.3678 8.0827C35.2166 10.1033 37.6222 14.0483 37.6222 18.3782C37.6222 18.4744 37.6222 18.6669 37.6222 18.7631C37.526 21.7459 36.2751 24.6325 34.062 26.7493C31.7527 28.7699 28.8661 29.9246 25.8832 29.9246Z" fill="#132C12"/>
<path d="M25.8843 56C25.5957 56 25.307 55.7113 25.307 55.4227V36.1788C25.307 35.8901 25.5957 35.6014 25.8843 35.6014C26.173 35.6014 26.4617 35.8901 26.4617 36.1788V55.4227C26.4617 55.7113 26.173 56 25.8843 56Z" fill="#132C12"/>
<path d="M41.5684 36.3712C37.912 37.2372 34.6405 39.0654 31.9463 41.7595C29.2521 44.4537 27.4239 47.7251 26.5579 51.3815C30.2143 50.5155 33.4858 48.6873 36.18 45.9932C38.8742 43.299 40.7024 39.9313 41.5684 36.3712ZM25.8843 52.6323C25.6919 52.6323 25.5957 52.5361 25.4994 52.4399C25.4032 52.3437 25.307 52.055 25.307 51.8626C26.0768 47.6289 28.0974 43.7801 31.1765 40.7011C34.2556 37.6221 38.1044 35.6014 42.3381 34.8317C42.5306 34.8317 42.723 34.8317 42.9155 35.0241C43.0117 35.1203 43.1079 35.409 43.1079 35.6014C42.3381 39.8351 40.3175 43.6839 37.2384 46.7629C34.1593 49.842 30.3105 51.8626 26.0768 52.6323C25.8843 52.6323 25.8843 52.6323 25.8843 52.6323Z" fill="#132C12"/>
<path d="M10.1031 36.3712C10.9691 40.0276 12.7973 43.299 15.4915 45.9932C18.1856 48.6873 21.4572 50.5155 25.1136 51.3815C24.2476 47.7251 22.4194 44.4537 19.7252 41.7595C17.031 39.0654 13.7595 37.2372 10.1031 36.3712ZM25.8833 52.6323H25.7871C21.5534 51.8626 17.7045 49.842 14.6255 46.7629C11.5464 43.6839 9.52575 39.8351 8.75598 35.6014C8.75598 35.409 8.75598 35.2166 8.94842 35.0241C9.04464 34.9279 9.33331 34.8317 9.52575 34.8317C13.7595 35.6014 17.6083 37.6221 20.6874 40.7011C23.7665 43.7801 25.7871 47.5327 26.5569 51.7663C26.5569 51.8626 26.5569 51.8626 26.5569 51.9588C26.4607 52.4399 26.172 52.6323 25.8833 52.6323Z" fill="#132C12"/>
<path d="M49.9384 20.4948C48.5913 20.4948 47.5329 21.5532 47.5329 22.9003C47.5329 24.2474 48.5913 25.3058 49.9384 25.3058C51.2855 25.3058 52.3439 24.2474 52.3439 22.9003C52.3439 21.6494 51.1893 20.4948 49.9384 20.4948ZM49.9384 26.5566C47.9177 26.5566 46.282 24.9209 46.282 22.9003C46.282 20.8797 47.9177 19.2439 49.9384 19.2439C51.959 19.2439 53.5948 20.8797 53.5948 22.9003C53.4986 24.9209 51.8628 26.5566 49.9384 26.5566Z" fill="#132C12"/>
<path d="M4.81105 43.9726C2.79041 43.9726 1.15465 45.6083 1.15465 47.629C1.15465 49.6496 2.79041 51.2853 4.81105 51.2853C6.8317 51.2853 8.46745 49.6496 8.46745 47.629C8.37123 45.6083 6.8317 43.9726 4.81105 43.9726ZM4.81105 52.4399C2.11686 52.4399 0 50.3231 0 47.629C0 44.9348 2.11686 42.818 4.81105 42.818C7.50524 42.818 9.62211 44.9348 9.62211 47.629C9.62211 50.2269 7.40902 52.4399 4.81105 52.4399Z" fill="#132C12"/>
</svg>
