<svg width="30" height="26" viewBox="0 0 30 26" fill="none" xmlns="http://www.w3.org/2000/svg">
<path d="M16.458 6.02271C16.458 7.657 16.8728 9.02943 17.7026 10.14C18.2906 10.9051 19.0885 11.4078 20.0962 11.648C21.0883 11.8857 22.0263 11.9024 22.8741 11.7C23.1627 13.4643 22.6937 15.3326 21.5032 17.3123C20.3103 19.2908 18.7722 20.7783 16.8891 21.775L19.7409 26C21.1839 25.2646 22.5548 24.3323 23.8175 23.205C25.0982 22.0777 26.2346 20.7814 27.2447 19.3161C28.2549 17.8509 29.0125 16.1961 29.4995 14.3204C29.9865 12.4447 30.1218 10.5319 29.8891 8.56329C29.5861 5.96329 28.7708 3.88329 27.4432 2.34186C26.1168 0.780619 24.4645 0 22.4863 0C20.7456 0 19.3008 0.538572 18.1571 1.63057C17.0256 2.70029 16.4604 4.16619 16.4616 6.02829L16.458 6.02271ZM0 6.02271C0 7.657 0.414877 9.02943 1.24463 10.14C1.83387 10.92 2.63176 11.4258 3.63828 11.6573C4.64842 11.8863 5.57437 11.9 6.41615 11.6981C6.70476 13.4439 6.25381 15.3196 5.05969 17.3067C3.86917 19.2753 2.33233 20.761 0.44915 21.7639L3.29376 26C4.73801 25.2646 6.09688 24.3329 7.37037 23.205C8.66261 22.0609 9.81037 20.7544 10.7868 19.3161C11.7897 17.849 12.5365 16.1961 13.0235 14.3204C13.5182 12.4462 13.6512 10.4902 13.4149 8.56329C13.1155 5.96329 12.3038 3.88329 10.9798 2.34186C9.65699 0.791761 8.00771 0.016716 6.03194 0.016716C4.28826 0.0142403 2.84401 0.557142 1.69919 1.64543C0.567598 2.71514 0.00120163 4.18105 0 6.04314V6.02271Z" fill="#132C12"/>
</svg>
