<svg width="14" height="9" viewBox="0 0 14 9" fill="none" xmlns="http://www.w3.org/2000/svg">
<path fill-rule="evenodd" clip-rule="evenodd" d="M8.63954 1.17291C8.79009 1.02345 8.99382 0.939904 9.20595 0.940638C9.41808 0.941373 9.62124 1.02633 9.77074 1.17683L12.9596 4.38789C13.1091 4.53843 13.1926 4.74217 13.1919 4.9543C13.1912 5.16643 13.1062 5.36958 12.9557 5.51908L9.74465 8.70798C9.59326 8.85318 9.39091 8.93312 9.18116 8.93057C8.97141 8.92802 8.77105 8.84319 8.62324 8.69435C8.47542 8.54551 8.39198 8.34457 8.39089 8.13481C8.38979 7.92505 8.47113 7.72324 8.61738 7.57287L10.4581 5.74483L1.18937 5.71273C0.977203 5.71199 0.774013 5.627 0.624505 5.47645C0.474996 5.32591 0.391416 5.12213 0.392151 4.90996C0.392886 4.69779 0.477876 4.4946 0.628423 4.34509C0.778971 4.19558 0.982745 4.112 1.19492 4.11274L10.4637 4.14484L8.63563 2.3041C8.48617 2.15356 8.40262 1.94982 8.40336 1.73769C8.40409 1.52556 8.48905 1.32241 8.63954 1.17291V1.17291Z" fill="#0E082B"/>
</svg>
