<svg width="21" height="23" viewBox="0 0 21 23" fill="none" xmlns="http://www.w3.org/2000/svg">
<g clip-path="url(#clip0_569_62203)">
<path d="M5.91506 0.484786C6.09886 0.485423 6.27484 0.567158 6.40431 0.71201C6.53377 0.856862 6.6061 1.05297 6.60539 1.25718L6.60041 2.69707L14.0422 2.72285L14.0471 1.29286C14.0479 1.08864 14.1215 0.893046 14.252 0.749094C14.3825 0.605142 14.559 0.524628 14.7428 0.525265C14.9266 0.525901 15.1026 0.607636 15.232 0.752489C15.3615 0.897341 15.4338 1.09345 15.4331 1.29766L15.4282 2.72765L18.1111 2.73695C18.636 2.73876 19.1387 2.97214 19.5085 3.38577C19.8784 3.79939 20.0852 4.35941 20.0834 4.94269L20.0301 20.3349C20.0278 20.9182 19.8172 21.4768 19.4445 21.8878C19.0717 22.2989 18.5675 22.5287 18.0425 22.5269L2.20261 22.4721C1.67766 22.4702 1.17499 22.2369 0.805128 21.8232C0.435265 21.4096 0.228481 20.8496 0.230239 20.2663L0.283557 4.87411C0.285839 4.29082 0.496498 3.73225 0.869218 3.3212C1.24194 2.91015 1.74621 2.68026 2.27116 2.68208L5.21441 2.69227L5.2194 1.25128C5.22037 1.04726 5.29418 0.851942 5.42461 0.708227C5.55504 0.564513 5.73144 0.48415 5.91506 0.484786ZM1.65532 8.98628L1.61623 20.2711C1.61593 20.3578 1.631 20.4437 1.66057 20.5238C1.69014 20.604 1.73365 20.6769 1.78859 20.7384C1.84354 20.7999 1.90885 20.8487 1.9808 20.8821C2.05275 20.9156 2.12994 20.9329 2.20794 20.9332L18.0478 20.988C18.1258 20.9883 18.2032 20.9715 18.2753 20.9386C18.3475 20.9057 18.4132 20.8573 18.4685 20.7962C18.5239 20.7351 18.5679 20.6625 18.598 20.5825C18.6282 20.5025 18.6438 20.4168 18.6441 20.3301L18.6832 9.06066L1.65532 8.98628ZM6.84342 16.569L6.83707 18.4016L5.18675 18.3959L5.1931 16.5633L6.84342 16.569ZM10.9677 16.5833L10.9614 18.4159L9.31205 18.4102L9.3184 16.5776L10.9677 16.5833ZM15.093 16.5976L15.0867 18.4302L13.4364 18.4244L13.4427 16.5919L15.093 16.5976ZM6.85857 12.1943L6.85222 14.0269L5.2019 14.0212L5.20825 12.1886L6.85857 12.1943ZM10.9829 12.2086L10.9765 14.0412L9.32721 14.0355L9.33355 12.2029L10.9829 12.2086ZM15.1082 12.2229L15.1018 14.0555L13.4515 14.0498L13.4579 12.2172L15.1082 12.2229ZM5.20908 4.23116L2.26583 4.22097C2.18783 4.2207 2.11053 4.2375 2.03834 4.27042C1.96616 4.30334 1.90051 4.35173 1.84514 4.41282C1.78977 4.47392 1.74577 4.54652 1.71564 4.62649C1.68551 4.70646 1.66985 4.79223 1.66955 4.87891L1.66065 7.44739L18.6885 7.52177L18.6974 4.93789C18.6977 4.85122 18.6827 4.76534 18.6531 4.68516C18.6235 4.60499 18.58 4.53208 18.5251 4.4706C18.4701 4.40912 18.4048 4.36028 18.3329 4.32686C18.2609 4.29344 18.1837 4.27611 18.1057 4.27584L15.4229 4.26654L15.4193 5.28844C15.4186 5.49265 15.3449 5.68825 15.2145 5.8322C15.084 5.97615 14.9074 6.05667 14.7236 6.05603C14.5399 6.0554 14.3639 5.97366 14.2344 5.82881C14.1049 5.68396 14.0326 5.48785 14.0333 5.28364L14.0369 4.26174L6.59507 4.23596L6.59157 5.24796C6.59086 5.45217 6.51717 5.64777 6.38671 5.79172C6.25625 5.93568 6.0797 6.01619 5.89591 6.01555C5.71211 6.01492 5.53613 5.93318 5.40666 5.78833C5.2772 5.64348 5.20487 5.44737 5.20558 5.24316L5.20908 4.23116Z" fill="#0E082B"/>
</g>
<defs>
<clipPath id="clip0_569_62203">
<rect width="19.8" height="22" fill="white" transform="translate(0.298828 0.465332) rotate(0.198467)"/>
</clipPath>
</defs>
</svg>
