<svg width="34" height="36" viewBox="0 0 34 36" fill="none" xmlns="http://www.w3.org/2000/svg">
<path d="M13.2673 24.3513V25.9004L9.7627 27.0776V25.5286L13.2673 24.3513Z" fill="white"/>
<path d="M13.2673 25.9001V27.4492L9.7627 28.6265V27.0774L13.2673 25.9001Z" fill="white"/>
<path d="M13.2673 22.8025V24.3515L9.7627 25.5288V23.9798L13.2673 22.8025Z" fill="white"/>
<path d="M28.9103 24.3514C30.2245 24.3514 31.2884 25.4048 31.2884 26.706C31.2884 28.0072 30.2245 29.0605 28.9103 29.0605C27.5961 29.0605 26.5322 28.0072 26.5322 26.706C26.5322 25.4048 27.5961 24.3514 28.9103 24.3514Z" fill="white"/>
<path d="M4.63047 10.7814C5.69436 10.7814 6.56987 11.6489 6.56987 12.7022C6.56987 13.7556 5.69436 14.623 4.63047 14.623C3.56596 14.623 2.69043 13.7556 2.69043 12.7022C2.69043 11.6489 3.56596 10.7814 4.63047 10.7814Z" fill="white"/>
<path d="M21.0892 33.2739V35.6284H1.94043V33.2739C4.31792 33.2739 18.8988 33.2739 21.0892 33.2739Z" fill="#9BC9FF"/>
<path d="M17.5846 32.4065V33.2739H5.44434V32.4065C5.44434 31.6009 6.07015 30.9813 6.88372 30.9813C7.69728 30.9813 15.269 30.9813 16.1452 30.9813C16.8962 30.9194 17.5846 31.6009 17.5846 32.4065Z" fill="#9BC9FF"/>
<path d="M13.2673 27.4496V30.9194H9.7627V28.6268L13.2673 27.4496Z" fill="#9BC9FF"/>
<path d="M13.2673 22.8022L9.7627 23.9795V0.37192H13.2673C13.2673 1.0535 13.2673 21.9967 13.2673 22.8022Z" fill="#9BC9FF"/>
<path d="M23.4032 12.7645L21.2754 16.2344V12.7645H23.4032Z" fill="white"/>
<path d="M32.7898 5.01923L28.222 10.5958L32.7898 16.2344H21.2754L23.4032 12.7645V5.01923H32.7898Z" fill="white"/>
<path d="M13.2666 5.39067V2.66433H23.4668C23.4668 3.96554 23.4668 11.8347 23.4668 12.7642C22.1526 12.7642 14.3305 12.7642 13.2666 12.7642V5.39067Z" fill="white"/>
<path d="M13.2661 31.353C13.0784 31.353 12.8906 31.1671 12.8906 30.9813V12.7644C12.8906 12.5785 13.0784 12.3926 13.2661 12.3926C13.4532 12.3926 13.6416 12.5785 13.6416 12.7644V30.9813C13.6416 31.1671 13.4532 31.353 13.2661 31.353Z" fill="#1E81CE"/>
<path d="M9.7622 31.353C9.57445 31.353 9.38672 31.1671 9.38672 30.9813V0.37196C9.38672 0.186073 9.57445 0.00018692 9.7622 0.00018692H13.2668C13.4539 0.00018692 13.6423 0.186073 13.6423 0.37196V2.72652C13.6423 2.91241 13.4539 3.09829 13.2668 3.09829C13.079 3.09829 12.8913 2.91241 12.8913 2.72652V0.805695H10.1377V31.0432C10.1377 31.1671 9.94994 31.353 9.7622 31.353Z" fill="#1E81CE"/>
<path d="M17.5841 33.6455C17.3963 33.6455 17.2086 33.4596 17.2086 33.2737V32.4063C17.2086 31.8486 16.7079 31.3529 16.1447 31.3529H6.88323C6.32 31.3529 5.81935 31.8486 5.81935 32.4063V33.2737C5.81935 33.4596 5.6316 33.6455 5.44385 33.6455C5.25611 33.6455 5.06836 33.4596 5.06836 33.2737V32.4063C5.06836 31.4149 5.88192 30.6094 6.88323 30.6094H16.1447C17.146 30.6094 17.9596 31.4149 17.9596 32.4063V33.2737C17.9596 33.4596 17.7718 33.6455 17.5841 33.6455Z" fill="#1E81CE"/>
<path d="M21.0887 36C20.901 36 20.7132 35.8141 20.7132 35.6282V33.7074H2.31543V35.6282C2.31543 35.8141 2.12768 36 1.93993 36C1.75219 36 1.56445 35.8141 1.56445 35.6282V33.2737C1.56445 33.0878 1.75219 32.9019 1.93993 32.9019H21.0887C21.2758 32.9019 21.4636 33.0878 21.4636 33.2737V35.6282C21.4636 35.8141 21.2758 36 21.0887 36Z" fill="#1E81CE"/>
<path d="M9.76188 28.9985C9.57413 28.9985 9.44898 28.8746 9.3864 28.7507C9.32381 28.5648 9.44898 28.317 9.63673 28.255L13.1413 27.0777C13.329 27.0157 13.5794 27.1397 13.642 27.3256C13.7039 27.5114 13.5794 27.7593 13.391 27.8213L9.88704 28.9985C9.82446 28.9985 9.76188 28.9985 9.76188 28.9985Z" fill="#1E81CE"/>
<path d="M9.76188 27.4492C9.57413 27.4492 9.44898 27.3253 9.3864 27.2014C9.32381 27.0155 9.44898 26.7676 9.63673 26.7057L13.1413 25.5284C13.329 25.4664 13.5794 25.5904 13.642 25.7762C13.7039 25.9621 13.5794 26.21 13.391 26.2719L9.88704 27.4492C9.82446 27.4492 9.76188 27.4492 9.76188 27.4492Z" fill="#1E81CE"/>
<path d="M9.76188 25.9004C9.57413 25.9004 9.44898 25.7765 9.3864 25.6525C9.32381 25.4667 9.44898 25.2188 9.63673 25.1568L13.1413 23.9796C13.329 23.9176 13.5794 24.0415 13.642 24.2274C13.7039 24.4133 13.5794 24.6611 13.391 24.7231L9.88704 25.9004C9.82446 25.9004 9.76188 25.9004 9.76188 25.9004Z" fill="#1E81CE"/>
<path d="M9.76188 24.3516C9.57413 24.3516 9.44898 24.2276 9.3864 24.1037C9.32381 23.9178 9.44898 23.67 9.63673 23.608L13.1413 22.4307C13.329 22.3688 13.5794 22.4927 13.642 22.6786C13.7039 22.8645 13.5794 23.1123 13.391 23.1743L9.88704 24.3516C9.82446 24.3516 9.76188 24.3516 9.76188 24.3516Z" fill="#1E81CE"/>
<path d="M28.5354 36H0.375479C0.187734 36 0 35.8141 0 35.6282C0 35.4423 0.187734 35.2565 0.375479 35.2565H28.5354C28.7232 35.2565 28.9109 35.4423 28.9109 35.6282C28.9109 35.8141 28.7232 36 28.5354 36Z" fill="#1E81CE"/>
<path d="M32.7907 16.606H21.2762C21.0891 16.606 20.9014 16.4201 20.9014 16.2342V12.7643C20.9014 12.5784 21.0891 12.3925 21.2762 12.3925C21.464 12.3925 21.6524 12.5784 21.6524 12.7643V15.8624H31.9145L27.8473 10.8435C27.7222 10.7196 27.7222 10.4717 27.8473 10.3478L31.9145 5.39081H23.404C23.2163 5.39081 23.0292 5.20492 23.0292 5.01904C23.0292 4.83315 23.2163 4.64727 23.404 4.64727H32.7907C32.9165 4.64727 33.1036 4.70923 33.1668 4.89511C33.2294 5.01904 33.2294 5.20492 33.1036 5.32885L28.7235 10.6576L33.1036 16.0483C33.2294 16.1722 33.2294 16.2961 33.1668 16.482C33.1036 16.544 32.9784 16.606 32.7907 16.606Z" fill="#1E81CE"/>
<path d="M13.6416 12.3307H23.0283V3.0364H13.6416V12.3307ZM23.4031 13.1362H13.2661C13.0784 13.1362 12.8906 12.9503 12.8906 12.7645V2.66463C12.8906 2.47874 13.0784 2.29286 13.2661 2.29286H23.4663C23.6535 2.29286 23.8412 2.47874 23.8412 2.66463V12.7645C23.8412 12.9503 23.6535 13.1362 23.4031 13.1362Z" fill="#1E81CE"/>
<path d="M20.1495 5.7627H13.2661C13.0784 5.7627 12.8906 5.57681 12.8906 5.39092C12.8906 5.20504 13.0784 5.01915 13.2661 5.01915H20.1495C20.3372 5.01915 20.525 5.20504 20.525 5.39092C20.525 5.57681 20.3372 5.7627 20.1495 5.7627Z" fill="#1E81CE"/>
<path d="M21.2751 16.606C21.2132 16.606 21.15 16.606 21.088 16.544C20.9003 16.4201 20.8371 16.1722 20.9629 15.9863L23.09 12.5165C23.2152 12.3306 23.4661 12.2686 23.6533 12.3925C23.841 12.5165 23.9042 12.7643 23.779 12.9502L21.6513 16.4201C21.5881 16.544 21.4629 16.606 21.2751 16.606Z" fill="#1E81CE"/>
<path d="M28.9098 24.723C27.846 24.723 26.9698 25.5904 26.9698 26.6438C26.9698 27.6971 27.846 28.5646 28.9098 28.5646C29.9737 28.5646 30.8499 27.6971 30.8499 26.6438C30.8499 25.5904 29.9737 24.723 28.9098 24.723ZM28.9098 29.3701C27.4079 29.3701 26.1562 28.1309 26.1562 26.6438C26.1562 25.1567 27.4079 23.9174 28.9098 23.9174C30.4118 23.9174 31.6628 25.1567 31.6628 26.6438C31.6628 28.1309 30.4118 29.3701 28.9098 29.3701Z" fill="#1E81CE"/>
<path d="M4.63104 11.2155C3.7549 11.2155 3.0665 11.8971 3.0665 12.7645C3.0665 13.632 3.7549 14.3136 4.63104 14.3136C5.50657 14.3136 6.19497 13.632 6.19497 12.7645C6.19497 11.8971 5.50657 11.2155 4.63104 11.2155ZM4.63104 15.0571C3.31683 15.0571 2.25293 14.0038 2.25293 12.7026C2.25293 11.4014 3.31683 10.348 4.63104 10.348C5.94464 10.348 7.00852 11.4014 7.00852 12.7026C7.00852 14.0038 5.94464 15.0571 4.63104 15.0571Z" fill="#1E81CE"/>
<path d="M13.2673 24.3513V25.9004L9.7627 27.0776V25.5286L13.2673 24.3513Z" fill="white"/>
<path d="M13.2673 25.9001V27.4492L9.7627 28.6265V27.0774L13.2673 25.9001Z" fill="white"/>
<path d="M13.2673 22.8025V24.3515L9.7627 25.5288V23.9798L13.2673 22.8025Z" fill="white"/>
<path d="M28.9103 24.3514C30.2245 24.3514 31.2884 25.4048 31.2884 26.706C31.2884 28.0072 30.2245 29.0605 28.9103 29.0605C27.5961 29.0605 26.5322 28.0072 26.5322 26.706C26.5322 25.4048 27.5961 24.3514 28.9103 24.3514Z" fill="white"/>
<path d="M4.63047 10.7814C5.69436 10.7814 6.56987 11.6489 6.56987 12.7022C6.56987 13.7556 5.69436 14.623 4.63047 14.623C3.56596 14.623 2.69043 13.7556 2.69043 12.7022C2.69043 11.6489 3.56596 10.7814 4.63047 10.7814Z" fill="white"/>
<path d="M21.0892 33.2739V35.6284H1.94043V33.2739C4.31792 33.2739 18.8988 33.2739 21.0892 33.2739Z" fill="#9BC9FF"/>
<path d="M17.5846 32.4065V33.2739H5.44434V32.4065C5.44434 31.6009 6.07015 30.9813 6.88372 30.9813C7.69728 30.9813 15.269 30.9813 16.1452 30.9813C16.8962 30.9194 17.5846 31.6009 17.5846 32.4065Z" fill="#9BC9FF"/>
<path d="M13.2673 27.4496V30.9194H9.7627V28.6268L13.2673 27.4496Z" fill="#9BC9FF"/>
<path d="M13.2673 22.8022L9.7627 23.9795V0.37192H13.2673C13.2673 1.0535 13.2673 21.9967 13.2673 22.8022Z" fill="#9BC9FF"/>
<path d="M23.4032 12.7645L21.2754 16.2344V12.7645H23.4032Z" fill="white"/>
<path d="M32.7898 5.01923L28.222 10.5958L32.7898 16.2344H21.2754L23.4032 12.7645V5.01923H32.7898Z" fill="white"/>
<path d="M13.2666 5.39067V2.66433H23.4668C23.4668 3.96554 23.4668 11.8347 23.4668 12.7642C22.1526 12.7642 14.3305 12.7642 13.2666 12.7642V5.39067Z" fill="white"/>
<path d="M13.2661 31.353C13.0784 31.353 12.8906 31.1671 12.8906 30.9813V12.7644C12.8906 12.5785 13.0784 12.3926 13.2661 12.3926C13.4532 12.3926 13.6416 12.5785 13.6416 12.7644V30.9813C13.6416 31.1671 13.4532 31.353 13.2661 31.353Z" fill="#1E81CE"/>
<path d="M9.7622 31.353C9.57445 31.353 9.38672 31.1671 9.38672 30.9813V0.37196C9.38672 0.186073 9.57445 0.00018692 9.7622 0.00018692H13.2668C13.4539 0.00018692 13.6423 0.186073 13.6423 0.37196V2.72652C13.6423 2.91241 13.4539 3.09829 13.2668 3.09829C13.079 3.09829 12.8913 2.91241 12.8913 2.72652V0.805695H10.1377V31.0432C10.1377 31.1671 9.94994 31.353 9.7622 31.353Z" fill="#1E81CE"/>
<path d="M17.5841 33.6455C17.3963 33.6455 17.2086 33.4596 17.2086 33.2737V32.4063C17.2086 31.8486 16.7079 31.3529 16.1447 31.3529H6.88323C6.32 31.3529 5.81935 31.8486 5.81935 32.4063V33.2737C5.81935 33.4596 5.6316 33.6455 5.44385 33.6455C5.25611 33.6455 5.06836 33.4596 5.06836 33.2737V32.4063C5.06836 31.4149 5.88192 30.6094 6.88323 30.6094H16.1447C17.146 30.6094 17.9596 31.4149 17.9596 32.4063V33.2737C17.9596 33.4596 17.7718 33.6455 17.5841 33.6455Z" fill="#1E81CE"/>
<path d="M21.0887 36C20.901 36 20.7132 35.8141 20.7132 35.6282V33.7074H2.31543V35.6282C2.31543 35.8141 2.12768 36 1.93993 36C1.75219 36 1.56445 35.8141 1.56445 35.6282V33.2737C1.56445 33.0878 1.75219 32.9019 1.93993 32.9019H21.0887C21.2758 32.9019 21.4636 33.0878 21.4636 33.2737V35.6282C21.4636 35.8141 21.2758 36 21.0887 36Z" fill="#1E81CE"/>
<path d="M9.76188 28.9985C9.57413 28.9985 9.44898 28.8746 9.3864 28.7507C9.32381 28.5648 9.44898 28.317 9.63673 28.255L13.1413 27.0777C13.329 27.0157 13.5794 27.1397 13.642 27.3256C13.7039 27.5114 13.5794 27.7593 13.391 27.8213L9.88704 28.9985C9.82446 28.9985 9.76188 28.9985 9.76188 28.9985Z" fill="#1E81CE"/>
<path d="M9.76188 27.4492C9.57413 27.4492 9.44898 27.3253 9.3864 27.2014C9.32381 27.0155 9.44898 26.7676 9.63673 26.7057L13.1413 25.5284C13.329 25.4664 13.5794 25.5904 13.642 25.7762C13.7039 25.9621 13.5794 26.21 13.391 26.2719L9.88704 27.4492C9.82446 27.4492 9.76188 27.4492 9.76188 27.4492Z" fill="#1E81CE"/>
<path d="M9.76188 25.9004C9.57413 25.9004 9.44898 25.7765 9.3864 25.6525C9.32381 25.4667 9.44898 25.2188 9.63673 25.1568L13.1413 23.9796C13.329 23.9176 13.5794 24.0415 13.642 24.2274C13.7039 24.4133 13.5794 24.6611 13.391 24.7231L9.88704 25.9004C9.82446 25.9004 9.76188 25.9004 9.76188 25.9004Z" fill="#1E81CE"/>
<path d="M9.76188 24.3516C9.57413 24.3516 9.44898 24.2276 9.3864 24.1037C9.32381 23.9178 9.44898 23.67 9.63673 23.608L13.1413 22.4307C13.329 22.3688 13.5794 22.4927 13.642 22.6786C13.7039 22.8645 13.5794 23.1123 13.391 23.1743L9.88704 24.3516C9.82446 24.3516 9.76188 24.3516 9.76188 24.3516Z" fill="#1E81CE"/>
<path d="M28.5354 36H0.375479C0.187734 36 0 35.8141 0 35.6282C0 35.4423 0.187734 35.2565 0.375479 35.2565H28.5354C28.7232 35.2565 28.9109 35.4423 28.9109 35.6282C28.9109 35.8141 28.7232 36 28.5354 36Z" fill="#1E81CE"/>
<path d="M32.7907 16.606H21.2762C21.0891 16.606 20.9014 16.4201 20.9014 16.2342V12.7643C20.9014 12.5784 21.0891 12.3925 21.2762 12.3925C21.464 12.3925 21.6524 12.5784 21.6524 12.7643V15.8624H31.9145L27.8473 10.8435C27.7222 10.7196 27.7222 10.4717 27.8473 10.3478L31.9145 5.39081H23.404C23.2163 5.39081 23.0292 5.20492 23.0292 5.01904C23.0292 4.83315 23.2163 4.64727 23.404 4.64727H32.7907C32.9165 4.64727 33.1036 4.70923 33.1668 4.89511C33.2294 5.01904 33.2294 5.20492 33.1036 5.32885L28.7235 10.6576L33.1036 16.0483C33.2294 16.1722 33.2294 16.2961 33.1668 16.482C33.1036 16.544 32.9784 16.606 32.7907 16.606Z" fill="#1E81CE"/>
<path d="M13.6416 12.3307H23.0283V3.0364H13.6416V12.3307ZM23.4031 13.1362H13.2661C13.0784 13.1362 12.8906 12.9503 12.8906 12.7645V2.66463C12.8906 2.47874 13.0784 2.29286 13.2661 2.29286H23.4663C23.6535 2.29286 23.8412 2.47874 23.8412 2.66463V12.7645C23.8412 12.9503 23.6535 13.1362 23.4031 13.1362Z" fill="#1E81CE"/>
<path d="M20.1495 5.7627H13.2661C13.0784 5.7627 12.8906 5.57681 12.8906 5.39092C12.8906 5.20504 13.0784 5.01915 13.2661 5.01915H20.1495C20.3372 5.01915 20.525 5.20504 20.525 5.39092C20.525 5.57681 20.3372 5.7627 20.1495 5.7627Z" fill="#1E81CE"/>
<path d="M21.2751 16.606C21.2132 16.606 21.15 16.606 21.088 16.544C20.9003 16.4201 20.8371 16.1722 20.9629 15.9863L23.09 12.5165C23.2152 12.3306 23.4661 12.2686 23.6533 12.3925C23.841 12.5165 23.9042 12.7643 23.779 12.9502L21.6513 16.4201C21.5881 16.544 21.4629 16.606 21.2751 16.606Z" fill="#1E81CE"/>
<path d="M28.9098 24.723C27.846 24.723 26.9698 25.5904 26.9698 26.6438C26.9698 27.6971 27.846 28.5646 28.9098 28.5646C29.9737 28.5646 30.8499 27.6971 30.8499 26.6438C30.8499 25.5904 29.9737 24.723 28.9098 24.723ZM28.9098 29.3701C27.4079 29.3701 26.1562 28.1309 26.1562 26.6438C26.1562 25.1567 27.4079 23.9174 28.9098 23.9174C30.4118 23.9174 31.6628 25.1567 31.6628 26.6438C31.6628 28.1309 30.4118 29.3701 28.9098 29.3701Z" fill="#1E81CE"/>
<path d="M4.63104 11.2155C3.7549 11.2155 3.0665 11.8971 3.0665 12.7645C3.0665 13.632 3.7549 14.3136 4.63104 14.3136C5.50657 14.3136 6.19497 13.632 6.19497 12.7645C6.19497 11.8971 5.50657 11.2155 4.63104 11.2155ZM4.63104 15.0571C3.31683 15.0571 2.25293 14.0038 2.25293 12.7026C2.25293 11.4014 3.31683 10.348 4.63104 10.348C5.94464 10.348 7.00852 11.4014 7.00852 12.7026C7.00852 14.0038 5.94464 15.0571 4.63104 15.0571Z" fill="#1E81CE"/>
</svg>
