<svg width="38" height="36" viewBox="0 0 38 36" fill="none" xmlns="http://www.w3.org/2000/svg">
<path d="M21.6821 0.45222C23.0529 0.45222 24.1627 1.55097 24.1627 2.90824C24.1627 4.26551 23.0529 5.36426 21.6821 5.36426C20.3119 5.36426 19.2021 4.26551 19.2021 2.90824C19.2021 1.55097 20.3119 0.45222 21.6821 0.45222Z" fill="white"/>
<path d="M3.33943 18.2262C4.44916 18.2262 5.36305 19.1311 5.36305 20.2298C5.36305 21.3285 4.44916 22.2334 3.33943 22.2334C2.22969 22.2334 1.31579 21.3285 1.31579 20.2298C1.25051 19.1311 2.16441 18.2262 3.33943 18.2262Z" fill="white"/>
<path d="M12.2812 8.91928C13.4562 8.91928 14.566 8.53148 15.4146 7.82053C14.8271 10.2765 12.5423 12.1509 9.86591 12.1509C6.7332 12.1509 4.12207 9.63023 4.12207 6.46326C4.12207 3.81334 6.01514 1.55122 8.49572 0.969532C7.77701 1.80975 7.38599 2.90849 7.38599 4.07187C7.38599 6.78642 9.60545 8.91928 12.2812 8.91928Z" fill="white"/>
<path d="M31.8641 35.6123H25.3369V26.6931C26.9036 33.9965 31.8641 35.6123 31.8641 35.6123Z" fill="#9BC9FF"/>
<path d="M25.3364 26.6931V35.6123H18.8086C18.8086 35.6123 23.7698 33.9965 25.3364 26.6931Z" fill="#9BC9FF"/>
<path d="M34.3447 35.6123H31.8641C31.8641 35.6123 26.9036 33.9965 25.3369 26.6931V21.0055C26.1203 22.2981 33.6266 34.5136 34.3447 35.6123Z" fill="white"/>
<path d="M25.3362 21.0699V26.7575C23.7695 34.061 18.8083 35.6768 18.8083 35.6768C18.025 35.6768 16.1979 35.6768 15.6104 35.6768C15.8062 35.3536 25.0098 21.5223 25.3362 21.0699Z" fill="white"/>
<path d="M17.7659 32.4453L15.677 35.6123H0.467773L2.81779 32.3161L2.88307 32.3807H17.5701L17.7659 32.4453Z" fill="#9BC9FF"/>
<path d="M2.81738 32.316L11.0418 21.0701C16.003 21.0701 22.5302 21.0701 25.3371 21.0701L17.7655 32.4453L17.6343 32.3807L2.81738 32.316Z" fill="#9BC9FF"/>
<path d="M36.7597 25.9175C35.7805 25.9175 29.4485 25.9175 28.3387 25.9175L25.3366 21.0701H22.856C23.2477 20.553 23.6394 19.9713 24.031 19.4543H17.0469C20.3761 19.1311 22.3338 16.0288 24.2269 13.3142H18.0254C23.5088 12.7972 26.7727 3.29626 26.7727 3.29626C26.7727 3.29626 28.9269 10.2119 35.0624 13.3142H29.8401C31.6679 15.3825 32.8429 17.8385 36.1069 19.4543H30.036C31.9943 21.6518 33.2999 24.1724 36.7597 25.9175Z" fill="#9BC9FF"/>
<path d="M31.8632 36C31.798 36 31.798 36 31.7327 36C31.6674 36 30.3618 35.5476 28.9264 34.1903C27.5549 32.9623 25.793 30.7002 24.9444 26.8222C24.8791 26.6283 25.0097 26.3698 25.2708 26.3698C25.4666 26.3052 25.7277 26.4345 25.7277 26.693C26.5111 30.3124 28.143 32.4452 29.3833 33.6086C30.7535 34.8366 31.9285 35.2244 31.9285 35.289C32.1244 35.3537 32.2549 35.6122 32.1896 35.8061C32.1896 35.8707 32.0591 36 31.8632 36Z" fill="#1E81CE"/>
<path d="M18.8094 36C18.6142 36 18.483 35.8707 18.4184 35.7415C18.3531 35.5476 18.483 35.289 18.6795 35.2244C18.6795 35.2244 19.8539 34.8366 21.2247 33.544C22.465 32.3806 24.1622 30.2477 24.8803 26.6283C24.9456 26.4345 25.1414 26.2406 25.3373 26.3052C25.5331 26.3698 25.7289 26.5637 25.6637 26.7576C24.815 30.6355 23.0525 32.8977 21.6817 34.1257C20.1803 35.4829 18.8747 35.8707 18.8747 35.9354C18.8747 36 18.8747 36 18.8094 36Z" fill="#1E81CE"/>
<path d="M36.7599 26.3052H28.3389C28.1437 26.3052 27.9473 26.1113 27.9473 25.9174C27.9473 25.7235 28.1437 25.5296 28.3389 25.5296H35.2584C33.3654 24.3016 32.1904 22.7504 31.016 21.2639C30.6237 20.7468 30.1674 20.2298 29.7757 19.7127C29.6445 19.5834 29.6445 19.4542 29.7098 19.2603C29.7757 19.131 29.9056 19.0018 30.1015 19.0018H34.6709C32.9737 17.8384 31.864 16.4811 30.8195 15.1238C30.4279 14.6068 30.0362 14.0897 29.5792 13.5727C29.4487 13.4434 29.4487 13.3141 29.5139 13.1202C29.5792 12.991 29.7098 12.8617 29.9056 12.8617H33.6265C31.0806 11.2459 29.384 8.98378 28.3389 7.30335C27.6215 6.13997 27.1646 5.10586 26.8382 4.3949C26.4465 5.29975 25.7937 6.78629 24.8798 8.27283C23.509 10.4703 22.0729 12.0215 20.5715 12.8617H24.2923C24.4229 12.8617 24.5534 12.9263 24.684 13.0556C24.7493 13.1849 24.7493 13.3788 24.684 13.4434C24.5534 13.6373 24.4229 13.8312 24.2923 14.0251C22.9215 15.8994 21.5506 17.8384 19.7228 18.9371H24.2271C24.3576 18.9371 24.4882 19.0018 24.6187 19.131C24.684 19.2603 24.684 19.4542 24.6187 19.5188C24.4882 19.6481 24.4229 19.842 24.2923 19.9712C24.0312 20.359 23.7701 20.7468 23.4437 21.1346C23.3131 21.3285 23.052 21.3285 22.8562 21.1992C22.6604 21.07 22.6604 20.8114 22.7909 20.6176C23.052 20.2944 23.2479 19.9712 23.509 19.6481H17.2429C17.0471 19.6481 16.8506 19.4542 16.8506 19.2603C16.8506 19.0664 16.9818 18.8725 17.2429 18.8079C20.1145 18.5493 21.9423 15.964 23.7048 13.508H18.3526C18.1568 13.508 17.961 13.3141 17.961 13.1202C17.961 12.9263 18.0909 12.7324 18.3526 12.6678C23.509 12.1508 26.707 3.03763 26.707 2.90837C26.7729 2.71447 26.9035 2.64984 27.0993 2.64984C27.2951 2.64984 27.4257 2.7791 27.4903 2.90837C27.4903 2.973 29.6445 9.69473 35.5848 12.6678C35.7807 12.7324 35.846 12.9263 35.7807 13.1202C35.7154 13.3141 35.5848 13.4434 35.389 13.4434H31.016C31.2765 13.7666 31.4723 14.0251 31.7334 14.3482C32.9737 15.964 34.214 17.5798 36.6293 18.8079C36.8251 18.8725 36.8904 19.0664 36.8251 19.2603C36.7599 19.4542 36.6293 19.5834 36.4335 19.5834H31.2112C31.4723 19.9066 31.7334 20.2298 31.9293 20.4883C33.3001 22.2334 34.6709 23.9784 37.2168 25.2711C37.412 25.3357 37.4779 25.5296 37.412 25.7235C37.1515 26.1759 36.9557 26.3052 36.7599 26.3052Z" fill="#1E81CE"/>
<path d="M17.5689 32.7681H2.8819C2.68607 32.7681 2.49023 32.5742 2.49023 32.3803C2.49023 32.1864 2.68607 31.9925 2.8819 31.9925H17.5689C17.7647 31.9925 17.9606 32.1864 17.9606 32.3803C18.0252 32.5742 17.83 32.7681 17.5689 32.7681Z" fill="#1E81CE"/>
<path d="M13.9133 31.1523H4.12214C3.92631 31.1523 3.73047 30.9584 3.73047 30.7646C3.73047 30.5707 3.92631 30.3768 4.12214 30.3768H13.9133C14.1091 30.3768 14.3049 30.5707 14.3049 30.7646C14.3049 30.9584 14.1744 31.1523 13.9133 31.1523Z" fill="#1E81CE"/>
<path d="M7.51662 1.80947C5.68883 2.64969 4.51381 4.45939 4.51381 6.52761C4.51381 9.43606 6.86383 11.7628 9.80071 11.7628C11.8896 11.7628 13.7174 10.5994 14.566 8.78974C13.848 9.1129 13.0646 9.30679 12.216 9.30679C9.27913 9.30679 6.92911 6.98004 6.92911 4.07159C6.99374 3.29601 7.19023 2.52042 7.51662 1.80947ZM9.86599 12.603C6.47216 12.603 3.73047 9.88848 3.73047 6.52761C3.73047 3.6838 5.68882 1.29242 8.43051 0.646095C8.6257 0.581463 8.75691 0.646095 8.88746 0.839992C8.9521 0.969255 8.9521 1.16315 8.88746 1.29242C8.23403 2.068 7.84237 3.10211 7.84237 4.13623C7.84237 6.59225 9.86599 8.59584 12.3466 8.59584C13.391 8.59584 14.3702 8.20805 15.2188 7.56173C15.3494 7.43246 15.5452 7.43246 15.6758 7.56173C15.8063 7.62636 15.8716 7.82025 15.8716 8.01415C15.1535 10.6641 12.673 12.603 9.86599 12.603Z" fill="#1E81CE"/>
<path d="M15.6765 36C15.6113 36 15.546 36 15.4807 35.9354C15.2849 35.8061 15.2196 35.5476 15.3501 35.3537L25.076 20.8115C25.1413 20.6822 25.2718 20.6176 25.4024 20.6176C25.5329 20.6176 25.6635 20.6822 25.7288 20.8115L28.7309 25.6589L34.7365 35.3537C34.8018 35.4829 34.8018 35.6122 34.7365 35.7415C34.6713 35.8707 34.5407 35.9354 34.4101 35.9354H25.3371C25.1413 35.9354 24.9454 35.7415 24.9454 35.5476C24.9454 35.3537 25.1413 35.1598 25.3371 35.1598H33.5615L27.9476 26.1113L25.2718 21.7809L16.0029 35.8061C15.9377 35.9354 15.8071 36 15.6765 36Z" fill="#1E81CE"/>
<path d="M1.25038 35.2244H24.9451V21.4578H11.3033L1.25038 35.2244ZM25.3368 36H0.467043C0.336486 36 0.20658 35.9354 0.075377 35.8061C-0.0551798 35.6768 0.0100986 35.4829 0.075377 35.3537L10.6498 20.8115C10.7151 20.6822 10.8457 20.6176 10.9762 20.6176H25.2715C25.4674 20.6176 25.6632 20.8115 25.6632 21.0054V35.5476C25.7285 35.8061 25.5979 36 25.3368 36Z" fill="#1E81CE"/>
<path d="M3.33995 18.6137C2.42606 18.6137 1.70799 19.3247 1.70799 20.2295C1.70799 21.1344 2.42606 21.8453 3.33995 21.8453C4.25385 21.8453 4.97191 21.1344 4.97191 20.2295C4.97191 19.3893 4.18857 18.6137 3.33995 18.6137ZM3.33995 22.6855C1.96911 22.6855 0.859375 21.5868 0.859375 20.2295C0.859375 18.8723 1.96911 17.7735 3.33995 17.7735C4.7108 17.7735 5.82053 18.8723 5.82053 20.2295C5.75526 21.5868 4.64552 22.6855 3.33995 22.6855Z" fill="#1E81CE"/>
<path d="M21.6808 0.840095C20.5711 0.840095 19.6572 1.74494 19.6572 2.84369C19.6572 3.94243 20.5711 4.84728 21.6808 4.84728C22.7906 4.84728 23.7045 3.94243 23.7045 2.84369C23.7045 1.74494 22.7906 0.840095 21.6808 0.840095ZM21.6808 5.6875C20.1142 5.6875 18.8086 4.39486 18.8086 2.84369C18.8086 1.29252 20.1142 -0.000121593 21.6808 -0.000121593C23.2475 -0.000121593 24.5531 1.29252 24.5531 2.84369C24.5531 4.39486 23.2475 5.6875 21.6808 5.6875Z" fill="#1E81CE"/>
<path d="M21.6821 0.45222C23.0529 0.45222 24.1627 1.55097 24.1627 2.90824C24.1627 4.26551 23.0529 5.36426 21.6821 5.36426C20.3119 5.36426 19.2021 4.26551 19.2021 2.90824C19.2021 1.55097 20.3119 0.45222 21.6821 0.45222Z" fill="white"/>
<path d="M3.33943 18.2262C4.44916 18.2262 5.36305 19.1311 5.36305 20.2298C5.36305 21.3285 4.44916 22.2334 3.33943 22.2334C2.22969 22.2334 1.31579 21.3285 1.31579 20.2298C1.25051 19.1311 2.16441 18.2262 3.33943 18.2262Z" fill="white"/>
<path d="M12.2812 8.91928C13.4562 8.91928 14.566 8.53148 15.4146 7.82053C14.8271 10.2765 12.5423 12.1509 9.86591 12.1509C6.7332 12.1509 4.12207 9.63023 4.12207 6.46326C4.12207 3.81334 6.01514 1.55122 8.49572 0.969532C7.77701 1.80975 7.38599 2.90849 7.38599 4.07187C7.38599 6.78642 9.60545 8.91928 12.2812 8.91928Z" fill="white"/>
<path d="M31.8641 35.6123H25.3369V26.6931C26.9036 33.9965 31.8641 35.6123 31.8641 35.6123Z" fill="#9BC9FF"/>
<path d="M25.3364 26.6931V35.6123H18.8086C18.8086 35.6123 23.7698 33.9965 25.3364 26.6931Z" fill="#9BC9FF"/>
<path d="M34.3447 35.6123H31.8641C31.8641 35.6123 26.9036 33.9965 25.3369 26.6931V21.0055C26.1203 22.2981 33.6266 34.5136 34.3447 35.6123Z" fill="white"/>
<path d="M25.3362 21.0699V26.7575C23.7695 34.061 18.8083 35.6768 18.8083 35.6768C18.025 35.6768 16.1979 35.6768 15.6104 35.6768C15.8062 35.3536 25.0098 21.5223 25.3362 21.0699Z" fill="white"/>
<path d="M17.7659 32.4453L15.677 35.6123H0.467773L2.81779 32.3161L2.88307 32.3807H17.5701L17.7659 32.4453Z" fill="#9BC9FF"/>
<path d="M2.81738 32.316L11.0418 21.0701C16.003 21.0701 22.5302 21.0701 25.3371 21.0701L17.7655 32.4453L17.6343 32.3807L2.81738 32.316Z" fill="#9BC9FF"/>
<path d="M36.7597 25.9175C35.7805 25.9175 29.4485 25.9175 28.3387 25.9175L25.3366 21.0701H22.856C23.2477 20.553 23.6394 19.9713 24.031 19.4543H17.0469C20.3761 19.1311 22.3338 16.0288 24.2269 13.3142H18.0254C23.5088 12.7972 26.7727 3.29626 26.7727 3.29626C26.7727 3.29626 28.9269 10.2119 35.0624 13.3142H29.8401C31.6679 15.3825 32.8429 17.8385 36.1069 19.4543H30.036C31.9943 21.6518 33.2999 24.1724 36.7597 25.9175Z" fill="#9BC9FF"/>
<path d="M31.8632 36C31.798 36 31.798 36 31.7327 36C31.6674 36 30.3618 35.5476 28.9264 34.1903C27.5549 32.9623 25.793 30.7002 24.9444 26.8222C24.8791 26.6283 25.0097 26.3698 25.2708 26.3698C25.4666 26.3052 25.7277 26.4345 25.7277 26.693C26.5111 30.3124 28.143 32.4452 29.3833 33.6086C30.7535 34.8366 31.9285 35.2244 31.9285 35.289C32.1244 35.3537 32.2549 35.6122 32.1896 35.8061C32.1896 35.8707 32.0591 36 31.8632 36Z" fill="#1E81CE"/>
<path d="M18.8094 36C18.6142 36 18.483 35.8707 18.4184 35.7415C18.3531 35.5476 18.483 35.289 18.6795 35.2244C18.6795 35.2244 19.8539 34.8366 21.2247 33.544C22.465 32.3806 24.1622 30.2477 24.8803 26.6283C24.9456 26.4345 25.1414 26.2406 25.3373 26.3052C25.5331 26.3698 25.7289 26.5637 25.6637 26.7576C24.815 30.6355 23.0525 32.8977 21.6817 34.1257C20.1803 35.4829 18.8747 35.8707 18.8747 35.9354C18.8747 36 18.8747 36 18.8094 36Z" fill="#1E81CE"/>
<path d="M36.7599 26.3052H28.3389C28.1437 26.3052 27.9473 26.1113 27.9473 25.9174C27.9473 25.7235 28.1437 25.5296 28.3389 25.5296H35.2584C33.3654 24.3016 32.1904 22.7504 31.016 21.2639C30.6237 20.7468 30.1674 20.2298 29.7757 19.7127C29.6445 19.5834 29.6445 19.4542 29.7098 19.2603C29.7757 19.131 29.9056 19.0018 30.1015 19.0018H34.6709C32.9737 17.8384 31.864 16.4811 30.8195 15.1238C30.4279 14.6068 30.0362 14.0897 29.5792 13.5727C29.4487 13.4434 29.4487 13.3141 29.5139 13.1202C29.5792 12.991 29.7098 12.8617 29.9056 12.8617H33.6265C31.0806 11.2459 29.384 8.98378 28.3389 7.30335C27.6215 6.13997 27.1646 5.10586 26.8382 4.3949C26.4465 5.29975 25.7937 6.78629 24.8798 8.27283C23.509 10.4703 22.0729 12.0215 20.5715 12.8617H24.2923C24.4229 12.8617 24.5534 12.9263 24.684 13.0556C24.7493 13.1849 24.7493 13.3788 24.684 13.4434C24.5534 13.6373 24.4229 13.8312 24.2923 14.0251C22.9215 15.8994 21.5506 17.8384 19.7228 18.9371H24.2271C24.3576 18.9371 24.4882 19.0018 24.6187 19.131C24.684 19.2603 24.684 19.4542 24.6187 19.5188C24.4882 19.6481 24.4229 19.842 24.2923 19.9712C24.0312 20.359 23.7701 20.7468 23.4437 21.1346C23.3131 21.3285 23.052 21.3285 22.8562 21.1992C22.6604 21.07 22.6604 20.8114 22.7909 20.6176C23.052 20.2944 23.2479 19.9712 23.509 19.6481H17.2429C17.0471 19.6481 16.8506 19.4542 16.8506 19.2603C16.8506 19.0664 16.9818 18.8725 17.2429 18.8079C20.1145 18.5493 21.9423 15.964 23.7048 13.508H18.3526C18.1568 13.508 17.961 13.3141 17.961 13.1202C17.961 12.9263 18.0909 12.7324 18.3526 12.6678C23.509 12.1508 26.707 3.03763 26.707 2.90837C26.7729 2.71447 26.9035 2.64984 27.0993 2.64984C27.2951 2.64984 27.4257 2.7791 27.4903 2.90837C27.4903 2.973 29.6445 9.69473 35.5848 12.6678C35.7807 12.7324 35.846 12.9263 35.7807 13.1202C35.7154 13.3141 35.5848 13.4434 35.389 13.4434H31.016C31.2765 13.7666 31.4723 14.0251 31.7334 14.3482C32.9737 15.964 34.214 17.5798 36.6293 18.8079C36.8251 18.8725 36.8904 19.0664 36.8251 19.2603C36.7599 19.4542 36.6293 19.5834 36.4335 19.5834H31.2112C31.4723 19.9066 31.7334 20.2298 31.9293 20.4883C33.3001 22.2334 34.6709 23.9784 37.2168 25.2711C37.412 25.3357 37.4779 25.5296 37.412 25.7235C37.1515 26.1759 36.9557 26.3052 36.7599 26.3052Z" fill="#1E81CE"/>
<path d="M17.5689 32.7681H2.8819C2.68607 32.7681 2.49023 32.5742 2.49023 32.3803C2.49023 32.1864 2.68607 31.9925 2.8819 31.9925H17.5689C17.7647 31.9925 17.9606 32.1864 17.9606 32.3803C18.0252 32.5742 17.83 32.7681 17.5689 32.7681Z" fill="#1E81CE"/>
<path d="M13.9133 31.1523H4.12214C3.92631 31.1523 3.73047 30.9584 3.73047 30.7646C3.73047 30.5707 3.92631 30.3768 4.12214 30.3768H13.9133C14.1091 30.3768 14.3049 30.5707 14.3049 30.7646C14.3049 30.9584 14.1744 31.1523 13.9133 31.1523Z" fill="#1E81CE"/>
<path d="M7.51662 1.80947C5.68883 2.64969 4.51381 4.45939 4.51381 6.52761C4.51381 9.43606 6.86383 11.7628 9.80071 11.7628C11.8896 11.7628 13.7174 10.5994 14.566 8.78974C13.848 9.1129 13.0646 9.30679 12.216 9.30679C9.27913 9.30679 6.92911 6.98004 6.92911 4.07159C6.99374 3.29601 7.19023 2.52042 7.51662 1.80947ZM9.86599 12.603C6.47216 12.603 3.73047 9.88848 3.73047 6.52761C3.73047 3.6838 5.68882 1.29242 8.43051 0.646095C8.6257 0.581463 8.75691 0.646095 8.88746 0.839992C8.9521 0.969255 8.9521 1.16315 8.88746 1.29242C8.23403 2.068 7.84237 3.10211 7.84237 4.13623C7.84237 6.59225 9.86599 8.59584 12.3466 8.59584C13.391 8.59584 14.3702 8.20805 15.2188 7.56173C15.3494 7.43246 15.5452 7.43246 15.6758 7.56173C15.8063 7.62636 15.8716 7.82025 15.8716 8.01415C15.1535 10.6641 12.673 12.603 9.86599 12.603Z" fill="#1E81CE"/>
<path d="M15.6765 36C15.6113 36 15.546 36 15.4807 35.9354C15.2849 35.8061 15.2196 35.5476 15.3501 35.3537L25.076 20.8115C25.1413 20.6822 25.2718 20.6176 25.4024 20.6176C25.5329 20.6176 25.6635 20.6822 25.7288 20.8115L28.7309 25.6589L34.7365 35.3537C34.8018 35.4829 34.8018 35.6122 34.7365 35.7415C34.6713 35.8707 34.5407 35.9354 34.4101 35.9354H25.3371C25.1413 35.9354 24.9454 35.7415 24.9454 35.5476C24.9454 35.3537 25.1413 35.1598 25.3371 35.1598H33.5615L27.9476 26.1113L25.2718 21.7809L16.0029 35.8061C15.9377 35.9354 15.8071 36 15.6765 36Z" fill="#1E81CE"/>
<path d="M1.25038 35.2244H24.9451V21.4578H11.3033L1.25038 35.2244ZM25.3368 36H0.467043C0.336486 36 0.20658 35.9354 0.075377 35.8061C-0.0551798 35.6768 0.0100986 35.4829 0.075377 35.3537L10.6498 20.8115C10.7151 20.6822 10.8457 20.6176 10.9762 20.6176H25.2715C25.4674 20.6176 25.6632 20.8115 25.6632 21.0054V35.5476C25.7285 35.8061 25.5979 36 25.3368 36Z" fill="#1E81CE"/>
<path d="M3.33995 18.6137C2.42606 18.6137 1.70799 19.3247 1.70799 20.2295C1.70799 21.1344 2.42606 21.8453 3.33995 21.8453C4.25385 21.8453 4.97191 21.1344 4.97191 20.2295C4.97191 19.3893 4.18857 18.6137 3.33995 18.6137ZM3.33995 22.6855C1.96911 22.6855 0.859375 21.5868 0.859375 20.2295C0.859375 18.8723 1.96911 17.7735 3.33995 17.7735C4.7108 17.7735 5.82053 18.8723 5.82053 20.2295C5.75526 21.5868 4.64552 22.6855 3.33995 22.6855Z" fill="#1E81CE"/>
<path d="M21.6808 0.840095C20.5711 0.840095 19.6572 1.74494 19.6572 2.84369C19.6572 3.94243 20.5711 4.84728 21.6808 4.84728C22.7906 4.84728 23.7045 3.94243 23.7045 2.84369C23.7045 1.74494 22.7906 0.840095 21.6808 0.840095ZM21.6808 5.6875C20.1142 5.6875 18.8086 4.39486 18.8086 2.84369C18.8086 1.29252 20.1142 -0.000121593 21.6808 -0.000121593C23.2475 -0.000121593 24.5531 1.29252 24.5531 2.84369C24.5531 4.39486 23.2475 5.6875 21.6808 5.6875Z" fill="#1E81CE"/>
</svg>
