<svg width="31" height="31" viewBox="0 0 31 31" fill="none" xmlns="http://www.w3.org/2000/svg">
<path d="M17.0007 9.26418C18.2047 9.49907 19.3111 10.0879 20.1785 10.9552C21.0459 11.8226 21.6347 12.929 21.8695 14.133M17.0007 4.33374C19.502 4.61162 21.8345 5.73173 23.6152 7.51019C25.3959 9.28863 26.519 11.6197 26.7999 14.1207M22.4858 27.7533C11.9342 27.7533 3.38037 19.1995 3.38037 8.64787C3.38037 8.17181 3.39779 7.69982 3.432 7.2325C3.47128 6.69618 3.49091 6.42803 3.63145 6.18392C3.74786 5.98175 3.95415 5.79002 4.16429 5.68869C4.41799 5.56635 4.71391 5.56635 5.30572 5.56635H8.77836C9.27604 5.56635 9.52488 5.56635 9.73819 5.64826C9.92662 5.72061 10.0944 5.83813 10.2268 5.99049C10.3767 6.16297 10.4617 6.39683 10.6318 6.86454L12.0692 10.8173C12.267 11.3615 12.366 11.6336 12.3492 11.8917C12.3344 12.1194 12.2566 12.3384 12.1247 12.5245C11.9752 12.7355 11.7269 12.8845 11.2304 13.1824L9.54342 14.1946C11.0249 17.4597 13.6728 20.111 16.9391 21.5903L17.9513 19.9033C18.2492 19.4067 18.3981 19.1585 18.6091 19.0089C18.7953 18.877 19.0143 18.7993 19.242 18.7845C19.5001 18.7677 19.7722 18.8667 20.3164 19.0645L24.2691 20.5019C24.7368 20.672 24.9707 20.757 25.1432 20.9069C25.2955 21.0393 25.4131 21.207 25.4854 21.3955C25.5673 21.6088 25.5673 21.8576 25.5673 22.3553V25.828C25.5673 26.4197 25.5673 26.7157 25.4449 26.9694C25.3436 27.1795 25.1519 27.3859 24.9498 27.5022C24.7056 27.6427 24.4375 27.6623 23.9012 27.7017C23.4338 27.7359 22.9618 27.7533 22.4858 27.7533Z" stroke="#0E082B" stroke-width="1.76087" stroke-linecap="round" stroke-linejoin="round"/>
</svg>
