<svg width="20" height="20" viewBox="0 0 20 20" fill="none" xmlns="http://www.w3.org/2000/svg">
<g clip-path="url(#clip0_569_77522)">
<path d="M10 19C15.0741 19 19.1875 14.8866 19.1875 9.8125C19.1875 4.73838 15.0741 0.625 10 0.625C4.92588 0.625 0.8125 4.73838 0.8125 9.8125C0.8125 14.8866 4.92588 19 10 19Z" stroke="#101010" stroke-width="1.2" stroke-linecap="round" stroke-linejoin="round"/>
<path d="M7.78641 18.7283C6.54344 16.9055 5.71289 13.5931 5.71289 9.80944C5.71289 6.02583 6.54344 2.71343 7.78641 0.890625" stroke="#101010" stroke-width="1.2" stroke-linecap="round" stroke-linejoin="round"/>
<path d="M0.8125 9.8125H19.1875" stroke="#101010" stroke-width="1.2" stroke-linecap="round" stroke-linejoin="round"/>
<path d="M2.22656 14.7109H17.7726" stroke="#101010" stroke-width="1.2" stroke-linecap="round" stroke-linejoin="round"/>
<path d="M2.22656 4.91406H17.7726" stroke="#101010" stroke-width="1.2" stroke-linecap="round" stroke-linejoin="round"/>
<path d="M12.2148 0.890625C13.4578 2.71343 14.2884 6.02583 14.2884 9.80944C14.2884 13.5931 13.4578 16.9055 12.2148 18.7283" stroke="#101010" stroke-width="1.2" stroke-linecap="round" stroke-linejoin="round"/>
</g>
<defs>
<clipPath id="clip0_569_77522">
<rect width="20" height="20" fill="white"/>
</clipPath>
</defs>
</svg>
