<svg width="170" height="170" viewBox="0 0 170 170" fill="none" xmlns="http://www.w3.org/2000/svg">
<path d="M85 134.583V35.4167M85 134.583L70.5004 148.75M85 134.583L99.4996 148.75M85 35.4167L70.5004 21.25M85 35.4167L99.4996 21.25M41.055 109.792L128.945 60.2083M41.055 109.792L21.25 104.607M41.055 109.792L35.7425 129.143M128.945 60.2083L134.25 40.8567M128.945 60.2083L148.75 65.3933M148.75 104.607L128.945 109.792M128.945 109.792L134.258 129.143M128.945 109.792L41.055 60.2083M35.7496 40.8567L41.055 60.2083M41.055 60.2083L21.25 65.3933" stroke="#101010" stroke-width="5" stroke-linecap="round" stroke-linejoin="round"/>
</svg>
