<svg width="43" height="36" viewBox="0 0 43 36" fill="none" xmlns="http://www.w3.org/2000/svg">
<path d="M4.2757 0.529442C5.57426 0.529442 6.64368 1.58826 6.64368 2.87397C6.64368 4.15969 5.57426 5.21851 4.2757 5.21851C2.97713 5.21851 1.90771 4.15969 1.90771 2.87397C1.90771 1.58826 2.97713 0.529442 4.2757 0.529442Z" fill="white"/>
<path d="M28.1835 4.31107V6.6556C28.1835 8.24383 26.885 9.52954 25.2808 9.52954C23.6767 9.52954 22.3789 8.24383 22.3789 6.6556V3.32788H28.1071V4.31107H28.1835Z" fill="white"/>
<path d="M20.0104 3.40356V6.73128C20.0104 8.31951 18.7119 9.60522 17.1078 9.60522C15.5036 9.60522 14.2051 8.31951 14.2051 6.73128V4.38675V3.40356H20.0104Z" fill="white"/>
<path d="M35.3647 28.4369L37.732 35.5461H33.9134L31.5454 28.4369H35.3647Z" fill="white"/>
<path d="M31.0107 15.2016L33.5315 22.7646H29.7122L27.1914 15.2016H31.0107Z" fill="white"/>
<path d="M10.9222 28.4369L8.55418 35.5461H4.73486L7.10284 28.4369H10.9222Z" fill="white"/>
<path d="M15.2761 15.2016L12.7554 22.7646H8.93604L11.4568 15.2016H15.2761Z" fill="white"/>
<path d="M39.6405 22.7648L42.0085 28.437H0.456543L2.82452 22.7648H8.93468H12.754H29.711H33.5303H39.6405Z" fill="#9BC9FF"/>
<path d="M33.914 9.52941L36.2813 15.2017H6.18652L8.55451 9.52941H17.1854H25.2824H33.914Z" fill="#9BC9FF"/>
<path d="M36.2798 15.6555H31.0099C30.7808 15.6555 30.5509 15.4286 30.5509 15.2017C30.5509 14.9748 30.7808 14.748 31.0099 14.748H35.5167L33.5307 9.98326H8.93502L6.94896 14.748H11.4557C11.6849 14.748 11.9148 14.9748 11.9148 15.2017C11.9148 15.4286 11.6849 15.6555 11.4557 15.6555H6.18509C6.03307 15.6555 5.88029 15.5799 5.80391 15.4286C5.72752 15.2774 5.72754 15.1261 5.72754 14.9748L8.09552 9.30259C8.17115 9.15133 8.32467 9.00007 8.55307 9.00007H33.8354C34.0654 9.00007 34.2174 9.15133 34.2938 9.30259L36.6617 14.9748C36.7381 15.1261 36.7381 15.2774 36.5853 15.4286C36.5853 15.5799 36.4334 15.6555 36.2798 15.6555Z" fill="#1E81CE"/>
<path d="M27.1895 15.6555H15.274C15.0448 15.6555 14.8164 15.4286 14.8164 15.2017C14.8164 14.9748 15.0448 14.748 15.274 14.748H27.1895C27.4187 14.748 27.6478 14.9748 27.6478 15.2017C27.6478 15.5043 27.495 15.6555 27.1895 15.6555Z" fill="#1E81CE"/>
<path d="M12.7546 23.2186C12.6782 23.2186 12.6782 23.2186 12.6018 23.2186C12.3727 23.143 12.2199 22.8405 12.297 22.6136L14.5879 15.6556H11.7616L9.39437 22.9161C9.31722 23.143 9.01243 23.2942 8.78327 23.2186C8.55335 23.143 8.40058 22.8405 8.47772 22.6136L10.9985 15.0506C11.0741 14.8237 11.2269 14.748 11.456 14.748H15.2753C15.4281 14.748 15.5809 14.8237 15.6573 14.9749C15.7337 15.1262 15.8101 15.2775 15.7337 15.4287L13.2129 22.9917C13.1366 23.143 12.9838 23.2186 12.7546 23.2186Z" fill="#1E81CE"/>
<path d="M8.55393 36C8.4783 36 8.4783 36 8.40115 36C8.17199 35.9244 8.01924 35.6218 8.09638 35.395L10.4644 28.2857C10.54 28.0588 10.8463 27.9076 11.0747 27.9832C11.3038 28.0588 11.4566 28.3614 11.381 28.5883L9.01302 35.6975C8.93588 35.8487 8.78384 36 8.55393 36Z" fill="#1E81CE"/>
<path d="M4.73376 36C4.65813 36 4.65815 36 4.58177 36C4.35261 35.9244 4.19983 35.6218 4.27622 35.395L6.6442 28.2857C6.71983 28.0588 7.02612 27.9076 7.25452 27.9832C7.48368 28.0588 7.63644 28.3614 7.56081 28.5883L5.19286 35.6975C5.11648 35.8487 4.96368 36 4.73376 36Z" fill="#1E81CE"/>
<path d="M33.5317 23.2186C33.3025 23.2186 33.1497 23.0673 33.0726 22.9161L30.7046 15.6556H27.8791L30.1699 22.6136C30.2471 22.8405 30.0943 23.143 29.8652 23.2186C29.636 23.2942 29.3304 23.143 29.2533 22.9161L26.7333 15.3531C26.6569 15.2018 26.7333 15.0506 26.8097 14.8993C26.8861 14.748 27.0389 14.6724 27.1916 14.6724H31.0109C31.2393 14.6724 31.3929 14.8237 31.4685 14.9749L33.9892 22.5379C34.0664 22.7648 33.9136 23.0673 33.6845 23.143C33.6073 23.2186 33.5317 23.2186 33.5317 23.2186Z" fill="#1E81CE"/>
<path d="M37.7304 36C37.5012 36 37.3485 35.8487 37.2721 35.6975L34.9041 28.5883C34.8277 28.3614 34.9812 28.0588 35.2096 27.9832C35.4388 27.9076 35.7443 28.0588 35.8207 28.2857L38.1887 35.395C38.2651 35.6218 38.1123 35.9244 37.8839 36C37.8068 36 37.7304 36 37.7304 36Z" fill="#1E81CE"/>
<path d="M33.9135 36C33.6843 36 33.5316 35.8487 33.4544 35.6975L31.0864 28.5883C31.0108 28.3614 31.1636 28.0588 31.3927 27.9832C31.6211 27.9076 31.9274 28.0588 32.0031 28.2857L34.3711 35.395C34.4482 35.6218 34.2947 35.9244 34.0662 36C33.9891 36 33.9135 36 33.9135 36Z" fill="#1E81CE"/>
<path d="M1.14505 27.9833H41.2456L39.2596 23.2186H3.20748L1.14505 27.9833ZM42.0095 28.8909H0.457584C0.304811 28.8909 0.152016 28.8152 0.0756301 28.664C0 28.5127 0 28.3615 0 28.2102L2.36724 22.5379C2.44363 22.3867 2.59641 22.2354 2.82557 22.2354H39.5651C39.7943 22.2354 39.9471 22.3867 40.0234 22.5379L42.3914 28.2102C42.3914 28.2858 42.4678 28.3615 42.4678 28.4371C42.4678 28.7396 42.2379 28.8909 42.0095 28.8909Z" fill="#1E81CE"/>
<path d="M40.5571 36H0.915604C0.685689 36 0.456543 35.7731 0.456543 35.5462C0.456543 35.3193 0.685689 35.0924 0.915604 35.0924H40.5571C40.7855 35.0924 41.0154 35.3193 41.0154 35.5462C41.0154 35.7731 40.8626 36 40.5571 36Z" fill="#1E81CE"/>
<path d="M25.2809 9.9834C23.4484 9.9834 21.9199 8.4708 21.9199 6.65568V3.32795C21.9199 3.10106 22.1498 2.87417 22.379 2.87417H28.1072C28.3364 2.87417 28.5655 3.10106 28.5655 3.32795V4.31114C28.5655 4.53803 28.3364 4.76492 28.1072 4.76492C27.8781 4.76492 27.6489 4.53803 27.6489 4.31114V3.85736H22.8366V6.73131C22.8366 8.01702 23.9059 9.07584 25.2045 9.07584C26.5031 9.07584 27.5725 8.01702 27.5725 6.73131C27.5725 6.50442 27.8009 6.27753 28.0308 6.27753C28.26 6.27753 28.4891 6.50442 28.4891 6.73131C28.6419 8.54643 27.1142 9.9834 25.2809 9.9834Z" fill="#1E81CE"/>
<path d="M28.6429 4.84053V6.2775C29.1776 6.20187 29.6359 5.74809 29.6359 5.14305V4.84053H28.6429ZM28.4138 7.18506H28.1082C27.8791 7.18506 27.6499 6.95817 27.6499 6.73128V4.38675C27.6499 4.15986 27.8791 3.93297 28.1082 3.93297H30.0171C30.247 3.93297 30.4762 4.15986 30.4762 4.38675V5.14305C30.5518 6.2775 29.636 7.18506 28.4138 7.18506Z" fill="#1E81CE"/>
<path d="M17.1852 9.9834C15.3526 9.9834 13.8249 8.4708 13.8249 6.65568C13.8249 6.42879 14.0541 6.2019 14.2832 6.2019C14.5124 6.2019 14.7415 6.42879 14.7415 6.65568C14.7415 7.94139 15.811 9.00021 17.1095 9.00021C18.4081 9.00021 19.4775 7.94139 19.4775 6.65568V3.78173H14.6652V4.23551C14.6652 4.4624 14.436 4.68929 14.2069 4.68929C13.9777 4.68929 13.7485 4.4624 13.7485 4.23551V3.25232C13.7485 3.02543 13.9777 2.79854 14.2069 2.79854H19.9351C20.165 2.79854 20.3942 3.02543 20.3942 3.25232V6.58005C20.5469 8.54643 19.0184 9.9834 17.1852 9.9834Z" fill="#1E81CE"/>
<path d="M12.9078 4.84053V5.14305C12.9078 5.67246 13.2897 6.20187 13.9008 6.2775V4.84053H12.9078ZM14.2827 7.18506H13.9772C12.8321 7.18506 11.8384 6.2775 11.8384 5.06742V4.31112C11.8384 4.08423 12.0683 3.85734 12.2974 3.85734H14.2064C14.4355 3.85734 14.6647 4.08423 14.6647 4.31112V6.65565C14.8182 6.95817 14.5883 7.18506 14.2827 7.18506Z" fill="#1E81CE"/>
<path d="M22.9142 25.6387H10.0049C9.77575 25.6387 9.54736 25.4118 9.54736 25.1849C9.54736 24.958 9.77575 24.7311 10.0049 24.7311H22.9142C23.1426 24.7311 23.3718 24.958 23.3718 25.1849C23.3718 25.4118 23.1426 25.6387 22.9142 25.6387Z" fill="#1E81CE"/>
<path d="M4.27621 1.05898C3.2068 1.05898 2.36655 1.89091 2.36655 2.94973C2.36655 4.00856 3.2068 4.84049 4.27621 4.84049C5.34562 4.84049 6.18509 4.00856 6.18509 2.94973C6.18509 1.89091 5.34562 1.05898 4.27621 1.05898ZM4.27621 5.74805C2.67209 5.74805 1.37354 4.46234 1.37354 2.8741C1.37354 1.28587 2.67209 0.000162125 4.27621 0.000162125C5.88032 0.000162125 7.17888 1.28587 7.17888 2.8741C7.17888 4.46234 5.88032 5.74805 4.27621 5.74805Z" fill="#1E81CE"/>
<path d="M4.2757 0.529442C5.57426 0.529442 6.64368 1.58826 6.64368 2.87397C6.64368 4.15969 5.57426 5.21851 4.2757 5.21851C2.97713 5.21851 1.90771 4.15969 1.90771 2.87397C1.90771 1.58826 2.97713 0.529442 4.2757 0.529442Z" fill="white"/>
<path d="M28.1835 4.31107V6.6556C28.1835 8.24383 26.885 9.52954 25.2808 9.52954C23.6767 9.52954 22.3789 8.24383 22.3789 6.6556V3.32788H28.1071V4.31107H28.1835Z" fill="white"/>
<path d="M20.0104 3.40356V6.73128C20.0104 8.31951 18.7119 9.60522 17.1078 9.60522C15.5036 9.60522 14.2051 8.31951 14.2051 6.73128V4.38675V3.40356H20.0104Z" fill="white"/>
<path d="M35.3647 28.4369L37.732 35.5461H33.9134L31.5454 28.4369H35.3647Z" fill="white"/>
<path d="M31.0107 15.2016L33.5315 22.7646H29.7122L27.1914 15.2016H31.0107Z" fill="white"/>
<path d="M10.9222 28.4369L8.55418 35.5461H4.73486L7.10284 28.4369H10.9222Z" fill="white"/>
<path d="M15.2761 15.2016L12.7554 22.7646H8.93604L11.4568 15.2016H15.2761Z" fill="white"/>
<path d="M39.6405 22.7648L42.0085 28.437H0.456543L2.82452 22.7648H8.93468H12.754H29.711H33.5303H39.6405Z" fill="#9BC9FF"/>
<path d="M33.914 9.52941L36.2813 15.2017H6.18652L8.55451 9.52941H17.1854H25.2824H33.914Z" fill="#9BC9FF"/>
<path d="M36.2798 15.6555H31.0099C30.7808 15.6555 30.5509 15.4286 30.5509 15.2017C30.5509 14.9748 30.7808 14.748 31.0099 14.748H35.5167L33.5307 9.98326H8.93502L6.94896 14.748H11.4557C11.6849 14.748 11.9148 14.9748 11.9148 15.2017C11.9148 15.4286 11.6849 15.6555 11.4557 15.6555H6.18509C6.03307 15.6555 5.88029 15.5799 5.80391 15.4286C5.72752 15.2774 5.72754 15.1261 5.72754 14.9748L8.09552 9.30259C8.17115 9.15133 8.32467 9.00007 8.55307 9.00007H33.8354C34.0654 9.00007 34.2174 9.15133 34.2938 9.30259L36.6617 14.9748C36.7381 15.1261 36.7381 15.2774 36.5853 15.4286C36.5853 15.5799 36.4334 15.6555 36.2798 15.6555Z" fill="#1E81CE"/>
<path d="M27.1895 15.6555H15.274C15.0448 15.6555 14.8164 15.4286 14.8164 15.2017C14.8164 14.9748 15.0448 14.748 15.274 14.748H27.1895C27.4187 14.748 27.6478 14.9748 27.6478 15.2017C27.6478 15.5043 27.495 15.6555 27.1895 15.6555Z" fill="#1E81CE"/>
<path d="M12.7546 23.2186C12.6782 23.2186 12.6782 23.2186 12.6018 23.2186C12.3727 23.143 12.2199 22.8405 12.297 22.6136L14.5879 15.6556H11.7616L9.39437 22.9161C9.31722 23.143 9.01243 23.2942 8.78327 23.2186C8.55335 23.143 8.40058 22.8405 8.47772 22.6136L10.9985 15.0506C11.0741 14.8237 11.2269 14.748 11.456 14.748H15.2753C15.4281 14.748 15.5809 14.8237 15.6573 14.9749C15.7337 15.1262 15.8101 15.2775 15.7337 15.4287L13.2129 22.9917C13.1366 23.143 12.9838 23.2186 12.7546 23.2186Z" fill="#1E81CE"/>
<path d="M8.55393 36C8.4783 36 8.4783 36 8.40115 36C8.17199 35.9244 8.01924 35.6218 8.09638 35.395L10.4644 28.2857C10.54 28.0588 10.8463 27.9076 11.0747 27.9832C11.3038 28.0588 11.4566 28.3614 11.381 28.5883L9.01302 35.6975C8.93588 35.8487 8.78384 36 8.55393 36Z" fill="#1E81CE"/>
<path d="M4.73376 36C4.65813 36 4.65815 36 4.58177 36C4.35261 35.9244 4.19983 35.6218 4.27622 35.395L6.6442 28.2857C6.71983 28.0588 7.02612 27.9076 7.25452 27.9832C7.48368 28.0588 7.63644 28.3614 7.56081 28.5883L5.19286 35.6975C5.11648 35.8487 4.96368 36 4.73376 36Z" fill="#1E81CE"/>
<path d="M33.5317 23.2186C33.3025 23.2186 33.1497 23.0673 33.0726 22.9161L30.7046 15.6556H27.8791L30.1699 22.6136C30.2471 22.8405 30.0943 23.143 29.8652 23.2186C29.636 23.2942 29.3304 23.143 29.2533 22.9161L26.7333 15.3531C26.6569 15.2018 26.7333 15.0506 26.8097 14.8993C26.8861 14.748 27.0389 14.6724 27.1916 14.6724H31.0109C31.2393 14.6724 31.3929 14.8237 31.4685 14.9749L33.9892 22.5379C34.0664 22.7648 33.9136 23.0673 33.6845 23.143C33.6073 23.2186 33.5317 23.2186 33.5317 23.2186Z" fill="#1E81CE"/>
<path d="M37.7304 36C37.5012 36 37.3485 35.8487 37.2721 35.6975L34.9041 28.5883C34.8277 28.3614 34.9812 28.0588 35.2096 27.9832C35.4388 27.9076 35.7443 28.0588 35.8207 28.2857L38.1887 35.395C38.2651 35.6218 38.1123 35.9244 37.8839 36C37.8068 36 37.7304 36 37.7304 36Z" fill="#1E81CE"/>
<path d="M33.9135 36C33.6843 36 33.5316 35.8487 33.4544 35.6975L31.0864 28.5883C31.0108 28.3614 31.1636 28.0588 31.3927 27.9832C31.6211 27.9076 31.9274 28.0588 32.0031 28.2857L34.3711 35.395C34.4482 35.6218 34.2947 35.9244 34.0662 36C33.9891 36 33.9135 36 33.9135 36Z" fill="#1E81CE"/>
<path d="M1.14505 27.9833H41.2456L39.2596 23.2186H3.20748L1.14505 27.9833ZM42.0095 28.8909H0.457584C0.304811 28.8909 0.152016 28.8152 0.0756301 28.664C0 28.5127 0 28.3615 0 28.2102L2.36724 22.5379C2.44363 22.3867 2.59641 22.2354 2.82557 22.2354H39.5651C39.7943 22.2354 39.9471 22.3867 40.0234 22.5379L42.3914 28.2102C42.3914 28.2858 42.4678 28.3615 42.4678 28.4371C42.4678 28.7396 42.2379 28.8909 42.0095 28.8909Z" fill="#1E81CE"/>
<path d="M40.5571 36H0.915604C0.685689 36 0.456543 35.7731 0.456543 35.5462C0.456543 35.3193 0.685689 35.0924 0.915604 35.0924H40.5571C40.7855 35.0924 41.0154 35.3193 41.0154 35.5462C41.0154 35.7731 40.8626 36 40.5571 36Z" fill="#1E81CE"/>
<path d="M25.2809 9.9834C23.4484 9.9834 21.9199 8.4708 21.9199 6.65568V3.32795C21.9199 3.10106 22.1498 2.87417 22.379 2.87417H28.1072C28.3364 2.87417 28.5655 3.10106 28.5655 3.32795V4.31114C28.5655 4.53803 28.3364 4.76492 28.1072 4.76492C27.8781 4.76492 27.6489 4.53803 27.6489 4.31114V3.85736H22.8366V6.73131C22.8366 8.01702 23.9059 9.07584 25.2045 9.07584C26.5031 9.07584 27.5725 8.01702 27.5725 6.73131C27.5725 6.50442 27.8009 6.27753 28.0308 6.27753C28.26 6.27753 28.4891 6.50442 28.4891 6.73131C28.6419 8.54643 27.1142 9.9834 25.2809 9.9834Z" fill="#1E81CE"/>
<path d="M28.6429 4.84053V6.2775C29.1776 6.20187 29.6359 5.74809 29.6359 5.14305V4.84053H28.6429ZM28.4138 7.18506H28.1082C27.8791 7.18506 27.6499 6.95817 27.6499 6.73128V4.38675C27.6499 4.15986 27.8791 3.93297 28.1082 3.93297H30.0171C30.247 3.93297 30.4762 4.15986 30.4762 4.38675V5.14305C30.5518 6.2775 29.636 7.18506 28.4138 7.18506Z" fill="#1E81CE"/>
<path d="M17.1852 9.9834C15.3526 9.9834 13.8249 8.4708 13.8249 6.65568C13.8249 6.42879 14.0541 6.2019 14.2832 6.2019C14.5124 6.2019 14.7415 6.42879 14.7415 6.65568C14.7415 7.94139 15.811 9.00021 17.1095 9.00021C18.4081 9.00021 19.4775 7.94139 19.4775 6.65568V3.78173H14.6652V4.23551C14.6652 4.4624 14.436 4.68929 14.2069 4.68929C13.9777 4.68929 13.7485 4.4624 13.7485 4.23551V3.25232C13.7485 3.02543 13.9777 2.79854 14.2069 2.79854H19.9351C20.165 2.79854 20.3942 3.02543 20.3942 3.25232V6.58005C20.5469 8.54643 19.0184 9.9834 17.1852 9.9834Z" fill="#1E81CE"/>
<path d="M12.9078 4.84053V5.14305C12.9078 5.67246 13.2897 6.20187 13.9008 6.2775V4.84053H12.9078ZM14.2827 7.18506H13.9772C12.8321 7.18506 11.8384 6.2775 11.8384 5.06742V4.31112C11.8384 4.08423 12.0683 3.85734 12.2974 3.85734H14.2064C14.4355 3.85734 14.6647 4.08423 14.6647 4.31112V6.65565C14.8182 6.95817 14.5883 7.18506 14.2827 7.18506Z" fill="#1E81CE"/>
<path d="M22.9142 25.6387H10.0049C9.77575 25.6387 9.54736 25.4118 9.54736 25.1849C9.54736 24.958 9.77575 24.7311 10.0049 24.7311H22.9142C23.1426 24.7311 23.3718 24.958 23.3718 25.1849C23.3718 25.4118 23.1426 25.6387 22.9142 25.6387Z" fill="#1E81CE"/>
<path d="M4.27621 1.05898C3.2068 1.05898 2.36655 1.89091 2.36655 2.94973C2.36655 4.00856 3.2068 4.84049 4.27621 4.84049C5.34562 4.84049 6.18509 4.00856 6.18509 2.94973C6.18509 1.89091 5.34562 1.05898 4.27621 1.05898ZM4.27621 5.74805C2.67209 5.74805 1.37354 4.46234 1.37354 2.8741C1.37354 1.28587 2.67209 0.000162125 4.27621 0.000162125C5.88032 0.000162125 7.17888 1.28587 7.17888 2.8741C7.17888 4.46234 5.88032 5.74805 4.27621 5.74805Z" fill="#1E81CE"/>
</svg>
