<svg width="38" height="36" viewBox="0 0 38 36" fill="none" xmlns="http://www.w3.org/2000/svg">
<path d="M30.8842 3.81082C32.2497 3.81082 33.3551 4.90525 33.3551 6.25718C33.3551 7.60912 32.2497 8.63916 30.8842 8.63916C29.5194 8.63916 28.4141 7.54474 28.4141 6.1928C28.4141 4.84087 29.5194 3.81082 30.8842 3.81082Z" fill="white"/>
<path d="M5.65777 19.9056C6.56762 19.9056 7.28285 20.6138 7.28285 21.5151C7.28285 22.4164 6.56762 23.1245 5.65777 23.1245C4.74746 23.1245 4.03223 22.4164 4.03223 21.5151C4.03223 20.6138 4.74746 19.9056 5.65777 19.9056Z" fill="white"/>
<path d="M10.403 2.78104C11.3779 2.90979 12.0932 3.55357 12.4181 4.39048C12.0932 4.71237 11.8332 5.03426 11.638 5.42053C11.3129 5.29177 10.9228 5.22739 10.5328 5.22739C9.42755 5.22739 8.51718 5.87117 8.12738 6.77246C7.73686 6.25744 7.54199 5.61366 7.60708 4.96988C7.80201 3.61795 9.03723 2.65228 10.403 2.78104Z" fill="#9BC9FF"/>
<path d="M7.86862 7.8026C7.86862 7.41634 7.93351 7.09445 8.12889 6.77256C8.71383 5.485 10.2743 4.9056 11.6395 5.485C12.2898 4.19745 13.6551 3.36053 15.2155 3.36053C17.4262 3.36053 19.1815 5.09874 19.1815 7.2232C19.1815 7.41634 19.1815 7.67385 19.1164 7.86698H19.1815C21.0023 7.86698 22.4978 9.28329 22.4978 11.0859C22.4978 12.8241 21.1317 14.3048 19.3767 14.3691C18.2714 14.3691 9.68909 14.3691 8.64875 14.3691C6.82827 14.3691 5.33277 12.9528 5.33277 11.0859C5.26814 9.47643 6.37338 8.18887 7.86862 7.8026C7.93351 7.86698 7.86862 7.86698 7.86862 7.8026Z" fill="white"/>
<path d="M16.5804 25.6997L26.9181 16.4293L35.3052 24.3478V32.395H2.92676L13.0693 22.2233L16.5804 25.6997Z" fill="#9BC9FF"/>
<path d="M19.3107 19.7126C19.5707 19.9701 19.5707 20.3564 19.3107 20.5495C19.051 20.8071 18.661 20.8071 18.4656 20.5495C18.2055 20.292 18.2055 19.9058 18.4656 19.7126C18.661 19.4551 19.051 19.4551 19.3107 19.7126Z" fill="#1E81CE"/>
<path d="M2.92593 32.7812C2.79595 32.7812 2.7308 32.7169 2.66565 32.6525C2.53593 32.5237 2.53593 32.2662 2.66565 32.0731L12.8087 21.9014C12.8733 21.837 13.0036 21.7726 13.0685 21.7726C13.1985 21.7726 13.2637 21.837 13.3285 21.9014L18.6603 27.1804C18.79 27.3091 18.79 27.5666 18.6603 27.7598C18.53 27.8885 18.27 27.8885 18.0749 27.7598L13.0036 22.7383L3.18595 32.6525C3.12086 32.7812 2.99108 32.7812 2.92593 32.7812Z" fill="#1E81CE"/>
<path d="M35.3043 32.7812H0.390067C0.19513 32.7812 0 32.5881 0 32.395C0 32.2018 0.19513 32.0087 0.390067 32.0087H34.9142V24.5409L26.9172 16.9443L16.8394 26.0216L15.4743 27.3091C15.2789 27.4379 15.0191 27.4379 14.8889 27.3091C14.7591 27.116 14.7591 26.8585 14.8889 26.7297L16.2544 25.4422L26.5921 16.1074C26.7221 15.9786 26.9822 15.9786 27.1773 16.1074L35.5644 24.0259C35.6295 24.0902 35.6945 24.219 35.6945 24.3478V32.395C35.7595 32.5881 35.5644 32.7812 35.3043 32.7812Z" fill="#1E81CE"/>
<path d="M36.9307 32.7812H35.3052C35.1101 32.7812 34.915 32.5881 34.915 32.395C34.915 32.2018 35.1101 32.0087 35.3052 32.0087H36.9307C37.1258 32.0087 37.3208 32.2018 37.3208 32.395C37.3859 32.5881 37.1908 32.7812 36.9307 32.7812Z" fill="#1E81CE"/>
<path d="M10.0141 9.09033C9.88412 9.09033 9.81897 9.02595 9.68899 8.96158C8.97375 8.18904 7.99856 8.3178 7.93341 8.3178H7.86852C7.67364 8.3178 7.47852 8.12466 7.47852 7.93153C7.47852 7.7384 7.67364 7.54526 7.86852 7.54526C8.06371 7.54526 9.36382 7.41651 10.2742 8.51093C10.4044 8.70407 10.4044 8.96158 10.209 9.09033C10.209 9.02595 10.0792 9.09033 10.0141 9.09033Z" fill="#1E81CE"/>
<path d="M8.12749 7.15869C7.99725 7.15869 7.86721 7.09431 7.80212 7.02994C7.34691 6.45054 7.08689 5.678 7.21719 4.90547C7.34691 4.13293 7.73697 3.48916 8.32242 2.97413C8.90736 2.52349 9.68769 2.33036 10.4678 2.39473C11.5084 2.52349 12.4182 3.23164 12.8087 4.26169C12.8734 4.45482 12.8087 4.71233 12.5484 4.77671C12.3536 4.84109 12.0933 4.77671 12.0284 4.5192C11.7681 3.81105 11.118 3.29602 10.338 3.16727C9.81766 3.10289 9.23273 3.23164 8.77757 3.55353C8.32242 3.87542 8.0624 4.39045 7.99725 4.90547C7.9321 5.42049 8.0624 5.99989 8.4524 6.45054C8.58244 6.64367 8.58245 6.90118 8.38725 7.02994C8.32242 7.15869 8.19212 7.15869 8.12749 7.15869Z" fill="#1E81CE"/>
<path d="M10.2728 1.94409C10.2077 1.94409 10.2077 1.94409 10.2728 1.94409C10.0127 1.94409 9.81761 1.68658 9.88276 1.49345L10.0127 0.334646C10.0127 0.141513 10.2728 -0.0516205 10.4677 0.0127573C10.6628 0.0127573 10.858 0.270269 10.7931 0.463402L10.6628 1.6222C10.6628 1.81534 10.4677 1.94409 10.2728 1.94409Z" fill="#1E81CE"/>
<path d="M11.8982 2.58789C11.8331 2.58789 11.7028 2.58789 11.638 2.52351C11.443 2.39476 11.443 2.13725 11.5731 1.94411L12.2882 0.978445C12.418 0.785312 12.6783 0.785312 12.8732 0.914068C13.0683 1.04282 13.0683 1.30033 12.9383 1.49347L12.2231 2.45913C12.1583 2.52351 12.0282 2.58789 11.8982 2.58789Z" fill="#1E81CE"/>
<path d="M5.52776 7.09424C5.39772 7.09424 5.20284 7.02986 5.13769 6.83673C5.07261 6.64359 5.13769 6.38608 5.33263 6.3217L6.43813 5.87106C6.633 5.80668 6.89328 5.87106 6.95817 6.06419C7.02306 6.25733 6.95817 6.51484 6.76323 6.57922L5.658 7.09424C5.658 7.09424 5.59291 7.09424 5.52776 7.09424Z" fill="#1E81CE"/>
<path d="M6.37303 4.90552L5.13749 4.77676C4.94262 4.77676 4.74749 4.51925 4.81258 4.32612C4.87747 4.13298 5.07241 3.93985 5.2678 4.00423L6.43793 4.13298C6.6328 4.13298 6.82793 4.3905 6.76303 4.58363C6.76303 4.77676 6.56765 4.90552 6.37303 4.90552Z" fill="#1E81CE"/>
<path d="M7.08708 3.23169C7.022 3.23169 6.89221 3.23169 6.82706 3.16731L5.85187 2.45916C5.65693 2.3304 5.65693 2.07289 5.78672 1.87976C5.91676 1.68662 6.17678 1.68662 6.37217 1.81538L7.34711 2.52353C7.5423 2.65229 7.5423 2.9098 7.41226 3.10293C7.28202 3.23169 7.15223 3.23169 7.08708 3.23169Z" fill="#1E81CE"/>
<path d="M8.45361 2.20166C8.32363 2.20166 8.1287 2.13728 8.06361 1.94415L7.6084 0.849726C7.54331 0.656593 7.6084 0.399081 7.80333 0.334704C7.99846 0.270326 8.25848 0.334704 8.32363 0.527837L8.77878 1.62226C8.84394 1.81539 8.77878 2.0729 8.58366 2.13728C8.58366 2.13728 8.5185 2.20166 8.45361 2.20166Z" fill="#1E81CE"/>
<path d="M8.51731 6.9012C8.38726 7.22309 8.32243 7.4806 8.32243 7.80249C8.32243 7.99563 8.19213 8.18876 7.99726 8.18876C6.63174 8.44627 5.65674 9.60507 5.65674 10.957V11.0214C5.72163 12.5665 7.02181 13.7896 8.58245 13.7896H19.3101C20.8709 13.7253 22.0413 12.5021 22.0413 10.957C22.0413 9.41194 20.7408 8.12438 19.115 8.12438C19.115 8.12438 19.115 8.12438 19.0504 8.12438C18.9201 8.12438 18.7901 8.06 18.725 7.99563C18.6604 7.93125 18.5952 7.80249 18.6604 7.67374C18.725 7.4806 18.725 7.28747 18.725 7.09434C18.725 5.163 17.0996 3.61793 15.149 3.61793C14.2389 3.61793 13.3285 3.93982 12.6785 4.5836C12.3536 4.84111 12.1585 5.163 11.9633 5.54927C11.8984 5.7424 11.6381 5.80678 11.4432 5.7424C11.1832 5.61365 10.858 5.54927 10.5329 5.54927C9.68769 5.61365 8.84274 6.12867 8.51731 6.9012ZM19.3101 14.6909H8.58245C6.56659 14.6909 4.87642 13.0815 4.81152 11.1501C4.81152 11.0858 4.81152 11.0858 4.81152 11.0214C4.81152 9.41194 5.91657 7.99563 7.47722 7.54498C7.47722 7.22309 7.6072 6.9012 7.73698 6.57931C8.25728 5.48489 9.29737 4.84111 10.5329 4.84111C10.858 4.84111 11.118 4.90549 11.4432 4.96987C11.6381 4.64798 11.8984 4.39047 12.1584 4.13296C13.0036 3.36042 14.0438 2.90978 15.2141 2.90978C17.6197 2.90978 19.5701 4.84111 19.5701 7.15871C19.5701 7.22309 19.5701 7.35185 19.5701 7.41622C21.4554 7.60936 22.8866 9.15443 22.8866 11.0214C22.8866 13.0171 21.326 14.6265 19.3101 14.6909Z" fill="#1E81CE"/>
<path d="M8.90818 30.3994C8.84354 30.3994 8.71324 30.335 8.64816 30.2707C8.45322 30.1419 8.45322 29.8844 8.64816 29.6913L12.2892 25.6355C12.419 25.4423 12.6793 25.4423 12.8742 25.6355C13.0693 25.7642 13.0693 26.0217 12.8742 26.2149L9.23354 30.2707C9.10331 30.335 9.03816 30.3994 8.90818 30.3994Z" fill="#1E81CE"/>
<path d="M30.8837 4.19754C29.779 4.19754 28.8687 5.09883 28.8687 6.19325C28.8687 7.28768 29.779 8.18897 30.8837 8.18897C31.9898 8.18897 32.8994 7.28768 32.8994 6.19325C32.8994 5.09883 31.9898 4.19754 30.8837 4.19754ZM30.8837 9.02588C29.3239 9.02588 28.0234 7.73832 28.0234 6.19325C28.0234 4.64819 29.3239 3.36063 30.8837 3.36063C32.4449 3.36063 33.7447 4.64819 33.7447 6.19325C33.7447 7.73832 32.4449 9.02588 30.8837 9.02588Z" fill="#1E81CE"/>
<path d="M5.65714 20.2919C5.00686 20.2919 4.42167 20.8069 4.42167 21.515C4.42167 22.2232 4.94197 22.7382 5.65714 22.7382C6.37238 22.7382 6.89242 22.2232 6.89242 21.515C6.89242 20.8069 6.30723 20.2919 5.65714 20.2919ZM5.65714 23.5107C4.55171 23.5107 3.6416 22.6095 3.6416 21.515C3.6416 20.4206 4.55171 19.5193 5.65714 19.5193C6.76238 19.5193 7.67275 20.4206 7.67275 21.515C7.67275 22.6095 6.76238 23.5107 5.65714 23.5107Z" fill="#1E81CE"/>
<path d="M17.4253 34.7769H0.780625C0.586011 34.7769 0.390625 34.5837 0.390625 34.3906C0.390625 34.1975 0.586011 34.0043 0.780625 34.0043H17.4253C17.6203 34.0043 17.8154 34.1975 17.8154 34.3906C17.8805 34.6481 17.6853 34.7769 17.4253 34.7769Z" fill="#1E81CE"/>
<path d="M26.3973 36H19.5056C19.3104 36 19.1152 35.8069 19.1152 35.6137C19.1152 35.4206 19.3104 35.2275 19.5056 35.2275H26.3973C26.5924 35.2275 26.7875 35.4206 26.7875 35.6137C26.7875 35.8069 26.5924 36 26.3973 36Z" fill="#1E81CE"/>
<path d="M30.8842 3.81082C32.2497 3.81082 33.3551 4.90525 33.3551 6.25718C33.3551 7.60912 32.2497 8.63916 30.8842 8.63916C29.5194 8.63916 28.4141 7.54474 28.4141 6.1928C28.4141 4.84087 29.5194 3.81082 30.8842 3.81082Z" fill="white"/>
<path d="M5.65777 19.9056C6.56762 19.9056 7.28285 20.6138 7.28285 21.5151C7.28285 22.4164 6.56762 23.1245 5.65777 23.1245C4.74746 23.1245 4.03223 22.4164 4.03223 21.5151C4.03223 20.6138 4.74746 19.9056 5.65777 19.9056Z" fill="white"/>
<path d="M10.403 2.78104C11.3779 2.90979 12.0932 3.55357 12.4181 4.39048C12.0932 4.71237 11.8332 5.03426 11.638 5.42053C11.3129 5.29177 10.9228 5.22739 10.5328 5.22739C9.42755 5.22739 8.51718 5.87117 8.12738 6.77246C7.73686 6.25744 7.54199 5.61366 7.60708 4.96988C7.80201 3.61795 9.03723 2.65228 10.403 2.78104Z" fill="#9BC9FF"/>
<path d="M7.86862 7.8026C7.86862 7.41634 7.93351 7.09445 8.12889 6.77256C8.71383 5.485 10.2743 4.9056 11.6395 5.485C12.2898 4.19745 13.6551 3.36053 15.2155 3.36053C17.4262 3.36053 19.1815 5.09874 19.1815 7.2232C19.1815 7.41634 19.1815 7.67385 19.1164 7.86698H19.1815C21.0023 7.86698 22.4978 9.28329 22.4978 11.0859C22.4978 12.8241 21.1317 14.3048 19.3767 14.3691C18.2714 14.3691 9.68909 14.3691 8.64875 14.3691C6.82827 14.3691 5.33277 12.9528 5.33277 11.0859C5.26814 9.47643 6.37338 8.18887 7.86862 7.8026C7.93351 7.86698 7.86862 7.86698 7.86862 7.8026Z" fill="white"/>
<path d="M16.5804 25.6997L26.9181 16.4293L35.3052 24.3478V32.395H2.92676L13.0693 22.2233L16.5804 25.6997Z" fill="#9BC9FF"/>
<path d="M19.3107 19.7126C19.5707 19.9701 19.5707 20.3564 19.3107 20.5495C19.051 20.8071 18.661 20.8071 18.4656 20.5495C18.2055 20.292 18.2055 19.9058 18.4656 19.7126C18.661 19.4551 19.051 19.4551 19.3107 19.7126Z" fill="#1E81CE"/>
<path d="M2.92593 32.7812C2.79595 32.7812 2.7308 32.7169 2.66565 32.6525C2.53593 32.5237 2.53593 32.2662 2.66565 32.0731L12.8087 21.9014C12.8733 21.837 13.0036 21.7726 13.0685 21.7726C13.1985 21.7726 13.2637 21.837 13.3285 21.9014L18.6603 27.1804C18.79 27.3091 18.79 27.5666 18.6603 27.7598C18.53 27.8885 18.27 27.8885 18.0749 27.7598L13.0036 22.7383L3.18595 32.6525C3.12086 32.7812 2.99108 32.7812 2.92593 32.7812Z" fill="#1E81CE"/>
<path d="M35.3043 32.7812H0.390067C0.19513 32.7812 0 32.5881 0 32.395C0 32.2018 0.19513 32.0087 0.390067 32.0087H34.9142V24.5409L26.9172 16.9443L16.8394 26.0216L15.4743 27.3091C15.2789 27.4379 15.0191 27.4379 14.8889 27.3091C14.7591 27.116 14.7591 26.8585 14.8889 26.7297L16.2544 25.4422L26.5921 16.1074C26.7221 15.9786 26.9822 15.9786 27.1773 16.1074L35.5644 24.0259C35.6295 24.0902 35.6945 24.219 35.6945 24.3478V32.395C35.7595 32.5881 35.5644 32.7812 35.3043 32.7812Z" fill="#1E81CE"/>
<path d="M36.9307 32.7812H35.3052C35.1101 32.7812 34.915 32.5881 34.915 32.395C34.915 32.2018 35.1101 32.0087 35.3052 32.0087H36.9307C37.1258 32.0087 37.3208 32.2018 37.3208 32.395C37.3859 32.5881 37.1908 32.7812 36.9307 32.7812Z" fill="#1E81CE"/>
<path d="M10.0141 9.09033C9.88412 9.09033 9.81897 9.02595 9.68899 8.96158C8.97375 8.18904 7.99856 8.3178 7.93341 8.3178H7.86852C7.67364 8.3178 7.47852 8.12466 7.47852 7.93153C7.47852 7.7384 7.67364 7.54526 7.86852 7.54526C8.06371 7.54526 9.36382 7.41651 10.2742 8.51093C10.4044 8.70407 10.4044 8.96158 10.209 9.09033C10.209 9.02595 10.0792 9.09033 10.0141 9.09033Z" fill="#1E81CE"/>
<path d="M8.12749 7.15869C7.99725 7.15869 7.86721 7.09431 7.80212 7.02994C7.34691 6.45054 7.08689 5.678 7.21719 4.90547C7.34691 4.13293 7.73697 3.48916 8.32242 2.97413C8.90736 2.52349 9.68769 2.33036 10.4678 2.39473C11.5084 2.52349 12.4182 3.23164 12.8087 4.26169C12.8734 4.45482 12.8087 4.71233 12.5484 4.77671C12.3536 4.84109 12.0933 4.77671 12.0284 4.5192C11.7681 3.81105 11.118 3.29602 10.338 3.16727C9.81766 3.10289 9.23273 3.23164 8.77757 3.55353C8.32242 3.87542 8.0624 4.39045 7.99725 4.90547C7.9321 5.42049 8.0624 5.99989 8.4524 6.45054C8.58244 6.64367 8.58245 6.90118 8.38725 7.02994C8.32242 7.15869 8.19212 7.15869 8.12749 7.15869Z" fill="#1E81CE"/>
<path d="M10.2728 1.94409C10.2077 1.94409 10.2077 1.94409 10.2728 1.94409C10.0127 1.94409 9.81761 1.68658 9.88276 1.49345L10.0127 0.334646C10.0127 0.141513 10.2728 -0.0516205 10.4677 0.0127573C10.6628 0.0127573 10.858 0.270269 10.7931 0.463402L10.6628 1.6222C10.6628 1.81534 10.4677 1.94409 10.2728 1.94409Z" fill="#1E81CE"/>
<path d="M11.8982 2.58789C11.8331 2.58789 11.7028 2.58789 11.638 2.52351C11.443 2.39476 11.443 2.13725 11.5731 1.94411L12.2882 0.978445C12.418 0.785312 12.6783 0.785312 12.8732 0.914068C13.0683 1.04282 13.0683 1.30033 12.9383 1.49347L12.2231 2.45913C12.1583 2.52351 12.0282 2.58789 11.8982 2.58789Z" fill="#1E81CE"/>
<path d="M5.52776 7.09424C5.39772 7.09424 5.20284 7.02986 5.13769 6.83673C5.07261 6.64359 5.13769 6.38608 5.33263 6.3217L6.43813 5.87106C6.633 5.80668 6.89328 5.87106 6.95817 6.06419C7.02306 6.25733 6.95817 6.51484 6.76323 6.57922L5.658 7.09424C5.658 7.09424 5.59291 7.09424 5.52776 7.09424Z" fill="#1E81CE"/>
<path d="M6.37303 4.90552L5.13749 4.77676C4.94262 4.77676 4.74749 4.51925 4.81258 4.32612C4.87747 4.13298 5.07241 3.93985 5.2678 4.00423L6.43793 4.13298C6.6328 4.13298 6.82793 4.3905 6.76303 4.58363C6.76303 4.77676 6.56765 4.90552 6.37303 4.90552Z" fill="#1E81CE"/>
<path d="M7.08708 3.23169C7.022 3.23169 6.89221 3.23169 6.82706 3.16731L5.85187 2.45916C5.65693 2.3304 5.65693 2.07289 5.78672 1.87976C5.91676 1.68662 6.17678 1.68662 6.37217 1.81538L7.34711 2.52353C7.5423 2.65229 7.5423 2.9098 7.41226 3.10293C7.28202 3.23169 7.15223 3.23169 7.08708 3.23169Z" fill="#1E81CE"/>
<path d="M8.45361 2.20166C8.32363 2.20166 8.1287 2.13728 8.06361 1.94415L7.6084 0.849726C7.54331 0.656593 7.6084 0.399081 7.80333 0.334704C7.99846 0.270326 8.25848 0.334704 8.32363 0.527837L8.77878 1.62226C8.84394 1.81539 8.77878 2.0729 8.58366 2.13728C8.58366 2.13728 8.5185 2.20166 8.45361 2.20166Z" fill="#1E81CE"/>
<path d="M8.51731 6.9012C8.38726 7.22309 8.32243 7.4806 8.32243 7.80249C8.32243 7.99563 8.19213 8.18876 7.99726 8.18876C6.63174 8.44627 5.65674 9.60507 5.65674 10.957V11.0214C5.72163 12.5665 7.02181 13.7896 8.58245 13.7896H19.3101C20.8709 13.7253 22.0413 12.5021 22.0413 10.957C22.0413 9.41194 20.7408 8.12438 19.115 8.12438C19.115 8.12438 19.115 8.12438 19.0504 8.12438C18.9201 8.12438 18.7901 8.06 18.725 7.99563C18.6604 7.93125 18.5952 7.80249 18.6604 7.67374C18.725 7.4806 18.725 7.28747 18.725 7.09434C18.725 5.163 17.0996 3.61793 15.149 3.61793C14.2389 3.61793 13.3285 3.93982 12.6785 4.5836C12.3536 4.84111 12.1585 5.163 11.9633 5.54927C11.8984 5.7424 11.6381 5.80678 11.4432 5.7424C11.1832 5.61365 10.858 5.54927 10.5329 5.54927C9.68769 5.61365 8.84274 6.12867 8.51731 6.9012ZM19.3101 14.6909H8.58245C6.56659 14.6909 4.87642 13.0815 4.81152 11.1501C4.81152 11.0858 4.81152 11.0858 4.81152 11.0214C4.81152 9.41194 5.91657 7.99563 7.47722 7.54498C7.47722 7.22309 7.6072 6.9012 7.73698 6.57931C8.25728 5.48489 9.29737 4.84111 10.5329 4.84111C10.858 4.84111 11.118 4.90549 11.4432 4.96987C11.6381 4.64798 11.8984 4.39047 12.1584 4.13296C13.0036 3.36042 14.0438 2.90978 15.2141 2.90978C17.6197 2.90978 19.5701 4.84111 19.5701 7.15871C19.5701 7.22309 19.5701 7.35185 19.5701 7.41622C21.4554 7.60936 22.8866 9.15443 22.8866 11.0214C22.8866 13.0171 21.326 14.6265 19.3101 14.6909Z" fill="#1E81CE"/>
<path d="M8.90818 30.3994C8.84354 30.3994 8.71324 30.335 8.64816 30.2707C8.45322 30.1419 8.45322 29.8844 8.64816 29.6913L12.2892 25.6355C12.419 25.4423 12.6793 25.4423 12.8742 25.6355C13.0693 25.7642 13.0693 26.0217 12.8742 26.2149L9.23354 30.2707C9.10331 30.335 9.03816 30.3994 8.90818 30.3994Z" fill="#1E81CE"/>
<path d="M30.8837 4.19754C29.779 4.19754 28.8687 5.09883 28.8687 6.19325C28.8687 7.28768 29.779 8.18897 30.8837 8.18897C31.9898 8.18897 32.8994 7.28768 32.8994 6.19325C32.8994 5.09883 31.9898 4.19754 30.8837 4.19754ZM30.8837 9.02588C29.3239 9.02588 28.0234 7.73832 28.0234 6.19325C28.0234 4.64819 29.3239 3.36063 30.8837 3.36063C32.4449 3.36063 33.7447 4.64819 33.7447 6.19325C33.7447 7.73832 32.4449 9.02588 30.8837 9.02588Z" fill="#1E81CE"/>
<path d="M5.65714 20.2919C5.00686 20.2919 4.42167 20.8069 4.42167 21.515C4.42167 22.2232 4.94197 22.7382 5.65714 22.7382C6.37238 22.7382 6.89242 22.2232 6.89242 21.515C6.89242 20.8069 6.30723 20.2919 5.65714 20.2919ZM5.65714 23.5107C4.55171 23.5107 3.6416 22.6095 3.6416 21.515C3.6416 20.4206 4.55171 19.5193 5.65714 19.5193C6.76238 19.5193 7.67275 20.4206 7.67275 21.515C7.67275 22.6095 6.76238 23.5107 5.65714 23.5107Z" fill="#1E81CE"/>
<path d="M17.4253 34.7769H0.780625C0.586011 34.7769 0.390625 34.5837 0.390625 34.3906C0.390625 34.1975 0.586011 34.0043 0.780625 34.0043H17.4253C17.6203 34.0043 17.8154 34.1975 17.8154 34.3906C17.8805 34.6481 17.6853 34.7769 17.4253 34.7769Z" fill="#1E81CE"/>
<path d="M26.3973 36H19.5056C19.3104 36 19.1152 35.8069 19.1152 35.6137C19.1152 35.4206 19.3104 35.2275 19.5056 35.2275H26.3973C26.5924 35.2275 26.7875 35.4206 26.7875 35.6137C26.7875 35.8069 26.5924 36 26.3973 36Z" fill="#1E81CE"/>
</svg>
