<svg width="38" height="36" viewBox="0 0 38 36" fill="none" xmlns="http://www.w3.org/2000/svg">
<path d="M33.0893 0.388588C34.6782 0.388588 35.9667 1.66413 35.9667 3.23751C35.9667 4.81089 34.6782 6.08643 33.0893 6.08643C31.5004 6.08643 30.2119 4.81089 30.2119 3.23751C30.2119 1.66413 31.5004 0.388588 33.0893 0.388588Z" fill="#9BC9FF"/>
<path d="M10.203 31.5325C11.3141 31.5325 12.2297 32.439 12.2297 33.5397C12.2297 34.6404 11.3141 35.5469 10.203 35.5469C9.09068 35.5469 8.17578 34.6404 8.17578 33.5397C8.17578 32.439 9.02593 31.5325 10.203 31.5325Z" fill="#9BC9FF"/>
<path d="M33.874 25.5108C33.874 27.518 32.2391 29.1367 30.2118 29.1367H5.69043C7.71769 29.1367 9.35259 27.518 9.35259 25.5108C9.35259 23.5036 7.71769 21.8849 5.69043 21.8849C6.67136 21.8849 28.3814 21.8849 30.2118 21.8849C32.2391 21.8202 33.874 23.5036 33.874 25.5108Z" fill="#9BC9FF"/>
<path d="M8.30467 22.9209C8.95928 23.5684 9.35166 24.4749 9.35166 25.5108C9.35166 27.518 7.71677 29.1367 5.6895 29.1367C3.66224 29.1367 2.02734 27.518 2.02734 25.5108C2.02734 24.4749 2.41972 23.5684 3.07368 22.9209C4.51238 21.4964 6.86662 21.4964 8.30467 22.9209Z" fill="white"/>
<path d="M33.4815 14.5685C35.5088 14.5685 37.1437 16.1872 37.1437 18.1944C37.1437 20.2016 35.5088 21.8203 33.4815 21.8203C31.4542 21.8203 29.8193 20.2016 29.8193 18.1944C29.8193 16.1872 31.4542 14.5685 33.4815 14.5685Z" fill="#9BC9FF"/>
<path d="M5.29785 18.1944C5.29785 16.1872 6.93275 14.5685 8.96001 14.5685C9.61332 14.5685 33.2198 14.5685 33.4814 14.5685C31.4542 14.5685 29.8193 16.1872 29.8193 18.1944C29.8193 20.2016 31.4542 21.8203 33.4814 21.8203C32.5005 21.8203 10.7904 21.8203 8.96001 21.8203C6.93275 21.8203 5.29785 20.2016 5.29785 18.1944Z" fill="white"/>
<path d="M31.1925 8.35254C31.8458 9.00002 32.2382 9.90649 32.2382 10.9425C32.2382 12.9497 30.6033 14.5684 28.576 14.5684C27.5304 14.5684 26.6148 14.1799 25.9609 13.5324C24.5222 12.1079 24.5222 9.777 25.9609 8.35254C27.3996 6.92808 29.7532 6.92808 31.1925 8.35254Z" fill="white"/>
<path d="M4.05521 14.5684C3.00888 14.5684 2.09334 14.1799 1.43938 13.5324C0.000675559 12.1079 0.000675559 9.777 1.43938 8.35254C2.87808 6.92808 5.23232 6.92808 6.67103 8.35254C7.32498 9.00002 7.71737 9.90649 7.71737 10.9425C7.71737 12.9497 6.08247 14.5684 4.05521 14.5684Z" fill="white"/>
<path d="M25.9619 13.5324C26.6159 14.1799 27.5314 14.5684 28.5771 14.5684C27.9238 14.5684 4.31725 14.5684 4.05566 14.5684C6.08293 14.5684 7.71782 12.9497 7.71782 10.9425C7.71782 8.93527 6.08293 7.31657 4.05566 7.31657H28.5771C27.5314 7.31657 26.6159 7.70506 25.9619 8.35254C24.5232 9.777 24.5232 12.1079 25.9619 13.5324Z" fill="#9BC9FF"/>
<path d="M30.2117 29.5249H5.69023C5.49404 29.5249 5.29785 29.3307 5.29785 29.1364C5.29785 28.9422 5.49404 28.7479 5.69023 28.7479H30.2117C31.0618 28.7479 31.9119 28.4242 32.5005 27.7767C33.0891 27.194 33.4814 26.3522 33.4814 25.5105C33.4814 23.6976 32.0427 22.2731 30.2117 22.2731C30.0155 22.2731 29.8193 22.0789 29.8193 21.8846C29.8193 21.6904 30.0155 21.4961 30.2117 21.4961C32.4351 21.4961 34.3316 23.3091 34.3316 25.5753C34.3316 26.676 33.8738 27.6472 33.1545 28.4242C32.3043 29.1364 31.3234 29.5249 30.2117 29.5249Z" fill="#1E81CE"/>
<path d="M8.96001 22.2734H5.69023C5.49404 22.2734 5.29785 22.0792 5.29785 21.8849C5.29785 21.6907 5.49404 21.4965 5.69023 21.4965H8.96001C9.15555 21.4965 9.35239 21.6907 9.35239 21.8849C9.35239 22.0792 9.15555 22.2734 8.96001 22.2734Z" fill="#1E81CE"/>
<path d="M5.68959 22.2731C4.83945 22.2731 3.9893 22.5968 3.40074 23.2443C2.81218 23.8271 2.41981 24.6688 2.41981 25.5105C2.41981 27.3235 3.85851 28.7479 5.68959 28.7479C6.53973 28.7479 7.38988 28.4242 7.9778 27.7767C8.567 27.194 8.95937 26.3522 8.95937 25.5105C8.95937 24.6688 8.6324 23.8271 7.9778 23.2443C7.38988 22.5968 6.53973 22.2731 5.68959 22.2731ZM5.68959 29.5249C3.46614 29.5249 1.57031 27.712 1.57031 25.4458C1.57031 24.345 2.02744 23.3738 2.74679 22.5968C3.53154 21.8199 4.51247 21.4314 5.62419 21.4314C6.73592 21.4314 7.71685 21.8846 8.5016 22.5968C9.2857 23.3738 9.67808 24.4098 9.67808 25.4458C9.67808 26.4817 9.2203 27.5177 8.5016 28.2947C7.78225 29.1364 6.80132 29.5249 5.68959 29.5249Z" fill="#1E81CE"/>
<path d="M20.7951 24.6689H13.4715C13.2753 24.6689 13.0791 24.4747 13.0791 24.2805C13.0791 24.0862 13.2753 23.892 13.4715 23.892H20.8605C21.0567 23.892 21.2529 24.0862 21.2529 24.2805C21.2529 24.4747 21.0567 24.6689 20.7951 24.6689Z" fill="#1E81CE"/>
<path d="M22.8891 26.6763H19.6199C19.4231 26.6763 19.2275 26.482 19.2275 26.2878C19.2275 26.0935 19.4231 25.8993 19.6199 25.8993H22.8891C23.0852 25.8993 23.2814 26.0935 23.2814 26.2878C23.2814 26.482 23.0852 26.6763 22.8891 26.6763Z" fill="#1E81CE"/>
<path d="M33.8734 25.8994H28.5763C28.3808 25.8994 28.1846 25.7052 28.1846 25.5109C28.1846 25.3167 28.3808 25.1224 28.5763 25.1224H33.8734C34.0695 25.1224 34.2657 25.3167 34.2657 25.5109C34.2657 25.7052 34.1349 25.8994 33.8734 25.8994Z" fill="#1E81CE"/>
<path d="M33.4812 22.2734H8.9598C7.84808 22.2734 6.86715 21.8202 6.0824 21.108C5.29765 20.331 4.90527 19.295 4.90527 18.2591C4.90527 16.0576 6.73635 14.1799 9.0252 14.1799C9.22074 14.1799 9.41758 14.3742 9.41758 14.5684C9.41758 14.7627 9.22074 14.9569 9.0252 14.9569C7.19412 14.9569 5.75542 16.3814 5.75542 18.1943C5.75542 19.036 6.08239 19.8778 6.73635 20.4605C7.32491 21.0432 8.17506 21.4317 9.0252 21.4317H33.5466C33.7428 21.4317 33.939 21.626 33.939 21.8202C33.939 22.0144 33.6774 22.2734 33.4812 22.2734Z" fill="#1E81CE"/>
<path d="M33.481 14.957H28.5763C28.3808 14.957 28.1846 14.7628 28.1846 14.5685C28.1846 14.3743 28.3808 14.1801 28.5763 14.1801H33.481C33.6772 14.1801 33.8734 14.3743 33.8734 14.5685C33.8734 14.7628 33.6772 14.957 33.481 14.957Z" fill="#1E81CE"/>
<path d="M33.4813 14.9569C32.6311 14.9569 31.781 15.2806 31.1931 15.9281C30.6039 16.5109 30.2115 17.3526 30.2115 18.1943C30.2115 19.036 30.5385 19.8778 31.1931 20.4605C31.781 21.0432 32.6311 21.4317 33.4813 21.4317C35.3124 21.4317 36.7504 20.0073 36.7504 18.1943C36.7504 17.3526 36.4241 16.5109 35.7701 15.9281C35.1816 15.2806 34.3314 14.9569 33.4813 14.9569ZM33.4813 22.2734C32.3696 22.2734 31.3886 21.8202 30.6039 21.108C29.8191 20.3957 29.4268 19.295 29.4268 18.2591C29.4268 17.1583 29.8845 16.1871 30.6039 15.4101C31.3886 14.6332 32.4349 14.2447 33.4813 14.2447C34.5276 14.2447 35.5739 14.6979 36.3587 15.4101C37.1434 16.1871 37.5352 17.2231 37.5352 18.2591C37.6006 20.4605 35.7047 22.2734 33.4813 22.2734Z" fill="#1E81CE"/>
<path d="M25.7004 17.417H18.3767C18.1799 17.417 17.9844 17.2227 17.9844 17.0285C17.9844 16.8343 18.1799 16.64 18.3767 16.64H25.7658C25.962 16.64 26.1582 16.8343 26.1582 17.0285C26.1582 17.2227 25.962 17.417 25.7004 17.417Z" fill="#1E81CE"/>
<path d="M19.6192 19.4243H16.3494C16.1532 19.4243 15.957 19.2301 15.957 19.0358C15.957 18.8416 16.1532 18.6473 16.3494 18.6473H19.6192C19.8147 18.6473 20.0109 18.8416 20.0109 19.0358C20.0109 19.2301 19.8147 19.4243 19.6192 19.4243Z" fill="#1E81CE"/>
<path d="M10.5947 18.5825H5.29764C5.10146 18.5825 4.90527 18.3883 4.90527 18.194C4.90527 17.9998 5.03606 17.8055 5.29764 17.8055H10.5947C10.7902 17.8055 10.9864 17.9998 10.9864 18.194C10.9864 18.3883 10.7902 18.5825 10.5947 18.5825Z" fill="#1E81CE"/>
<path d="M28.5769 7.70508H4.05546C3.85928 7.70508 3.66309 7.51083 3.66309 7.31659C3.66309 7.12234 3.85928 6.9281 4.05546 6.9281H28.5769C28.7737 6.9281 28.9693 7.12234 28.9693 7.31659C28.9693 7.51083 28.7737 7.70508 28.5769 7.70508Z" fill="#1E81CE"/>
<path d="M28.5769 14.957H4.05546C3.85928 14.957 3.66309 14.7628 3.66309 14.5685C3.66309 14.3743 3.85928 14.1801 4.05546 14.1801H28.5769C28.7737 14.1801 28.9693 14.3743 28.9693 14.5685C28.9693 14.7628 28.7737 14.957 28.5769 14.957Z" fill="#1E81CE"/>
<path d="M28.5773 7.70524C27.7272 7.70524 26.877 8.02898 26.2891 8.67646C25.6351 9.25919 25.3082 10.0362 25.3082 10.9426C25.3082 11.7844 25.6351 12.6261 26.2891 13.2088C26.877 13.7916 27.7272 14.1801 28.5773 14.1801C30.409 14.1801 31.8471 12.7556 31.8471 10.9426C31.8471 10.1009 31.5201 9.25919 30.8662 8.67646C30.2776 8.02898 29.4275 7.70524 28.5773 7.70524ZM28.5773 14.957C27.4662 14.957 26.4853 14.5038 25.7006 13.7916C24.9158 13.0793 24.5234 11.9786 24.5234 10.9426C24.5234 9.90668 24.9812 8.8707 25.7006 8.09373C26.4199 7.31675 27.5316 6.92826 28.5773 6.92826C29.689 6.92826 30.67 7.3815 31.4547 8.09373C32.2395 8.8707 32.6318 9.90668 32.6318 10.9426C32.6972 13.1441 30.8008 14.957 28.5773 14.957Z" fill="#1E81CE"/>
<path d="M4.05453 7.70524C3.20439 7.70524 2.35424 8.02898 1.76568 8.67646C1.17712 9.25919 0.785396 10.1009 0.785396 10.9426C0.785396 11.7844 1.11173 12.6261 1.76568 13.2088C2.35424 13.7916 3.20439 14.1801 4.05453 14.1801C5.88561 14.1801 7.32431 12.7556 7.32431 10.9426C7.32431 10.1009 6.99734 9.25919 6.34338 8.67646C5.75482 8.02898 4.90467 7.70524 4.05453 7.70524ZM4.05453 14.957C2.9428 14.957 1.96187 14.5038 1.17712 13.7916C0.393025 13.0146 0 11.9786 0 10.9426C0 9.90668 0.457773 8.8707 1.17712 8.09373C1.89648 7.31675 2.9428 6.92826 4.05453 6.92826C5.16626 6.92826 6.14719 7.3815 6.93193 8.09373C7.71668 8.8707 8.10907 9.90668 8.10907 10.9426C8.17446 13.1441 6.27798 14.957 4.05453 14.957Z" fill="#1E81CE"/>
<path d="M22.8889 10.1006H15.4998C15.3036 10.1006 15.1074 9.90634 15.1074 9.7121C15.1074 9.51785 15.3036 9.32361 15.4998 9.32361H22.8889C23.0851 9.32361 23.2812 9.51785 23.2812 9.7121C23.2812 9.90634 23.0851 10.1006 22.8889 10.1006Z" fill="#1E81CE"/>
<path d="M18.3762 12.1079H10.9865C10.7903 12.1079 10.5947 11.9137 10.5947 11.7194C10.5947 11.5252 10.7903 11.3309 10.9865 11.3309H18.3762C18.5723 11.3309 18.7685 11.5252 18.7685 11.7194C18.7685 11.9784 18.5723 12.1079 18.3762 12.1079Z" fill="#1E81CE"/>
<path d="M33.0891 0.776772C31.7158 0.776772 30.6041 1.87749 30.6041 3.2372C30.6041 4.59691 31.7158 5.69763 33.0891 5.69763C34.4624 5.69763 35.5742 4.59691 35.5742 3.2372C35.5742 1.87749 34.397 0.776772 33.0891 0.776772ZM33.0891 6.47461C31.258 6.47461 29.8193 5.05015 29.8193 3.2372C29.8193 1.42425 31.258 -0.000205994 33.0891 -0.000205994C34.9202 -0.000205994 36.3589 1.42425 36.3589 3.2372C36.3589 5.05015 34.8548 6.47461 33.0891 6.47461Z" fill="#1E81CE"/>
<path d="M10.2018 31.9856C9.28564 31.9856 8.56693 32.6978 8.56693 33.6043C8.56693 34.5108 9.28564 35.223 10.2018 35.223C11.1167 35.223 11.8361 34.5108 11.8361 33.6043C11.8361 32.6978 11.1167 31.9856 10.2018 31.9856ZM10.2018 36C8.82787 36 7.7168 34.8993 7.7168 33.5396C7.7168 32.1799 8.82787 31.0791 10.2018 31.0791C11.5745 31.0791 12.6862 32.1799 12.6862 33.5396C12.6862 34.8993 11.5091 36 10.2018 36Z" fill="#1E81CE"/>
<path d="M33.0893 0.388588C34.6782 0.388588 35.9667 1.66413 35.9667 3.23751C35.9667 4.81089 34.6782 6.08643 33.0893 6.08643C31.5004 6.08643 30.2119 4.81089 30.2119 3.23751C30.2119 1.66413 31.5004 0.388588 33.0893 0.388588Z" fill="#9BC9FF"/>
<path d="M10.203 31.5325C11.3141 31.5325 12.2297 32.439 12.2297 33.5397C12.2297 34.6404 11.3141 35.5469 10.203 35.5469C9.09068 35.5469 8.17578 34.6404 8.17578 33.5397C8.17578 32.439 9.02593 31.5325 10.203 31.5325Z" fill="#9BC9FF"/>
<path d="M33.874 25.5108C33.874 27.518 32.2391 29.1367 30.2118 29.1367H5.69043C7.71769 29.1367 9.35259 27.518 9.35259 25.5108C9.35259 23.5036 7.71769 21.8849 5.69043 21.8849C6.67136 21.8849 28.3814 21.8849 30.2118 21.8849C32.2391 21.8202 33.874 23.5036 33.874 25.5108Z" fill="#9BC9FF"/>
<path d="M8.30467 22.9209C8.95928 23.5684 9.35166 24.4749 9.35166 25.5108C9.35166 27.518 7.71677 29.1367 5.6895 29.1367C3.66224 29.1367 2.02734 27.518 2.02734 25.5108C2.02734 24.4749 2.41972 23.5684 3.07368 22.9209C4.51238 21.4964 6.86662 21.4964 8.30467 22.9209Z" fill="white"/>
<path d="M33.4815 14.5685C35.5088 14.5685 37.1437 16.1872 37.1437 18.1944C37.1437 20.2016 35.5088 21.8203 33.4815 21.8203C31.4542 21.8203 29.8193 20.2016 29.8193 18.1944C29.8193 16.1872 31.4542 14.5685 33.4815 14.5685Z" fill="#9BC9FF"/>
<path d="M5.29785 18.1944C5.29785 16.1872 6.93275 14.5685 8.96001 14.5685C9.61332 14.5685 33.2198 14.5685 33.4814 14.5685C31.4542 14.5685 29.8193 16.1872 29.8193 18.1944C29.8193 20.2016 31.4542 21.8203 33.4814 21.8203C32.5005 21.8203 10.7904 21.8203 8.96001 21.8203C6.93275 21.8203 5.29785 20.2016 5.29785 18.1944Z" fill="white"/>
<path d="M31.1925 8.35254C31.8458 9.00002 32.2382 9.90649 32.2382 10.9425C32.2382 12.9497 30.6033 14.5684 28.576 14.5684C27.5304 14.5684 26.6148 14.1799 25.9609 13.5324C24.5222 12.1079 24.5222 9.777 25.9609 8.35254C27.3996 6.92808 29.7532 6.92808 31.1925 8.35254Z" fill="white"/>
<path d="M4.05521 14.5684C3.00888 14.5684 2.09334 14.1799 1.43938 13.5324C0.000675559 12.1079 0.000675559 9.777 1.43938 8.35254C2.87808 6.92808 5.23232 6.92808 6.67103 8.35254C7.32498 9.00002 7.71737 9.90649 7.71737 10.9425C7.71737 12.9497 6.08247 14.5684 4.05521 14.5684Z" fill="white"/>
<path d="M25.9619 13.5324C26.6159 14.1799 27.5314 14.5684 28.5771 14.5684C27.9238 14.5684 4.31725 14.5684 4.05566 14.5684C6.08293 14.5684 7.71782 12.9497 7.71782 10.9425C7.71782 8.93527 6.08293 7.31657 4.05566 7.31657H28.5771C27.5314 7.31657 26.6159 7.70506 25.9619 8.35254C24.5232 9.777 24.5232 12.1079 25.9619 13.5324Z" fill="#9BC9FF"/>
<path d="M30.2117 29.5249H5.69023C5.49404 29.5249 5.29785 29.3307 5.29785 29.1364C5.29785 28.9422 5.49404 28.7479 5.69023 28.7479H30.2117C31.0618 28.7479 31.9119 28.4242 32.5005 27.7767C33.0891 27.194 33.4814 26.3522 33.4814 25.5105C33.4814 23.6976 32.0427 22.2731 30.2117 22.2731C30.0155 22.2731 29.8193 22.0789 29.8193 21.8846C29.8193 21.6904 30.0155 21.4961 30.2117 21.4961C32.4351 21.4961 34.3316 23.3091 34.3316 25.5753C34.3316 26.676 33.8738 27.6472 33.1545 28.4242C32.3043 29.1364 31.3234 29.5249 30.2117 29.5249Z" fill="#1E81CE"/>
<path d="M8.96001 22.2734H5.69023C5.49404 22.2734 5.29785 22.0792 5.29785 21.8849C5.29785 21.6907 5.49404 21.4965 5.69023 21.4965H8.96001C9.15555 21.4965 9.35239 21.6907 9.35239 21.8849C9.35239 22.0792 9.15555 22.2734 8.96001 22.2734Z" fill="#1E81CE"/>
<path d="M5.68959 22.2731C4.83945 22.2731 3.9893 22.5968 3.40074 23.2443C2.81218 23.8271 2.41981 24.6688 2.41981 25.5105C2.41981 27.3235 3.85851 28.7479 5.68959 28.7479C6.53973 28.7479 7.38988 28.4242 7.9778 27.7767C8.567 27.194 8.95937 26.3522 8.95937 25.5105C8.95937 24.6688 8.6324 23.8271 7.9778 23.2443C7.38988 22.5968 6.53973 22.2731 5.68959 22.2731ZM5.68959 29.5249C3.46614 29.5249 1.57031 27.712 1.57031 25.4458C1.57031 24.345 2.02744 23.3738 2.74679 22.5968C3.53154 21.8199 4.51247 21.4314 5.62419 21.4314C6.73592 21.4314 7.71685 21.8846 8.5016 22.5968C9.2857 23.3738 9.67808 24.4098 9.67808 25.4458C9.67808 26.4817 9.2203 27.5177 8.5016 28.2947C7.78225 29.1364 6.80132 29.5249 5.68959 29.5249Z" fill="#1E81CE"/>
<path d="M20.7951 24.6689H13.4715C13.2753 24.6689 13.0791 24.4747 13.0791 24.2805C13.0791 24.0862 13.2753 23.892 13.4715 23.892H20.8605C21.0567 23.892 21.2529 24.0862 21.2529 24.2805C21.2529 24.4747 21.0567 24.6689 20.7951 24.6689Z" fill="#1E81CE"/>
<path d="M22.8891 26.6763H19.6199C19.4231 26.6763 19.2275 26.482 19.2275 26.2878C19.2275 26.0935 19.4231 25.8993 19.6199 25.8993H22.8891C23.0852 25.8993 23.2814 26.0935 23.2814 26.2878C23.2814 26.482 23.0852 26.6763 22.8891 26.6763Z" fill="#1E81CE"/>
<path d="M33.8734 25.8994H28.5763C28.3808 25.8994 28.1846 25.7052 28.1846 25.5109C28.1846 25.3167 28.3808 25.1224 28.5763 25.1224H33.8734C34.0695 25.1224 34.2657 25.3167 34.2657 25.5109C34.2657 25.7052 34.1349 25.8994 33.8734 25.8994Z" fill="#1E81CE"/>
<path d="M33.4812 22.2734H8.9598C7.84808 22.2734 6.86715 21.8202 6.0824 21.108C5.29765 20.331 4.90527 19.295 4.90527 18.2591C4.90527 16.0576 6.73635 14.1799 9.0252 14.1799C9.22074 14.1799 9.41758 14.3742 9.41758 14.5684C9.41758 14.7627 9.22074 14.9569 9.0252 14.9569C7.19412 14.9569 5.75542 16.3814 5.75542 18.1943C5.75542 19.036 6.08239 19.8778 6.73635 20.4605C7.32491 21.0432 8.17506 21.4317 9.0252 21.4317H33.5466C33.7428 21.4317 33.939 21.626 33.939 21.8202C33.939 22.0144 33.6774 22.2734 33.4812 22.2734Z" fill="#1E81CE"/>
<path d="M33.481 14.957H28.5763C28.3808 14.957 28.1846 14.7628 28.1846 14.5685C28.1846 14.3743 28.3808 14.1801 28.5763 14.1801H33.481C33.6772 14.1801 33.8734 14.3743 33.8734 14.5685C33.8734 14.7628 33.6772 14.957 33.481 14.957Z" fill="#1E81CE"/>
<path d="M33.4813 14.9569C32.6311 14.9569 31.781 15.2806 31.1931 15.9281C30.6039 16.5109 30.2115 17.3526 30.2115 18.1943C30.2115 19.036 30.5385 19.8778 31.1931 20.4605C31.781 21.0432 32.6311 21.4317 33.4813 21.4317C35.3124 21.4317 36.7504 20.0073 36.7504 18.1943C36.7504 17.3526 36.4241 16.5109 35.7701 15.9281C35.1816 15.2806 34.3314 14.9569 33.4813 14.9569ZM33.4813 22.2734C32.3696 22.2734 31.3886 21.8202 30.6039 21.108C29.8191 20.3957 29.4268 19.295 29.4268 18.2591C29.4268 17.1583 29.8845 16.1871 30.6039 15.4101C31.3886 14.6332 32.4349 14.2447 33.4813 14.2447C34.5276 14.2447 35.5739 14.6979 36.3587 15.4101C37.1434 16.1871 37.5352 17.2231 37.5352 18.2591C37.6006 20.4605 35.7047 22.2734 33.4813 22.2734Z" fill="#1E81CE"/>
<path d="M25.7004 17.417H18.3767C18.1799 17.417 17.9844 17.2227 17.9844 17.0285C17.9844 16.8343 18.1799 16.64 18.3767 16.64H25.7658C25.962 16.64 26.1582 16.8343 26.1582 17.0285C26.1582 17.2227 25.962 17.417 25.7004 17.417Z" fill="#1E81CE"/>
<path d="M19.6192 19.4243H16.3494C16.1532 19.4243 15.957 19.2301 15.957 19.0358C15.957 18.8416 16.1532 18.6473 16.3494 18.6473H19.6192C19.8147 18.6473 20.0109 18.8416 20.0109 19.0358C20.0109 19.2301 19.8147 19.4243 19.6192 19.4243Z" fill="#1E81CE"/>
<path d="M10.5947 18.5825H5.29764C5.10146 18.5825 4.90527 18.3883 4.90527 18.194C4.90527 17.9998 5.03606 17.8055 5.29764 17.8055H10.5947C10.7902 17.8055 10.9864 17.9998 10.9864 18.194C10.9864 18.3883 10.7902 18.5825 10.5947 18.5825Z" fill="#1E81CE"/>
<path d="M28.5769 7.70508H4.05546C3.85928 7.70508 3.66309 7.51083 3.66309 7.31659C3.66309 7.12234 3.85928 6.9281 4.05546 6.9281H28.5769C28.7737 6.9281 28.9693 7.12234 28.9693 7.31659C28.9693 7.51083 28.7737 7.70508 28.5769 7.70508Z" fill="#1E81CE"/>
<path d="M28.5769 14.957H4.05546C3.85928 14.957 3.66309 14.7628 3.66309 14.5685C3.66309 14.3743 3.85928 14.1801 4.05546 14.1801H28.5769C28.7737 14.1801 28.9693 14.3743 28.9693 14.5685C28.9693 14.7628 28.7737 14.957 28.5769 14.957Z" fill="#1E81CE"/>
<path d="M28.5773 7.70524C27.7272 7.70524 26.877 8.02898 26.2891 8.67646C25.6351 9.25919 25.3082 10.0362 25.3082 10.9426C25.3082 11.7844 25.6351 12.6261 26.2891 13.2088C26.877 13.7916 27.7272 14.1801 28.5773 14.1801C30.409 14.1801 31.8471 12.7556 31.8471 10.9426C31.8471 10.1009 31.5201 9.25919 30.8662 8.67646C30.2776 8.02898 29.4275 7.70524 28.5773 7.70524ZM28.5773 14.957C27.4662 14.957 26.4853 14.5038 25.7006 13.7916C24.9158 13.0793 24.5234 11.9786 24.5234 10.9426C24.5234 9.90668 24.9812 8.8707 25.7006 8.09373C26.4199 7.31675 27.5316 6.92826 28.5773 6.92826C29.689 6.92826 30.67 7.3815 31.4547 8.09373C32.2395 8.8707 32.6318 9.90668 32.6318 10.9426C32.6972 13.1441 30.8008 14.957 28.5773 14.957Z" fill="#1E81CE"/>
<path d="M4.05453 7.70524C3.20439 7.70524 2.35424 8.02898 1.76568 8.67646C1.17712 9.25919 0.785396 10.1009 0.785396 10.9426C0.785396 11.7844 1.11173 12.6261 1.76568 13.2088C2.35424 13.7916 3.20439 14.1801 4.05453 14.1801C5.88561 14.1801 7.32431 12.7556 7.32431 10.9426C7.32431 10.1009 6.99734 9.25919 6.34338 8.67646C5.75482 8.02898 4.90467 7.70524 4.05453 7.70524ZM4.05453 14.957C2.9428 14.957 1.96187 14.5038 1.17712 13.7916C0.393025 13.0146 0 11.9786 0 10.9426C0 9.90668 0.457773 8.8707 1.17712 8.09373C1.89648 7.31675 2.9428 6.92826 4.05453 6.92826C5.16626 6.92826 6.14719 7.3815 6.93193 8.09373C7.71668 8.8707 8.10907 9.90668 8.10907 10.9426C8.17446 13.1441 6.27798 14.957 4.05453 14.957Z" fill="#1E81CE"/>
<path d="M22.8889 10.1006H15.4998C15.3036 10.1006 15.1074 9.90634 15.1074 9.7121C15.1074 9.51785 15.3036 9.32361 15.4998 9.32361H22.8889C23.0851 9.32361 23.2812 9.51785 23.2812 9.7121C23.2812 9.90634 23.0851 10.1006 22.8889 10.1006Z" fill="#1E81CE"/>
<path d="M18.3762 12.1079H10.9865C10.7903 12.1079 10.5947 11.9137 10.5947 11.7194C10.5947 11.5252 10.7903 11.3309 10.9865 11.3309H18.3762C18.5723 11.3309 18.7685 11.5252 18.7685 11.7194C18.7685 11.9784 18.5723 12.1079 18.3762 12.1079Z" fill="#1E81CE"/>
<path d="M33.0891 0.776772C31.7158 0.776772 30.6041 1.87749 30.6041 3.2372C30.6041 4.59691 31.7158 5.69763 33.0891 5.69763C34.4624 5.69763 35.5742 4.59691 35.5742 3.2372C35.5742 1.87749 34.397 0.776772 33.0891 0.776772ZM33.0891 6.47461C31.258 6.47461 29.8193 5.05015 29.8193 3.2372C29.8193 1.42425 31.258 -0.000205994 33.0891 -0.000205994C34.9202 -0.000205994 36.3589 1.42425 36.3589 3.2372C36.3589 5.05015 34.8548 6.47461 33.0891 6.47461Z" fill="#1E81CE"/>
<path d="M10.2018 31.9856C9.28564 31.9856 8.56693 32.6978 8.56693 33.6043C8.56693 34.5108 9.28564 35.223 10.2018 35.223C11.1167 35.223 11.8361 34.5108 11.8361 33.6043C11.8361 32.6978 11.1167 31.9856 10.2018 31.9856ZM10.2018 36C8.82787 36 7.7168 34.8993 7.7168 33.5396C7.7168 32.1799 8.82787 31.0791 10.2018 31.0791C11.5745 31.0791 12.6862 32.1799 12.6862 33.5396C12.6862 34.8993 11.5091 36 10.2018 36Z" fill="#1E81CE"/>
</svg>
