<svg width="40" height="36" viewBox="0 0 40 36" fill="none" xmlns="http://www.w3.org/2000/svg">
<path d="M33.2002 29.954C34.7438 29.954 36.0775 31.2049 36.0775 32.8034C36.0775 34.4019 34.814 35.6528 33.2002 35.6528C31.5858 35.6528 30.3223 34.3324 30.3223 32.8034C30.3223 31.2744 31.5858 29.954 33.2002 29.954Z" fill="#9BC9FF"/>
<path d="M36.0048 6.88025C37.7103 6.88025 39.0933 8.24937 39.0933 9.93817C39.0933 11.627 37.7103 12.9961 36.0048 12.9961C34.2993 12.9961 32.917 11.627 32.917 9.93817C32.917 8.24937 34.2993 6.88025 36.0048 6.88025Z" fill="#9BC9FF"/>
<path d="M2.66644 15.6369C3.8596 15.6369 4.84231 16.6099 4.84231 17.7914C4.84231 18.9728 3.8596 19.9458 2.66644 19.9458C1.47329 19.9458 0.490234 18.9728 0.490234 17.7914C0.490234 16.6099 1.47329 15.6369 2.66644 15.6369Z" fill="#9BC9FF"/>
<path d="M33.1993 31.6911C33.831 31.6911 34.3217 32.1776 34.3217 32.8031C34.3217 33.4286 33.831 33.915 33.1993 33.915C32.5675 33.915 32.0762 33.4286 32.0762 32.8031C32.0762 32.1776 32.5675 31.6911 33.1993 31.6911Z" fill="white"/>
<path d="M8.14036 24.2548C9.72965 24.2548 11.0181 25.5301 11.0181 27.1042C11.0181 28.6776 9.72965 29.9536 8.14036 29.9536C6.55113 29.9536 5.2627 28.6776 5.2627 27.1042C5.2627 25.5301 6.55113 24.2548 8.14036 24.2548Z" fill="white"/>
<path d="M33.2003 29.954C31.6561 29.954 30.3224 31.2049 30.3224 32.8034C30.3224 34.4019 31.5859 35.6528 33.2003 35.6528H5.54535C4.00144 35.6528 2.66797 34.4019 2.66797 32.8034C2.66797 31.2744 3.93117 29.954 5.54535 29.954C8.49334 29.954 30.0416 29.954 33.2003 29.954Z" fill="white"/>
<path d="M29.481 27.1042C29.481 28.6331 28.2175 29.9536 26.6031 29.9536H8.14355C9.68747 29.9536 11.0213 28.7026 11.0213 27.1042C11.0213 25.5057 9.7578 24.2548 8.14355 24.2548H26.6031C28.1473 24.3243 29.481 25.5752 29.481 27.1042Z" fill="#9BC9FF"/>
<path d="M19.7224 20.8491C18.1079 20.7796 16.8447 19.5287 16.8447 17.9302C16.8447 16.0537 18.6693 15.3588 19.7927 13.7603C20.9859 15.3588 22.7406 15.9842 22.7406 17.9302C22.7406 19.5287 21.4772 20.8491 19.8625 20.8491H19.7927H19.7224Z" fill="#9BC9FF"/>
<path d="M16.8439 17.8609C16.8439 19.4593 18.107 20.7798 19.7215 20.7798C15.9314 20.7103 12.8428 17.6524 12.8428 13.8995C12.8428 11.9535 13.6149 10.5635 14.7383 9.38208C15.3697 11.1195 16.5629 12.7875 18.7388 12.44C18.5284 11.745 18.3177 11.05 18.1771 10.4246C17.756 8.33961 18.2474 6.11566 19.5809 4.44771C19.6512 4.37821 19.7215 4.23921 19.7919 4.16971C22.5994 7.92262 26.7401 9.45158 26.7401 13.8995C26.7401 17.6524 23.6516 20.7798 19.8616 20.7798C21.4764 20.7103 22.7398 19.4593 22.7398 17.8609C22.7398 15.9844 20.9147 15.2894 19.7919 13.691C18.5982 15.2894 16.8439 15.9844 16.8439 17.8609Z" fill="white"/>
<path d="M33.1993 30.3706H26.6011C26.3906 30.3706 26.1807 30.1621 26.1807 29.9536C26.1807 29.7451 26.3906 29.5366 26.6011 29.5366H33.1993C33.4092 29.5366 33.6205 29.7451 33.6205 29.9536C33.6205 30.1621 33.4092 30.3706 33.1993 30.3706Z" fill="#1E81CE"/>
<path d="M33.1998 36H5.54484C3.72023 36 2.24609 34.5405 2.24609 32.7336C2.24609 31.8301 2.59713 31.0656 3.22887 30.4401C3.86062 29.8147 4.70273 29.4672 5.54484 29.4672H8.21213C8.42306 29.4672 8.6335 29.6757 8.6335 29.8842C8.6335 30.0927 8.42306 30.3011 8.21213 30.3011H5.54484C4.91338 30.3011 4.28164 30.5791 3.86062 30.9961C3.43925 31.4131 3.15854 32.0386 3.15854 32.6641C3.15854 33.9846 4.21137 35.027 5.54484 35.027H33.1998C33.4097 35.027 33.621 35.2355 33.621 35.444C33.621 35.861 33.4097 36 33.1998 36Z" fill="#1E81CE"/>
<path d="M33.1995 30.3706C31.8658 30.3706 30.8129 31.4131 30.8129 32.7336C30.8129 34.0541 31.8658 35.0965 33.1995 35.0965C34.5332 35.0965 35.5854 34.0541 35.5854 32.7336C35.5854 31.4826 34.5332 30.3706 33.1995 30.3706ZM33.1995 36C31.3745 36 29.9004 34.5405 29.9004 32.7336C29.9004 30.9266 31.3745 29.4672 33.1995 29.4672C35.0245 29.4672 36.4979 30.9266 36.4979 32.7336C36.4979 34.5405 34.9543 36 33.1995 36Z" fill="#1E81CE"/>
<path d="M33.1986 32.1083C32.8476 32.1083 32.5668 32.3862 32.5668 32.7337C32.5668 33.0812 32.8476 33.3592 33.1986 33.3592C33.5495 33.3592 33.8303 33.0812 33.8303 32.7337C33.8303 32.3862 33.5495 32.1083 33.1986 32.1083ZM33.1986 34.2627C32.3562 34.2627 31.6543 33.5677 31.6543 32.7337C31.6543 31.8998 32.3562 31.2048 33.1986 31.2048C34.0409 31.2048 34.7421 31.8998 34.7421 32.7337C34.7421 33.5677 34.0409 34.2627 33.1986 34.2627Z" fill="#1E81CE"/>
<path d="M26.6022 30.3706H8.1427C7.93233 30.3706 7.72168 30.1621 7.72168 29.9536C7.72168 29.7451 7.93233 29.5366 8.1427 29.5366H26.6022C27.9359 29.5366 28.9888 28.4942 28.9888 27.1737C28.9888 26.5482 28.708 25.9227 28.2869 25.5057C27.8657 25.0887 27.234 24.8107 26.6022 24.8107H8.1427C7.93233 24.8107 7.72168 24.6023 7.72168 24.3938C7.72168 24.1853 7.93233 23.9768 8.1427 23.9768H26.6022C27.5147 23.9768 28.2869 24.3243 28.9186 24.9497C29.5504 25.5752 29.9013 26.4092 29.9013 27.2432C29.9013 28.9111 28.4273 30.3706 26.6022 30.3706Z" fill="#1E81CE"/>
<path d="M8.14153 24.7413C6.80778 24.7413 5.75522 25.7837 5.75522 27.1042C5.75522 28.4247 6.80778 29.4671 8.14153 29.4671C9.47507 29.4671 10.5281 28.4247 10.5281 27.1042C10.5982 25.7837 9.47507 24.7413 8.14153 24.7413ZM8.14153 30.3706C6.31642 30.3706 4.84277 28.9111 4.84277 27.1042C4.84277 25.2972 6.31642 23.8378 8.14153 23.8378C9.96642 23.8378 11.4403 25.2972 11.4403 27.1042C11.4403 28.9111 9.96642 30.3706 8.14153 30.3706Z" fill="#1E81CE"/>
<path d="M24.2157 33.0117H7.09004C6.87939 33.0117 6.66895 32.8032 6.66895 32.5947C6.66895 32.3862 6.87939 32.1777 7.09004 32.1777H24.2157C24.427 32.1777 24.6369 32.3862 24.6369 32.5947C24.6369 32.8032 24.427 33.0117 24.2157 33.0117Z" fill="#1E81CE"/>
<path d="M22.8792 28.6333H19.3702C19.1596 28.6333 18.9492 28.4248 18.9492 28.2163C18.9492 28.0078 19.1596 27.7993 19.3702 27.7993H22.8792C23.0905 27.7993 23.3004 28.0078 23.3004 28.2163C23.3004 28.4248 23.0905 28.6333 22.8792 28.6333Z" fill="#1E81CE"/>
<path d="M19.3719 26.896H14.1076C13.897 26.896 13.6865 26.6875 13.6865 26.479C13.6865 26.2705 13.897 26.062 14.1076 26.062H19.3719C19.5823 26.062 19.7932 26.2705 19.7932 26.479C19.7932 26.6875 19.5823 26.896 19.3719 26.896Z" fill="#1E81CE"/>
<path d="M14.5968 10.2164C13.6843 11.3979 13.2633 12.5793 13.2633 13.8998C13.2633 17.4442 16.1407 20.2936 19.7207 20.3631H19.791H19.8608C23.4409 20.2936 26.3181 17.4442 26.3181 13.8998C26.3181 11.1894 24.6335 9.5909 22.5986 7.78395C21.6158 6.88047 20.6331 5.977 19.791 4.86502C18.6676 6.46348 18.1762 8.40943 18.5973 10.2859C18.7379 10.9114 18.9486 11.6063 19.159 12.2318C19.2293 12.3708 19.159 12.5098 19.0887 12.5793C19.0183 12.7183 18.8783 12.7878 18.808 12.7878C18.5973 12.7878 18.4572 12.8573 18.2465 12.8573C16.6321 12.9268 15.3689 12.0233 14.5968 10.2164ZM19.8608 21.2666H19.7207C17.7552 21.2666 15.9306 20.5021 14.5265 19.1122C13.1226 17.7222 12.4209 15.9152 12.4209 13.9693C12.4209 12.1623 13.0524 10.7029 14.4564 9.10441C14.5265 8.96542 14.7374 8.96542 14.8775 8.96542C15.0179 8.96542 15.1582 9.10441 15.2282 9.24341C15.8602 11.0504 16.9128 12.0233 18.2465 12.0928C18.1062 11.6063 17.9658 11.0504 17.8252 10.5639C17.3338 8.33993 17.8955 6.04649 19.2993 4.23954C19.3696 4.17004 19.4397 4.03105 19.51 3.96155C19.5801 3.82255 19.7207 3.75305 19.8608 3.75305C20.0011 3.75305 20.1418 3.82255 20.212 3.96155C21.1242 5.21251 22.2476 6.25499 23.2998 7.15846C25.3361 9.03492 27.3008 10.8419 27.3008 13.8998C27.3008 15.8457 26.5287 17.6527 25.195 19.0427C23.6508 20.4326 21.8264 21.2666 19.8608 21.2666Z" fill="#1E81CE"/>
<path d="M19.7922 14.3863C19.4409 14.8033 19.0899 15.0813 18.7391 15.4288C17.8967 16.1932 17.2652 16.8187 17.2652 17.8612C17.2652 19.2512 18.3181 20.3631 19.7219 20.3631H19.7922H19.862C21.2658 20.2936 22.319 19.2512 22.319 17.8612C22.319 16.8187 21.6872 16.1932 20.8447 15.4288C20.4937 15.1508 20.143 14.8033 19.7922 14.3863ZM19.7922 21.2666H19.7219C17.8967 21.1971 16.4229 19.7376 16.4229 17.8612C16.4229 16.4017 17.335 15.5677 18.1774 14.8033C18.5985 14.3863 19.0899 13.9693 19.4409 13.4828C19.5112 13.3438 19.6516 13.2743 19.7922 13.2743C19.9323 13.2743 20.0726 13.3438 20.143 13.4828C20.4937 13.9693 20.9854 14.3863 21.4064 14.8033C22.2488 15.6372 23.1613 16.4017 23.1613 17.8612C23.1613 19.6681 21.6872 21.1971 19.862 21.2666H19.7922Z" fill="#1E81CE"/>
<path d="M2.66729 16.0539C1.68423 16.0539 0.912445 16.8184 0.912445 17.7914C0.912445 18.7643 1.68423 19.5288 2.66729 19.5288C3.65007 19.5288 4.42185 18.7643 4.42185 17.7914C4.42185 16.8184 3.65007 16.0539 2.66729 16.0539ZM2.66729 20.3628C1.19315 20.3628 0 19.1813 0 17.7219C0 16.2624 1.19315 15.0809 2.66729 15.0809C4.14142 15.0809 5.33458 16.2624 5.33458 17.7219C5.33458 19.1813 4.14142 20.3628 2.66729 20.3628Z" fill="#1E81CE"/>
<path d="M36.007 7.36674C34.5337 7.36674 33.3404 8.54821 33.3404 10.0077C33.3404 11.4671 34.5337 12.6486 36.007 12.6486C37.4811 12.6486 38.6744 11.4671 38.6744 10.0077C38.6744 8.54821 37.4811 7.36674 36.007 7.36674ZM36.007 13.4131C34.0423 13.4131 32.498 11.8841 32.498 9.93818C32.498 7.99223 34.0423 6.46326 36.007 6.46326C37.9725 6.46326 39.5167 7.99223 39.5167 9.93818C39.5167 11.8841 37.9725 13.4131 36.007 13.4131Z" fill="#1E81CE"/>
<path d="M26.3889 6.94971C26.1791 6.94971 25.9678 6.74121 25.9678 6.53272V1.32035C25.9678 1.11186 26.1791 0.903363 26.3889 0.903363C26.5995 0.903363 26.8101 1.11186 26.8101 1.32035V6.53272C26.8101 6.74121 26.5995 6.94971 26.3889 6.94971Z" fill="#1E81CE"/>
<path d="M23.304 5.2124C23.0941 5.2124 22.8828 5.00391 22.8828 4.79541V2.15448C22.8828 1.94599 23.0941 1.73749 23.304 1.73749C23.5152 1.73749 23.7251 1.94599 23.7251 2.15448V4.79541C23.7251 5.00391 23.5152 5.2124 23.304 5.2124Z" fill="#1E81CE"/>
<path d="M15.8635 5.62939C15.6528 5.62939 15.4424 5.4209 15.4424 5.21241V0.417028C15.4424 0.208533 15.6528 3.86238e-05 15.8635 3.86238e-05C16.0738 3.86238e-05 16.2846 0.208533 16.2846 0.417028V5.21241C16.2846 5.4209 16.0738 5.62939 15.8635 5.62939Z" fill="#1E81CE"/>
<path d="M33.2002 29.954C34.7438 29.954 36.0775 31.2049 36.0775 32.8034C36.0775 34.4019 34.814 35.6528 33.2002 35.6528C31.5858 35.6528 30.3223 34.3324 30.3223 32.8034C30.3223 31.2744 31.5858 29.954 33.2002 29.954Z" fill="#9BC9FF"/>
<path d="M36.0048 6.88025C37.7103 6.88025 39.0933 8.24937 39.0933 9.93817C39.0933 11.627 37.7103 12.9961 36.0048 12.9961C34.2993 12.9961 32.917 11.627 32.917 9.93817C32.917 8.24937 34.2993 6.88025 36.0048 6.88025Z" fill="#9BC9FF"/>
<path d="M2.66644 15.6369C3.8596 15.6369 4.84231 16.6099 4.84231 17.7914C4.84231 18.9728 3.8596 19.9458 2.66644 19.9458C1.47329 19.9458 0.490234 18.9728 0.490234 17.7914C0.490234 16.6099 1.47329 15.6369 2.66644 15.6369Z" fill="#9BC9FF"/>
<path d="M33.1993 31.6911C33.831 31.6911 34.3217 32.1776 34.3217 32.8031C34.3217 33.4286 33.831 33.915 33.1993 33.915C32.5675 33.915 32.0762 33.4286 32.0762 32.8031C32.0762 32.1776 32.5675 31.6911 33.1993 31.6911Z" fill="white"/>
<path d="M8.14036 24.2548C9.72965 24.2548 11.0181 25.5301 11.0181 27.1042C11.0181 28.6776 9.72965 29.9536 8.14036 29.9536C6.55113 29.9536 5.2627 28.6776 5.2627 27.1042C5.2627 25.5301 6.55113 24.2548 8.14036 24.2548Z" fill="white"/>
<path d="M33.2003 29.954C31.6561 29.954 30.3224 31.2049 30.3224 32.8034C30.3224 34.4019 31.5859 35.6528 33.2003 35.6528H5.54535C4.00144 35.6528 2.66797 34.4019 2.66797 32.8034C2.66797 31.2744 3.93117 29.954 5.54535 29.954C8.49334 29.954 30.0416 29.954 33.2003 29.954Z" fill="white"/>
<path d="M29.481 27.1042C29.481 28.6331 28.2175 29.9536 26.6031 29.9536H8.14355C9.68747 29.9536 11.0213 28.7026 11.0213 27.1042C11.0213 25.5057 9.7578 24.2548 8.14355 24.2548H26.6031C28.1473 24.3243 29.481 25.5752 29.481 27.1042Z" fill="#9BC9FF"/>
<path d="M19.7224 20.8491C18.1079 20.7796 16.8447 19.5287 16.8447 17.9302C16.8447 16.0537 18.6693 15.3588 19.7927 13.7603C20.9859 15.3588 22.7406 15.9842 22.7406 17.9302C22.7406 19.5287 21.4772 20.8491 19.8625 20.8491H19.7927H19.7224Z" fill="#9BC9FF"/>
<path d="M16.8439 17.8609C16.8439 19.4593 18.107 20.7798 19.7215 20.7798C15.9314 20.7103 12.8428 17.6524 12.8428 13.8995C12.8428 11.9535 13.6149 10.5635 14.7383 9.38208C15.3697 11.1195 16.5629 12.7875 18.7388 12.44C18.5284 11.745 18.3177 11.05 18.1771 10.4246C17.756 8.33961 18.2474 6.11566 19.5809 4.44771C19.6512 4.37821 19.7215 4.23921 19.7919 4.16971C22.5994 7.92262 26.7401 9.45158 26.7401 13.8995C26.7401 17.6524 23.6516 20.7798 19.8616 20.7798C21.4764 20.7103 22.7398 19.4593 22.7398 17.8609C22.7398 15.9844 20.9147 15.2894 19.7919 13.691C18.5982 15.2894 16.8439 15.9844 16.8439 17.8609Z" fill="white"/>
<path d="M33.1993 30.3706H26.6011C26.3906 30.3706 26.1807 30.1621 26.1807 29.9536C26.1807 29.7451 26.3906 29.5366 26.6011 29.5366H33.1993C33.4092 29.5366 33.6205 29.7451 33.6205 29.9536C33.6205 30.1621 33.4092 30.3706 33.1993 30.3706Z" fill="#1E81CE"/>
<path d="M33.1998 36H5.54484C3.72023 36 2.24609 34.5405 2.24609 32.7336C2.24609 31.8301 2.59713 31.0656 3.22887 30.4401C3.86062 29.8147 4.70273 29.4672 5.54484 29.4672H8.21213C8.42306 29.4672 8.6335 29.6757 8.6335 29.8842C8.6335 30.0927 8.42306 30.3011 8.21213 30.3011H5.54484C4.91338 30.3011 4.28164 30.5791 3.86062 30.9961C3.43925 31.4131 3.15854 32.0386 3.15854 32.6641C3.15854 33.9846 4.21137 35.027 5.54484 35.027H33.1998C33.4097 35.027 33.621 35.2355 33.621 35.444C33.621 35.861 33.4097 36 33.1998 36Z" fill="#1E81CE"/>
<path d="M33.1995 30.3706C31.8658 30.3706 30.8129 31.4131 30.8129 32.7336C30.8129 34.0541 31.8658 35.0965 33.1995 35.0965C34.5332 35.0965 35.5854 34.0541 35.5854 32.7336C35.5854 31.4826 34.5332 30.3706 33.1995 30.3706ZM33.1995 36C31.3745 36 29.9004 34.5405 29.9004 32.7336C29.9004 30.9266 31.3745 29.4672 33.1995 29.4672C35.0245 29.4672 36.4979 30.9266 36.4979 32.7336C36.4979 34.5405 34.9543 36 33.1995 36Z" fill="#1E81CE"/>
<path d="M33.1986 32.1083C32.8476 32.1083 32.5668 32.3862 32.5668 32.7337C32.5668 33.0812 32.8476 33.3592 33.1986 33.3592C33.5495 33.3592 33.8303 33.0812 33.8303 32.7337C33.8303 32.3862 33.5495 32.1083 33.1986 32.1083ZM33.1986 34.2627C32.3562 34.2627 31.6543 33.5677 31.6543 32.7337C31.6543 31.8998 32.3562 31.2048 33.1986 31.2048C34.0409 31.2048 34.7421 31.8998 34.7421 32.7337C34.7421 33.5677 34.0409 34.2627 33.1986 34.2627Z" fill="#1E81CE"/>
<path d="M26.6022 30.3706H8.1427C7.93233 30.3706 7.72168 30.1621 7.72168 29.9536C7.72168 29.7451 7.93233 29.5366 8.1427 29.5366H26.6022C27.9359 29.5366 28.9888 28.4942 28.9888 27.1737C28.9888 26.5482 28.708 25.9227 28.2869 25.5057C27.8657 25.0887 27.234 24.8107 26.6022 24.8107H8.1427C7.93233 24.8107 7.72168 24.6023 7.72168 24.3938C7.72168 24.1853 7.93233 23.9768 8.1427 23.9768H26.6022C27.5147 23.9768 28.2869 24.3243 28.9186 24.9497C29.5504 25.5752 29.9013 26.4092 29.9013 27.2432C29.9013 28.9111 28.4273 30.3706 26.6022 30.3706Z" fill="#1E81CE"/>
<path d="M8.14153 24.7413C6.80778 24.7413 5.75522 25.7837 5.75522 27.1042C5.75522 28.4247 6.80778 29.4671 8.14153 29.4671C9.47507 29.4671 10.5281 28.4247 10.5281 27.1042C10.5982 25.7837 9.47507 24.7413 8.14153 24.7413ZM8.14153 30.3706C6.31642 30.3706 4.84277 28.9111 4.84277 27.1042C4.84277 25.2972 6.31642 23.8378 8.14153 23.8378C9.96642 23.8378 11.4403 25.2972 11.4403 27.1042C11.4403 28.9111 9.96642 30.3706 8.14153 30.3706Z" fill="#1E81CE"/>
<path d="M24.2157 33.0117H7.09004C6.87939 33.0117 6.66895 32.8032 6.66895 32.5947C6.66895 32.3862 6.87939 32.1777 7.09004 32.1777H24.2157C24.427 32.1777 24.6369 32.3862 24.6369 32.5947C24.6369 32.8032 24.427 33.0117 24.2157 33.0117Z" fill="#1E81CE"/>
<path d="M22.8792 28.6333H19.3702C19.1596 28.6333 18.9492 28.4248 18.9492 28.2163C18.9492 28.0078 19.1596 27.7993 19.3702 27.7993H22.8792C23.0905 27.7993 23.3004 28.0078 23.3004 28.2163C23.3004 28.4248 23.0905 28.6333 22.8792 28.6333Z" fill="#1E81CE"/>
<path d="M19.3719 26.896H14.1076C13.897 26.896 13.6865 26.6875 13.6865 26.479C13.6865 26.2705 13.897 26.062 14.1076 26.062H19.3719C19.5823 26.062 19.7932 26.2705 19.7932 26.479C19.7932 26.6875 19.5823 26.896 19.3719 26.896Z" fill="#1E81CE"/>
<path d="M14.5968 10.2164C13.6843 11.3979 13.2633 12.5793 13.2633 13.8998C13.2633 17.4442 16.1407 20.2936 19.7207 20.3631H19.791H19.8608C23.4409 20.2936 26.3181 17.4442 26.3181 13.8998C26.3181 11.1894 24.6335 9.5909 22.5986 7.78395C21.6158 6.88047 20.6331 5.977 19.791 4.86502C18.6676 6.46348 18.1762 8.40943 18.5973 10.2859C18.7379 10.9114 18.9486 11.6063 19.159 12.2318C19.2293 12.3708 19.159 12.5098 19.0887 12.5793C19.0183 12.7183 18.8783 12.7878 18.808 12.7878C18.5973 12.7878 18.4572 12.8573 18.2465 12.8573C16.6321 12.9268 15.3689 12.0233 14.5968 10.2164ZM19.8608 21.2666H19.7207C17.7552 21.2666 15.9306 20.5021 14.5265 19.1122C13.1226 17.7222 12.4209 15.9152 12.4209 13.9693C12.4209 12.1623 13.0524 10.7029 14.4564 9.10441C14.5265 8.96542 14.7374 8.96542 14.8775 8.96542C15.0179 8.96542 15.1582 9.10441 15.2282 9.24341C15.8602 11.0504 16.9128 12.0233 18.2465 12.0928C18.1062 11.6063 17.9658 11.0504 17.8252 10.5639C17.3338 8.33993 17.8955 6.04649 19.2993 4.23954C19.3696 4.17004 19.4397 4.03105 19.51 3.96155C19.5801 3.82255 19.7207 3.75305 19.8608 3.75305C20.0011 3.75305 20.1418 3.82255 20.212 3.96155C21.1242 5.21251 22.2476 6.25499 23.2998 7.15846C25.3361 9.03492 27.3008 10.8419 27.3008 13.8998C27.3008 15.8457 26.5287 17.6527 25.195 19.0427C23.6508 20.4326 21.8264 21.2666 19.8608 21.2666Z" fill="#1E81CE"/>
<path d="M19.7922 14.3863C19.4409 14.8033 19.0899 15.0813 18.7391 15.4288C17.8967 16.1932 17.2652 16.8187 17.2652 17.8612C17.2652 19.2512 18.3181 20.3631 19.7219 20.3631H19.7922H19.862C21.2658 20.2936 22.319 19.2512 22.319 17.8612C22.319 16.8187 21.6872 16.1932 20.8447 15.4288C20.4937 15.1508 20.143 14.8033 19.7922 14.3863ZM19.7922 21.2666H19.7219C17.8967 21.1971 16.4229 19.7376 16.4229 17.8612C16.4229 16.4017 17.335 15.5677 18.1774 14.8033C18.5985 14.3863 19.0899 13.9693 19.4409 13.4828C19.5112 13.3438 19.6516 13.2743 19.7922 13.2743C19.9323 13.2743 20.0726 13.3438 20.143 13.4828C20.4937 13.9693 20.9854 14.3863 21.4064 14.8033C22.2488 15.6372 23.1613 16.4017 23.1613 17.8612C23.1613 19.6681 21.6872 21.1971 19.862 21.2666H19.7922Z" fill="#1E81CE"/>
<path d="M2.66729 16.0539C1.68423 16.0539 0.912445 16.8184 0.912445 17.7914C0.912445 18.7643 1.68423 19.5288 2.66729 19.5288C3.65007 19.5288 4.42185 18.7643 4.42185 17.7914C4.42185 16.8184 3.65007 16.0539 2.66729 16.0539ZM2.66729 20.3628C1.19315 20.3628 0 19.1813 0 17.7219C0 16.2624 1.19315 15.0809 2.66729 15.0809C4.14142 15.0809 5.33458 16.2624 5.33458 17.7219C5.33458 19.1813 4.14142 20.3628 2.66729 20.3628Z" fill="#1E81CE"/>
<path d="M36.007 7.36674C34.5337 7.36674 33.3404 8.54821 33.3404 10.0077C33.3404 11.4671 34.5337 12.6486 36.007 12.6486C37.4811 12.6486 38.6744 11.4671 38.6744 10.0077C38.6744 8.54821 37.4811 7.36674 36.007 7.36674ZM36.007 13.4131C34.0423 13.4131 32.498 11.8841 32.498 9.93818C32.498 7.99223 34.0423 6.46326 36.007 6.46326C37.9725 6.46326 39.5167 7.99223 39.5167 9.93818C39.5167 11.8841 37.9725 13.4131 36.007 13.4131Z" fill="#1E81CE"/>
<path d="M26.3889 6.94971C26.1791 6.94971 25.9678 6.74121 25.9678 6.53272V1.32035C25.9678 1.11186 26.1791 0.903363 26.3889 0.903363C26.5995 0.903363 26.8101 1.11186 26.8101 1.32035V6.53272C26.8101 6.74121 26.5995 6.94971 26.3889 6.94971Z" fill="#1E81CE"/>
<path d="M23.304 5.2124C23.0941 5.2124 22.8828 5.00391 22.8828 4.79541V2.15448C22.8828 1.94599 23.0941 1.73749 23.304 1.73749C23.5152 1.73749 23.7251 1.94599 23.7251 2.15448V4.79541C23.7251 5.00391 23.5152 5.2124 23.304 5.2124Z" fill="#1E81CE"/>
<path d="M15.8635 5.62939C15.6528 5.62939 15.4424 5.4209 15.4424 5.21241V0.417028C15.4424 0.208533 15.6528 3.86238e-05 15.8635 3.86238e-05C16.0738 3.86238e-05 16.2846 0.208533 16.2846 0.417028V5.21241C16.2846 5.4209 16.0738 5.62939 15.8635 5.62939Z" fill="#1E81CE"/>
</svg>
