<svg width="18" height="18" viewBox="0 0 18 18" fill="none" xmlns="http://www.w3.org/2000/svg">
<path d="M9 14.25V3.75M9 14.25L7.46475 15.75M9 14.25L10.5352 15.75M9 3.75L7.46475 2.25M9 3.75L10.5352 2.25M4.347 11.625L13.653 6.375M4.347 11.625L2.25 11.076M4.347 11.625L3.7845 13.674M13.653 6.375L14.2147 4.326M13.653 6.375L15.75 6.924M15.75 11.076L13.653 11.625M13.653 11.625L14.2155 13.674M13.653 11.625L4.347 6.375M3.78525 4.326L4.347 6.375M4.347 6.375L2.25 6.924" stroke="#101010" stroke-linecap="round" stroke-linejoin="round"/>
</svg>
