<svg width="1440" height="1104" viewBox="0 0 1440 1104" fill="none" xmlns="http://www.w3.org/2000/svg">
<mask id="mask0_569_76365" style="mask-type:alpha" maskUnits="userSpaceOnUse" x="0" y="0" width="1440" height="1104">
<rect width="1440" height="1104" fill="url(#paint0_linear_569_76365)"/>
</mask>
<g mask="url(#mask0_569_76365)">
<rect width="1440" height="1104" fill="url(#paint1_linear_569_76365)"/>
<path fill-rule="evenodd" clip-rule="evenodd" d="M1186.2 -224.34C1275.84 -278.76 1388.78 -276.681 1493.48 -270.22C1593.73 -264.034 1683.11 -216.245 1779.45 -187.729C1889.27 -155.222 2024.78 -172.07 2104.2 -89.4503C2182.95 -7.53566 2187.28 123.102 2187.44 236.707C2187.6 339.369 2126.54 428.995 2105.11 529.37C2083.95 628.509 2120.48 744.107 2061.55 826.523C2002.7 908.823 1876.38 903.265 1794.89 963.196C1695.45 1036.33 1652.79 1195.2 1531.2 1216.58C1414.72 1237.07 1307.36 1139.19 1214.96 1065.18C1132.46 999.11 1102.69 888.808 1028.25 813.755C945.835 730.663 806.148 706.064 754.564 600.997C703.108 496.192 707.323 362.124 754.028 255.218C800.077 149.81 928.852 111.268 1005.83 25.8509C1075.52 -51.4834 1097.23 -170.32 1186.2 -224.34Z" fill="#BEE5FD"/>
<path d="M383 719.417V230.583M383 719.417L311.526 789.25M383 719.417L454.474 789.25M383 230.583L311.526 160.75M383 230.583L454.474 160.75M166.377 597.208L599.623 352.792M166.377 597.208L68.75 571.649M166.377 597.208L140.19 692.601M599.623 352.792L625.776 257.399M599.623 352.792L697.25 378.351M697.25 571.649L599.623 597.208M599.623 597.208L625.811 692.601M599.623 597.208L166.377 352.792M140.224 257.399L166.377 352.792M166.377 352.792L68.75 378.351" stroke="#D2EDFE" stroke-opacity="0.7" stroke-width="52.375" stroke-linecap="round" stroke-linejoin="round"/>
</g>
<defs>
<linearGradient id="paint0_linear_569_76365" x1="720" y1="209.208" x2="720" y2="1104" gradientUnits="userSpaceOnUse">
<stop stop-color="#DDEDF9" stop-opacity="0"/>
<stop offset="1" stop-color="#DDEDF9"/>
</linearGradient>
<linearGradient id="paint1_linear_569_76365" x1="720" y1="209.208" x2="720" y2="1104" gradientUnits="userSpaceOnUse">
<stop stop-color="#DDEDF9" stop-opacity="0"/>
<stop offset="1" stop-color="#DDEDF9"/>
</linearGradient>
</defs>
</svg>
