<svg width="71" height="68" viewBox="0 0 71 68" fill="none" xmlns="http://www.w3.org/2000/svg">
<path d="M36.7845 58.5651C36.8579 58.6417 36.9358 58.731 37.0182 58.8304C37.098 58.9298 37.1795 59.0429 37.2619 59.166C37.3444 59.2882 37.4286 59.4232 37.5111 59.5645C37.5917 59.7123 37.6669 59.8682 37.7421 60.0324C37.9296 60.4428 38.1144 60.7838 38.3065 61.0619C38.3998 61.2024 38.4858 61.3328 38.5692 61.4459C38.6543 61.5626 38.7295 61.6684 38.7993 61.7623C38.8491 61.8298 38.8971 61.8964 38.9433 61.9602C38.9868 62.024 39.0267 62.0852 39.0674 62.1444C39.1463 62.2612 39.2197 62.3688 39.2867 62.4654C39.4208 62.6624 39.5376 62.8238 39.6427 62.9697C39.7514 63.1184 39.8538 63.2479 39.9707 63.3792C40.0295 63.4449 40.0902 63.5096 40.1582 63.5798C40.2234 63.6473 40.2914 63.7221 40.3675 63.7978C40.5197 63.9555 40.7298 64.1106 40.9744 64.2674C41.0351 64.3057 41.0995 64.3468 41.1647 64.3851C41.2281 64.4261 41.2933 64.4653 41.3613 64.5054C41.4963 64.5848 41.6358 64.665 41.7807 64.7453C42.067 64.9031 42.3741 65.0608 42.664 65.214C42.9539 65.369 43.2357 65.5186 43.4884 65.6536C43.6134 65.722 43.7385 65.8077 43.8617 65.908C43.984 66.0092 44.0999 66.1241 44.2122 66.2463C44.436 66.4889 44.6462 66.7652 44.8138 67.0233C45.1508 67.5459 45.3628 68 45.3628 68C45.3628 68 45.3909 67.7839 45.4217 67.4355C45.4371 67.2595 45.4525 67.0534 45.467 66.8245C45.4733 66.5965 45.4778 66.3457 45.4751 66.0858C45.4742 65.9563 45.4706 65.8223 45.4679 65.6882C45.4615 65.5542 45.4507 65.4201 45.4371 65.2851C45.4144 65.017 45.3818 64.7517 45.3419 64.4963C45.2912 64.2455 45.2287 64.0057 45.1599 63.7923C45.0883 63.5789 45.0068 63.392 44.9035 63.2433C44.7042 62.9469 44.5194 62.6971 44.349 62.4782C44.1751 62.2611 44.012 62.0742 43.8625 61.9009C43.7113 61.7268 43.5799 61.5662 43.444 61.4057C43.3099 61.2434 43.1876 61.0784 43.0681 60.896C42.837 60.5285 42.6513 60.4537 42.3913 60.2895C42.2618 60.2093 42.1096 60.1053 41.9211 59.9348C41.7291 59.767 41.4908 59.5317 41.1937 59.1907C41.1239 59.1095 41.0424 59.0283 40.9482 58.9462C40.8567 58.8669 40.7552 58.7885 40.6465 58.7128C40.5387 58.6398 40.4245 58.5696 40.3077 58.5031C40.247 58.4702 40.1881 58.4383 40.1265 58.4091C40.0631 58.3799 39.9988 58.3517 39.9344 58.3261C39.4199 58.1145 38.8709 58.0206 38.3943 58.1364C37.6995 58.3015 37.1967 58.3225 36.8678 58.3015C36.866 58.3015 36.8552 58.2979 36.8352 58.2906C36.8162 58.2833 36.789 58.2732 36.7528 58.2614C36.6794 58.2358 36.5816 58.1966 36.462 58.1456C36.2228 58.0452 35.9148 57.8957 35.6331 57.6941C35.6965 57.8072 35.7671 57.9322 35.8459 58.0717C35.9954 58.141 36.1811 58.2276 36.3487 58.3161C36.5136 58.4055 36.6695 58.4921 36.7709 58.5568C36.7764 58.5605 36.7818 58.5632 36.7845 58.5651Z" fill="#0E082B"/>
<path d="M34.4816 58.5651C34.4092 58.6417 34.3313 58.731 34.2488 58.8304C34.1691 58.9298 34.0885 59.0429 34.0051 59.166C33.9227 59.2882 33.8384 59.4232 33.7533 59.5645C33.6745 59.7123 33.5993 59.8682 33.5268 60.0324C33.3374 60.4428 33.1517 60.7838 32.9633 61.0619C32.8664 61.2024 32.7803 61.3328 32.6988 61.4459C32.6145 61.5626 32.5375 61.6684 32.4687 61.7623C32.4188 61.8298 32.3699 61.8964 32.3255 61.9602C32.282 62.024 32.2413 62.0852 32.1996 62.1444C32.119 62.2612 32.0465 62.3688 31.9794 62.4654C31.8436 62.6624 31.7276 62.8238 31.6234 62.9697C31.5183 63.1184 31.4123 63.2479 31.2982 63.3792C31.2393 63.4449 31.1777 63.5096 31.1098 63.5798C31.0445 63.6473 30.9757 63.7221 30.8987 63.7978C30.7456 63.9555 30.5372 64.1106 30.2935 64.2674C30.2337 64.3057 30.1685 64.3468 30.1042 64.3851C30.0398 64.4261 29.9737 64.4653 29.9067 64.5054C29.7708 64.5848 29.6322 64.665 29.4863 64.7453C29.1991 64.9031 28.8911 65.0608 28.6039 65.214C28.3122 65.369 28.0323 65.5186 27.7805 65.6536C27.6536 65.722 27.5277 65.8077 27.4045 65.908C27.2831 66.0092 27.1671 66.1241 27.0557 66.2463C26.8319 66.4889 26.6208 66.7652 26.4523 67.0233C26.1181 67.5459 25.9052 68 25.9052 68C25.9052 68 25.8771 67.7839 25.8454 67.4355C25.8309 67.2595 25.8146 67.0534 25.8001 66.8245C25.7946 66.5965 25.7892 66.3457 25.791 66.0858C25.7937 65.9563 25.7964 65.8223 25.8001 65.6882C25.8064 65.5542 25.8164 65.4201 25.8273 65.2851C25.8517 65.017 25.8843 64.7517 25.926 64.4963C25.9749 64.2455 26.0365 64.0057 26.109 63.7923C26.1797 63.5789 26.2594 63.392 26.3636 63.2433C26.5647 62.9469 26.7486 62.6971 26.918 62.4782C27.0919 62.2611 27.2568 62.0742 27.4045 61.9009C27.5558 61.7268 27.689 61.5662 27.8239 61.4057C27.9553 61.2434 28.0812 61.0784 28.199 60.896C28.4309 60.5285 28.6157 60.4537 28.8766 60.2895C29.008 60.2093 29.1575 60.1053 29.3468 59.9348C29.5379 59.767 29.778 59.5317 30.0724 59.1907C30.1422 59.1095 30.2265 59.0283 30.3198 58.9462C30.4122 58.8669 30.5118 58.7885 30.6196 58.7128C30.7283 58.6398 30.8416 58.5696 30.9612 58.5031C31.0192 58.4702 31.0789 58.4383 31.1415 58.4091C31.2049 58.3799 31.2683 58.3517 31.3317 58.3261C31.8472 58.1145 32.3971 58.0206 32.8718 58.1364C33.5666 58.3015 34.0694 58.3225 34.401 58.3015C34.401 58.3015 34.411 58.2979 34.4309 58.2906C34.4517 58.2833 34.4798 58.2732 34.5152 58.2614C34.5885 58.2358 34.6873 58.1966 34.806 58.1456C35.0442 58.0452 35.3513 57.8957 35.6331 57.6941C35.5706 57.8072 35.4999 57.9322 35.422 58.0717C35.2716 58.141 35.0859 58.2276 34.9192 58.3161C34.7534 58.4055 34.5985 58.4921 34.4961 58.5568C34.4907 58.5605 34.4853 58.5632 34.4816 58.5651Z" fill="#0E082B"/>
<path d="M22.9581 57.435C22.8448 57.4094 22.7189 57.3757 22.5848 57.3355C22.4489 57.2936 22.3058 57.2398 22.1536 57.1787C22.0023 57.1167 21.8429 57.0483 21.678 56.968C21.514 56.886 21.3482 56.792 21.1779 56.689C20.7458 56.4364 20.3662 56.2421 20.0201 56.1026C19.8453 56.0379 19.6895 55.9704 19.5418 55.9166C19.3923 55.8637 19.2573 55.8135 19.1359 55.7698C19.0472 55.736 18.9629 55.7068 18.8832 55.6758C18.8035 55.643 18.7292 55.6138 18.6558 55.5837C18.5108 55.5263 18.3777 55.4752 18.2563 55.4269C18.0108 55.3311 17.8051 55.2554 17.6194 55.1843C17.4301 55.1168 17.2561 55.0612 17.0695 55.0119C16.9771 54.9855 16.8802 54.9636 16.7778 54.9408C16.6754 54.9171 16.5667 54.8906 16.4517 54.8669C16.2188 54.8177 15.9344 54.7985 15.6191 54.7967C15.5385 54.7967 15.4578 54.7985 15.3772 54.8013C15.2948 54.8013 15.2123 54.804 15.1254 54.8067C14.9569 54.8113 14.782 54.8213 14.6044 54.8332C14.252 54.856 13.8824 54.8906 13.53 54.9189C13.1758 54.9463 12.8334 54.9727 12.5262 54.9964C12.3713 55.0083 12.2074 55.0019 12.0325 54.9836C11.8613 54.9645 11.6855 54.928 11.5098 54.8861C11.1574 54.7967 10.7968 54.6745 10.4806 54.5423C9.85101 54.2741 9.37268 53.9933 9.37268 53.9933C9.37268 53.9933 9.48685 54.2003 9.68434 54.524C9.78309 54.6836 9.90266 54.8751 10.0395 55.0831C10.179 55.2864 10.3375 55.508 10.506 55.736C10.5912 55.8491 10.6781 55.9631 10.7678 56.078C10.8611 56.1929 10.9581 56.3023 11.0523 56.4154C11.2471 56.637 11.4491 56.8513 11.6484 57.0501C11.855 57.2434 12.0597 57.4185 12.2608 57.5663C12.461 57.7131 12.6522 57.8316 12.8379 57.9028C13.203 58.0505 13.5255 58.1645 13.8154 58.2612C14.1071 58.3542 14.3716 58.4253 14.6144 58.4937C14.8572 58.5603 15.0765 58.6268 15.2993 58.6916C15.5195 58.7573 15.7333 58.832 15.9543 58.9278C16.3955 59.1184 16.6057 59.0801 16.939 59.0765C17.1048 59.0765 17.3041 59.081 17.5786 59.1239C17.8559 59.164 18.2146 59.2324 18.6948 59.3674C18.8089 59.4002 18.9348 59.423 19.0662 59.4412C19.1984 59.4586 19.338 59.4713 19.4811 59.4768C19.6224 59.4804 19.7674 59.4786 19.9141 59.4686C19.9875 59.4649 20.0609 59.4604 20.1334 59.4503C20.2058 59.4412 20.281 59.4312 20.3544 59.4175C20.9396 59.3126 21.4832 59.0846 21.8248 58.718C22.3276 58.1809 22.7533 57.8809 23.0559 57.7149C23.0577 57.7149 23.0686 57.7113 23.0894 57.7049C23.1121 57.6994 23.1438 57.6921 23.1828 57.6821C23.2607 57.6657 23.3748 57.6447 23.5107 57.6219C23.7861 57.5754 24.1521 57.5334 24.529 57.5544C24.3994 57.4887 24.2563 57.4185 24.0986 57.341C23.9229 57.3638 23.7046 57.3912 23.5016 57.4067C23.2987 57.4249 23.1067 57.435 22.9753 57.435C22.9699 57.435 22.9626 57.435 22.9581 57.435Z" fill="#0E082B"/>
<path d="M16.4653 53.2094C16.2742 53.1128 16.0404 52.9805 15.7877 52.8109C15.5376 52.6358 15.2704 52.4197 14.9995 52.1671C14.667 51.8415 14.3509 51.5962 14.061 51.402C13.7801 51.2022 13.5238 51.0527 13.3163 50.9232C13.2429 50.8776 13.1714 50.8329 13.1034 50.7891C13.0364 50.7463 12.972 50.7043 12.9113 50.6642C12.789 50.5831 12.6776 50.5092 12.5734 50.4426C12.3696 50.3085 12.1939 50.1991 12.0344 50.1015C11.7155 49.9036 11.4356 49.765 11.017 49.5909C10.6039 49.4121 9.97974 49.3072 9.30572 49.2224C8.97234 49.1777 8.62718 49.1367 8.29017 49.0993C8.12167 49.082 7.95498 49.0638 7.79644 49.0464C7.63428 49.0291 7.47936 49.0118 7.33532 48.9908C7.04451 48.9543 6.72744 48.8431 6.41308 48.6981C6.25726 48.6233 6.09871 48.5439 5.94923 48.4555C5.80338 48.3679 5.66206 48.2749 5.52708 48.1837C5.26164 48.0004 5.03062 47.8217 4.86483 47.6895C4.78239 47.622 4.7208 47.5654 4.67732 47.5262C4.63293 47.4852 4.60938 47.4651 4.60938 47.4651C4.60938 47.4651 4.62568 47.5189 4.65376 47.6165C4.68004 47.715 4.72714 47.8509 4.78693 48.0196C4.84673 48.1874 4.91919 48.3871 5.00254 48.6069C5.04512 48.7154 5.09041 48.8303 5.13752 48.9461C5.18644 49.0647 5.2408 49.1823 5.29696 49.3027C5.4093 49.5452 5.53342 49.7942 5.66297 50.0404C5.72638 50.1626 5.79886 50.2821 5.86861 50.3988C5.94109 50.5146 6.01446 50.6277 6.08694 50.739C6.23551 50.9569 6.3868 51.1621 6.54172 51.3354C6.69935 51.5059 6.857 51.6473 7.0101 51.7485C7.61889 52.1653 8.11353 52.4051 8.53026 52.6231C8.63444 52.6769 8.73317 52.7279 8.83283 52.7781C8.93339 52.8282 9.0285 52.8784 9.12272 52.9304C9.31206 53.0307 9.49326 53.1383 9.67807 53.266C10.0414 53.525 10.2425 53.525 10.5514 53.5833C10.8621 53.6371 11.2716 53.7575 12.1005 54.1697C12.2989 54.2691 12.5299 54.3594 12.7918 54.4178C13.0527 54.4779 13.3308 54.5162 13.6071 54.5263C14.1588 54.5454 14.7205 54.4305 15.1218 54.1606C15.708 53.7666 16.17 53.576 16.488 53.4858C16.488 53.4858 16.4998 53.4839 16.5206 53.4839C16.5432 53.4839 16.574 53.4839 16.613 53.4839C16.6909 53.483 16.8005 53.4839 16.9319 53.4921C17.1955 53.5058 17.5389 53.5469 17.8822 53.6426C17.7789 53.5578 17.6657 53.4611 17.5398 53.359C17.2037 53.3234 16.719 53.2705 16.4825 53.2122C16.4771 53.2113 16.4708 53.2094 16.4653 53.2094Z" fill="#0E082B"/>
<path d="M11.162 47.7664C11.0062 47.6415 10.8223 47.4737 10.6239 47.2667C10.575 47.2147 10.5251 47.1609 10.4735 47.1026C10.4255 47.046 10.3766 46.9858 10.3285 46.9211C10.2307 46.7961 10.132 46.6612 10.0377 46.5171C9.79223 46.1578 9.56304 45.8632 9.33746 45.6261C9.22693 45.5067 9.12003 45.4018 9.02038 45.306C8.92073 45.2075 8.83286 45.1191 8.75223 45.0397C8.5194 44.8054 8.32914 44.6148 8.16879 44.4506C8.01025 44.2837 7.8789 44.1451 7.75117 44.0238C7.4975 43.7776 7.25925 43.5998 6.92134 43.3499C6.75102 43.2259 6.52454 43.1092 6.26544 42.997C6.1368 42.9423 5.99638 42.8857 5.85505 42.8292C5.71463 42.7736 5.56787 42.7207 5.41929 42.665C5.12124 42.5565 4.80868 42.4516 4.50338 42.3486C4.35028 42.2984 4.1999 42.2483 4.05586 42.2C3.91181 42.1489 3.77592 42.1005 3.64547 42.0522C3.38456 41.9574 3.1155 41.7923 2.8564 41.5935C2.72776 41.4932 2.59822 41.3865 2.48317 41.2743C2.36812 41.1612 2.25758 41.0482 2.1543 40.9351C1.94956 40.7089 1.77562 40.4965 1.65513 40.3378C1.59444 40.2603 1.54642 40.1955 1.51743 40.1499C1.48753 40.1034 1.46851 40.0797 1.46851 40.0797C1.46851 40.0797 1.47032 40.1335 1.47395 40.2283C1.47938 40.3259 1.49208 40.4618 1.50838 40.6296C1.52288 40.7983 1.54371 40.9989 1.5727 41.2196C1.59988 41.4403 1.63158 41.6829 1.68322 41.9282C1.86894 42.9222 2.23493 44.0512 2.71689 44.5555C2.95696 44.8072 3.17529 45.0151 3.37278 45.1993C3.42442 45.2431 3.47245 45.2869 3.52046 45.3297C3.56847 45.3708 3.61738 45.4109 3.66358 45.4501C3.75599 45.5267 3.84658 45.5988 3.93355 45.6717C4.10658 45.8122 4.26422 45.9417 4.4137 46.0757C4.4898 46.1423 4.56229 46.2107 4.63295 46.2809C4.70905 46.3511 4.78152 46.4213 4.85308 46.4998C5.14117 46.8053 5.32235 46.8518 5.59413 46.9667C5.66208 46.9959 5.73455 47.0287 5.81699 47.0725C5.90033 47.1126 5.99456 47.1618 6.09874 47.2266C6.30892 47.3542 6.56801 47.5394 6.90139 47.8157C7.223 48.0774 7.71311 48.3118 8.21953 48.4367C8.73138 48.5589 9.27405 48.5626 9.70436 48.3893C10.3358 48.1376 10.806 48.051 11.1212 48.0291C11.1221 48.0291 11.133 48.0309 11.152 48.0327C11.1729 48.0382 11.201 48.0418 11.2363 48.0491C11.3106 48.0637 11.4129 48.0856 11.5316 48.1203C11.7726 48.1841 12.0815 48.2862 12.376 48.4422C12.2999 48.3446 12.2183 48.2334 12.125 48.1121C11.9719 48.0637 11.7889 48.0036 11.6159 47.9443C11.5289 47.9124 11.4437 47.8832 11.3686 47.8549C11.2943 47.8257 11.2309 47.7984 11.1783 47.7737C11.1729 47.7719 11.1665 47.7683 11.162 47.7664Z" fill="#0E082B"/>
<path d="M7.31904 41.3482C7.26016 41.2743 7.19674 41.1895 7.13151 41.0946C7.06719 40.9989 7.0056 40.8931 6.94309 40.7736C6.81626 40.5411 6.68761 40.2675 6.578 39.9638C6.45479 39.5744 6.30439 39.2598 6.15491 38.9953C6.07519 38.8613 6.01179 38.74 5.94384 38.6287C5.87771 38.5193 5.81701 38.4181 5.76266 38.3278C5.68475 38.1965 5.61135 38.0761 5.54612 37.9658C5.51261 37.9102 5.4818 37.86 5.451 37.8062C5.42382 37.7569 5.39665 37.7068 5.37038 37.6612C5.26529 37.4733 5.17741 37.3192 5.09044 37.1788C5.00166 37.0402 4.9165 36.917 4.81956 36.7912C4.77064 36.7255 4.72082 36.6635 4.66828 36.5942C4.61483 36.5286 4.55776 36.4583 4.49525 36.3826C4.36752 36.2303 4.18994 36.0762 3.98067 35.9166C3.87467 35.8382 3.76143 35.7561 3.64185 35.6741C3.52317 35.5956 3.40631 35.5127 3.2822 35.4288C2.78846 35.1023 2.24129 34.7722 1.80101 34.4867C1.37341 34.2049 0.980226 33.6441 0.70754 33.1453C0.446631 32.6464 0.295335 32.2187 0.295335 32.2187C0.295335 32.2187 0.250954 32.4139 0.192069 32.7294C0.163985 32.8872 0.13137 33.0732 0.100568 33.283C0.0770141 33.49 0.0534616 33.7161 0.034437 33.9532C0.0181302 34.1903 0.00634154 34.4393 0 34.6846C0 34.9317 0.0163201 35.1752 0.0362506 35.4105C0.058899 35.6449 0.0915029 35.8674 0.139517 36.0671C0.160354 36.1656 0.189338 36.2605 0.22467 36.3462C0.258189 36.4319 0.293537 36.5112 0.331586 36.5824C0.652287 37.1496 0.920428 37.5408 1.17681 37.8709C1.42594 38.2056 1.62887 38.4883 1.8155 38.8358C2.00937 39.1796 2.16519 39.2598 2.38714 39.4258C2.49857 39.507 2.6263 39.6109 2.78303 39.7751C2.94066 39.941 3.1436 40.1626 3.38458 40.4891C3.50054 40.6423 3.65364 40.8028 3.83301 40.9515C4.01782 41.0983 4.2271 41.2323 4.44905 41.3418C4.89387 41.5643 5.37762 41.6883 5.82153 41.6181C6.46475 41.5178 6.92224 41.5351 7.21938 41.5789C7.22119 41.5789 7.23026 41.5835 7.24656 41.5898C7.26468 41.598 7.29187 41.609 7.32267 41.6236C7.38427 41.6528 7.47124 41.6938 7.5718 41.7494C7.67327 41.8041 7.78922 41.8734 7.9079 41.9519C8.0293 42.0312 8.15704 42.1206 8.27662 42.2236C8.2277 42.116 8.17425 42.0002 8.11536 41.8698C7.86261 41.7157 7.50477 41.4895 7.32993 41.3582C7.3263 41.3546 7.32267 41.3527 7.31904 41.3482Z" fill="#0E082B"/>
<path d="M5.29525 34.2463C5.22187 34.0876 5.16209 33.8779 5.10502 33.638C5.05157 33.3964 4.99992 33.1182 4.9818 32.8164C4.97002 32.4361 4.91386 32.1142 4.84682 31.8388C4.81058 31.7029 4.77707 31.5761 4.74718 31.4603C4.71366 31.3463 4.68465 31.2406 4.65928 31.1466C4.50799 30.5903 4.41379 30.2438 4.33588 29.9483C4.29058 29.8033 4.24618 29.6702 4.19002 29.5343C4.13566 29.3939 4.06591 29.2525 3.99253 29.0884C3.91552 28.9215 3.79412 28.7391 3.64373 28.5485C3.56854 28.4509 3.48701 28.3524 3.39823 28.2512C3.31126 28.1536 3.21976 28.0515 3.12826 27.9475C2.76408 27.539 2.34463 27.1131 2.0194 26.7556C1.85905 26.5769 1.72679 26.3398 1.61536 26.0808C1.50665 25.8218 1.41877 25.5409 1.36532 25.2856C1.25117 24.7722 1.21855 24.3481 1.21855 24.3481C1.21855 24.3481 1.12886 24.5159 0.996598 24.7904C0.868861 25.0658 0.68586 25.4442 0.541817 25.8719C0.463907 26.0853 0.39144 26.3079 0.323495 26.534C0.256456 26.7574 0.209353 26.9854 0.171304 27.2043C0.129631 27.4232 0.102444 27.6338 0.0942908 27.8262C0.0906671 28.0214 0.105163 28.1956 0.140494 28.3415C0.213875 28.6388 0.283623 28.8896 0.35791 29.1139C0.43582 29.3373 0.512822 29.5316 0.581673 29.7121C0.652336 29.8936 0.715758 30.0596 0.770114 30.2265C0.826282 30.3924 0.884259 30.5539 0.925932 30.7326C1.012 31.0855 1.1334 31.194 1.29284 31.3919C1.37347 31.4913 1.45953 31.6126 1.56553 31.7959C1.67152 31.981 1.79473 32.2282 1.93153 32.5784C1.99585 32.7443 2.09549 32.9231 2.2187 33.0991C2.34916 33.2733 2.5068 33.4429 2.68164 33.5943C3.02862 33.8952 3.44354 34.1168 3.86208 34.1542C4.46815 34.2089 4.88668 34.3275 5.14759 34.4342C5.14759 34.4342 5.15575 34.4406 5.17024 34.4506C5.18293 34.4624 5.20375 34.4789 5.22821 34.498C5.27894 34.5381 5.34781 34.5956 5.42663 34.6704C5.58517 34.8172 5.77903 35.0205 5.93938 35.2622C5.92307 35.1546 5.9113 35.0333 5.89408 34.9029C5.70112 34.705 5.42843 34.4177 5.30432 34.2572C5.30251 34.2536 5.29706 34.25 5.29525 34.2463Z" fill="#0E082B"/>
<path d="M5.33317 26.9141C5.31686 26.7509 5.31141 26.5502 5.31956 26.3177C5.32228 26.201 5.3377 26.0761 5.35853 25.9502C5.37846 25.8198 5.40563 25.6848 5.43825 25.5471C5.48082 25.3711 5.50347 25.2061 5.53065 25.0556C5.5533 24.9015 5.56779 24.7592 5.57504 24.6279C5.58501 24.4957 5.58502 24.3744 5.58502 24.2613C5.58502 24.2048 5.58502 24.1519 5.58502 24.0999C5.58502 24.0497 5.58681 24.0014 5.58681 23.9558C5.59587 23.6877 5.60132 23.4697 5.60585 23.2855C5.61129 23.0976 5.61309 22.9408 5.6158 22.7994C5.6158 22.5149 5.59225 22.2824 5.52884 21.9459C5.47448 21.6112 5.27699 21.1789 5.03511 20.7266C4.79957 20.2743 4.53232 19.8083 4.31762 19.4152C4.26598 19.3186 4.22066 19.2082 4.18624 19.0915C4.15363 18.9766 4.12737 18.8535 4.10925 18.7249C4.0721 18.4723 4.06123 18.2069 4.06395 17.9671C4.06757 17.7245 4.09294 17.5102 4.11106 17.3552C4.13099 17.1992 4.14638 17.1026 4.14638 17.1026C4.14638 17.1026 4.02681 17.2329 3.842 17.4491C3.65447 17.6597 3.42164 17.9671 3.17976 18.3081C2.93425 18.6483 2.70505 19.0359 2.52477 19.4034C2.33815 19.7672 2.23033 20.1284 2.21855 20.4029C2.19228 20.9537 2.24121 21.3631 2.2711 21.717C2.28741 21.8921 2.29918 22.0553 2.30915 22.2158C2.32002 22.3772 2.32455 22.5368 2.31459 22.7073C2.29556 23.0448 2.37618 23.1706 2.46587 23.3867C2.5619 23.6029 2.67334 23.9129 2.72498 24.6078C2.76031 24.9425 2.90617 25.3529 3.13355 25.704C3.24589 25.8809 3.38994 26.045 3.54485 26.1809C3.70067 26.3177 3.87461 26.4244 4.06123 26.491C4.60026 26.6843 4.93817 26.8895 5.14382 27.0491C5.14382 27.0491 5.15015 27.0555 5.16012 27.0683C5.16827 27.081 5.18278 27.1002 5.19818 27.1239C5.22989 27.1722 5.27881 27.2433 5.33317 27.3272C5.43825 27.4969 5.56417 27.7285 5.64299 27.9829C5.6602 27.8826 5.67742 27.7704 5.69735 27.6473C5.63394 27.5342 5.55965 27.3975 5.4917 27.2661C5.42648 27.1357 5.3721 27.0117 5.33858 26.9251C5.33677 26.9205 5.33407 26.9169 5.33317 26.9141Z" fill="#0E082B"/>
<path d="M7.47936 19.8856C7.50563 19.7388 7.54912 19.5528 7.61706 19.3467C7.68954 19.1406 7.79101 18.9144 7.91784 18.6773C8.07638 18.3782 8.19142 18.1155 8.26661 17.8794C8.34543 17.645 8.38802 17.4389 8.43603 17.2747C8.57554 16.796 8.66342 16.4923 8.72683 16.2351C8.79115 15.978 8.81923 15.7627 8.83826 15.4481C8.84369 15.3679 8.84097 15.2839 8.83282 15.1909C8.82467 15.0988 8.81199 15.0031 8.79568 14.9009C8.76126 14.6985 8.70689 14.4778 8.64528 14.2526C8.58368 14.0255 8.5103 13.7911 8.44326 13.5704C8.37532 13.3461 8.3101 13.129 8.25122 12.9357C8.19414 12.7415 8.17963 12.5098 8.19141 12.2755C8.20228 12.0393 8.24668 11.8031 8.29379 11.5888C8.34271 11.3726 8.39797 11.182 8.44326 11.0434C8.46319 10.9759 8.48495 10.9194 8.49944 10.8829C8.51303 10.8464 8.52028 10.8255 8.52028 10.8255C8.52028 10.8255 8.3862 10.9176 8.18327 11.0808C7.98125 11.2432 7.70313 11.4684 7.41867 11.7265C7.14145 11.9918 6.85154 12.2873 6.616 12.5764C6.38408 12.8746 6.20743 13.1646 6.14129 13.4072C6.07335 13.647 6.03439 13.865 5.99905 14.0583C5.96463 14.2525 5.94199 14.4231 5.91753 14.5827C5.86861 14.9 5.83963 15.1745 5.7436 15.4682C5.653 15.7655 5.69738 15.8931 5.73272 16.1038C5.77167 16.3181 5.79975 16.6154 5.68651 17.2437C5.63578 17.5465 5.66929 17.9423 5.79069 18.308C5.90936 18.6718 6.13223 19.0156 6.43209 19.2181C6.87328 19.5145 7.12876 19.7744 7.27371 19.965C7.27371 19.965 7.27553 19.9722 7.28187 19.9868C7.28731 19.9996 7.29455 20.0215 7.30452 20.0461C7.32264 20.0981 7.34709 20.1701 7.36884 20.2595C7.41685 20.4337 7.47302 20.6717 7.47936 20.9243C7.51922 20.8359 7.56361 20.7374 7.61434 20.6307C7.55727 20.3972 7.49748 20.0698 7.47936 19.8984C7.47936 19.8947 7.47936 19.8911 7.47936 19.8856Z" fill="#0E082B"/>
<path d="M11.3269 13.573C11.3831 13.4407 11.4628 13.2821 11.567 13.1079C11.6748 12.9328 11.8116 12.7458 11.9774 12.5543C12.0816 12.434 12.1686 12.3163 12.2447 12.2051C12.3253 12.0947 12.3932 11.9898 12.4512 11.8895C12.5699 11.6898 12.6505 11.5129 12.7212 11.3688C12.935 10.9521 13.079 10.6967 13.1796 10.4715C13.2783 10.2416 13.3472 10.0529 13.4206 9.77017C13.4559 9.62974 13.4704 9.45738 13.4731 9.26496C13.4731 9.16829 13.4695 9.06891 13.4649 8.96495C13.4586 8.8619 13.4523 8.75609 13.4432 8.6494C13.4061 8.21896 13.3399 7.76392 13.2946 7.38911C13.2484 7.01795 13.387 6.55102 13.5365 6.17074C13.6126 5.98106 13.6941 5.82057 13.7539 5.70476C13.8164 5.5862 13.8581 5.51598 13.8581 5.51598C13.8581 5.51598 13.7213 5.58437 13.5111 5.69745C13.2983 5.8078 13.0201 5.97741 12.723 6.16983C12.5735 6.26559 12.424 6.36956 12.2754 6.47625C12.1305 6.58842 11.991 6.69968 11.8632 6.81458C11.605 7.04165 11.3949 7.27147 11.2997 7.48304C11.1086 7.90527 10.9954 8.22262 10.903 8.5035C10.8115 8.78346 10.7317 9.0233 10.5949 9.27226C10.4572 9.51939 10.4781 9.64433 10.4735 9.84131C10.4708 10.041 10.4391 10.311 10.2217 10.8554C10.1211 11.1199 10.0749 11.4801 10.113 11.8303C10.132 12.0063 10.1737 12.1786 10.2407 12.3428C10.3087 12.5023 10.3993 12.6483 10.5152 12.7687C10.8549 13.1197 11.0316 13.4052 11.1249 13.6049C11.1249 13.6049 11.1258 13.614 11.1276 13.6259C11.1294 13.6405 11.1331 13.6596 11.1349 13.6833C11.1403 13.7335 11.1476 13.8055 11.1503 13.8885C11.1548 14.0563 11.1539 14.2834 11.105 14.5132C11.1602 14.4411 11.2237 14.3618 11.2925 14.2734C11.2925 14.0508 11.307 13.7426 11.326 13.5848C11.326 13.5803 11.3269 13.5766 11.3269 13.573Z" fill="#0E082B"/>
<path d="M16.3794 8.08833C16.4518 7.97798 16.5506 7.84484 16.6756 7.70075C16.739 7.63053 16.807 7.55485 16.884 7.47916C16.9637 7.40802 17.0479 7.3296 17.1394 7.25573C17.3686 7.06696 17.5399 6.88091 17.6767 6.7122C17.8162 6.54805 17.9194 6.39849 18.0082 6.2772C18.1369 6.1012 18.2411 5.95804 18.3298 5.83584C18.4204 5.71364 18.4956 5.61241 18.5572 5.51574C18.6868 5.32515 18.7728 5.15736 18.8788 4.90657C18.9848 4.65488 19.0356 4.28552 19.0591 3.88336C19.0709 3.68455 19.0772 3.47755 19.079 3.27875C19.0827 3.08086 19.0872 2.88844 19.0908 2.71609C19.0999 2.3732 19.2802 1.95643 19.4686 1.63269C19.6552 1.30895 19.8418 1.07094 19.8418 1.07094C19.8418 1.07094 19.7105 1.11744 19.5048 1.19678C19.2974 1.27429 19.0165 1.38648 18.7257 1.52874C18.4331 1.66918 18.1233 1.82876 17.8579 2.00477C17.5969 2.17895 17.3795 2.36406 17.2608 2.54007C17.201 2.62853 17.1503 2.71151 17.1005 2.79085C17.0534 2.87019 17.0099 2.94588 16.97 3.01975C16.8921 3.16384 16.8242 3.29516 16.7617 3.41463C16.6394 3.65629 16.5297 3.85691 16.3739 4.06757C16.2154 4.27732 16.2154 4.39222 16.1828 4.57005C16.1511 4.7497 16.0804 4.98591 15.8059 5.45465C15.6727 5.67899 15.5731 5.99634 15.555 6.32099C15.5359 6.65021 15.5975 6.98213 15.7715 7.23474C16.0242 7.60499 16.1375 7.89226 16.1891 8.0865C16.1891 8.08832 16.1891 8.09471 16.1882 8.10839C16.1873 8.12024 16.1846 8.13849 16.1846 8.16311C16.181 8.20871 16.1728 8.27437 16.1619 8.34915C16.1411 8.50601 16.0985 8.71392 16.0143 8.91455C16.0777 8.8571 16.1484 8.79417 16.2263 8.72486C16.2652 8.5215 16.3313 8.24063 16.3766 8.09837C16.3766 8.09654 16.3775 8.09289 16.3794 8.08833Z" fill="#0E082B"/>
<path d="M18.3126 43.8274C18.2492 43.8995 18.1966 44.0035 18.1531 44.1302C18.1106 44.2579 18.0807 44.4056 18.0571 44.5734C18.0345 44.7412 18.0172 44.9273 18.0064 45.1242C18 45.2236 17.9946 45.3258 17.991 45.4297C17.991 45.5328 17.9892 45.6386 17.9873 45.7434C17.9855 46.1684 17.9846 46.6216 17.9738 47.0329C17.9602 47.4442 17.9131 47.8345 17.8089 48.1282C17.6014 48.7182 17.5289 49.0228 17.5969 49.4122C17.6286 49.6055 17.7038 49.8189 17.8161 50.1016C17.8732 50.2439 17.9384 50.4062 18.0191 50.5849C18.1024 50.7646 18.1948 50.9698 18.3017 51.1996C18.3479 51.3045 18.3968 51.4066 18.453 51.5042C18.5091 51.599 18.5681 51.6966 18.6297 51.7878C18.7501 51.9729 18.8806 52.1498 19.0174 52.3149C19.1596 52.4754 19.3055 52.6286 19.4531 52.7672C19.5265 52.8393 19.599 52.9058 19.6724 52.9706C19.7467 53.0353 19.8246 53.0919 19.898 53.1502C20.4904 53.6117 21.0494 53.8524 21.3031 53.8953C21.4136 54.0348 21.5069 54.1798 21.5322 54.3285C21.5658 54.5017 21.7107 54.7571 21.8983 55.0051C22.0876 55.2513 22.3168 55.5076 22.5043 55.6927C22.7562 55.8523 22.9953 56.0073 23.2246 56.1523C23.1349 55.9481 22.8748 55.359 22.6873 55.1729C22.604 55.0854 22.3612 54.9057 22.1057 54.6777C21.8511 54.447 21.5893 54.1588 21.4534 53.8743C21.7415 53.6308 21.9562 53.3454 22.1121 53.0408C22.267 52.7335 22.3675 52.4097 22.4246 52.0823C22.4808 51.7568 22.4916 51.434 22.4681 51.1339C22.4608 51.0573 22.4554 50.9871 22.4454 50.9132C22.4364 50.8394 22.4246 50.771 22.4119 50.6998C22.3848 50.5612 22.3494 50.4317 22.3068 50.3123C22.2652 50.1919 22.2054 50.046 22.1293 49.8754C22.0586 49.7022 21.9734 49.5116 21.8792 49.3073C21.8312 49.2061 21.7805 49.1039 21.7307 48.9927C21.6808 48.886 21.6301 48.7729 21.5775 48.6598C21.4725 48.4346 21.3592 48.2121 21.2532 47.9795C21.1454 47.747 21.0295 47.5281 20.9253 47.3083C20.8193 47.0895 20.7115 46.8834 20.6073 46.6964C20.5022 46.5086 20.4053 46.3335 20.3074 46.1866C20.2123 46.0407 20.1136 45.9249 20.0266 45.8355C19.9215 45.7298 19.7666 45.5419 19.5917 45.3221C19.4187 45.1023 19.2366 44.8388 19.0545 44.6044C18.8815 44.3646 18.7193 44.1448 18.5871 43.998C18.5535 43.9615 18.5228 43.9296 18.4929 43.9013C18.4657 43.8758 18.4412 43.8539 18.4177 43.8375C18.3715 43.8056 18.3352 43.7992 18.3126 43.8274Z" fill="#0E082B"/>
<path d="M15.1154 39.6762C15.0393 39.7336 14.9686 39.8185 14.9007 39.927C14.8309 40.0391 14.773 40.1686 14.7132 40.3182C14.6561 40.4696 14.5999 40.6392 14.5465 40.817C14.4948 40.9985 14.4369 41.1927 14.3943 41.3888C14.3445 41.5867 14.2992 41.7891 14.2511 41.9861C14.2249 42.0892 14.2013 42.1895 14.175 42.288C14.1497 42.3883 14.1234 42.4868 14.0999 42.5825C14.0002 42.961 13.8788 43.3103 13.7167 43.5665C13.6333 43.6951 13.5635 43.8073 13.5056 43.9122C13.4467 44.0143 13.4014 44.1082 13.3651 44.1976C13.2899 44.3736 13.2528 44.5359 13.2446 44.7219C13.2401 44.8131 13.2428 44.9135 13.2501 45.0265C13.2601 45.1387 13.2727 45.2664 13.2999 45.405C13.3235 45.5473 13.3552 45.7059 13.3896 45.8883C13.4086 45.9813 13.4267 46.0798 13.4476 46.1847C13.4675 46.2896 13.4902 46.4008 13.5201 46.5194C13.704 47.352 14.1361 48.097 14.5945 48.6305C15.0438 49.1722 15.514 49.506 15.7423 49.5936C15.7785 49.6674 15.8084 49.7467 15.8302 49.8233C15.851 49.8963 15.8637 49.9702 15.861 50.0422C15.8528 50.2118 15.9362 50.4708 16.0512 50.7417C16.0811 50.8092 16.111 50.8785 16.1454 50.9469C16.179 51.0116 16.2152 51.0791 16.2515 51.1429C16.3212 51.2724 16.3955 51.3946 16.4616 51.4995C16.5586 51.5989 16.6528 51.6992 16.7461 51.7959C16.8403 51.8898 16.9327 51.9819 17.0233 52.0713C17.0052 51.9692 16.9671 51.7694 16.9173 51.5697C16.872 51.3645 16.8168 51.1593 16.7506 51.0545C16.7189 51.0043 16.6591 50.9268 16.5803 50.8292C16.5015 50.7316 16.4073 50.614 16.3167 50.4781C16.1346 50.21 15.948 49.8963 15.8882 49.6008C16.5278 49.2661 16.9354 48.7044 17.1819 48.1198C17.3042 47.8271 17.3839 47.528 17.4246 47.2417C17.4364 47.1714 17.4428 47.1012 17.4482 47.031C17.4554 46.9626 17.46 46.8915 17.4627 46.8258C17.4681 46.6908 17.4609 46.5613 17.4473 46.441C17.4346 46.3215 17.4092 46.1692 17.3739 45.9978C17.3395 45.8254 17.3041 45.6266 17.2561 45.4205C17.2326 45.3147 17.2099 45.2071 17.1846 45.0958C17.1728 45.0411 17.1601 44.9855 17.1456 44.9308C17.1338 44.8724 17.1221 44.8159 17.1094 44.7584C17.0614 44.5277 17.0079 44.2924 16.949 44.0599C16.92 43.945 16.8974 43.8273 16.8702 43.7124C16.8448 43.5984 16.8168 43.4835 16.7887 43.3741C16.7307 43.1552 16.6754 42.9446 16.6238 42.7467C16.5694 42.5506 16.5105 42.3737 16.4489 42.2223C16.3892 42.07 16.3339 41.9369 16.2678 41.8411C16.2324 41.7846 16.1844 41.7043 16.1346 41.6095C16.1101 41.5639 16.0829 41.5119 16.0558 41.4581C16.0268 41.407 15.9996 41.3505 15.9733 41.2885C15.8673 41.0523 15.7441 40.7824 15.6318 40.5298C15.5267 40.2771 15.4225 40.0437 15.331 39.885C15.2839 39.8057 15.2459 39.7427 15.2096 39.7054C15.1743 39.6689 15.1426 39.6552 15.1154 39.6762Z" fill="#0E082B"/>
<path d="M13.0055 35.0278C12.8397 35.1008 12.6685 35.2841 12.4882 35.5376C12.308 35.7893 12.1123 36.113 11.9374 36.4541C11.8468 36.6283 11.7535 36.8034 11.6629 36.9766C11.5669 37.1526 11.4754 37.3268 11.3848 37.49C11.2036 37.8193 11.0097 38.1166 10.7996 38.319C10.3738 38.7285 10.1998 38.9501 10.0948 39.2875C10.0449 39.4599 10.0123 39.6596 9.98423 39.9331C9.96521 40.2022 9.95435 40.5423 9.93352 41.0019C9.92717 41.1041 9.93169 41.2026 9.93712 41.302C9.94346 41.4014 9.95343 41.4999 9.96521 41.5974C9.98786 41.7917 10.0232 41.9832 10.0685 42.1656C10.1654 42.5313 10.3031 42.8696 10.4463 43.166C10.5976 43.4587 10.7651 43.7031 10.9137 43.8937C10.9871 43.9895 11.0569 44.0697 11.1221 44.1335C11.1891 44.1983 11.2471 44.2466 11.2978 44.2758C11.3341 44.429 11.344 44.585 11.3069 44.7135C11.2833 44.7929 11.2761 44.8941 11.2806 45.0126C11.2833 45.1321 11.2987 45.2662 11.3259 45.4011C11.3803 45.6711 11.4627 45.9602 11.5379 46.1818C11.5705 46.241 11.6031 46.2958 11.6357 46.3496C11.6702 46.4034 11.7046 46.4554 11.7372 46.5101C11.8034 46.6149 11.8695 46.718 11.9329 46.8174C11.9438 46.6241 11.9719 46.0514 11.9039 45.8243C11.8704 45.7231 11.7472 45.4869 11.6303 45.2087C11.5705 45.0701 11.5225 44.9133 11.4863 44.7601C11.4509 44.6059 11.4274 44.4536 11.4319 44.3114C12.1005 44.1226 12.6033 43.6858 12.9557 43.1942C13.3099 42.6981 13.5319 42.1437 13.5817 41.695C13.6107 41.4679 13.6333 41.115 13.6397 40.7165C13.6415 40.6663 13.6415 40.6144 13.6415 40.5642C13.6442 40.5104 13.6478 40.4593 13.6496 40.4055C13.6524 40.2988 13.6551 40.1894 13.6605 40.0791C13.6614 39.9696 13.6632 39.8584 13.666 39.7435C13.666 39.6331 13.666 39.5228 13.6714 39.4097C13.6886 38.9574 13.6786 38.5215 13.6768 38.1403C13.6732 37.9497 13.6596 37.7764 13.6388 37.6277C13.6216 37.4727 13.5989 37.3441 13.5627 37.2429C13.521 37.1225 13.4676 36.9174 13.4186 36.6793C13.377 36.4395 13.3326 36.1677 13.2837 35.916C13.2782 35.8832 13.2719 35.8513 13.2673 35.8221C13.2601 35.7911 13.2583 35.7601 13.251 35.73C13.2429 35.6689 13.2347 35.6096 13.2248 35.5549C13.2048 35.4427 13.184 35.3433 13.1613 35.2622C13.117 35.0971 13.0662 35.0014 13.0055 35.0278Z" fill="#0E082B"/>
<path d="M12.1341 30.021C11.9647 30.0538 11.7509 30.1806 11.5253 30.3767C11.3042 30.5745 11.0587 30.8354 10.8033 31.1144C10.738 31.1846 10.6746 31.2567 10.6094 31.3269C10.546 31.399 10.4844 31.4692 10.4228 31.5403C10.2968 31.6835 10.1709 31.8239 10.045 31.9571C9.91907 32.0902 9.79313 32.2142 9.66721 32.3227C9.6047 32.3775 9.5422 32.4285 9.4806 32.4741C9.41719 32.5197 9.3592 32.5608 9.2976 32.5963C8.81927 32.8809 8.5946 33.0478 8.41522 33.3377C8.36811 33.4089 8.32642 33.49 8.28294 33.5849C8.26029 33.6314 8.23855 33.6797 8.21681 33.7335C8.19959 33.7873 8.17876 33.843 8.15702 33.905C8.07277 34.1476 7.97402 34.4567 7.83995 34.8744C7.73395 35.2419 7.68865 35.6149 7.67687 35.9733C7.67325 36.0626 7.67688 36.1511 7.68231 36.2359C7.68866 36.3225 7.69681 36.4073 7.70496 36.4903C7.7258 36.6572 7.75117 36.8177 7.78107 36.9691C7.79647 37.0448 7.81366 37.1177 7.83088 37.188C7.8499 37.2582 7.87257 37.3238 7.89431 37.3886C7.93598 37.5163 7.98219 37.6339 8.0302 37.737C8.12079 37.9431 8.21137 38.0926 8.28475 38.171C8.2766 38.3188 8.25578 38.461 8.18783 38.5741C8.03201 38.8395 7.99758 39.5353 8.0465 39.9694C8.11535 40.2019 8.1842 40.4272 8.24852 40.6396C8.3056 40.4627 8.48496 39.9356 8.46775 39.7177C8.44329 39.5225 8.24942 38.7465 8.39709 38.233C8.73047 38.2166 9.0385 38.1336 9.31844 38.0096C9.59746 37.8829 9.85383 37.7151 10.0794 37.5263C10.305 37.3384 10.5007 37.1296 10.6619 36.9171C10.7398 36.8132 10.8096 36.7046 10.8685 36.5997C10.9283 36.494 10.9772 36.3927 11.0207 36.2906C11.1086 36.0882 11.2118 35.7717 11.316 35.4079C11.3396 35.3176 11.374 35.2218 11.403 35.1242C11.432 35.0294 11.4637 34.9309 11.4936 34.8278C11.5552 34.6281 11.6114 34.422 11.6702 34.2187C11.7337 34.0144 11.7934 33.8083 11.8442 33.6122C11.8967 33.4162 11.9384 33.2274 11.9882 33.0523C12.0317 32.8772 12.0652 32.714 12.0852 32.5699C12.0924 32.4978 12.0996 32.4294 12.1006 32.3683C12.1024 32.3063 12.1006 32.2489 12.1006 32.1987C12.0924 32.0774 12.1005 31.875 12.1141 31.6452C12.1205 31.5285 12.1277 31.4053 12.1386 31.2786C12.1495 31.1536 12.1621 31.026 12.1775 30.9028C12.2011 30.6584 12.212 30.4268 12.212 30.2672C12.2156 30.1076 12.1948 30.0092 12.1341 30.021Z" fill="#0E082B"/>
<path d="M12.6033 24.9751C12.4402 24.9687 12.2182 25.0453 11.9591 25.1766C11.8305 25.2432 11.6919 25.3216 11.5451 25.4074C11.4011 25.494 11.258 25.5907 11.1085 25.6901C10.4952 26.0849 9.87549 26.5573 9.35186 26.7069C8.83548 26.8573 8.5945 26.9595 8.35533 27.1847C8.29464 27.2404 8.23575 27.3051 8.17143 27.3808C8.13972 27.4173 8.10893 27.4574 8.07541 27.503C8.04189 27.5449 8.01018 27.5933 7.97394 27.6434C7.83533 27.8477 7.66412 28.1058 7.43763 28.4587C7.25101 28.7697 7.10334 29.0989 7.00822 29.4235C6.92035 29.7473 6.86689 30.0646 6.84696 30.3537C6.82703 30.9337 6.90584 31.3915 7.00187 31.5675C6.96111 31.6998 6.90131 31.8256 6.81343 31.9122C6.70563 32.018 6.60146 32.2241 6.51177 32.4576C6.46919 32.5761 6.42298 32.6992 6.39309 32.8169C6.365 32.9373 6.33963 33.0522 6.3197 33.1534C6.32423 33.3832 6.32696 33.6021 6.3324 33.8091C6.43205 33.6623 6.72828 33.2236 6.77176 33.0212C6.79532 32.836 6.8234 32.0837 7.09247 31.6487C7.7085 31.7663 8.29826 31.625 8.80467 31.3806C9.31743 31.1353 9.7387 30.7878 9.98692 30.454C10.0168 30.4121 10.0503 30.3647 10.0857 30.3109C10.1237 30.2571 10.1654 30.2005 10.2071 30.1367C10.2931 30.0108 10.3846 29.8686 10.4807 29.7154C10.5259 29.6378 10.5767 29.5585 10.6256 29.4774C10.6782 29.3962 10.7325 29.3132 10.7869 29.2311C10.8938 29.0597 11.0016 28.8855 11.103 28.7131C11.2118 28.5408 11.3214 28.3694 11.4183 28.2034C11.5152 28.0365 11.6076 27.8733 11.6928 27.7237C11.8649 27.4228 11.9718 27.161 12.0162 26.9704C12.0398 26.8592 12.0978 26.6777 12.1657 26.468C12.2391 26.2573 12.336 26.0229 12.4139 25.8031C12.4339 25.7475 12.4529 25.6919 12.4719 25.6399C12.4927 25.5897 12.5118 25.5369 12.5299 25.4894C12.5661 25.391 12.596 25.3025 12.6168 25.2268C12.6585 25.0745 12.6622 24.9769 12.6033 24.9751Z" fill="#0E082B"/>
<path d="M14.4443 19.9428C14.2957 19.9063 14.0674 19.9382 13.7956 20.0148C13.5275 20.0942 13.214 20.2154 12.8852 20.3431C12.8018 20.3768 12.7194 20.4088 12.636 20.4416C12.5545 20.4763 12.4721 20.51 12.3914 20.5428C12.2265 20.6094 12.0626 20.6714 11.9013 20.7298C11.7392 20.7891 11.5842 20.8392 11.4338 20.8757C11.2889 20.9131 11.1503 20.9395 11.0244 20.9486C10.5161 20.9824 10.2652 21.0225 9.98707 21.1803C9.84665 21.2578 9.71076 21.3681 9.52957 21.5232C9.43807 21.6007 9.33571 21.6928 9.21975 21.7958C9.16358 21.8478 9.09926 21.9025 9.03403 21.9618C8.96971 22.0229 8.90267 22.0886 8.82929 22.1551C8.70155 22.2755 8.58379 22.405 8.47508 22.5363C8.42072 22.6011 8.36818 22.6695 8.31835 22.7361C8.27124 22.8035 8.22776 22.8719 8.18518 22.9403C8.10002 23.078 8.02664 23.2167 7.9596 23.3516C7.89257 23.4902 7.83095 23.6225 7.78928 23.752C7.7005 24.0119 7.64252 24.2508 7.61262 24.4459C7.59541 24.5444 7.58907 24.6338 7.59088 24.7068C7.59088 24.7815 7.59722 24.8417 7.60628 24.8882C7.5329 25.0013 7.44049 25.1007 7.33722 25.1582C7.2738 25.191 7.20495 25.2503 7.13157 25.3223C7.09624 25.3588 7.05729 25.4007 7.02195 25.4427C6.98843 25.4865 6.95039 25.533 6.91597 25.5804C6.77917 25.7719 6.6469 25.9917 6.55359 26.1659C6.48746 26.372 6.44307 26.5744 6.39233 26.7632C6.45666 26.7085 6.58439 26.5972 6.70578 26.4814C6.82537 26.3628 6.9531 26.2397 7.00112 26.1522C7.0437 26.0701 7.11617 25.8613 7.22216 25.6306C7.24934 25.574 7.27561 25.5147 7.30913 25.4555C7.34174 25.3962 7.37799 25.3387 7.41514 25.2831C7.49033 25.1709 7.57368 25.0651 7.66608 24.984C8.1879 25.2348 8.76679 25.2466 9.29042 25.1454C9.42268 25.119 9.5486 25.0861 9.6709 25.0469C9.7932 25.0068 9.91369 24.9639 10.0269 24.9138C10.2525 24.818 10.4518 24.7013 10.6104 24.58C10.6901 24.5171 10.7816 24.4332 10.8957 24.3374C11.0072 24.2417 11.1322 24.1304 11.2599 24.0091C11.3251 23.9489 11.3931 23.886 11.4601 23.8203C11.4936 23.7893 11.5281 23.7547 11.5616 23.7228C11.5978 23.689 11.6332 23.6553 11.6703 23.6225C11.8143 23.4875 11.9593 23.3498 12.1006 23.2094C12.241 23.0689 12.3869 22.9303 12.5237 22.7935C12.6587 22.6585 12.7864 22.5236 12.8979 22.3977C13.1352 22.1469 13.3155 21.9226 13.3934 21.7429C13.4405 21.6408 13.5465 21.4785 13.6661 21.2924C13.7268 21.2013 13.792 21.1009 13.8563 21.0006C13.9234 20.8994 13.9958 20.7991 14.0611 20.7015C14.1988 20.5082 14.3129 20.3212 14.3899 20.1844C14.4696 20.0476 14.4986 19.9555 14.4443 19.9428Z" fill="#0E082B"/>
<path d="M17.4817 15.1201C17.3494 15.0635 17.1329 15.0653 16.863 15.0973C16.7271 15.1137 16.5803 15.1365 16.4236 15.1666C16.2705 15.1976 16.1101 15.2331 15.9443 15.2696C15.6173 15.3435 15.2658 15.421 14.9469 15.4775C14.6289 15.5359 14.3318 15.5678 14.0926 15.5395C13.6125 15.4839 13.3697 15.4775 13.0879 15.5787C12.9448 15.6289 12.7908 15.7037 12.5888 15.8149C12.4882 15.8724 12.3714 15.9353 12.2427 16.0101C12.1168 16.0876 11.9745 16.1733 11.8079 16.2727C11.6647 16.3594 11.527 16.456 11.3975 16.5564C11.2688 16.6576 11.152 16.7661 11.0423 16.8755C10.8258 17.0953 10.6329 17.3205 10.4915 17.5431C10.3493 17.7628 10.2388 17.9699 10.1627 18.1431C10.0902 18.3164 10.0567 18.4596 10.0512 18.548C9.95612 18.6328 9.84922 18.7067 9.7387 18.735C9.67347 18.7523 9.59647 18.7915 9.51221 18.8426C9.42887 18.8955 9.33738 18.9593 9.25313 19.0314C9.07828 19.1764 8.90525 19.3469 8.7757 19.4846C8.72316 19.573 8.6688 19.6579 8.61807 19.7427C8.56915 19.8275 8.52203 19.9105 8.47583 19.9907C8.54649 19.9552 8.69053 19.8831 8.83095 19.8029C8.97771 19.7253 9.11905 19.6396 9.18337 19.5703C9.24407 19.5074 9.36274 19.3323 9.51765 19.1435C9.67166 18.9557 9.8755 18.7596 10.082 18.6456C10.4952 18.9876 11.0206 19.1198 11.5225 19.1326C12.0235 19.1417 12.5208 19.0387 12.8705 18.8699C12.962 18.828 13.0689 18.7687 13.1912 18.6985C13.3162 18.6292 13.4585 18.548 13.6088 18.4596C13.7592 18.3675 13.916 18.2699 14.0772 18.1687C14.2421 18.0674 14.4115 17.9617 14.5782 17.8568C14.7449 17.7501 14.9034 17.6388 15.0629 17.5321C15.2196 17.4273 15.3727 17.3224 15.5077 17.2202C15.7767 17.0178 16.0005 16.8345 16.1165 16.6795C16.1844 16.5901 16.3112 16.4496 16.4634 16.2891C16.6202 16.1323 16.8005 15.9572 16.9644 15.7876C17.0034 15.7447 17.0442 15.7037 17.0831 15.6636C17.1221 15.6253 17.1619 15.586 17.1973 15.5468C17.2697 15.473 17.3322 15.4046 17.3839 15.3453C17.4826 15.224 17.5279 15.1401 17.4817 15.1201Z" fill="#0E082B"/>
<path d="M21.4697 10.6649C21.2423 10.5308 20.6526 10.5664 20.0112 10.6202C19.3734 10.6758 18.6704 10.7433 18.2428 10.6311C17.8089 10.5171 17.5869 10.4779 17.306 10.5308C17.018 10.5773 16.6855 10.7242 16.0024 10.9859C15.4063 11.2266 14.9017 11.5969 14.5556 11.9562C14.2014 12.3091 13.9967 12.6465 13.9559 12.8079C13.8481 12.87 13.7376 12.9183 13.6289 12.9274C13.3698 12.9438 12.8896 13.2402 12.5943 13.4463C12.5282 13.5156 12.4611 13.5849 12.3986 13.6533C12.3361 13.7217 12.2745 13.7883 12.2129 13.853C12.2872 13.8357 12.4358 13.7947 12.5789 13.7482C12.7266 13.7026 12.8751 13.6487 12.9512 13.5968C13.088 13.5028 13.5274 13.0368 13.9623 12.9037C14.273 13.2876 14.7269 13.4992 15.1889 13.5941C15.419 13.6406 15.6536 13.6579 15.8747 13.6506C16.0948 13.6433 16.3041 13.6159 16.4871 13.5639C16.6701 13.5138 16.9382 13.4117 17.2517 13.2876C17.5669 13.1663 17.9194 13.0168 18.2682 12.8618C18.6242 12.7113 18.963 12.5471 19.2556 12.3939C19.55 12.2425 19.7901 12.0948 19.9224 11.9626C20.0012 11.886 20.1507 11.7729 20.3237 11.6443C20.494 11.5139 20.6897 11.3689 20.8736 11.233C21.2451 10.9613 21.5522 10.715 21.4697 10.6649Z" fill="#0E082B"/>
<path d="M26.1897 6.66873C25.9959 6.51917 25.4441 6.49547 24.8381 6.47267C24.2356 6.45443 23.5834 6.4453 23.1947 6.28663C22.8106 6.1316 22.6122 6.07233 22.344 6.08692C22.0777 6.10151 21.738 6.18814 21.0757 6.35502C20.486 6.49546 19.9796 6.78363 19.5963 7.06086C19.2213 7.34265 18.9785 7.6217 18.9124 7.76305C18.8018 7.805 18.6922 7.83418 18.5944 7.82871C18.357 7.81321 17.8624 8.01202 17.558 8.15885C17.4139 8.2701 17.2753 8.37771 17.1431 8.47894C17.2862 8.46617 17.7048 8.4224 17.8579 8.34762C18.0001 8.28379 18.4857 7.92173 18.9015 7.8506C19.1244 8.24638 19.5076 8.50446 19.9216 8.65311C20.332 8.80358 20.7741 8.84371 21.1228 8.79081C21.3013 8.76802 21.5704 8.71148 21.8793 8.63396C22.0351 8.59566 22.1991 8.55098 22.3685 8.50447C22.5406 8.4607 22.7191 8.41054 22.8939 8.36038C23.067 8.30931 23.24 8.25551 23.4049 8.20079C23.5725 8.14607 23.7356 8.09318 23.8814 8.03846C24.1786 7.92994 24.4168 7.81323 24.5663 7.712C24.6523 7.65181 24.8055 7.55971 24.9839 7.45757C25.1624 7.35452 25.3662 7.23961 25.5574 7.13474C25.9397 6.92043 26.2586 6.72253 26.1897 6.66873Z" fill="#0E082B"/>
<path d="M28.9962 0.0538502C28.9346 0.0274038 28.8549 0.0110068 28.7606 0.00371122C28.6655 -0.0044961 28.5577 0.00187206 28.439 0.0109916C28.3194 0.021935 28.189 0.0383534 28.0486 0.0602403C27.9797 0.0739193 27.9082 0.0848765 27.8348 0.0976439C27.7641 0.113147 27.6917 0.127737 27.6183 0.142328C27.3211 0.205252 27.0077 0.270913 26.7223 0.325629C26.4333 0.378522 26.1552 0.4077 25.9378 0.389461C25.4975 0.350247 25.2746 0.352976 25.0146 0.450554C24.8851 0.50071 24.7483 0.57641 24.5689 0.686755C24.4792 0.743295 24.3759 0.805296 24.2645 0.880987C24.1522 0.959414 24.0244 1.04606 23.8777 1.14364C23.8133 1.18832 23.7499 1.2321 23.6919 1.28043C23.6331 1.32785 23.576 1.378 23.5207 1.42815C23.4093 1.52938 23.306 1.63516 23.2127 1.74459C23.123 1.85311 23.0379 1.96347 22.9627 2.07199C22.9255 2.12853 22.8893 2.18416 22.8549 2.23797C22.8222 2.28995 22.7914 2.34649 22.7643 2.39938C22.5314 2.82617 22.4481 3.20005 22.4563 3.35964C22.3738 3.44901 22.2877 3.52654 22.189 3.56302C22.073 3.60953 21.9199 3.73536 21.7732 3.884C21.631 4.03812 21.4878 4.21505 21.3882 4.35549C21.3148 4.5315 21.2432 4.70021 21.178 4.85889C21.303 4.77499 21.6735 4.52966 21.7741 4.38922C21.8239 4.32448 21.9109 4.15121 22.0323 3.96244C22.1537 3.77458 22.3167 3.57214 22.4925 3.44903C22.7045 3.58764 22.9346 3.67519 23.1683 3.72261C23.4029 3.77277 23.6458 3.78369 23.8804 3.77001C24.1141 3.75542 24.3397 3.7153 24.5444 3.65602C24.5942 3.64143 24.6441 3.62592 24.6921 3.60951C24.7428 3.59309 24.7899 3.57487 24.8362 3.55754C24.9286 3.52107 25.0128 3.48002 25.0898 3.43625C25.1668 3.3943 25.2601 3.33412 25.367 3.2639C25.4757 3.19551 25.5962 3.11434 25.7212 3.0277C25.7874 2.98302 25.8499 2.93742 25.9187 2.89091C25.9867 2.8444 26.0564 2.79697 26.1271 2.74864C26.2675 2.65289 26.4061 2.54893 26.552 2.45135C26.696 2.35195 26.8319 2.25072 26.9678 2.15405C27.1028 2.05648 27.2314 1.96256 27.3456 1.86954C27.4588 1.77926 27.5684 1.69444 27.6536 1.61328C27.7415 1.53394 27.8076 1.45461 27.8565 1.38986C27.9145 1.31143 28.0205 1.18924 28.1464 1.05244C28.2742 0.914741 28.43 0.764272 28.565 0.621098C28.7063 0.480659 28.8358 0.349328 28.9174 0.245367C28.9373 0.221656 28.9554 0.197033 28.969 0.176058C28.9835 0.15326 28.9962 0.136857 29.0034 0.11953C29.0179 0.0867 29.0161 0.0647936 28.9962 0.0538502Z" fill="#0E082B"/>
<path d="M48.0425 57.435C48.1548 57.4094 48.2808 57.3757 48.4166 57.3355C48.5498 57.2936 48.6939 57.2398 48.847 57.1787C48.9983 57.1167 49.1577 57.0483 49.3235 56.968C49.4857 56.886 49.6532 56.792 49.8218 56.689C50.253 56.4364 50.6335 56.2421 50.9804 56.1026C51.1544 56.0379 51.3102 55.9704 51.4588 55.9166C51.6064 55.8637 51.7423 55.8135 51.8637 55.7698C51.9525 55.736 52.0359 55.7068 52.1156 55.6758C52.1962 55.643 52.2723 55.6138 52.3439 55.5837C52.4897 55.5263 52.622 55.4752 52.7434 55.4269C52.988 55.3311 53.1936 55.2554 53.3794 55.1843C53.5696 55.1168 53.7445 55.0612 53.9311 55.0119C54.0235 54.9855 54.1186 54.9636 54.2219 54.9408C54.3252 54.9171 54.4321 54.8906 54.548 54.8669C54.7809 54.8177 55.0653 54.7985 55.3806 54.7967C55.4612 54.7967 55.5418 54.7985 55.6252 54.8013C55.7067 54.8013 55.7891 54.804 55.8734 54.8067C56.0419 54.8113 56.2167 54.8213 56.3952 54.8332C56.7476 54.856 57.1173 54.8906 57.4697 54.9189C57.8248 54.9463 58.1672 54.9727 58.4734 54.9964C58.6283 55.0083 58.7932 55.0019 58.9672 54.9836C59.1384 54.9645 59.3132 54.928 59.4908 54.8861C59.8414 54.7967 60.2038 54.6745 60.519 54.5423C61.1496 54.2741 61.6279 53.9933 61.6279 53.9933C61.6279 53.9933 61.5128 54.2003 61.3153 54.524C61.2157 54.6836 61.097 54.8751 60.9602 55.0831C60.8198 55.2864 60.6631 55.508 60.4928 55.736C60.4085 55.8491 60.3206 55.9631 60.2309 56.078C60.1385 56.1929 60.0434 56.3023 59.9465 56.4154C59.7526 56.637 59.5524 56.8513 59.3522 57.0501C59.1447 57.2434 58.9382 57.4185 58.7389 57.5663C58.5396 57.7131 58.3493 57.8316 58.1636 57.9028C57.7958 58.0505 57.4742 58.1645 57.1843 58.2612C56.8935 58.3542 56.629 58.4253 56.3844 58.4937C56.1425 58.5603 55.9232 58.6268 55.7022 58.6916C55.4802 58.7573 55.2664 58.832 55.0445 58.9278C54.6051 59.1184 54.3931 59.0801 54.0597 59.0765C53.8939 59.0765 53.6955 59.081 53.421 59.1239C53.1456 59.164 52.7842 59.2324 52.3049 59.3674C52.1926 59.4002 52.0667 59.423 51.9335 59.4412C51.8003 59.4586 51.6626 59.4713 51.5195 59.4768C51.3781 59.4804 51.2332 59.4786 51.0865 59.4686C51.014 59.4649 50.9388 59.4604 50.8672 59.4503C50.7929 59.4412 50.7186 59.4312 50.6443 59.4175C50.0582 59.3126 49.5165 59.0846 49.174 58.718C48.673 58.1809 48.2472 57.8809 47.9428 57.7149C47.9428 57.7149 47.9302 57.7113 47.9093 57.7049C47.8876 57.6994 47.8559 57.6921 47.8169 57.6821C47.7372 57.6657 47.6249 57.6447 47.489 57.6219C47.2136 57.5754 46.8485 57.5334 46.4707 57.5544C46.5993 57.4887 46.7434 57.4185 46.901 57.341C47.0786 57.3638 47.2951 57.3912 47.498 57.4067C47.7001 57.4249 47.893 57.435 48.0244 57.435C48.0307 57.435 48.0371 57.435 48.0425 57.435Z" fill="#0E082B"/>
<path d="M54.5336 53.2094C54.7248 53.1128 54.9594 52.9805 55.2131 52.8109C55.4622 52.6358 55.7313 52.4197 55.9994 52.1671C56.3328 51.8415 56.6481 51.5962 56.9398 51.402C57.2206 51.2022 57.477 51.0527 57.6826 50.9232C57.7569 50.8776 57.8276 50.8329 57.8964 50.7891C57.9635 50.7463 58.0278 50.7043 58.0885 50.6642C58.2108 50.5831 58.3213 50.5092 58.4237 50.4426C58.6303 50.3085 58.8069 50.1991 58.9673 50.1015C59.2852 49.9036 59.5643 49.765 59.9837 49.5909C60.3959 49.4121 61.0201 49.3072 61.6941 49.2224C62.0275 49.1777 62.3727 49.1367 62.7097 49.0993C62.8782 49.082 63.044 49.0638 63.2034 49.0464C63.3656 49.0291 63.5205 49.0118 63.6654 48.9908C63.9571 48.9543 64.2724 48.8431 64.5877 48.6981C64.7426 48.6233 64.8993 48.5439 65.0497 48.4555C65.1955 48.3679 65.3396 48.2749 65.4719 48.1837C65.74 48.0004 65.9701 47.8217 66.135 47.6895C66.2183 47.622 66.2809 47.5654 66.3243 47.5262C66.3678 47.4852 66.3914 47.4651 66.3914 47.4651C66.3914 47.4651 66.3733 47.5189 66.3479 47.6165C66.3189 47.715 66.2727 47.8509 66.212 48.0196C66.1549 48.1874 66.0815 48.3871 65.9973 48.6069C65.9556 48.7154 65.9103 48.8303 65.8614 48.9461C65.8134 49.0647 65.7581 49.1823 65.7029 49.3027C65.5887 49.5452 65.4673 49.7942 65.336 50.0404C65.2735 50.1626 65.2028 50.2821 65.1294 50.3988C65.0587 50.5146 64.9863 50.6277 64.9102 50.739C64.7634 50.9569 64.613 51.1621 64.459 51.3354C64.3014 51.5059 64.142 51.6473 63.9888 51.7485C63.381 52.1653 62.8872 52.4051 62.4696 52.6231C62.3663 52.6769 62.2648 52.7279 62.1688 52.7781C62.0683 52.8282 61.9722 52.8784 61.8771 52.9304C61.6887 53.0307 61.5084 53.1383 61.3245 53.266C60.9585 53.525 60.7556 53.525 60.4494 53.5833C60.1377 53.6371 59.7282 53.7575 58.8993 54.1697C58.7009 54.2691 58.4699 54.3594 58.2072 54.4178C57.9472 54.4779 57.669 54.5162 57.3918 54.5263C56.841 54.5454 56.2803 54.4305 55.8789 54.1606C55.2928 53.7666 54.8308 53.576 54.5128 53.4858C54.5128 53.4858 54.4992 53.4839 54.4784 53.4839C54.4584 53.4839 54.4267 53.4839 54.3869 53.4839C54.3099 53.483 54.1993 53.4839 54.068 53.4921C53.8061 53.5058 53.461 53.5469 53.1204 53.6426C53.2227 53.5578 53.3351 53.4611 53.461 53.359C53.798 53.3234 54.2799 53.2705 54.5164 53.2122C54.5218 53.2113 54.5282 53.2094 54.5336 53.2094Z" fill="#0E082B"/>
<path d="M59.8378 47.7664C59.9937 47.6415 60.1794 47.4737 60.376 47.2667C60.424 47.2147 60.4747 47.1609 60.5255 47.1026C60.5735 47.046 60.6224 46.9858 60.6722 46.9211C60.7691 46.7961 60.867 46.6612 60.9612 46.5171C61.2076 46.1578 61.4377 45.8632 61.6633 45.6261C61.772 45.5067 61.8798 45.4018 61.9813 45.306C62.08 45.2075 62.1688 45.1191 62.2476 45.0397C62.4814 44.8054 62.6707 44.6148 62.832 44.4506C62.9896 44.2837 63.1218 44.1451 63.2496 44.0238C63.5032 43.7776 63.7415 43.5998 64.0785 43.3499C64.2497 43.2259 64.4735 43.1092 64.7344 42.997C64.8622 42.9423 65.0026 42.8857 65.1457 42.8292C65.2852 42.7736 65.432 42.7207 65.5815 42.665C65.8795 42.5565 66.193 42.4516 66.4974 42.3486C66.6496 42.2984 66.8008 42.2483 66.9431 42.2C67.0862 42.1489 67.2239 42.1005 67.3544 42.0522C67.6162 41.9574 67.8843 41.7923 68.1434 41.5935C68.2721 41.4932 68.4007 41.3865 68.5158 41.2743C68.6336 41.1612 68.7432 41.0482 68.8455 40.9351C69.0494 40.7089 69.2233 40.4965 69.3456 40.3378C69.4054 40.2603 69.4534 40.1955 69.4824 40.1499C69.5132 40.1034 69.5295 40.0797 69.5295 40.0797C69.5295 40.0797 69.5295 40.1335 69.5259 40.2283C69.5196 40.3259 69.5087 40.4618 69.4924 40.6296C69.4779 40.7983 69.4562 40.9989 69.4281 41.2196C69.4009 41.4403 69.3683 41.6829 69.3166 41.9282C69.1291 42.9222 68.7649 44.0512 68.283 44.5555C68.0429 44.8072 67.8255 45.0151 67.628 45.1993C67.5763 45.2431 67.5274 45.2869 67.4803 45.3297C67.4323 45.3708 67.3825 45.4109 67.3354 45.4501C67.243 45.5267 67.1515 45.5988 67.0663 45.6717C66.8951 45.8122 66.7365 45.9417 66.5871 46.0757C66.51 46.1423 66.4394 46.2107 66.366 46.2809C66.2926 46.3511 66.2193 46.4213 66.1459 46.4998C65.8569 46.8053 65.6766 46.8518 65.4066 46.9667C65.3396 46.9959 65.2644 47.0287 65.1829 47.0725C65.1013 47.1126 65.0062 47.1618 64.902 47.2266C64.69 47.3542 64.4318 47.5394 64.0994 47.8157C63.7768 48.0774 63.2876 48.3118 62.7803 48.4367C62.2685 48.5589 61.7258 48.5626 61.2955 48.3893C60.6632 48.1376 60.1939 48.051 59.8786 48.0291C59.8786 48.0291 59.8659 48.0309 59.8487 48.0327C59.8279 48.0382 59.7989 48.0418 59.7617 48.0491C59.6902 48.0637 59.5878 48.0856 59.4682 48.1203C59.229 48.1841 58.9165 48.2862 58.6239 48.4422C58.6964 48.3446 58.7824 48.2334 58.8758 48.1121C59.0289 48.0637 59.21 48.0036 59.384 47.9443C59.4709 47.9124 59.5552 47.8832 59.6313 47.8549C59.7038 47.8257 59.769 47.7984 59.8234 47.7737C59.8261 47.7719 59.8324 47.7683 59.8378 47.7664Z" fill="#0E082B"/>
<path d="M63.6827 41.3482C63.7406 41.2743 63.8031 41.1895 63.8675 41.0946C63.9327 40.9989 63.9934 40.8931 64.0577 40.7736C64.1836 40.5411 64.3123 40.2675 64.4219 39.9638C64.5451 39.5744 64.6973 39.2598 64.8477 38.9953C64.9247 38.8613 64.989 38.74 65.0561 38.6287C65.1231 38.5193 65.1829 38.4181 65.2373 38.3278C65.3161 38.1965 65.3876 38.0761 65.4538 37.9658C65.4873 37.9102 65.5181 37.86 65.548 37.8062C65.577 37.7569 65.6041 37.7068 65.6286 37.6612C65.7328 37.4733 65.8225 37.3192 65.9104 37.1788C65.9991 37.0402 66.0843 36.917 66.1821 36.7912C66.2301 36.7255 66.2809 36.6635 66.3316 36.5942C66.3851 36.5286 66.4412 36.4583 66.5047 36.3826C66.6324 36.2303 66.8099 36.0762 67.0201 35.9166C67.1261 35.8382 67.2394 35.7561 67.3571 35.6741C67.4758 35.5956 67.5936 35.5127 67.7186 35.4288C68.2114 35.1023 68.7595 34.7722 69.198 34.4867C69.6265 34.2049 70.0206 33.6441 70.2924 33.1453C70.5524 32.6464 70.7055 32.2187 70.7055 32.2187C70.7055 32.2187 70.7499 32.4139 70.8078 32.7294C70.835 32.8872 70.8685 33.0732 70.9012 33.283C70.9238 33.49 70.9464 33.7161 70.9646 33.9532C70.9818 34.1903 70.9954 34.4393 70.9999 34.6846C71.0017 34.9317 70.9827 35.1752 70.9646 35.4105C70.9392 35.6449 70.9084 35.8674 70.8613 36.0671C70.8386 36.1656 70.8115 36.2605 70.7761 36.3462C70.7426 36.4319 70.7064 36.5112 70.6683 36.5824C70.3467 37.1496 70.0804 37.5408 69.8249 37.8709C69.5739 38.2056 69.371 38.4883 69.1844 38.8358C68.9914 39.1796 68.8356 39.2598 68.6119 39.4258C68.5022 39.507 68.3736 39.6109 68.216 39.7751C68.0583 39.941 67.8572 40.1626 67.6162 40.4891C67.4985 40.6423 67.3463 40.8028 67.1669 40.9515C66.9821 41.0983 66.771 41.2323 66.5499 41.3418C66.1069 41.5643 65.6223 41.6883 65.1784 41.6181C64.5342 41.5178 64.0786 41.5351 63.7814 41.5789C63.7787 41.5789 63.7696 41.5835 63.7515 41.5898C63.7352 41.598 63.7108 41.609 63.679 41.6236C63.6156 41.6528 63.5287 41.6938 63.4281 41.7494C63.3266 41.8041 63.2107 41.8734 63.0911 41.9519C62.9715 42.0312 62.842 42.1206 62.7251 42.2236C62.7722 42.116 62.8257 42.0002 62.8836 41.8698C63.1382 41.7157 63.4951 41.4895 63.6709 41.3582C63.6727 41.3546 63.679 41.3527 63.6827 41.3482Z" fill="#0E082B"/>
<path d="M65.7056 34.2463C65.779 34.0876 65.8379 33.8779 65.8959 33.638C65.9493 33.3964 65.9991 33.1182 66.0182 32.8164C66.0299 32.4361 66.0861 32.1142 66.155 31.8388C66.1903 31.7029 66.2229 31.5761 66.2537 31.4603C66.2863 31.3463 66.3162 31.2406 66.3416 31.1466C66.4911 30.5903 66.5853 30.2438 66.665 29.9483C66.7085 29.8033 66.7538 29.6702 66.8099 29.5343C66.8643 29.3939 66.935 29.2525 67.0075 29.0884C67.0854 28.9215 67.2058 28.7391 67.3562 28.5485C67.4323 28.4509 67.5138 28.3524 67.5999 28.2512C67.6896 28.1536 67.7802 28.0515 67.8708 27.9475C68.2377 27.539 68.6562 27.1131 68.9806 26.7556C69.1409 26.5769 69.275 26.3398 69.3846 26.0808C69.4951 25.8218 69.5812 25.5409 69.6338 25.2856C69.7488 24.7722 69.7814 24.3481 69.7814 24.3481C69.7814 24.3481 69.8711 24.5159 70.0025 24.7904C70.132 25.0658 70.3132 25.4442 70.4572 25.8719C70.537 26.0853 70.6094 26.3079 70.6765 26.534C70.7444 26.7574 70.7906 26.9854 70.8314 27.2043C70.8694 27.4232 70.8975 27.6338 70.9048 27.8262C70.9102 28.0214 70.8939 28.1956 70.8595 28.3415C70.7879 28.6388 70.7154 28.8896 70.642 29.1139C70.5632 29.3373 70.488 29.5316 70.4183 29.7121C70.3485 29.8936 70.2851 30.0596 70.2298 30.2265C70.1728 30.3924 70.1157 30.5539 70.074 30.7326C69.988 31.0855 69.8684 31.194 69.7071 31.3919C69.6265 31.4913 69.5413 31.6126 69.4353 31.7959C69.3275 31.981 69.2061 32.2282 69.0702 32.5784C69.0041 32.7443 68.9063 32.9231 68.7822 33.0991C68.6499 33.2733 68.4923 33.4429 68.3192 33.5943C67.9732 33.8952 67.5564 34.1168 67.1379 34.1542C66.5318 34.2089 66.1133 34.3275 65.8524 34.4342C65.8524 34.4342 65.8451 34.4406 65.8306 34.4506C65.8161 34.4624 65.7971 34.4789 65.7727 34.498C65.7219 34.5381 65.6522 34.5956 65.5733 34.6704C65.4139 34.8172 65.2209 35.0205 65.0597 35.2622C65.0769 35.1546 65.0905 35.0333 65.105 34.9029C65.2989 34.705 65.5715 34.4177 65.6965 34.2572C65.6984 34.2536 65.7029 34.25 65.7056 34.2463Z" fill="#0E082B"/>
<path d="M65.6684 26.9141C65.6829 26.7509 65.6901 26.5502 65.6801 26.3177C65.6765 26.201 65.662 26.0761 65.6403 25.9502C65.6213 25.8198 65.5941 25.6848 65.5624 25.5471C65.5189 25.3711 65.4971 25.2061 65.469 25.0556C65.4455 24.9015 65.4328 24.7592 65.4237 24.6279C65.4165 24.4957 65.4138 24.3744 65.4138 24.2613C65.4165 24.2048 65.4165 24.1519 65.4165 24.0999C65.4165 24.0497 65.412 24.0014 65.412 23.9558C65.4056 23.6877 65.3993 23.4697 65.3939 23.2855C65.3893 23.0976 65.3875 22.9408 65.3839 22.7994C65.3839 22.5149 65.4084 22.2824 65.4709 21.9459C65.5243 21.6112 65.7227 21.1789 65.9655 20.7266C66.2002 20.2743 66.4683 19.8083 66.6812 19.4152C66.7337 19.3186 66.7808 19.2082 66.8135 19.0915C66.8461 18.9766 66.8724 18.8535 66.8905 18.7249C66.9276 18.4723 66.9385 18.2069 66.9367 17.9671C66.9321 17.7245 66.9077 17.5102 66.8878 17.3552C66.8696 17.1992 66.8524 17.1026 66.8524 17.1026C66.8524 17.1026 66.9729 17.2329 67.1568 17.4491C67.3452 17.6597 67.5781 17.9671 67.8191 18.3081C68.0664 18.6483 68.2956 19.0359 68.4759 19.4034C68.6607 19.7672 68.7694 20.1284 68.7821 20.4029C68.8074 20.9537 68.7585 21.3631 68.7286 21.717C68.7123 21.8921 68.6996 22.0553 68.6915 22.2158C68.6788 22.3772 68.6743 22.5368 68.6842 22.7073C68.7042 23.0448 68.6235 23.1706 68.532 23.3867C68.4378 23.6029 68.3264 23.9129 68.2747 24.6078C68.2403 24.9425 68.0963 25.3529 67.868 25.704C67.7556 25.8809 67.6098 26.045 67.4558 26.1809C67.2981 26.3177 67.126 26.4244 66.9394 26.491C66.4004 26.6843 66.0615 26.8895 65.8568 27.0491C65.8559 27.0491 65.8495 27.0555 65.8405 27.0683C65.8305 27.081 65.8178 27.1002 65.8015 27.1239C65.7689 27.1722 65.72 27.2433 65.6684 27.3272C65.5606 27.4969 65.4373 27.7285 65.3558 27.9829C65.3413 27.8826 65.3214 27.7704 65.3024 27.6473C65.3649 27.5342 65.4392 27.3975 65.5071 27.2661C65.5732 27.1357 65.6285 27.0117 65.662 26.9251C65.6638 26.9205 65.6647 26.9169 65.6684 26.9141Z" fill="#0E082B"/>
<path d="M63.5205 19.8856C63.4951 19.7388 63.4507 19.5528 63.3828 19.3467C63.3094 19.1406 63.2097 18.9144 63.082 18.6773C62.9244 18.3782 62.8102 18.1155 62.7332 17.8794C62.6535 17.645 62.6118 17.4389 62.5629 17.2747C62.4234 16.796 62.3364 16.4923 62.273 16.2351C62.2078 15.978 62.1806 15.7627 62.1616 15.4481C62.157 15.3679 62.1598 15.2839 62.1688 15.1909C62.1761 15.0988 62.1888 15.0031 62.206 14.9009C62.2404 14.6985 62.2938 14.4778 62.3563 14.2526C62.4161 14.0255 62.4895 13.7911 62.5556 13.5704C62.6236 13.3461 62.6888 13.129 62.7477 12.9357C62.8048 12.7415 62.8211 12.5098 62.8102 12.2755C62.7984 12.0393 62.754 11.8031 62.706 11.5888C62.6571 11.3726 62.6009 11.182 62.5556 11.0434C62.5366 10.9759 62.5167 10.9194 62.5022 10.8829C62.4877 10.8464 62.4795 10.8255 62.4795 10.8255C62.4795 10.8255 62.6154 10.9176 62.8157 11.0808C63.0204 11.2432 63.2958 11.4684 63.5812 11.7265C63.8584 11.9918 64.1492 12.2873 64.3838 12.5764C64.613 12.8746 64.7915 13.1646 64.8585 13.4072C64.9265 13.647 64.9654 13.865 64.9999 14.0583C65.0343 14.2525 65.0578 14.4231 65.0823 14.5827C65.1294 14.9 65.1593 15.1745 65.2553 15.4682C65.3459 15.7655 65.3024 15.8931 65.268 16.1038C65.2281 16.3181 65.201 16.6154 65.3133 17.2437C65.364 17.5465 65.3296 17.9423 65.2082 18.308C65.0905 18.6718 64.8676 19.0156 64.5659 19.2181C64.1274 19.5145 63.8702 19.7744 63.7261 19.965C63.7261 19.965 63.7225 19.9722 63.7171 19.9868C63.7116 19.9996 63.7053 20.0215 63.6953 20.0461C63.679 20.0981 63.6546 20.1701 63.631 20.2595C63.5839 20.4337 63.5259 20.6717 63.5205 20.9243C63.4797 20.8359 63.4362 20.7374 63.3855 20.6307C63.4435 20.3972 63.5033 20.0698 63.5205 19.8984C63.5205 19.8947 63.5205 19.8911 63.5205 19.8856Z" fill="#0E082B"/>
<path d="M59.672 13.573C59.6159 13.4407 59.538 13.2821 59.4338 13.1079C59.3251 12.9328 59.1865 12.7458 59.0234 12.5543C58.9192 12.434 58.8313 12.3163 58.7543 12.2051C58.6746 12.0947 58.6058 11.9898 58.5487 11.8895C58.4318 11.6898 58.3503 11.5129 58.2787 11.3688C58.0631 10.9521 57.92 10.6967 57.8212 10.4715C57.7216 10.2416 57.6536 10.0529 57.5793 9.77017C57.5431 9.62974 57.5286 9.45738 57.5277 9.26496C57.5277 9.16829 57.5304 9.06891 57.5359 8.96495C57.5404 8.8619 57.5476 8.75609 57.5567 8.6494C57.5938 8.21896 57.6591 7.76392 57.7053 7.38911C57.7533 7.01795 57.612 6.55102 57.4634 6.17074C57.3891 5.98106 57.3058 5.82057 57.246 5.70476C57.1835 5.5862 57.1409 5.51598 57.1409 5.51598C57.1409 5.51598 57.2786 5.58437 57.4897 5.69745C57.7007 5.8078 57.9798 5.97741 58.2769 6.16983C58.4237 6.26559 58.5768 6.36956 58.7244 6.47625C58.8685 6.58842 59.0107 6.69968 59.1385 6.81458C59.3948 7.04165 59.6068 7.27147 59.7001 7.48304C59.8931 7.90527 60.0045 8.22262 60.0969 8.5035C60.1893 8.78346 60.2691 9.0233 60.4059 9.27226C60.5436 9.51939 60.5227 9.64433 60.5273 9.84131C60.5291 10.041 60.5608 10.311 60.7782 10.8554C60.8788 11.1199 60.925 11.4801 60.8878 11.8303C60.8679 12.0063 60.8262 12.1786 60.7592 12.3428C60.6912 12.5023 60.6025 12.6483 60.4856 12.7687C60.1459 13.1197 59.9683 13.4052 59.8759 13.6049C59.8759 13.6049 59.8732 13.614 59.8732 13.6259C59.8705 13.6405 59.8659 13.6596 59.865 13.6833C59.8596 13.7335 59.8514 13.8055 59.8496 13.8885C59.8478 14.0563 59.8478 14.2834 59.8967 14.5132C59.8397 14.4411 59.7762 14.3618 59.7092 14.2734C59.7092 14.0508 59.6938 13.7426 59.6739 13.5848C59.6739 13.5803 59.6729 13.5766 59.672 13.573Z" fill="#0E082B"/>
<path d="M54.6214 8.08833C54.548 7.97798 54.4493 7.84484 54.3234 7.70075C54.26 7.63053 54.192 7.55485 54.1168 7.47916C54.0362 7.40802 53.9528 7.3296 53.8613 7.25573C53.6312 7.06696 53.4609 6.88091 53.3232 6.7122C53.1828 6.54805 53.0804 6.39849 52.9916 6.2772C52.8639 6.1012 52.7588 5.95804 52.671 5.83584C52.5786 5.71364 52.5043 5.61241 52.4418 5.51574C52.3122 5.32515 52.227 5.15736 52.1201 4.90657C52.0151 4.65488 51.9652 4.28552 51.9417 3.88336C51.929 3.68455 51.9236 3.47755 51.9208 3.27875C51.9172 3.08086 51.9127 2.88844 51.91 2.71609C51.9009 2.3732 51.7197 1.95643 51.5313 1.63269C51.3447 1.30895 51.1589 1.07094 51.1589 1.07094C51.1589 1.07094 51.2903 1.11744 51.4959 1.19678C51.7025 1.27429 51.9833 1.38648 52.2741 1.52874C52.5677 1.66918 52.8766 1.82876 53.142 2.00477C53.402 2.17895 53.6204 2.36406 53.7399 2.54007C53.7979 2.62853 53.8514 2.71151 53.8994 2.79085C53.9456 2.87019 53.99 2.94588 54.029 3.01975C54.1087 3.16384 54.1757 3.29516 54.2373 3.41463C54.3605 3.65629 54.4692 3.85691 54.6259 4.06757C54.7836 4.27732 54.7845 4.39222 54.8162 4.57005C54.8488 4.7497 54.9195 4.98591 55.1949 5.45465C55.3271 5.67899 55.4259 5.99634 55.4458 6.32099C55.463 6.65021 55.4033 6.98213 55.2275 7.23474C54.9766 7.60499 54.8624 7.89226 54.8117 8.0865C54.8117 8.08832 54.8117 8.09471 54.8126 8.10839C54.8135 8.12024 54.8162 8.13849 54.8162 8.16311C54.8198 8.20871 54.8262 8.27437 54.8379 8.34915C54.8597 8.50601 54.9004 8.71392 54.9865 8.91455C54.9213 8.8571 54.8515 8.79417 54.7727 8.72486C54.7356 8.5215 54.6694 8.24063 54.6232 8.09837C54.6232 8.09654 54.6214 8.09289 54.6214 8.08833Z" fill="#0E082B"/>
<path d="M52.6873 43.8274C52.7525 43.8995 52.8042 44.0035 52.8477 44.1302C52.8893 44.2579 52.9192 44.4056 52.9419 44.5734C52.9645 44.7412 52.9826 44.9273 52.9944 45.1242C52.9998 45.2236 53.0062 45.3258 53.008 45.4297C53.0098 45.5328 53.0107 45.6386 53.0125 45.7434C53.0152 46.1684 53.0171 46.6216 53.0252 47.0329C53.0415 47.4442 53.0877 47.8345 53.191 48.1282C53.3994 48.7182 53.4709 49.0228 53.4048 49.4122C53.3713 49.6055 53.2952 49.8189 53.1829 50.1016C53.1258 50.2439 53.0624 50.4062 52.9817 50.5849C52.8966 50.7646 52.8051 50.9698 52.6982 51.1996C52.6511 51.3045 52.6021 51.4066 52.5478 51.5042C52.4907 51.599 52.4318 51.6966 52.3711 51.7878C52.2497 51.9729 52.1184 52.1498 51.9798 52.3149C51.8412 52.4754 51.6935 52.6286 51.5476 52.7672C51.4743 52.8393 51.4 52.9058 51.3266 52.9706C51.2523 53.0353 51.1753 53.0919 51.101 53.1502C50.5113 53.6117 49.9514 53.8524 49.6986 53.8953C49.5863 54.0348 49.4939 54.1798 49.4685 54.3285C49.4341 54.5017 49.291 54.7571 49.1025 55.0051C48.9123 55.2513 48.684 55.5076 48.4946 55.6927C48.2446 55.8523 48.0045 56.0073 47.7762 56.1523C47.865 55.9481 48.1241 55.359 48.3116 55.1729C48.3968 55.0854 48.6387 54.9057 48.8942 54.6777C49.1505 54.447 49.4106 54.1588 49.5455 53.8743C49.2584 53.6308 49.0446 53.3454 48.8878 53.0408C48.732 52.7335 48.6341 52.4097 48.5753 52.0823C48.52 51.7568 48.5091 51.434 48.5318 51.1339C48.5381 51.0573 48.5445 50.9871 48.5553 50.9132C48.5635 50.8394 48.5744 50.771 48.5907 50.6998C48.616 50.5612 48.6505 50.4317 48.693 50.3123C48.7338 50.1919 48.7954 50.046 48.8688 49.8754C48.9422 49.7022 49.0264 49.5116 49.1206 49.3073C49.1677 49.2061 49.2203 49.1039 49.2692 48.9927C49.319 48.886 49.3698 48.7729 49.4232 48.6598C49.5274 48.4346 49.6416 48.2121 49.7476 47.9795C49.8536 47.747 49.9686 47.5281 50.0764 47.3083C50.1815 47.0895 50.2884 46.8834 50.3926 46.6964C50.4986 46.5086 50.5955 46.3335 50.6924 46.1866C50.7894 46.0407 50.889 45.9249 50.9751 45.8355C51.0784 45.7298 51.2342 45.5419 51.4072 45.3221C51.5812 45.1023 51.7642 44.8388 51.9444 44.6044C52.1175 44.3646 52.2796 44.1448 52.4128 43.998C52.4463 43.9615 52.478 43.9296 52.5061 43.9013C52.5342 43.8758 52.5587 43.8539 52.5822 43.8375C52.6293 43.8056 52.6647 43.7992 52.6873 43.8274Z" fill="#0E082B"/>
<path d="M55.8834 39.6762C55.9604 39.7336 56.0311 39.8185 56.0981 39.927C56.1679 40.0391 56.2277 40.1686 56.2857 40.3182C56.3445 40.4696 56.3989 40.6392 56.4524 40.817C56.5058 40.9985 56.5638 41.1927 56.6064 41.3888C56.6544 41.5867 56.7024 41.7891 56.7495 41.9861C56.7739 42.0892 56.7993 42.1895 56.8238 42.288C56.8501 42.3883 56.8754 42.4868 56.899 42.5825C57.0004 42.961 57.1209 43.3103 57.284 43.5665C57.3673 43.6951 57.4362 43.8073 57.4951 43.9122C57.5531 44.0143 57.5974 44.1082 57.6346 44.1976C57.7098 44.3736 57.7469 44.5359 57.756 44.7219C57.7596 44.8131 57.7569 44.9135 57.7496 45.0265C57.7397 45.1387 57.7261 45.2664 57.6998 45.405C57.6763 45.5473 57.6455 45.7059 57.6101 45.8883C57.592 45.9813 57.573 46.0798 57.5512 46.1847C57.5313 46.2896 57.5096 46.4008 57.4806 46.5194C57.2967 47.352 56.8637 48.097 56.4052 48.6305C55.9559 49.1722 55.4857 49.506 55.2574 49.5936C55.2212 49.6674 55.1913 49.7467 55.1695 49.8233C55.1487 49.8963 55.136 49.9702 55.1388 50.0422C55.1469 50.2118 55.0654 50.4708 54.9485 50.7417C54.9195 50.8092 54.8896 50.8785 54.8534 50.9469C54.8199 51.0116 54.7845 51.0791 54.7474 51.1429C54.6785 51.2724 54.6033 51.3946 54.5381 51.4995C54.443 51.5989 54.3461 51.6992 54.2555 51.7959C54.1594 51.8898 54.0661 51.9819 53.9773 52.0713C53.9955 51.9692 54.0344 51.7694 54.0824 51.5697C54.1277 51.3645 54.183 51.1593 54.2491 51.0545C54.2799 51.0043 54.3406 50.9268 54.4194 50.8292C54.4982 50.7316 54.5925 50.614 54.6849 50.4781C54.8652 50.21 55.0518 49.8963 55.1116 49.6008C54.4729 49.2661 54.0625 48.7044 53.8197 48.1198C53.6965 47.8271 53.6168 47.528 53.5751 47.2417C53.5651 47.1714 53.5579 47.1012 53.5525 47.031C53.5443 46.9626 53.5398 46.8915 53.538 46.8258C53.5325 46.6908 53.538 46.5613 53.5525 46.441C53.5679 46.3215 53.5914 46.1692 53.6258 45.9978C53.6612 45.8254 53.6956 45.6266 53.7427 45.4205C53.7663 45.3147 53.7898 45.2071 53.8143 45.0958C53.827 45.0411 53.8414 44.9855 53.8541 44.9308C53.8659 44.8724 53.8777 44.8159 53.8904 44.7584C53.9402 44.5277 53.9927 44.2924 54.0498 44.0599C54.0806 43.945 54.1024 43.8273 54.1295 43.7124C54.1558 43.5984 54.183 43.4835 54.2102 43.3741C54.2691 43.1552 54.3252 42.9446 54.375 42.7467C54.4321 42.5506 54.4892 42.3737 54.5508 42.2223C54.6115 42.07 54.6668 41.9369 54.7311 41.8411C54.7691 41.7846 54.8162 41.7043 54.8652 41.6095C54.8896 41.5639 54.9168 41.5119 54.9449 41.4581C54.973 41.407 55.0011 41.3505 55.0264 41.2885C55.1342 41.0523 55.2547 40.7824 55.3679 40.5298C55.473 40.2771 55.5781 40.0437 55.6669 39.885C55.7158 39.8057 55.7539 39.7427 55.7892 39.7054C55.8254 39.6689 55.8572 39.6552 55.8834 39.6762Z" fill="#0E082B"/>
<path d="M57.9952 35.0278C58.1582 35.1008 58.3322 35.2841 58.5134 35.5376C58.6918 35.7893 58.8875 36.113 59.0605 36.4541C59.152 36.6283 59.2453 36.8034 59.3368 36.9766C59.4329 37.1526 59.5253 37.3268 59.6141 37.49C59.7971 37.8193 59.9891 38.1166 60.202 38.319C60.6269 38.7285 60.8008 38.9501 60.9041 39.2875C60.9558 39.4599 60.9866 39.6596 61.0146 39.9331C61.0346 40.2022 61.0473 40.5423 61.0672 41.0019C61.0735 41.1041 61.069 41.2026 61.0627 41.302C61.0563 41.4014 61.0473 41.4999 61.0364 41.5974C61.0119 41.7917 60.9766 41.9832 60.9322 42.1656C60.8344 42.5313 60.6967 42.8696 60.5526 43.166C60.4031 43.4587 60.2346 43.7031 60.0888 43.8937C60.0136 43.9895 59.9429 44.0697 59.8777 44.1335C59.8106 44.1983 59.7527 44.2466 59.7019 44.2758C59.6666 44.429 59.6548 44.585 59.6938 44.7135C59.7155 44.7929 59.7237 44.8941 59.7201 45.0126C59.7155 45.1321 59.701 45.2662 59.6739 45.4011C59.6213 45.6711 59.538 45.9602 59.4628 46.1818C59.4284 46.241 59.3957 46.2958 59.364 46.3496C59.3296 46.4034 59.2961 46.4554 59.2626 46.5101C59.1964 46.6149 59.1303 46.718 59.0678 46.8174C59.056 46.6241 59.0288 46.0514 59.0959 45.8243C59.1285 45.7231 59.2535 45.4869 59.3704 45.2087C59.4302 45.0701 59.4773 44.9133 59.5135 44.7601C59.5506 44.6059 59.5715 44.4536 59.5688 44.3114C58.8993 44.1226 58.3965 43.6858 58.0441 43.1942C57.689 42.6981 57.4688 42.1437 57.419 41.695C57.39 41.4679 57.3673 41.115 57.361 40.7165C57.3592 40.6663 57.3574 40.6144 57.3574 40.5642C57.3556 40.5104 57.3538 40.4593 57.3501 40.4055C57.3465 40.2988 57.3447 40.1894 57.3402 40.0791C57.3384 39.9696 57.3366 39.8584 57.3347 39.7435C57.3329 39.6331 57.3347 39.5228 57.3275 39.4097C57.3112 38.9574 57.323 38.5215 57.323 38.1403C57.3266 37.9497 57.3402 37.7764 57.3628 37.6277C57.3791 37.4727 57.4009 37.3441 57.4371 37.2429C57.4806 37.1225 57.5313 36.9174 57.5821 36.6793C57.6237 36.4395 57.6663 36.1677 57.717 35.916C57.7225 35.8832 57.7279 35.8513 57.7333 35.8221C57.7388 35.7911 57.7433 35.7601 57.7478 35.73C57.7569 35.6689 57.766 35.6096 57.7759 35.5549C57.7959 35.4427 57.8158 35.3433 57.8384 35.2622C57.8828 35.0971 57.9354 35.0014 57.9952 35.0278Z" fill="#0E082B"/>
<path d="M58.8667 30.021C59.0361 30.0538 59.248 30.1806 59.4736 30.3767C59.6974 30.5745 59.9411 30.8354 60.1957 31.1144C60.2618 31.1846 60.3252 31.2567 60.3895 31.3269C60.4548 31.399 60.5145 31.4692 60.577 31.5403C60.7021 31.6835 60.8271 31.8239 60.9539 31.9571C61.0808 32.0902 61.2076 32.2142 61.3326 32.3227C61.396 32.3775 61.4585 32.4285 61.521 32.4741C61.5817 32.5197 61.6424 32.5608 61.7031 32.5963C62.1824 32.8809 62.4043 33.0478 62.5855 33.3377C62.6308 33.4089 62.6743 33.49 62.7169 33.5849C62.7386 33.6314 62.7622 33.6797 62.7812 33.7335C62.802 33.7873 62.8238 33.843 62.8419 33.905C62.9279 34.1476 63.0249 34.4567 63.159 34.8744C63.2659 35.2419 63.3093 35.6149 63.322 35.9733C63.3275 36.0626 63.322 36.1511 63.3175 36.2359C63.3112 36.3225 63.3021 36.4073 63.294 36.4903C63.2749 36.6572 63.2478 36.8177 63.2188 36.9691C63.2034 37.0448 63.188 37.1177 63.1689 37.188C63.1499 37.2582 63.1282 37.3238 63.1055 37.3886C63.062 37.5163 63.0176 37.6339 62.9714 37.737C62.879 37.9431 62.7884 38.0926 62.7142 38.171C62.7232 38.3188 62.7431 38.461 62.8111 38.5741C62.9669 38.8395 63.0032 39.5353 62.9542 39.9694C62.8836 40.2019 62.8156 40.4272 62.7513 40.6396C62.6942 40.4627 62.5167 39.9356 62.5312 39.7177C62.5556 39.5225 62.7495 38.7465 62.6009 38.233C62.2693 38.2166 61.9622 38.1336 61.6814 38.0096C61.4042 37.8829 61.1451 37.7151 60.9204 37.5263C60.6948 37.3384 60.4991 37.1296 60.3406 36.9171C60.2618 36.8132 60.1902 36.7046 60.1322 36.5997C60.0715 36.494 60.0226 36.3927 59.9773 36.2906C59.8913 36.0882 59.788 35.7717 59.682 35.4079C59.6593 35.3176 59.6267 35.2218 59.5977 35.1242C59.566 35.0294 59.538 34.9309 59.5062 34.8278C59.4456 34.6281 59.3903 34.422 59.3314 34.2187C59.2662 34.0144 59.2064 33.8083 59.1547 33.6122C59.1022 33.4162 59.0605 33.2274 59.0107 33.0523C58.9681 32.8772 58.9355 32.714 58.9156 32.5699C58.9065 32.4978 58.9002 32.4294 58.8993 32.3683C58.8975 32.3063 58.8993 32.2489 58.9002 32.1987C58.9083 32.0774 58.8993 31.875 58.8857 31.6452C58.8784 31.5285 58.8748 31.4053 58.863 31.2786C58.8503 31.1536 58.8368 31.026 58.8223 30.9028C58.7978 30.6584 58.7878 30.4268 58.7878 30.2672C58.7833 30.1076 58.8041 30.0092 58.8667 30.021Z" fill="#0E082B"/>
<path d="M58.3965 24.9751C58.5587 24.9687 58.7815 25.0453 59.0397 25.1766C59.1693 25.2432 59.3088 25.3216 59.4538 25.4074C59.5996 25.494 59.7419 25.5907 59.8931 25.6901C60.5037 26.0849 61.1243 26.5573 61.6479 26.7069C62.1634 26.8573 62.4044 26.9595 62.6445 27.1847C62.7061 27.2404 62.7649 27.3051 62.8265 27.3808C62.8601 27.4173 62.8909 27.4574 62.9253 27.503C62.9588 27.5449 62.9896 27.5933 63.0258 27.6434C63.1645 27.8477 63.3375 28.1058 63.5613 28.4587C63.7488 28.7697 63.8965 29.0989 63.9925 29.4235C64.0795 29.7473 64.1338 30.0646 64.1538 30.3537C64.1737 30.9337 64.0948 31.3915 63.9979 31.5675C64.0378 31.6998 64.0985 31.8256 64.1854 31.9122C64.2951 32.018 64.3983 32.2241 64.4889 32.4576C64.5315 32.5761 64.5759 32.6992 64.6049 32.8169C64.6348 32.9373 64.6592 33.0522 64.6801 33.1534C64.6756 33.3832 64.6701 33.6021 64.6683 33.8091C64.5659 33.6623 64.2724 33.2236 64.2298 33.0212C64.2045 32.836 64.1755 32.0837 63.9082 31.6487C63.2922 31.7663 62.7006 31.625 62.1951 31.3806C61.6824 31.1353 61.2611 30.7878 61.0147 30.454C60.983 30.4121 60.9495 30.3647 60.9141 30.3109C60.8761 30.2571 60.8344 30.2005 60.7918 30.1367C60.7067 30.0108 60.6143 29.8686 60.5182 29.7154C60.472 29.6378 60.4231 29.5585 60.3733 29.4774C60.3216 29.3962 60.2664 29.3132 60.2129 29.2311C60.1051 29.0597 59.9982 28.8855 59.8968 28.7131C59.7881 28.5408 59.6793 28.3694 59.5806 28.2034C59.4845 28.0365 59.3931 27.8733 59.307 27.7237C59.134 27.4228 59.0289 27.161 58.9836 26.9704C58.96 26.8592 58.9029 26.6777 58.8332 26.468C58.7616 26.2573 58.6647 26.0229 58.5859 25.8031C58.5677 25.7475 58.546 25.6919 58.5279 25.6399C58.5089 25.5897 58.488 25.5369 58.4699 25.4894C58.4328 25.391 58.4047 25.3025 58.3838 25.2268C58.3422 25.0745 58.3377 24.9769 58.3965 24.9751Z" fill="#0E082B"/>
<path d="M56.5547 19.9428C56.7033 19.9063 56.9325 19.9382 57.2052 20.0148C57.4715 20.0942 57.785 20.2154 58.1138 20.3431C58.1972 20.3768 58.2805 20.4088 58.363 20.4416C58.4445 20.4763 58.5278 20.51 58.6085 20.5428C58.7742 20.6094 58.9364 20.6714 59.0995 20.7298C59.2598 20.7891 59.4166 20.8392 59.566 20.8757C59.7119 20.9131 59.8496 20.9395 59.9764 20.9486C60.4838 20.9824 60.7347 21.0225 61.0128 21.1803C61.1541 21.2578 61.29 21.3681 61.4721 21.5232C61.5636 21.6007 61.6642 21.6928 61.781 21.7958C61.839 21.8478 61.8997 21.9025 61.9668 21.9618C62.0302 22.0229 62.0972 22.0886 62.1715 22.1551C62.2983 22.2755 62.4161 22.405 62.5248 22.5363C62.5792 22.6011 62.6308 22.6695 62.6807 22.7361C62.7296 22.8035 62.7721 22.8719 62.8138 22.9403C62.8981 23.078 62.9733 23.2167 63.0421 23.3516C63.1083 23.4902 63.168 23.6225 63.2106 23.752C63.2994 24.0119 63.3574 24.2508 63.3882 24.4459C63.4054 24.5444 63.4099 24.6338 63.409 24.7068C63.409 24.7815 63.4045 24.8417 63.3945 24.8882C63.4661 25.0013 63.5585 25.1007 63.6636 25.1582C63.7261 25.191 63.7949 25.2503 63.8674 25.3223C63.9046 25.3588 63.9426 25.4007 63.9779 25.4427C64.0133 25.4865 64.0495 25.533 64.083 25.5804C64.2216 25.7719 64.353 25.9917 64.4472 26.1659C64.5134 26.372 64.555 26.5744 64.6076 26.7632C64.5423 26.7085 64.4146 26.5972 64.295 26.4814C64.1754 26.3628 64.0477 26.2397 63.9997 26.1522C63.9571 26.0701 63.8828 25.8613 63.7768 25.6306C63.7515 25.574 63.7243 25.5147 63.6917 25.4555C63.6591 25.3962 63.6237 25.3387 63.5848 25.2831C63.5096 25.1709 63.428 25.0651 63.3347 24.984C62.8111 25.2348 62.2322 25.2466 61.7104 25.1454C61.5781 25.119 61.4522 25.0861 61.329 25.0469C61.2076 25.0068 61.0853 24.9639 60.972 24.9138C60.7465 24.818 60.5481 24.7013 60.3886 24.58C60.3089 24.5171 60.2174 24.4332 60.1051 24.3374C59.9936 24.2417 59.8695 24.1304 59.7382 24.0091C59.6748 23.9489 59.6086 23.886 59.5416 23.8203C59.5072 23.7893 59.4718 23.7547 59.4392 23.7228C59.403 23.689 59.3677 23.6553 59.3296 23.6225C59.1856 23.4875 59.0397 23.3498 58.8993 23.2094C58.7598 23.0689 58.613 22.9303 58.4762 22.7935C58.3421 22.6585 58.2135 22.5236 58.1011 22.3977C57.8647 22.1469 57.6862 21.9226 57.6065 21.7429C57.5594 21.6408 57.4525 21.4785 57.3347 21.2924C57.2731 21.2013 57.2079 21.1009 57.1427 21.0006C57.0765 20.8994 57.0031 20.7991 56.9379 20.7015C56.802 20.5082 56.6879 20.3212 56.61 20.1844C56.5321 20.0476 56.5013 19.9555 56.5547 19.9428Z" fill="#0E082B"/>
<path d="M53.5199 15.1201C53.6503 15.0635 53.8677 15.0653 54.1386 15.0973C54.2727 15.1137 54.4194 15.1365 54.5753 15.1666C54.7293 15.1976 54.8896 15.2331 55.0554 15.2696C55.3825 15.3435 55.7322 15.421 56.0529 15.4775C56.3708 15.5359 56.6689 15.5678 56.909 15.5395C57.3873 15.4839 57.6301 15.4775 57.9127 15.5787C58.055 15.6289 58.209 15.7037 58.4119 15.8149C58.5116 15.8724 58.6284 15.9353 58.7553 16.0101C58.8821 16.0876 59.0252 16.1733 59.191 16.2727C59.3351 16.3594 59.4718 16.456 59.6032 16.5564C59.7309 16.6576 59.8478 16.7661 59.9574 16.8755C60.174 17.0953 60.3678 17.3205 60.5073 17.5431C60.6505 17.7628 60.761 17.9699 60.8362 18.1431C60.9114 18.3164 60.944 18.4596 60.9476 18.548C61.0446 18.6328 61.1505 18.7067 61.2611 18.735C61.3263 18.7523 61.4042 18.7915 61.4866 18.8426C61.5709 18.8955 61.6633 18.9593 61.7476 19.0314C61.9215 19.1764 62.0954 19.3469 62.2241 19.4846C62.2775 19.573 62.3319 19.6579 62.3817 19.7427C62.4297 19.8275 62.4777 19.9105 62.5248 19.9907C62.4524 19.9552 62.3092 19.8831 62.1697 19.8029C62.0248 19.7253 61.8807 19.6396 61.8155 19.5703C61.7566 19.5074 61.6379 19.3323 61.4839 19.1435C61.329 18.9557 61.1252 18.7596 60.9177 18.6456C60.5046 18.9876 59.9792 19.1198 59.4773 19.1326C58.9763 19.1417 58.4781 19.0387 58.1284 18.8699C58.0387 18.828 57.93 18.7687 57.8086 18.6985C57.6845 18.6292 57.5404 18.548 57.3909 18.4596C57.2405 18.3675 57.0829 18.2699 56.9226 18.1687C56.7595 18.0674 56.5883 17.9617 56.4216 17.8568C56.254 17.7501 56.0963 17.6388 55.9369 17.5321C55.7784 17.4273 55.628 17.3224 55.4921 17.2202C55.2239 17.0178 55.0002 16.8345 54.8842 16.6795C54.8163 16.5901 54.6885 16.4496 54.5354 16.2891C54.3796 16.1323 54.1993 15.9572 54.0362 15.7876C53.9955 15.7447 53.9556 15.7037 53.9167 15.6636C53.8777 15.6253 53.8388 15.586 53.8025 15.5468C53.7301 15.473 53.6666 15.4046 53.6168 15.3453C53.5181 15.224 53.4709 15.1401 53.5199 15.1201Z" fill="#0E082B"/>
<path d="M49.5291 10.6649C49.7583 10.5308 50.3454 10.5664 50.9904 10.6202C51.6255 10.6758 52.3294 10.7433 52.7579 10.6311C53.1909 10.5171 53.4119 10.4779 53.6955 10.5308C53.9818 10.5773 54.3134 10.7242 54.9983 10.9859C55.5934 11.2266 56.0971 11.5969 56.4432 11.9562C56.7992 12.3091 57.0031 12.6465 57.0456 12.8079C57.1507 12.87 57.2631 12.9183 57.37 12.9274C57.6309 12.9438 58.1119 13.2402 58.4055 13.4463C58.4725 13.5156 58.5377 13.5849 58.6021 13.6533C58.6646 13.7217 58.7271 13.7883 58.786 13.853C58.7135 13.8357 58.5658 13.7947 58.42 13.7482C58.2723 13.7026 58.1237 13.6487 58.0494 13.5968C57.9126 13.5028 57.4742 13.0368 57.0375 12.9037C56.7277 13.2876 56.2729 13.4992 55.8118 13.5941C55.579 13.6406 55.347 13.6579 55.1251 13.6506C54.9067 13.6433 54.6948 13.6159 54.5127 13.5639C54.3297 13.5138 54.0615 13.4117 53.7499 13.2876C53.431 13.1663 53.0804 13.0168 52.7307 12.8618C52.3765 12.7113 52.0359 12.5471 51.7432 12.3939C51.4497 12.2425 51.2114 12.0948 51.0765 11.9626C50.9985 11.886 50.8482 11.7729 50.6769 11.6443C50.5057 11.5139 50.31 11.3689 50.1261 11.233C49.7547 10.9613 49.4494 10.715 49.5291 10.6649Z" fill="#0E082B"/>
<path d="M44.8102 6.66873C45.004 6.51917 45.5557 6.49547 46.1618 6.47267C46.7652 6.45443 47.4165 6.4453 47.8052 6.28663C48.1902 6.1316 48.3868 6.07233 48.6559 6.08692C48.9231 6.10151 49.2619 6.18814 49.9251 6.35502C50.5139 6.49546 51.0194 6.78363 51.4027 7.06086C51.7795 7.34265 52.0232 7.6217 52.0884 7.76305C52.1962 7.805 52.3077 7.83418 52.4064 7.82871C52.6438 7.81321 53.1384 8.01202 53.4419 8.15885C53.5878 8.2701 53.7255 8.37771 53.8559 8.47894C53.7155 8.46617 53.2951 8.4224 53.142 8.34762C52.9998 8.28379 52.516 7.92173 52.0975 7.8506C51.8755 8.24638 51.4932 8.50446 51.0801 8.65311C50.667 8.80358 50.2249 8.84371 49.8771 8.79081C49.6995 8.76802 49.4295 8.71148 49.1206 8.63396C48.9666 8.59566 48.7999 8.55098 48.6305 8.50447C48.4584 8.4607 48.2826 8.41054 48.1069 8.36038C47.932 8.30931 47.759 8.25551 47.595 8.20079C47.4265 8.14607 47.2643 8.09318 47.1176 8.03846C46.8213 7.92994 46.5822 7.81323 46.4336 7.712C46.3466 7.65181 46.1944 7.55971 46.015 7.45757C45.8366 7.35452 45.6364 7.23961 45.4425 7.13474C45.0611 6.92043 44.7413 6.72253 44.8102 6.66873Z" fill="#0E082B"/>
<path d="M42.0046 0.0538502C42.0662 0.0274038 42.145 0.0110068 42.2392 0.00371122C42.3334 -0.0044961 42.4403 0.00187206 42.5608 0.0109916C42.6804 0.021935 42.8118 0.0383534 42.9504 0.0602403C43.0192 0.0739193 43.0908 0.0848765 43.1651 0.0976439C43.2358 0.113147 43.3082 0.127737 43.3834 0.142328C43.6788 0.205252 43.9922 0.270913 44.2794 0.325629C44.5666 0.378522 44.8447 0.4077 45.0621 0.389461C45.5024 0.350247 45.7244 0.352976 45.9853 0.450554C46.1157 0.50071 46.2525 0.57641 46.431 0.686755C46.5207 0.743295 46.624 0.805296 46.7354 0.880987C46.8486 0.959414 46.9764 1.04606 47.1204 1.14364C47.1856 1.18832 47.2499 1.2321 47.3079 1.28043C47.3677 1.32785 47.4239 1.378 47.4792 1.42815C47.5906 1.52938 47.6948 1.63516 47.7872 1.74459C47.8796 1.85311 47.9629 1.96347 48.0372 2.07199C48.0743 2.12853 48.1115 2.18416 48.145 2.23797C48.1776 2.28995 48.2084 2.34649 48.2356 2.39938C48.4675 2.82617 48.5527 3.20005 48.5445 3.35964C48.6261 3.44901 48.7121 3.52654 48.8109 3.56302C48.925 3.60953 49.0799 3.73536 49.2267 3.884C49.3698 4.03812 49.5112 4.21505 49.6117 4.35549C49.6851 4.5315 49.7567 4.70021 49.8228 4.85889C49.6969 4.77499 49.3255 4.52966 49.2249 4.38922C49.176 4.32448 49.089 4.15121 48.9685 3.96244C48.8471 3.77458 48.684 3.57214 48.5074 3.44903C48.2963 3.58764 48.0662 3.67519 47.8306 3.72261C47.596 3.77277 47.355 3.78369 47.1204 3.77001C46.8867 3.75542 46.6602 3.7153 46.4573 3.65602C46.4056 3.64143 46.3558 3.62592 46.3078 3.60951C46.258 3.59309 46.209 3.57487 46.1637 3.55754C46.0713 3.52107 45.9871 3.48002 45.9101 3.43625C45.8322 3.3943 45.7398 3.33412 45.6329 3.2639C45.525 3.19551 45.4037 3.11434 45.2777 3.0277C45.2134 2.98302 45.1491 2.93742 45.0802 2.89091C45.0132 2.8444 44.9425 2.79697 44.8728 2.74864C44.7324 2.65289 44.5929 2.54893 44.4479 2.45135C44.303 2.35195 44.1671 2.25072 44.0321 2.15405C43.8971 2.05648 43.7675 1.96256 43.6543 1.86954C43.5402 1.77926 43.4314 1.69444 43.3454 1.61328C43.2593 1.53394 43.1923 1.45461 43.1443 1.38986C43.0863 1.31143 42.9794 1.18924 42.8535 1.05244C42.7248 0.914741 42.5708 0.764272 42.4349 0.621098C42.2954 0.480659 42.1631 0.349328 42.0825 0.245367C42.0617 0.221656 42.0444 0.197033 42.0309 0.176058C42.0155 0.15326 42.0046 0.136857 41.9973 0.11953C41.9829 0.0867 41.9838 0.0647936 42.0046 0.0538502Z" fill="#0E082B"/>
<g clip-path="url(#clip0_569_76439)">
<path d="M36.5606 19.9184C36.3356 19.4482 35.86 19.1489 35.3376 19.1489C34.8153 19.1489 34.3439 19.4482 34.1146 19.9184L31.3841 25.5738L25.286 26.4801C24.7764 26.557 24.3518 26.9161 24.1946 27.4077C24.0375 27.8993 24.1649 28.4422 24.5301 28.8055L28.955 33.2128L27.9104 39.441C27.8254 39.954 28.0378 40.4755 28.4582 40.779C28.8786 41.0825 29.4349 41.121 29.8935 40.8774L35.3419 37.9492L40.7902 40.8774C41.2488 41.121 41.8051 41.0868 42.2256 40.779C42.646 40.4713 42.8583 39.954 42.7734 39.441L41.7245 33.2128L46.1494 28.8055C46.5146 28.4422 46.6462 27.8993 46.4849 27.4077C46.3235 26.9161 45.9031 26.557 45.3935 26.4801L39.2912 25.5738L36.5606 19.9184Z" fill="#FFAD0F"/>
</g>
<defs>
<clipPath id="clip0_569_76439">
<rect width="24.4602" height="21.8866" fill="white" transform="translate(23.1012 19.1489)"/>
</clipPath>
</defs>
</svg>
