<svg width="82" height="29" viewBox="0 0 82 29" fill="none" xmlns="http://www.w3.org/2000/svg">
<g clip-path="url(#clip0_569_76486)">
<path d="M12.6802 14.1057H16.2065V19.0393C15.1062 19.3915 13.717 19.5846 12.2728 19.5846C6.41996 19.5846 2.98004 14.5921 2.98004 9.71632C2.98004 4.93419 6.09151 1.57982 10.4324 1.57982C13.1793 1.57982 14.7776 2.50676 16.2075 3.79796V5.4076L18.8887 2.73687C17.1928 1.59398 14.7372 0.507812 11.2272 0.507812C3.52198 0.507812 0 5.99878 0 10.5113C0 16.9345 4.69673 20.8038 10.5989 20.8038C13.4608 20.8038 16.0018 20.3687 18.937 19.5552V14.458C18.937 14.1973 19.0519 14.0185 19.2238 13.8615L20.15 12.9389H13.8604L12.6802 14.1057Z" fill="url(#paint0_linear_569_76486)"/>
<path d="M28.4779 7.40137C24.0429 7.40137 21.2949 10.6295 21.2949 14.0559C21.2949 17.0135 23.5087 20.5249 27.994 20.5249C32.3087 20.5249 34.9559 17.2905 34.9559 13.8041C34.9559 10.5564 32.3689 7.40257 28.4779 7.40257V7.40137ZM27.7421 8.34252C30.869 8.34252 32.2615 12.4004 32.2615 15.2947C32.2615 19.5991 29.0198 19.6841 28.6322 19.6841C27.1488 19.6841 26.1119 18.7911 25.3358 17.6197C24.6527 16.5402 23.9848 14.5346 23.9848 12.5749C23.9848 10.6228 24.6263 9.6697 25.6358 8.96848C26.4613 8.44284 27.2342 8.34252 27.741 8.34252H27.7421Z" fill="url(#paint1_linear_569_76486)"/>
<path d="M57.4693 7.3999C53.5958 7.3999 51.5003 9.84273 51.5003 12.5702C51.5003 14.6466 52.9936 16.989 56.0744 16.989H56.8538C56.8538 16.989 56.6416 17.5027 56.6405 17.9989C56.6405 18.7307 56.9043 19.1417 57.4647 19.7742C52.1637 20.096 50.0332 22.2258 50.0332 24.5148C50.0332 26.5194 51.9602 28.4921 56.0097 28.4921C60.8039 28.4921 63.2869 25.8409 63.2869 23.239C63.2869 21.4047 62.3695 20.3992 60.0463 18.6653C59.3631 18.1364 59.2307 17.7995 59.2307 17.4037C59.2307 16.8366 59.5711 16.4613 59.6959 16.3196C59.916 16.0884 60.297 15.8245 60.4393 15.698C61.2199 15.0394 62.3224 14.0645 62.3224 12.1189C62.3224 10.7841 61.765 9.63574 60.4952 8.56046H62.0454L63.2103 7.40014H57.4693V7.3999ZM56.4008 8.26797C57.1037 8.26797 57.6904 8.51554 58.3101 9.02919C58.9975 9.64643 60.0958 11.3051 60.0958 13.3575C60.0958 15.5724 58.3682 16.1787 57.4332 16.1787C56.9756 16.1787 56.4272 16.0512 55.9629 15.7349C54.9316 15.0687 53.9078 13.2954 53.9078 11.1852C53.9078 9.28108 55.0464 8.26797 56.4008 8.26797ZM57.9346 20.6151C58.2301 20.6151 58.4426 20.6392 58.4426 20.6392C58.4426 20.6392 59.14 21.1354 59.6272 21.506C60.7614 22.3992 61.4686 23.0819 61.4686 24.2979C61.4686 25.9697 59.9117 27.2805 57.3904 27.2805C54.6228 27.2805 52.5076 25.997 52.5076 23.9011C52.5076 22.1648 53.9571 20.6706 57.9346 20.6151Z" fill="url(#paint2_linear_569_76486)"/>
<path d="M64.0481 20.1416H69.3656L70.1756 19.3347L68.6506 19.145C68.24 19.0948 67.996 18.7415 67.996 18.399V2.39974C67.996 2.08457 68.1427 1.92317 68.2499 1.82055L69.209 0.865234H64.6743L63.4941 2.04084H65.2568V18.6138C65.2568 18.8493 65.1823 19.0096 65.0225 19.1743L64.0481 20.1416Z" fill="url(#paint3_linear_569_76486)"/>
<path d="M76.5705 7.40137C73.6014 7.40137 70.4473 9.65551 70.4473 13.7025C70.4473 17.0449 72.7102 20.5249 76.9384 20.5249C77.9927 20.5249 78.8609 20.3898 79.6743 20.0179C80.5469 19.6177 81.3866 18.9677 81.9996 18.1509C80.8425 18.7322 79.8987 19.1139 78.6451 19.1139C76.2628 19.1139 73.9658 17.4017 73.1623 14.2544L81.5781 10.8661C81.092 9.13979 79.7213 7.40137 76.5716 7.40137H76.5705ZM76.0208 8.32723C77.6139 8.32723 78.7655 9.63262 78.7655 10.6545C78.7655 10.9849 78.5576 11.1594 78.1458 11.3208L72.9729 13.4048C72.9729 13.4048 72.8329 12.7559 72.8329 12.0547C72.8329 9.11353 74.9677 8.32723 76.0208 8.32723Z" fill="url(#paint4_linear_569_76486)"/>
<path d="M43.5268 7.40137C39.0917 7.40137 36.3438 10.6295 36.3438 14.0559C36.3438 17.0135 38.5576 20.5249 43.0429 20.5249C47.3575 20.5249 50.0047 17.2905 50.0047 13.8041C50.0047 10.5564 47.4177 7.40257 43.5268 7.40257V7.40137ZM42.791 8.34252C45.9179 8.34252 47.3103 12.4004 47.3103 15.2947C47.3103 19.5991 44.0686 19.6841 43.681 19.6841C42.1976 19.6841 41.1608 18.7911 40.3847 17.6197C39.7015 16.5402 39.0337 14.5346 39.0337 12.5749C39.0337 10.6228 39.6751 9.6697 40.6847 8.96848C41.5101 8.44284 42.2831 8.34252 42.7899 8.34252H42.791Z" fill="url(#paint5_linear_569_76486)"/>
</g>
<defs>
<linearGradient id="paint0_linear_569_76486" x1="10.0249" y1="0.45036" x2="10.0249" y2="20.8028" gradientUnits="userSpaceOnUse">
<stop stop-color="#196EEF"/>
<stop offset="0.5" stop-color="#186DEE"/>
<stop offset="1" stop-color="#1065E7"/>
</linearGradient>
<linearGradient id="paint1_linear_569_76486" x1="28.0757" y1="7.37028" x2="28.0757" y2="20.5305" gradientUnits="userSpaceOnUse">
<stop stop-color="#DE5744"/>
<stop offset="0.5" stop-color="#DB4632"/>
<stop offset="1" stop-color="#D13D29"/>
</linearGradient>
<linearGradient id="paint2_linear_569_76486" x1="56.6114" y1="7.36991" x2="56.6114" y2="28.5002" gradientUnits="userSpaceOnUse">
<stop stop-color="#1A6FEF"/>
<stop offset="0.25" stop-color="#1E72EF"/>
<stop offset="0.5" stop-color="#166BEC"/>
<stop offset="0.75" stop-color="#1267E9"/>
<stop offset="1" stop-color="#1063E5" stop-opacity="0.87"/>
</linearGradient>
<linearGradient id="paint3_linear_569_76486" x1="66.7864" y1="0.819861" x2="66.7864" y2="20.1602" gradientUnits="userSpaceOnUse">
<stop stop-color="#0AA561"/>
<stop offset="0.5" stop-color="#009B58"/>
<stop offset="1" stop-color="#00914B"/>
</linearGradient>
<linearGradient id="paint4_linear_569_76486" x1="76.1752" y1="7.37028" x2="76.1752" y2="20.4942" gradientUnits="userSpaceOnUse">
<stop stop-color="#DE5644"/>
<stop offset="0.5" stop-color="#DA4531"/>
<stop offset="1" stop-color="#CE3A28"/>
</linearGradient>
<linearGradient id="paint5_linear_569_76486" x1="43.1249" y1="7.39886" x2="43.1249" y2="20.5044" gradientUnits="userSpaceOnUse">
<stop stop-color="#FFC01A"/>
<stop offset="0.5" stop-color="#FFBA03"/>
<stop offset="1" stop-color="#FFB300"/>
</linearGradient>
<clipPath id="clip0_569_76486">
<rect width="82" height="28" fill="white" transform="translate(0 0.5)"/>
</clipPath>
</defs>
</svg>
