<svg width="44" height="44" viewBox="0 0 44 44" fill="none" xmlns="http://www.w3.org/2000/svg">
<path d="M20.5176 28.8882C20.5176 27.2748 20.0959 25.92 19.2526 24.8237C18.6549 24.0683 17.844 23.5721 16.8198 23.335C15.8114 23.1003 14.8581 23.0838 13.9964 23.2837C13.7031 21.542 14.1798 19.6977 15.3898 17.7433C16.6022 15.7902 18.1654 14.3217 20.0794 13.3378L17.1809 9.16699C15.7143 9.89299 14.3209 10.8133 13.0376 11.9262C11.7359 13.039 10.5809 14.3187 9.55426 15.7652C8.5276 17.2117 7.7576 18.8452 7.2626 20.6968C6.7676 22.5485 6.6301 24.4368 6.8666 26.3802C7.1746 28.9468 8.00326 31.0002 9.3526 32.5218C10.7007 34.063 12.38 34.8337 14.3906 34.8337C16.1598 34.8337 17.6283 34.302 18.7906 33.224C19.9407 32.168 20.5152 30.7209 20.5139 28.8827L20.5176 28.8882ZM37.2449 28.8882C37.2449 27.2748 36.8233 25.92 35.9799 24.8237C35.381 24.0537 34.5701 23.5544 33.5471 23.3258C32.5204 23.0997 31.5793 23.0863 30.7238 23.2855C30.4304 21.5622 30.8888 19.7105 32.1024 17.7488C33.3124 15.8055 34.8744 14.3388 36.7884 13.3488L33.8973 9.16699C32.4294 9.89299 31.0483 10.8127 29.7539 11.9262C28.4405 13.0556 27.274 14.3454 26.2816 15.7652C25.2623 17.2135 24.5033 18.8452 24.0083 20.6968C23.5054 22.5471 23.3703 24.4779 23.6104 26.3802C23.9148 28.9468 24.7398 31.0002 26.0854 32.5218C27.4299 34.052 29.1062 34.8172 31.1143 34.8172C32.8865 34.8196 34.3544 34.2837 35.5179 33.2093C36.668 32.1533 37.2437 30.7062 37.2449 28.868V28.8882Z" fill="#FBBC05"/>
</svg>
