<svg width="1440" height="898" viewBox="0 0 1440 898" fill="none" xmlns="http://www.w3.org/2000/svg">
<mask id="mask0_504_21043" style="mask-type:alpha" maskUnits="userSpaceOnUse" x="0" y="0" width="1440" height="898">
<rect width="1440" height="898" fill="url(#paint0_linear_504_21043)"/>
</mask>
<g mask="url(#mask0_504_21043)">
<rect width="1440" height="898" fill="#EDEEF3"/>
<rect width="1440" height="898" fill="url(#paint1_linear_504_21043)"/>
<path fill-rule="evenodd" clip-rule="evenodd" d="M1186.2 -698.74C1275.84 -764.304 1388.78 -761.799 1493.48 -754.015C1593.73 -746.562 1683.11 -688.987 1779.45 -654.633C1889.27 -615.469 2024.78 -635.767 2104.2 -536.229C2182.95 -437.54 2187.28 -280.152 2187.44 -143.284C2187.6 -19.5992 2126.54 88.3791 2105.11 209.308C2083.95 328.749 2120.48 468.017 2061.55 567.31C2002.7 666.463 1876.38 659.767 1794.89 731.97C1695.45 820.082 1652.79 1011.48 1531.2 1037.24C1414.72 1061.92 1307.36 944.005 1214.96 854.843C1132.46 775.238 1102.69 642.349 1028.25 551.928C945.835 451.82 806.148 422.184 754.564 295.603C703.108 169.337 707.323 7.81495 754.028 -120.982C800.077 -247.974 928.852 -294.409 1005.83 -397.317C1075.52 -490.487 1097.23 -633.659 1186.2 -698.74Z" fill="#BEE5FD"/>
</g>
<defs>
<linearGradient id="paint0_linear_504_21043" x1="720" y1="170.171" x2="720" y2="898" gradientUnits="userSpaceOnUse">
<stop stop-color="#DDEDF9" stop-opacity="0"/>
<stop offset="1" stop-color="#DDEDF9"/>
</linearGradient>
<linearGradient id="paint1_linear_504_21043" x1="720" y1="170.171" x2="720" y2="898" gradientUnits="userSpaceOnUse">
<stop stop-color="#DDEDF9" stop-opacity="0"/>
<stop offset="1" stop-color="#DDEDF9"/>
</linearGradient>
</defs>
</svg>
