<svg width="40" height="40" viewBox="0 0 40 40" fill="none" xmlns="http://www.w3.org/2000/svg">
<path d="M20 31.6667V8.33333M20 31.6667L16.5883 35M20 31.6667L23.4117 35M20 8.33333L16.5883 5M20 8.33333L23.4117 5M9.66 25.8333L30.34 14.1667M9.66 25.8333L5 24.6133M9.66 25.8333L8.41 30.3867M30.34 14.1667L31.5883 9.61333M30.34 14.1667L35 15.3867M35 24.6133L30.34 25.8333M30.34 25.8333L31.59 30.3867M30.34 25.8333L9.66 14.1667M8.41167 9.61333L9.66 14.1667M9.66 14.1667L5 15.3867" stroke="#101010" stroke-width="2.5" stroke-linecap="round" stroke-linejoin="round"/>
</svg>
