<svg width="21" height="20" viewBox="0 0 21 20" fill="none" xmlns="http://www.w3.org/2000/svg">
<mask id="mask0_588_214" style="mask-type:luminance" maskUnits="userSpaceOnUse" x="0" y="0" width="21" height="20">
<path d="M20.0455 8.18182H10.7273V12.0455H16.0909C15.5909 14.5 13.5 15.9091 10.7273 15.9091C7.45457 15.9091 4.8182 13.2727 4.8182 10C4.8182 6.72727 7.45457 4.09091 10.7273 4.09091C12.1364 4.09091 13.4091 4.59092 14.4091 5.4091L17.3182 2.5C15.5455 0.954545 13.2727 0 10.7273 0C5.18184 0 0.727295 4.45455 0.727295 10C0.727295 15.5455 5.18184 20 10.7273 20C15.7273 20 20.2727 16.3636 20.2727 10C20.2727 9.40909 20.1818 8.77273 20.0455 8.18182Z" fill="white"/>
</mask>
<g mask="url(#mask0_588_214)">
<path d="M-0.182007 15.9105V4.09229L7.54526 10.0014L-0.182007 15.9105Z" fill="#FBBC05"/>
</g>
<mask id="mask1_588_214" style="mask-type:luminance" maskUnits="userSpaceOnUse" x="0" y="0" width="21" height="20">
<path d="M20.0455 8.18182H10.7273V12.0455H16.0909C15.5909 14.5 13.5 15.9091 10.7273 15.9091C7.45457 15.9091 4.8182 13.2727 4.8182 10C4.8182 6.72727 7.45457 4.09091 10.7273 4.09091C12.1364 4.09091 13.4091 4.59092 14.4091 5.4091L17.3182 2.5C15.5455 0.954545 13.2727 0 10.7273 0C5.18184 0 0.727295 4.45455 0.727295 10C0.727295 15.5455 5.18184 20 10.7273 20C15.7273 20 20.2727 16.3636 20.2727 10C20.2727 9.40909 20.1818 8.77273 20.0455 8.18182Z" fill="white"/>
</mask>
<g mask="url(#mask1_588_214)">
<path d="M-0.182007 4.09228L7.54526 10.0014L10.7271 7.22866L21.6362 5.45592V-0.907715H-0.182007V4.09228Z" fill="#EA4335"/>
</g>
<mask id="mask2_588_214" style="mask-type:luminance" maskUnits="userSpaceOnUse" x="0" y="0" width="21" height="20">
<path d="M20.0455 8.18182H10.7273V12.0455H16.0909C15.5909 14.5 13.5 15.9091 10.7273 15.9091C7.45457 15.9091 4.8182 13.2727 4.8182 10C4.8182 6.72727 7.45457 4.09091 10.7273 4.09091C12.1364 4.09091 13.4091 4.59092 14.4091 5.4091L17.3182 2.5C15.5455 0.954545 13.2727 0 10.7273 0C5.18184 0 0.727295 4.45455 0.727295 10C0.727295 15.5455 5.18184 20 10.7273 20C15.7273 20 20.2727 16.3636 20.2727 10C20.2727 9.40909 20.1818 8.77273 20.0455 8.18182Z" fill="white"/>
</mask>
<g mask="url(#mask2_588_214)">
<path d="M-0.182007 15.9105L13.4544 5.45592L17.0453 5.91047L21.6362 -0.907715V20.9105H-0.182007V15.9105Z" fill="#34A853"/>
</g>
<mask id="mask3_588_214" style="mask-type:luminance" maskUnits="userSpaceOnUse" x="0" y="0" width="21" height="20">
<path d="M20.0455 8.18182H10.7273V12.0455H16.0909C15.5909 14.5 13.5 15.9091 10.7273 15.9091C7.45457 15.9091 4.8182 13.2727 4.8182 10C4.8182 6.72727 7.45457 4.09091 10.7273 4.09091C12.1364 4.09091 13.4091 4.59092 14.4091 5.4091L17.3182 2.5C15.5455 0.954545 13.2727 0 10.7273 0C5.18184 0 0.727295 4.45455 0.727295 10C0.727295 15.5455 5.18184 20 10.7273 20C15.7273 20 20.2727 16.3636 20.2727 10C20.2727 9.40909 20.1818 8.77273 20.0455 8.18182Z" fill="white"/>
</mask>
<g mask="url(#mask3_588_214)">
<path d="M21.6364 20.9105L7.54548 10.0014L5.72729 8.63774L21.6364 4.09229V20.9105Z" fill="#4285F4"/>
</g>
</svg>
