<svg width="942" height="1022" viewBox="0 0 942 1022" fill="none" xmlns="http://www.w3.org/2000/svg">
<path d="M878.131 746.019C913.224 680.516 933.132 605.655 933.132 526.151C933.132 296.419 766.962 105.496 548.262 67.0317" stroke="white" stroke-opacity="0.05" stroke-width="17.6043" stroke-miterlimit="10" stroke-linecap="round" stroke-linejoin="round"/>
<path d="M682.358 939.693C707.432 926.608 731.17 911.303 753.308 894.05" stroke="white" stroke-opacity="0.05" stroke-width="17.6043" stroke-miterlimit="10" stroke-linecap="round" stroke-linejoin="round"/>
<path d="M64.7539 762.057C110.171 839.316 177.218 902.34 257.567 942.8" stroke="white" stroke-opacity="0.05" stroke-width="17.6043" stroke-miterlimit="10" stroke-linecap="round" stroke-linejoin="round"/>
<path d="M374.882 69.0435C161.501 111.773 0.738281 300.184 0.738281 526.151C0.738281 559.409 4.22262 591.855 10.8453 623.141" stroke="white" stroke-opacity="0.05" stroke-width="17.6043" stroke-miterlimit="10" stroke-linecap="round" stroke-linejoin="round"/>
<path d="M376.369 26.4265L374.647 76.2451C372.507 138.327 336.03 195.075 279.017 219.747C274.245 221.815 269.489 224.124 264.774 226.57C260.485 226.989 178.84 236.742 127.38 376.831C74.5193 520.735 -10.6498 616.679 1.09882 689.118C12.1473 757.228 254.216 874.319 283.105 888.063C271.396 919.02 254.892 950.918 232.457 983.822M923.724 963.27C923.724 963.27 822.026 448.313 751.672 265.18C737.018 227.029 695.753 204.996 655.229 199.685C624.699 195.686 599.503 187.076 579.289 177.331C562.351 127.255 546.723 69.1556 534.959 0M664.177 1022.01C664.177 1022.01 710.471 875.526 688.374 688.611C737.364 845.157 790.458 1010.26 790.458 1010.26M173.827 668.453C173.827 668.453 222.141 626.762 258.014 551.515C287.345 623.801 313.088 702.935 305.612 790.252L173.827 668.453Z" stroke="white" stroke-opacity="0.05" stroke-width="17.6043" stroke-miterlimit="10" stroke-linecap="round" stroke-linejoin="round"/>
<path d="M499.762 543.323C475.339 542.309 454.699 561.404 452.687 585.907C450.699 610.41 467.968 632.604 492.238 635.565C516.475 638.527 538.717 619.56 540.866 593.109C543.038 566.651 524.16 544.337 499.762 543.323Z" fill="white" fill-opacity="0.05"/>
<path d="M500.141 535.065C519.011 535.943 535.073 520.171 535.387 499.804C535.709 479.437 520.154 463.15 501.26 463.439C482.349 463.729 467.253 479.533 466.948 498.733C466.658 517.925 481.255 534.18 500.141 535.065Z" fill="white" fill-opacity="0.05"/>
<path d="M501.109 452.312C516.47 452.086 528.726 438.543 528.066 422.063C527.414 405.583 514.121 393.03 498.791 394.035C483.454 395.033 471.834 408.568 472.453 424.276C473.081 439.976 485.731 452.537 501.109 452.312Z" fill="white" fill-opacity="0.05"/>
<path d="M498.194 384.796C510.772 383.983 520.267 372.412 519.117 358.965C517.974 345.511 506.652 335.701 494.123 337.037C481.577 338.365 472.525 349.921 473.619 362.852C474.721 375.775 485.601 385.609 498.194 384.796Z" fill="white" fill-opacity="0.05"/>
<path d="M474.125 312.578C475.316 322.299 483.789 329.38 493.196 328.374C502.595 327.369 509.346 318.428 508.115 308.41C506.892 298.392 498.177 291.334 488.811 292.63C479.444 293.933 472.934 302.858 474.125 312.578Z" fill="white" fill-opacity="0.05"/>
<path d="M471.247 270.919C472.494 279.022 479.753 284.712 487.558 283.617C495.364 282.523 500.739 274.886 499.46 266.582C498.18 258.277 490.761 252.604 482.987 253.9C475.206 255.195 470 262.816 471.247 270.919Z" fill="white" fill-opacity="0.05"/>
<path d="M481.165 243.187C487.378 242.125 491.498 235.889 490.291 229.282C489.084 222.676 483.04 218.29 476.844 219.489C470.656 220.688 466.649 226.9 467.824 233.378C469.014 239.856 474.953 244.258 481.165 243.187Z" fill="white" fill-opacity="0.05"/>
<path d="M474.445 207.256C479.949 206.154 483.458 200.521 482.234 194.655C481.011 188.796 475.531 185.023 470.051 186.222C464.571 187.421 461.143 193.054 462.342 198.807C463.549 204.569 468.941 208.351 474.445 207.256Z" fill="white" fill-opacity="0.05"/>
<path d="M467.341 174.032C470.415 173.34 472.306 170.121 471.55 166.854C470.793 163.587 467.679 161.527 464.613 162.251C461.547 162.976 459.68 166.186 460.429 169.421C461.177 172.672 464.267 174.724 467.341 174.032Z" fill="white" fill-opacity="0.05"/>
<path d="M490.924 646.606C472.15 644.369 455.083 658.017 452.218 677C449.37 695.991 461.665 714.064 480.27 717.452C498.858 720.84 516.875 707.329 519.901 687.179C522.935 667.038 509.681 648.835 490.924 646.606Z" fill="white" fill-opacity="0.05"/>
<path d="M478.283 728.394C463.155 725.65 448.614 735.958 445.411 751.344C442.225 766.738 451.455 781.995 466.422 785.504C481.381 789.004 496.55 778.808 499.897 762.658C503.261 746.516 493.396 731.138 478.283 728.394Z" fill="white" fill-opacity="0.05"/>
<path d="M464.325 794.517C452.045 791.652 439.693 799.563 436.474 812.132C433.264 824.709 440.305 837.585 452.456 840.964C464.599 844.336 477.377 836.514 480.709 823.438C484.064 810.354 476.605 797.382 464.325 794.517Z" fill="white" fill-opacity="0.05"/>
<path d="M461.581 871.495C464.438 861.814 459.248 851.892 450.139 849.349C441.03 846.814 431.51 852.407 428.734 861.798C425.966 871.197 430.914 881.07 439.943 883.887C448.964 886.711 458.725 881.183 461.581 871.495Z" fill="white" fill-opacity="0.05"/>
<path d="M446.166 911.343C448.789 903.361 444.741 894.952 437.226 892.586C429.71 890.22 421.614 894.646 419.055 902.427C416.497 910.217 420.383 918.585 427.835 921.144C435.286 923.703 443.542 919.334 446.166 911.343Z" fill="white" fill-opacity="0.05"/>
<path d="M424.274 931.414C418.319 929.337 411.737 932.701 409.508 938.897C407.279 945.093 410.208 951.885 416.122 954.082C422.029 956.279 428.716 952.947 430.993 946.622C433.262 940.306 430.229 933.49 424.274 931.414Z" fill="white" fill-opacity="0.05"/>
<path d="M411.742 965.747C406.496 963.759 400.549 966.608 398.417 972.088C396.284 977.568 398.739 983.683 403.953 985.776C409.167 987.86 415.187 985.035 417.359 979.459C419.532 973.882 416.997 967.734 411.742 965.747Z" fill="white" fill-opacity="0.05"/>
<path d="M399.292 997.356C396.371 996.165 392.992 997.694 391.72 1000.76C390.449 1003.83 391.769 1007.3 394.673 1008.53C397.578 1009.75 400.99 1008.23 402.27 1005.13C403.557 1002.02 402.213 998.547 399.292 997.356Z" fill="white" fill-opacity="0.05"/>
<path d="M498.672 248.104L516.657 421.09L651.694 311.482L542.086 446.519L715.071 464.504L542.086 482.489L651.694 617.525L516.657 507.917L498.672 680.903L480.696 507.917L345.659 617.525L455.267 482.489L282.273 464.504L455.267 446.519L345.659 311.482L480.696 421.09L498.672 248.104Z" fill="white" fill-opacity="0.05" stroke="white" stroke-opacity="0.05" stroke-width="17.6043" stroke-miterlimit="10" stroke-linecap="round" stroke-linejoin="round"/>
</svg>
